<svg width="250" height="250" viewBox="0 0 250 250" fill="none" xmlns="http://www.w3.org/2000/svg">
<g clip-path="url(#clip0_2_22773)">
<path d="M64.5881 90.5355C64.5881 90.5355 179.797 87.8132 181.23 91.2133C182.664 94.6135 184.83 122.558 180.508 123.913C176.187 125.269 62.4218 125.958 62.4218 122.547C62.4218 119.136 60.9777 89.8468 64.5773 90.5247L64.5881 90.5355Z" fill="#1C2024"/>
<path d="M78.7278 96.2491C78.7278 96.2491 181.586 94.6243 182.868 96.658C184.151 98.6916 186.08 115.381 182.222 116.198C178.364 117.016 76.7879 117.414 76.7879 115.381C76.7879 113.347 75.5054 95.8402 78.717 96.2491H78.7278Z" fill="white"/>
<path d="M133.756 117.393C118.528 117.393 104.723 117.274 94.8721 117.059C76.2598 116.65 76.2598 116.112 76.2598 115.37C76.2598 115.079 76.2383 114.487 76.1951 113.68C75.8718 106.073 75.7748 98.0461 77.5746 96.1738C78.0381 95.7004 78.4584 95.6681 78.7925 95.7111C79.105 95.7111 118.011 95.087 147.929 95.087C182.524 95.087 183.009 95.851 183.332 96.3567C184.496 98.2075 186.048 110.442 184.162 114.896C183.72 115.929 183.106 116.543 182.34 116.704C180.357 117.124 155.57 117.382 133.756 117.382V117.393ZM77.3375 115.079C79.9349 115.832 101.813 116.317 133.756 116.317C158.285 116.317 180.433 116.015 182.114 115.66C182.513 115.574 182.868 115.176 183.17 114.487C184.862 110.495 183.461 98.9176 182.47 97.0238C181.586 96.6903 175.777 96.163 147.929 96.163C118.022 96.163 79.1266 96.7764 78.7386 96.7764H78.62C78.5877 96.7764 78.4907 96.7764 78.3506 96.9162C76.6262 98.7132 77.1112 109.947 77.2729 113.637C77.2944 114.251 77.316 114.735 77.3268 115.069L77.3375 115.079Z" fill="#1C2024"/>
<path d="M184.011 103.189C184.011 103.189 183.935 103.189 183.903 103.189C178.633 102.135 79.396 102.124 78.3937 102.124C78.092 102.124 77.8549 101.887 77.8549 101.586C77.8549 101.285 78.092 101.048 78.3937 101.048C82.4891 101.048 178.741 101.059 184.119 102.135C184.41 102.189 184.604 102.479 184.539 102.77C184.485 103.028 184.259 103.2 184.011 103.2V103.189Z" fill="#1C2024"/>
<path d="M183.979 110.27H183.968C157.607 109.742 78.0812 108.935 77.2837 108.925C76.9819 108.925 76.7448 108.677 76.7448 108.387C76.7448 108.096 76.9927 107.849 77.2837 107.849C78.0812 107.849 157.617 108.666 183.989 109.194C184.291 109.194 184.528 109.441 184.517 109.742C184.517 110.033 184.269 110.27 183.979 110.27Z" fill="#1C2024"/>
<path d="M58.1109 123.117C58.1109 123.117 173.32 120.707 174.753 123.72C176.187 126.732 178.353 151.459 174.031 152.664C169.709 153.869 55.9447 154.472 55.9447 151.459C55.9447 148.446 54.5006 122.514 58.1002 123.117H58.1109Z" fill="#A3C7FF"/>
<path d="M163.599 152.6C163.297 152.6 163.06 152.363 163.06 152.062C163.06 146.757 161.993 123.978 161.982 123.752C161.971 123.451 162.198 123.203 162.499 123.192C162.801 123.16 163.049 123.407 163.06 123.709C163.06 123.935 164.138 146.735 164.138 152.072C164.138 152.374 163.901 152.61 163.599 152.61V152.6Z" fill="#1C2024"/>
<path d="M154.255 152.234C153.953 152.234 153.716 151.997 153.716 151.696C153.716 146.391 152.649 123.612 152.638 123.386C152.628 123.085 152.854 122.837 153.156 122.826C153.457 122.805 153.705 123.042 153.716 123.343C153.716 123.569 154.794 146.37 154.794 151.707C154.794 152.008 154.557 152.245 154.255 152.245V152.234Z" fill="#1C2024"/>
<path d="M80.2475 152.6C79.9457 152.6 79.7086 152.363 79.7086 152.062C79.7086 146.757 78.6416 123.978 78.6309 123.752C78.6201 123.451 78.8464 123.203 79.1482 123.192C79.4499 123.16 79.6978 123.407 79.7086 123.709C79.7086 123.935 80.7863 146.735 80.7863 152.072C80.7863 152.374 80.5492 152.61 80.2475 152.61V152.6Z" fill="#1C2024"/>
<path d="M70.9143 152.234C70.6126 152.234 70.3755 151.997 70.3755 151.696C70.3755 146.391 69.3085 123.612 69.2977 123.386C69.287 123.085 69.5133 122.837 69.815 122.826C70.1168 122.805 70.3647 123.042 70.3755 123.343C70.3755 123.569 71.4532 146.37 71.4532 151.707C71.4532 152.008 71.2161 152.245 70.9143 152.245V152.234Z" fill="#1C2024"/>
<path d="M110.607 148.231C91.8976 148.231 91.5204 147.671 91.3049 147.338C90.4319 146.036 88.6214 133.264 90.6583 131.241C90.7553 131.144 90.8846 131.09 91.0139 131.079C91.3049 131.079 120.091 130.014 133.778 130.014C140.848 130.014 141.117 130.283 141.354 130.52C142.734 131.897 141.742 146.09 141.484 146.854C141.333 147.316 141.214 147.65 130.901 147.962C125.221 148.134 117.634 148.231 110.607 148.231ZM92.1455 146.639C93.1586 146.897 99.14 147.155 110.607 147.155C125.016 147.155 138.617 146.768 140.503 146.305C140.88 144.314 141.311 132.715 140.611 131.327C140.266 131.241 138.93 131.09 133.767 131.09C120.77 131.09 94.1285 132.037 91.2941 132.145C90.0547 134.092 91.4773 145.089 92.1455 146.628V146.639Z" fill="#1C2024"/>
<path d="M10.3569 124.441C9.95817 124.441 9.59174 124.441 8.55713 120.33C5.06529 119.663 4.77431 119.265 4.65576 119.114C4.55876 118.985 4.51565 118.738 4.55876 118.576C4.62343 118.35 4.77431 117.834 8.76189 116.231C10.1953 112.497 10.6802 112.497 11.0036 112.497C11.176 112.497 11.4023 112.615 11.5101 112.755C11.7687 113.099 11.9951 113.992 12.3507 115.424C12.4585 115.865 12.5878 116.403 12.674 116.639C12.8896 116.736 13.3422 116.898 13.7194 117.038C15.7779 117.769 16.306 118.028 16.403 118.512C16.4353 118.695 16.3491 118.964 16.1982 119.093C15.7779 119.469 13.8056 120.201 12.7603 120.567C11.0682 124.408 10.7126 124.419 10.3893 124.441C10.3893 124.441 10.3677 124.441 10.3569 124.441ZM6.03525 118.641C6.73577 118.845 7.99671 119.125 9.09599 119.329C9.30076 119.373 9.47319 119.523 9.5163 119.728C9.79651 120.868 10.1629 122.159 10.4324 122.913C10.8203 122.213 11.4023 120.997 11.8657 119.921C11.9304 119.781 12.0382 119.674 12.1783 119.631C13.1159 119.297 14.1721 118.899 14.8403 118.609C14.3768 118.415 13.7518 118.189 13.3422 118.049C12.1675 117.629 11.952 117.543 11.7903 117.339C11.661 117.156 11.5748 116.865 11.2838 115.682C11.176 115.241 11.0143 114.574 10.8635 114.068C10.5186 114.735 10.0336 115.843 9.66718 116.833C9.6133 116.973 9.50552 117.091 9.36542 117.145C8.14759 117.629 6.75732 118.253 6.02447 118.662L6.03525 118.641Z" fill="#1C2024"/>
<path d="M174.408 212.684C174.01 212.684 173.643 212.684 172.609 208.574C169.117 207.906 168.826 207.508 168.707 207.358C168.61 207.229 168.567 206.981 168.61 206.82C168.675 206.594 168.815 206.077 172.813 204.474C174.247 200.751 174.732 200.74 175.055 200.74C175.227 200.74 175.454 200.859 175.562 200.998C175.82 201.343 176.047 202.236 176.402 203.667C176.51 204.108 176.639 204.646 176.725 204.883C176.941 204.98 177.394 205.141 177.771 205.281C179.829 206.013 180.357 206.271 180.454 206.755C180.487 206.938 180.401 207.207 180.26 207.336C179.84 207.713 177.868 208.444 176.822 208.81C175.13 212.641 174.775 212.662 174.451 212.684C174.451 212.684 174.43 212.684 174.419 212.684H174.408ZM170.087 206.884C170.787 207.089 172.048 207.368 173.147 207.573C173.352 207.616 173.525 207.767 173.568 207.971C173.848 209.112 174.214 210.403 174.484 211.156C174.872 210.457 175.454 209.241 175.917 208.165C175.982 208.025 176.09 207.917 176.23 207.874C177.167 207.541 178.234 207.142 178.892 206.852C178.428 206.658 177.803 206.432 177.394 206.292C176.219 205.873 176.003 205.787 175.853 205.582C175.723 205.399 175.637 205.109 175.346 203.925C175.238 203.484 175.077 202.817 174.926 202.311C174.581 202.978 174.096 204.087 173.719 205.077C173.665 205.216 173.557 205.335 173.417 205.389C172.199 205.873 170.809 206.497 170.076 206.906L170.087 206.884Z" fill="#1C2024"/>
<path d="M23.5267 74.3415C23.5267 74.3415 23.4944 74.3415 23.4836 74.3415C21.8563 74.2554 13.8164 57.2437 12.868 55.0164C11.6071 52.0789 11.7041 51.7453 11.9735 51.444C11.9735 51.444 12.0274 51.3795 12.0705 51.3579C12.1136 51.3257 12.1567 51.2934 12.2106 51.2719C12.3292 51.2181 12.4693 51.1965 12.6633 51.1965C15.2606 51.1965 35.371 56.9962 36.6534 58.89C36.8582 59.1913 36.7935 59.4603 36.7397 59.5894C36.0823 61.2034 31.5774 62.5269 30.6828 62.7744C30.5427 62.8174 30.3811 62.7959 30.2518 62.7098C25.3804 59.697 18.0735 55.2854 14.4739 53.3163C17.2652 56.0063 23.0741 61.1604 27.0186 64.5928C27.1695 64.722 27.2341 64.9264 27.191 65.1201C25.0894 74.3415 23.9147 74.3415 23.5267 74.3415ZM13.5686 53.9296C15.6809 58.9868 22.0287 71.3825 23.5375 73.1471C24.1626 72.2756 25.2834 68.5633 26.0594 65.1954C18.9249 58.9868 15.3468 55.705 13.5686 53.9296ZM15.7671 52.8321C19.9703 55.1455 26.9108 59.385 30.6074 61.6661C32.4611 61.1281 34.9937 60.1382 35.6188 59.3527C34.0346 58.0184 21.8239 54.2524 15.7671 52.8213V52.8321Z" fill="#1C2024"/>
<path d="M28.9477 71.1887C28.9477 71.1887 28.8831 71.1887 28.8507 71.1887C27.8377 71.0919 26.1456 69.1443 25.4775 68.3158C25.2942 68.0898 25.3266 67.7455 25.5529 67.5626C25.7792 67.3797 26.1241 67.4119 26.3073 67.6379C27.2665 68.8107 28.3873 69.8868 28.8507 70.0804C29.1633 69.3272 29.6698 65.5935 29.95 62.387C29.9716 62.0857 30.241 61.8812 30.532 61.892C30.823 61.9135 31.0493 62.1825 31.017 62.4731C30.7044 66.0346 30.1871 70.414 29.4866 70.995C29.3788 71.0811 29.1956 71.1887 28.9477 71.1887Z" fill="#1C2024"/>
<path d="M215.825 210.995C215.437 210.995 214.263 210.995 212.161 201.773C212.118 201.58 212.183 201.375 212.333 201.246C216.31 197.792 222.173 192.584 224.943 189.916C221.429 191.863 214.025 196.329 209.111 199.374C208.982 199.46 208.831 199.481 208.68 199.438C207.785 199.191 203.281 197.867 202.623 196.253C202.569 196.124 202.505 195.855 202.709 195.554C203.981 193.649 224.091 187.86 226.7 187.86C226.894 187.86 227.034 187.882 227.152 187.936C227.185 187.947 227.217 187.968 227.249 187.99C227.249 187.99 227.249 187.99 227.26 187.99C227.303 188.022 227.346 188.054 227.379 188.086C227.637 188.388 227.734 188.721 226.484 191.659C225.525 193.886 217.485 210.909 215.868 210.984C215.868 210.984 215.836 210.984 215.825 210.984V210.995ZM213.293 201.849C214.079 205.217 215.189 208.929 215.815 209.8C217.323 208.036 223.682 195.64 225.783 190.583C224.005 192.358 220.427 195.64 213.293 201.849ZM203.733 196.017C204.369 196.791 206.934 197.803 208.745 198.33C212.441 196.049 219.36 191.82 223.542 189.496C217.442 190.949 205.317 194.693 203.733 196.017Z" fill="#1C2024"/>
<path d="M210.404 207.842C210.146 207.842 209.973 207.745 209.865 207.648C209.165 207.067 208.648 202.699 208.335 199.137C208.314 198.847 208.529 198.578 208.82 198.556C209.111 198.535 209.381 198.75 209.402 199.051C209.682 202.204 210.167 205.873 210.512 206.734C210.986 206.519 212.086 205.453 213.034 204.291C213.217 204.065 213.562 204.022 213.788 204.216C214.015 204.399 214.058 204.743 213.864 204.969C213.185 205.798 211.504 207.745 210.491 207.842C210.458 207.842 210.426 207.842 210.394 207.842H210.404Z" fill="#1C2024"/>
<path d="M7.74883 213.254C7.74883 213.254 6.71421 205.399 14.2798 207.939C21.8455 210.478 19.3883 217.666 16.5 215.213C13.6117 212.759 19.0326 204.409 24.82 208.122C30.6074 211.834 29.3141 219.043 25.208 219.581C21.1018 220.108 27.6975 211.188 32.8706 216.697C38.0437 222.207 26.7491 232.257 22.1257 228.566C17.5022 224.875 21.1234 218.903 22.2335 222.54C23.3435 226.177 20.3474 229.739 12.1567 229.599C3.95524 229.459 7.69494 216.87 10.5509 220.528C13.4177 224.197 8.65412 228.329 2.87751 224.014C-2.90988 219.7 3.69658 210.769 7.74883 213.254Z" fill="white"/>
<path d="M12.6202 230.137H12.146C9.45166 230.083 7.56564 228.717 6.88667 226.339C5.47485 226.156 3.98759 225.51 2.55422 224.434C0.280216 222.734 -0.484969 220.162 0.441875 217.375C1.39027 214.513 3.93371 212.275 6.21848 212.275C6.5418 212.275 6.85434 212.318 7.1561 212.404C7.1561 211.307 7.31776 209.456 8.42782 208.197C9.66721 206.777 11.7149 206.508 14.4523 207.422C15.4977 207.777 16.4138 208.229 17.1897 208.778C19.3775 206.486 22.4921 205.98 25.111 207.659C27.6113 209.262 29.1309 211.737 29.2603 214.352C30.726 214.395 32.0731 215.062 33.2586 216.321C34.8752 218.043 35.1662 220.356 34.0992 222.831C32.4719 226.597 28.0101 229.889 24.5614 229.889C23.4836 229.889 22.546 229.577 21.7916 228.975C21.436 228.684 21.1126 228.383 20.8217 228.049C19.0111 229.416 16.1874 230.126 12.6202 230.126V230.137ZM8.02906 226.382C8.50326 227.694 9.61332 229.007 12.1568 229.05H12.6094C16.7155 229.05 18.968 228.092 20.175 227.178C19.0219 225.316 19.1189 223.272 19.7547 222.013C20.1319 221.281 20.6708 220.862 21.242 220.862C21.63 220.862 22.3305 221.055 22.7292 222.379C23.2897 224.197 22.8801 225.983 21.6084 227.339C21.8563 227.619 22.1365 227.888 22.449 228.146C23.0094 228.598 23.7207 228.824 24.5506 228.824C27.5682 228.824 31.642 225.768 33.1077 222.411C33.7436 220.959 34.1423 218.85 32.4719 217.063C31.4911 216.02 30.4026 215.471 29.2279 215.428C28.98 217.935 27.3958 219.829 25.2619 220.108C23.8609 220.291 23.3974 219.56 23.3651 218.882C23.3004 217.397 25.4343 214.911 28.1718 214.438C28.064 212.157 26.7276 209.994 24.5075 208.574C22.3305 207.175 19.8409 207.584 17.998 209.477C19.787 211.178 20.1104 213.276 19.6146 214.664C19.0542 216.235 17.4268 216.73 16.1228 215.611C14.5277 214.255 15.0343 211.597 16.4677 209.607C15.7995 209.133 14.9912 208.746 14.0751 208.434C11.8011 207.67 10.163 207.82 9.21456 208.896C7.91051 210.381 8.24461 213.136 8.25538 213.168C8.27694 213.373 8.19072 213.577 8.01829 213.685C7.84585 213.792 7.61953 213.803 7.44709 213.685C7.06989 213.459 6.64957 213.34 6.20771 213.34C4.38635 213.34 2.25245 215.299 1.45494 217.698C1.08851 218.796 0.528093 221.572 3.19008 223.562C4.35402 224.423 5.53952 224.983 6.66035 225.198C6.45558 223.358 6.92978 221.346 7.87818 220.173C8.3416 219.603 8.88047 219.301 9.43011 219.301C9.81809 219.301 10.4001 219.452 10.9605 220.173C11.9843 221.475 12.2106 222.949 11.5963 224.219C10.9928 225.456 9.63487 226.263 8.01829 226.36L8.02906 226.382ZM21.2528 221.938C21.1558 221.938 20.9294 222.088 20.7247 222.508C20.2612 223.423 20.175 224.972 20.9833 226.435C21.8778 225.381 22.1365 224.079 21.7054 222.691C21.5222 222.078 21.3066 221.938 21.242 221.938H21.2528ZM9.44088 220.388C9.22534 220.388 8.96668 220.56 8.71881 220.862C8.01829 221.722 7.51175 223.562 7.75963 225.306C9.07446 225.284 10.1737 224.692 10.6372 223.756C11.0682 222.874 10.8743 221.819 10.1199 220.851C9.95819 220.636 9.69954 220.388 9.44088 220.388ZM28.1394 215.525C25.9516 216.02 24.432 218.021 24.4644 218.828C24.4644 218.925 24.4644 219.054 24.8739 219.054C24.9494 219.054 25.0463 219.054 25.1326 219.032C26.6953 218.828 27.87 217.429 28.1394 215.525ZM17.3298 210.284C16.1012 212.006 15.8641 213.943 16.8449 214.782C17.5777 215.406 18.2998 215.18 18.6231 214.287C19.0003 213.244 18.7201 211.64 17.3298 210.284Z" fill="#1C2024"/>
<path d="M206.05 97.0453C206.05 97.0453 205.016 89.1904 212.581 91.7298C220.147 94.2692 217.69 101.457 214.802 99.0036C211.913 96.5503 217.334 88.2005 223.122 91.9127C228.909 95.6249 227.616 102.834 223.51 103.372C219.403 103.899 225.999 94.9793 231.172 100.488C236.345 105.998 225.051 116.048 220.427 112.357C215.804 108.666 219.425 102.694 220.535 106.331C221.645 109.968 218.649 113.53 210.458 113.39C202.257 113.25 205.997 100.661 208.852 104.319C211.719 107.988 206.956 112.12 201.179 107.805C195.392 103.491 201.998 94.5597 206.05 97.0453Z" fill="white"/>
<path d="M210.922 113.928H210.447C207.753 113.874 205.867 112.508 205.188 110.13C203.776 109.947 202.289 109.301 200.856 108.225C198.582 106.525 197.817 103.953 198.743 101.166C199.692 98.3042 202.235 96.0661 204.52 96.0661C204.843 96.0661 205.156 96.1092 205.458 96.1953C205.458 95.0977 205.619 93.247 206.729 91.9881C207.969 90.5677 210.016 90.2987 212.754 91.2133C213.799 91.5684 214.715 92.0203 215.491 92.5691C217.679 90.2772 220.794 89.7715 223.413 91.4501C225.913 93.0533 227.432 95.5281 227.562 98.1428C229.027 98.1859 230.375 98.853 231.56 100.112C233.177 101.834 233.478 104.147 232.401 106.622C230.773 110.388 226.312 113.68 222.863 113.68C221.785 113.68 220.848 113.368 220.093 112.766C219.737 112.475 219.414 112.174 219.123 111.84C217.313 113.207 214.489 113.917 210.922 113.917V113.928ZM206.331 110.173C206.805 111.485 207.915 112.798 210.458 112.841H210.911C215.017 112.841 217.269 111.883 218.477 110.969C217.323 109.107 217.42 107.063 218.056 105.804C218.433 105.072 218.972 104.653 219.543 104.653C219.931 104.653 220.632 104.846 221.031 106.17C221.591 107.988 221.182 109.774 219.91 111.13C220.158 111.41 220.438 111.679 220.751 111.937C221.311 112.389 222.022 112.615 222.852 112.615C225.87 112.615 229.944 109.559 231.409 106.202C232.045 104.75 232.444 102.641 230.773 100.854C229.793 99.8107 228.704 99.2619 227.529 99.2188C227.282 101.726 225.697 103.62 223.563 103.899C222.162 104.082 221.699 103.351 221.667 102.673C221.602 101.188 223.736 98.7024 226.473 98.2289C226.365 95.9478 225.029 93.785 222.809 92.3647C220.632 90.9658 218.142 91.3747 216.3 93.2685C218.089 94.9686 218.412 97.0668 217.916 98.4549C217.356 100.026 215.728 100.521 214.424 99.4018C212.829 98.046 213.336 95.3883 214.769 93.3976C214.101 92.9242 213.293 92.5368 212.377 92.2248C210.092 91.4608 208.464 91.6115 207.516 92.6875C206.212 94.1724 206.546 96.9269 206.557 96.9592C206.578 97.1637 206.492 97.3681 206.32 97.4757C206.147 97.5833 205.921 97.5941 205.749 97.4757C205.371 97.2497 204.951 97.1314 204.509 97.1314C202.688 97.1314 200.554 99.0897 199.756 101.489C199.39 102.587 198.83 105.363 201.492 107.353C202.656 108.214 203.841 108.774 204.962 108.989C204.757 107.149 205.231 105.137 206.18 103.964C206.643 103.394 207.182 103.092 207.732 103.092C208.12 103.092 208.702 103.243 209.262 103.964C210.286 105.266 210.512 106.74 209.898 108.01C209.294 109.247 207.936 110.054 206.32 110.151L206.331 110.173ZM219.554 105.729C219.457 105.729 219.231 105.879 219.026 106.299C218.563 107.214 218.477 108.763 219.285 110.226C220.179 109.172 220.438 107.87 220.007 106.482C219.824 105.869 219.608 105.729 219.543 105.729H219.554ZM207.742 104.179C207.527 104.179 207.268 104.351 207.02 104.653C206.32 105.514 205.813 107.353 206.061 109.097C207.376 109.075 208.475 108.483 208.939 107.547C209.37 106.665 209.176 105.61 208.421 104.642C208.26 104.427 208.001 104.179 207.742 104.179ZM226.441 99.3157C224.253 99.8107 222.734 101.812 222.766 102.619C222.766 102.716 222.766 102.845 223.175 102.845C223.251 102.845 223.348 102.845 223.434 102.823C224.997 102.619 226.172 101.22 226.441 99.3157ZM215.631 94.0755C214.403 95.7971 214.166 97.734 215.146 98.5732C215.879 99.1973 216.601 98.9714 216.925 98.0783C217.302 97.0345 217.022 95.4313 215.631 94.0755Z" fill="#1C2024"/>
<path d="M40.8027 34.669C40.8027 34.669 39.768 26.8142 47.3337 29.3535C54.8993 31.8929 52.4421 39.0807 49.5538 36.6274C46.6655 34.1741 52.0865 25.8242 57.8738 29.5365C63.6612 33.2487 62.368 40.458 58.2618 40.996C54.1557 41.5232 60.7514 32.6031 65.9244 38.1123C71.0975 43.6214 59.803 53.6714 55.1795 49.9806C50.5561 46.2899 54.1772 40.3181 55.2873 43.955C56.3974 47.5919 53.4013 51.1535 45.2106 51.0136C37.0091 50.8737 40.7488 38.2844 43.6047 41.9429C46.4715 45.612 41.708 49.7439 35.9313 45.4291C30.144 41.1143 36.7504 32.1835 40.8027 34.669Z" fill="white"/>
<path d="M45.674 51.5516H45.1998C42.5055 51.4978 40.6195 50.1313 39.9405 47.7533C38.5287 47.5704 37.0414 46.9247 35.6081 45.8487C33.3341 44.1486 32.5689 41.577 33.4957 38.7901C34.4441 35.9279 36.9875 33.6898 39.2723 33.6898C39.5956 33.6898 39.9082 33.7329 40.2099 33.819C40.2099 32.7214 40.3716 30.8707 41.4817 29.6118C42.721 28.1914 44.7687 27.9224 47.5061 28.837C48.5515 29.1921 49.4676 29.644 50.2436 30.1928C52.4313 27.8901 55.546 27.3952 58.1648 29.0738C60.6652 30.677 62.1848 33.1518 62.3141 35.7665C63.7798 35.8096 65.1269 36.4767 66.3124 37.7356C67.929 39.4572 68.2308 41.7707 67.1531 44.2455C65.5257 48.0115 61.0639 51.3041 57.6152 51.3041C56.5375 51.3041 55.5999 50.9921 54.8454 50.3895C54.4898 50.099 54.1665 49.7977 53.8755 49.4641C52.0649 50.8307 49.2413 51.5408 45.674 51.5408V51.5516ZM41.0829 47.7963C41.5571 49.109 42.6672 50.4218 45.2106 50.4648H45.6632C49.7694 50.4648 52.0218 49.5072 53.2289 48.5926C52.0757 46.7311 52.1727 44.6866 52.8085 43.4277C53.1858 42.696 53.7246 42.2764 54.2958 42.2764C54.6838 42.2764 55.3843 42.4701 55.7831 43.7936C56.3435 45.612 55.934 47.3982 54.6622 48.754C54.9101 49.0337 55.1903 49.3027 55.5029 49.561C56.0633 50.0129 56.7746 50.2389 57.6044 50.2389C60.6221 50.2389 64.6959 47.183 66.1508 43.8258C66.7867 42.3732 67.1854 40.2642 65.5149 38.4781C64.5342 37.4343 63.4457 36.8856 62.271 36.8425C62.0231 39.3496 60.4388 41.2434 58.3049 41.5232C56.9039 41.7061 56.4405 40.9744 56.4082 40.2965C56.3435 38.8116 58.4774 36.3261 61.2148 35.8526C61.107 33.5715 59.7707 31.4087 57.5505 29.9884C55.3735 28.5895 52.884 28.9984 51.0411 30.8922C52.8301 32.5923 53.1534 34.6798 52.6577 36.0786C52.3128 37.0577 51.5584 37.6711 50.6962 37.6711C50.1789 37.6711 49.6508 37.4559 49.1658 37.0362C47.5708 35.6804 48.0773 33.0227 49.5107 31.0321C48.8425 30.5586 48.0342 30.1713 47.1182 29.8592C44.8334 29.0953 43.206 29.2459 42.2468 30.3219C40.9428 31.8176 41.2877 34.5614 41.2877 34.5829C41.32 34.7874 41.223 34.9918 41.0506 35.0994C40.8781 35.207 40.6518 35.2178 40.4794 35.0994C40.1022 34.8734 39.6819 34.7551 39.24 34.7551C37.4186 34.7551 35.2847 36.7134 34.4872 39.1129C34.1208 40.2104 33.5604 42.9866 36.2224 44.9772C37.3863 45.838 38.5718 46.3975 39.6926 46.6127C39.4879 44.7727 39.9621 42.7606 40.9105 41.5877C41.3739 41.0175 41.9127 40.7162 42.4624 40.7162C42.8504 40.7162 43.4323 40.8668 43.9928 41.5877C45.0166 42.8897 45.2429 44.3638 44.6286 45.6335C44.0251 46.8709 42.6672 47.678 41.0506 47.7748L41.0829 47.7963ZM54.3066 43.3524C54.2096 43.3524 53.9833 43.503 53.7785 43.9227C53.3151 44.8373 53.2289 46.3975 54.0372 47.8501C54.9317 46.7956 55.1903 45.4937 54.7592 44.1056C54.576 43.4923 54.3605 43.3524 54.2958 43.3524H54.3066ZM42.4947 41.8029C42.2792 41.8029 42.0205 41.9751 41.7726 42.2764C41.0721 43.1372 40.5656 44.9772 40.8135 46.7203C42.1283 46.6988 43.2276 46.107 43.691 45.1708C44.1221 44.2885 43.9281 43.234 43.1737 42.2656C43.012 42.0504 42.7534 41.8029 42.4947 41.8029ZM61.1933 36.9394C59.0055 37.4343 57.4859 39.4357 57.5182 40.2427C57.5182 40.3396 57.5182 40.4687 57.9277 40.4687C58.0032 40.4687 58.1002 40.4687 58.1864 40.4472C59.7491 40.2427 60.9238 38.8439 61.1933 36.9394ZM50.3837 31.6992C49.1551 33.4208 48.918 35.3576 49.8987 36.1969C50.6423 36.821 51.3536 36.5951 51.6769 35.702C52.0541 34.6582 51.7739 33.055 50.3837 31.6992Z" fill="#1C2024"/>
<path d="M3.72893 193.09H3.71815C2.71587 193.09 1.78902 192.692 1.07773 191.982C0.377204 191.282 0 190.346 0 189.345C0 187.301 1.68125 185.633 3.72893 185.633C4.74199 185.633 5.67961 186.031 6.38014 186.741C7.08066 187.452 7.46864 188.388 7.45786 189.378C7.45786 191.422 5.77661 193.09 3.72893 193.09ZM3.73971 186.709C2.274 186.709 1.07773 187.893 1.06695 189.345C1.06695 190.056 1.33638 190.723 1.83213 191.228C2.32789 191.734 2.99608 192.014 3.70738 192.014V192.552L3.71815 192.014C5.17308 192.014 6.36936 190.83 6.36936 189.378C6.36936 188.668 6.09993 188 5.60417 187.495C5.10842 186.989 4.44023 186.709 3.72893 186.709H3.73971Z" fill="#1C2024"/>
<path d="M218.196 229.674H218.186C217.183 229.674 216.256 229.276 215.545 228.566C214.845 227.856 214.457 226.92 214.467 225.93C214.467 223.885 216.149 222.217 218.196 222.217C219.209 222.217 220.147 222.616 220.848 223.326C221.548 224.036 221.936 224.972 221.925 225.962C221.925 228.006 220.244 229.674 218.196 229.674ZM218.207 223.293C216.741 223.293 215.545 224.477 215.534 225.93C215.534 226.64 215.804 227.307 216.3 227.813C216.795 228.318 217.463 228.598 218.175 228.598V229.136L218.186 228.598C219.64 228.598 220.837 227.415 220.837 225.962C220.837 225.252 220.567 224.585 220.072 224.079C219.576 223.573 218.908 223.293 218.196 223.293H218.207Z" fill="#1C2024"/>
<path d="M208.497 74.7288H208.486C207.484 74.7288 206.557 74.3307 205.846 73.6205C205.145 72.9104 204.757 71.9743 204.768 70.9843C204.768 68.9399 206.449 67.2721 208.497 67.2721C209.51 67.2721 210.447 67.6702 211.148 68.3804C211.848 69.0905 212.236 70.0267 212.226 71.0166C212.226 73.061 210.544 74.7288 208.497 74.7288ZM208.508 68.3481C207.042 68.3481 205.846 69.5317 205.835 70.9843C205.835 71.6945 206.104 72.3616 206.6 72.8673C207.096 73.3731 207.764 73.6528 208.475 73.6528V74.1908L208.486 73.6528C209.941 73.6528 211.137 72.4692 211.137 71.0166C211.137 70.3064 210.868 69.6393 210.372 69.1336C209.876 68.6279 209.208 68.3481 208.497 68.3481H208.508Z" fill="#1C2024"/>
<path d="M91.0247 10.1683H91.0139C90.0116 10.1683 89.0848 9.77017 88.3735 9.06C87.673 8.34984 87.285 7.41371 87.2958 6.42378C87.2958 4.37936 88.977 2.71155 91.0247 2.71155C92.0377 2.71155 92.9754 3.10967 93.6759 3.81984C94.3764 4.53 94.7644 5.46613 94.7536 6.45606C94.7536 8.50048 93.0724 10.1683 91.0247 10.1683ZM91.0355 3.78756C89.5698 3.78756 88.3735 4.97117 88.3627 6.42378C88.3627 7.13395 88.6321 7.80107 89.1279 8.3068C89.6236 8.81252 90.2918 9.09228 91.0031 9.09228V9.63029L91.0139 9.09228C92.4688 9.09228 93.6651 7.90867 93.6651 6.45606C93.6651 5.74589 93.3957 5.07877 92.8999 4.57304C92.4042 4.06732 91.736 3.78756 91.0247 3.78756H91.0355Z" fill="#1C2024"/>
<path d="M184.959 79.4956C184.485 79.4956 184.022 79.4418 183.569 79.3342C177.07 77.8062 174.451 66.1208 177.609 52.7245C180.476 40.5655 187.276 31.3979 193.43 31.3979C193.904 31.3979 194.368 31.4517 194.82 31.5594C197.989 32.3018 200.338 35.5298 201.438 40.6516C202.505 45.6336 202.268 51.8529 200.78 58.1691C197.914 70.328 191.113 79.4956 184.959 79.4956ZM193.43 32.474C187.858 32.474 181.36 41.4802 178.655 52.9719C175.691 65.572 177.997 76.9239 183.817 78.2904C184.194 78.3765 184.571 78.4196 184.959 78.4196C190.531 78.4196 197.03 69.4134 199.735 57.9216C201.19 51.756 201.416 45.6981 200.381 40.8776C199.379 36.1862 197.31 33.2487 194.573 32.6031C194.195 32.517 193.818 32.474 193.43 32.474Z" fill="#1C2024"/>
<path d="M204.401 73.8143C198.528 73.8143 190.682 70.6401 183.429 65.3353C171.725 56.7703 165.636 45.8596 169.591 40.4795C170.938 38.6503 173.331 37.6711 176.531 37.6711C182.405 37.6711 190.251 40.8454 197.504 46.1501C209.208 54.7151 215.297 65.6259 211.342 71.0059C209.995 72.8459 207.602 73.8143 204.401 73.8143ZM176.521 38.7472C173.686 38.7472 171.585 39.5649 170.453 41.1144C166.929 45.9241 173.029 56.4045 184.065 64.4638C191.048 69.5641 198.84 72.7383 204.401 72.7383C207.236 72.7383 209.337 71.9205 210.469 70.3711C213.993 65.5613 207.893 55.081 196.857 47.0217C189.874 41.9214 182.082 38.7472 176.521 38.7472Z" fill="#1C2024"/>
<path d="M178.461 69.0261C170.043 69.0261 164.364 66.519 163.265 62.3118C161.573 55.8665 171.251 47.9363 185.293 44.2671C189.68 43.1265 194.12 42.5132 198.151 42.5132C206.568 42.5132 212.247 45.0203 213.347 49.2275C215.039 55.6728 205.361 63.603 191.318 67.2722C186.931 68.4127 182.491 69.0261 178.461 69.0261ZM198.151 43.6C194.217 43.6 189.863 44.1918 185.563 45.3108C172.328 48.7648 162.801 56.2646 164.31 62.032C165.269 65.6797 170.69 67.9393 178.461 67.9393C182.394 67.9393 186.748 67.3475 191.048 66.2284C204.283 62.7744 213.81 55.2747 212.301 49.5072C211.342 45.8596 205.921 43.6 198.151 43.6Z" fill="#1C2024"/>
<path d="M190.434 60.504C193.392 60.504 195.79 58.1097 195.79 55.1562C195.79 52.2027 193.392 49.8085 190.434 49.8085C187.476 49.8085 185.078 52.2027 185.078 55.1562C185.078 58.1097 187.476 60.504 190.434 60.504Z" fill="#A3C7FF"/>
<path d="M205.231 76.8809C207.249 76.8809 208.885 75.2478 208.885 73.2332C208.885 71.2187 207.249 69.5856 205.231 69.5856C203.213 69.5856 201.578 71.2187 201.578 73.2332C201.578 75.2478 203.213 76.8809 205.231 76.8809Z" fill="#4790FF"/>
<path d="M198.851 37.499C200.869 37.499 202.505 35.8658 202.505 33.8513C202.505 31.8367 200.869 30.2036 198.851 30.2036C196.833 30.2036 195.198 31.8367 195.198 33.8513C195.198 35.8658 196.833 37.499 198.851 37.499Z" fill="#0065FF"/>
<path d="M164.784 67.3904C166.802 67.3904 168.438 65.7573 168.438 63.7428C168.438 61.7282 166.802 60.0951 164.784 60.0951C162.766 60.0951 161.131 61.7282 161.131 63.7428C161.131 65.7573 162.766 67.3904 164.784 67.3904Z" fill="#0065FF"/>
<path d="M15.8641 97.0668C8.44937 97.0668 7.20999 90.3417 7.19921 90.2772C7.1561 90.0404 7.27465 89.8145 7.4902 89.7069C7.70574 89.5993 7.9644 89.6531 8.12606 89.8252C9.38699 91.1702 10.8958 91.8589 12.5986 91.8589C16.3599 91.8589 19.9164 88.5878 19.9595 88.5555C20.0888 88.4264 20.2828 88.3834 20.4552 88.4264C20.6277 88.4695 20.7786 88.5986 20.8324 88.7707L22.9556 94.9363C23.0526 95.2053 22.9125 95.5066 22.643 95.6142C20.1427 96.5826 17.8579 97.0775 15.8641 97.0775V97.0668ZM8.85891 91.8266C9.69953 93.5697 11.6179 95.9908 15.8641 95.9908C17.5993 95.9908 19.5823 95.5819 21.7701 94.7856L20.0673 89.8575C18.8171 90.8582 15.8426 92.9241 12.5986 92.9241C11.2299 92.9241 9.97974 92.5583 8.85891 91.8374V91.8266Z" fill="#1C2024"/>
<path d="M13.6871 92.7305C13.6871 92.7305 13.6655 92.7305 13.6548 92.7305C13.353 92.709 13.1267 92.4615 13.1482 92.1602C13.1698 91.8481 13.45 84.6712 4.7743 83.4445L3.39481 86.8017C4.66653 86.9953 7.22074 87.6732 8.51401 90.105C8.65411 90.3633 8.55712 90.6968 8.28769 90.8367C8.01826 90.9766 7.69494 90.8797 7.55483 90.6107C6.11068 87.91 2.64041 87.8023 2.5973 87.8023C2.42486 87.8023 2.25242 87.7055 2.15543 87.5549C2.05843 87.4042 2.03688 87.2213 2.11232 87.0599L3.9229 82.6483C4.00912 82.4223 4.24622 82.2932 4.48332 82.3147C14.5924 83.4876 14.2152 92.1172 14.2044 92.2032C14.1828 92.4938 13.9457 92.709 13.6655 92.709L13.6871 92.7305Z" fill="#1C2024"/>
<path d="M244.784 181.695C244.611 181.695 244.45 181.609 244.342 181.469C243.081 179.704 241.367 178.811 239.255 178.811C235.828 178.811 232.476 181.157 232.444 181.178C232.293 181.286 232.099 181.308 231.937 181.243C231.765 181.178 231.646 181.028 231.603 180.845L230.31 174.453C230.256 174.174 230.428 173.894 230.709 173.829C232.552 173.377 234.265 173.162 235.796 173.162C244.913 173.162 245.312 181.071 245.312 181.157C245.312 181.394 245.172 181.609 244.945 181.684C244.892 181.706 244.827 181.716 244.773 181.716L244.784 181.695ZM231.474 174.744L232.508 179.855C233.726 179.123 236.41 177.724 239.255 177.724C241.055 177.724 242.607 178.273 243.878 179.371C243.21 177.305 241.281 174.217 235.796 174.217C234.491 174.217 233.037 174.389 231.474 174.744Z" fill="#1C2024"/>
<path d="M247.09 189.388C247.09 189.388 247.004 189.388 246.961 189.367C237.089 186.881 238.608 178.37 238.63 178.284C238.684 177.993 238.975 177.8 239.255 177.853C239.546 177.907 239.74 178.187 239.686 178.478C239.632 178.779 238.404 185.87 246.831 188.215L248.642 185.063C247.403 184.708 244.967 183.696 243.997 181.114C243.889 180.834 244.04 180.522 244.31 180.425C244.59 180.328 244.902 180.457 244.999 180.737C246.077 183.599 249.504 184.17 249.536 184.17C249.709 184.202 249.86 184.31 249.935 184.471C250.011 184.632 250.011 184.815 249.914 184.977L247.543 189.109C247.446 189.281 247.262 189.378 247.079 189.378L247.09 189.388Z" fill="#1C2024"/>
<path d="M113.808 23.995C113.808 23.995 135.901 9.57647 151.862 26.6097C167.823 43.6429 153.468 86.9738 138.714 89.6961C123.96 92.4184 114.605 84.9294 114.605 84.9294C114.605 84.9294 101.112 97.2174 86.5198 87.5441C71.9274 77.8708 65.8922 36.8748 77.4346 24.5438C88.9771 12.2127 113.808 23.9842 113.808 23.9842V23.995Z" fill="#4790FF"/>
<path d="M113.808 24.5329C113.625 24.5329 113.441 24.4361 113.344 24.2639C109.529 17.6357 111.922 4.65904 112.019 4.11028C112.073 3.81976 112.364 3.62607 112.644 3.67987C112.935 3.73367 113.129 4.01344 113.075 4.30396C113.053 4.43308 110.65 17.4313 114.271 23.7152C114.422 23.9734 114.336 24.2962 114.077 24.4469C113.991 24.4899 113.905 24.5222 113.808 24.5222V24.5329Z" fill="#1C2024"/>
<path d="M112.967 16.9256C112.967 16.9256 119.929 -8.56507 147.056 3.02355C147.056 3.02355 137.69 23.7905 112.967 16.9256Z" fill="#A3C7FF"/>
<path d="M112.967 17.4528C112.816 17.4528 112.655 17.3882 112.547 17.2591C112.353 17.0331 112.385 16.6888 112.622 16.5059C118.431 11.7284 133.498 7.97314 134.134 7.81174C134.425 7.74718 134.716 7.91934 134.78 8.20986C134.856 8.50039 134.673 8.79091 134.382 8.86623C134.231 8.90927 118.916 12.7183 113.301 17.3452C113.204 17.4313 113.075 17.4635 112.956 17.4635L112.967 17.4528Z" fill="#1C2024"/>
<path d="M152.627 39.2528C152.39 39.2528 152.175 39.1022 152.11 38.8654C150.31 32.7107 147.163 28.5465 142.756 26.4591C135.47 23.0158 127.129 26.4806 127.042 26.5129C126.773 26.6312 126.45 26.5129 126.331 26.2331C126.212 25.9641 126.342 25.6413 126.611 25.5229C126.967 25.3723 135.492 21.8322 143.208 25.4799C147.907 27.6965 151.248 32.0973 153.145 38.5534C153.231 38.8439 153.069 39.1344 152.778 39.2205C152.724 39.2313 152.681 39.242 152.627 39.242V39.2528Z" fill="#1C2024"/>
<path d="M83.9549 71.0704C83.7501 71.0704 83.5453 70.9413 83.4591 70.7369C82.446 68.3374 82.9634 65.572 82.9849 65.4537C83.0388 65.1631 83.319 64.9695 83.61 65.0233C83.901 65.0771 84.095 65.3568 84.0411 65.6473C84.0411 65.6689 83.5669 68.219 84.4506 70.3065C84.5692 70.5755 84.4398 70.8983 84.1596 71.0166C84.095 71.0489 84.0195 71.0597 83.9549 71.0597V71.0704Z" fill="#1C2024"/>
<path d="M83.9441 61.623C83.7393 61.623 83.5345 61.4939 83.4483 61.2895C82.4352 58.89 82.9526 56.1246 82.9741 56.0063C83.028 55.7157 83.3082 55.5221 83.5992 55.5759C83.8902 55.6297 84.0842 55.9094 84.0303 56.2C84.0303 56.2215 83.5561 58.7716 84.4398 60.8591C84.5584 61.1281 84.429 61.4509 84.1488 61.5692C84.0842 61.6015 84.0087 61.6123 83.9441 61.6123V61.623Z" fill="#1C2024"/>
<path d="M85.0218 53.553C84.817 53.553 84.6122 53.4239 84.526 53.2194C83.5129 50.8199 84.0302 48.0546 84.0518 47.9362C84.1057 47.6457 84.3859 47.452 84.6769 47.5058C84.9679 47.5596 85.1619 47.8394 85.108 48.1299C85.108 48.1514 84.6338 50.7015 85.5175 52.789C85.6361 53.058 85.5067 53.3808 85.2265 53.4992C85.1619 53.5315 85.0864 53.5422 85.0218 53.5422V53.553Z" fill="#1C2024"/>
<path d="M88.88 61.6769C88.6753 61.6769 88.4705 61.5478 88.3843 61.3433C87.3712 58.9438 87.8885 56.1785 87.9101 56.0601C87.964 55.7696 88.2442 55.5759 88.5352 55.6297C88.8261 55.6835 89.0201 55.9633 88.9663 56.2538C88.9663 56.2753 88.4921 58.8255 89.3758 60.9129C89.4943 61.1819 89.365 61.5047 89.0848 61.6231C89.0201 61.6554 88.9447 61.6661 88.88 61.6661V61.6769Z" fill="#1C2024"/>
<path d="M89.7961 70.7799C89.5913 70.7799 89.3866 70.6615 89.3004 70.4463C88.2873 68.0468 88.8046 65.2815 88.8262 65.1631C88.88 64.8726 89.1603 64.6789 89.4512 64.7327C89.7422 64.7865 89.9362 65.0663 89.8823 65.3568C89.8823 65.3783 89.4081 67.9285 90.2919 70.0159C90.4104 70.2849 90.2811 70.6077 90.0009 70.7261C89.9362 70.7584 89.8608 70.7691 89.7961 70.7691V70.7799Z" fill="#1C2024"/>
<path d="M86.9724 79.4956C86.7677 79.4956 86.5629 79.3772 86.4767 79.162C85.4636 76.7625 85.9809 73.9972 86.0025 73.8788C86.0564 73.5883 86.3366 73.3946 86.6276 73.4484C86.9186 73.5022 87.1125 73.782 87.0587 74.0725C87.0587 74.094 86.5845 76.6442 87.4682 78.7316C87.5867 79.0006 87.4574 79.3234 87.1772 79.4418C87.1125 79.4741 87.0371 79.4848 86.9724 79.4848V79.4956Z" fill="#1C2024"/>
<path d="M93.4604 79.8614C93.2772 79.8614 93.1048 79.7645 92.997 79.6031C91.6498 77.3758 91.7576 74.5566 91.7684 74.4383C91.7791 74.137 92.0378 73.8895 92.3288 73.9218C92.6305 73.9325 92.8569 74.1908 92.8461 74.4813C92.8461 74.5028 92.7491 77.0853 93.9238 79.0328C94.0747 79.2911 93.9993 79.6139 93.7406 79.7753C93.6544 79.8291 93.5574 79.8506 93.4604 79.8506V79.8614Z" fill="#1C2024"/>
<path d="M65.3102 154.461C65.3102 154.461 180.519 152.051 181.952 155.064C183.386 158.076 185.552 182.803 181.23 184.008C176.909 185.213 63.1439 185.816 63.1439 182.803C63.1439 179.79 61.6998 153.859 65.2994 154.461H65.3102Z" fill="#0065FF"/>
<path d="M17.3729 171.559C17.3729 171.559 70.3862 127.141 76.0658 125.248C81.7454 123.354 152.735 193.294 148.004 197.071C143.273 200.848 94.053 254.724 88.3734 249.053C82.6938 243.383 10.7449 180.06 17.3729 171.559Z" fill="white"/>
<path d="M89.5266 250C88.88 250 88.3627 249.806 87.9855 249.43C87.1341 248.58 84.7092 246.352 81.3467 243.275C32.7089 198.707 12.8572 176.487 16.9526 171.225C16.9741 171.193 17.0065 171.172 17.028 171.139C19.1943 169.321 70.1815 126.636 75.8934 124.731C76.0227 124.688 76.1736 124.667 76.3245 124.667C83.4052 124.667 144.846 184.901 148.564 195.489C148.899 196.436 148.823 197.103 148.338 197.491C147.26 198.352 143.769 201.924 138.93 206.874C118.539 227.737 96.2301 250 89.5374 250H89.5266ZM17.7717 171.925C16.5862 173.593 18.0627 179.855 40.6841 203C55.0825 217.741 72.6495 233.838 82.0796 242.479C85.4528 245.567 87.8885 247.794 88.7507 248.666C88.9231 248.838 89.1818 248.924 89.5374 248.924C96.3379 248.924 124.585 220.012 138.164 206.12C143.025 201.149 146.538 197.545 147.67 196.641C147.67 196.641 147.832 196.35 147.271 195.188C141.656 183.503 82.6507 125.732 76.3245 125.732C70.785 127.55 19.6254 170.354 17.7717 171.914V171.925Z" fill="#1C2024"/>
<path d="M220.955 154.041C220.955 154.041 166.412 187.645 163.771 187.699C161.12 187.753 137.281 188.84 137.798 187.107C138.315 185.375 152.487 163.317 152.487 163.317L211.902 130.488L220.955 154.031V154.041Z" fill="#FCFDFF"/>
<path d="M147.336 188.624C138.164 188.624 137.679 187.99 137.399 187.602C137.259 187.408 137.216 187.172 137.281 186.957C137.809 185.203 150.58 165.296 152.035 163.037C152.078 162.962 152.153 162.897 152.229 162.854L211.644 130.025C211.784 129.95 211.946 129.939 212.086 129.993C212.237 130.046 212.344 130.165 212.409 130.305L221.462 153.848C221.559 154.084 221.462 154.364 221.246 154.504C215.653 157.947 166.509 188.183 163.793 188.237C163.459 188.237 162.78 188.269 161.864 188.302C158.63 188.42 152.606 188.624 147.347 188.624H147.336ZM138.412 187.021C138.951 187.215 140.816 187.548 147.336 187.548C152.574 187.548 158.587 187.333 161.81 187.226C162.737 187.193 163.416 187.172 163.75 187.161C165.905 186.914 198.593 167.179 220.287 153.815L211.611 131.262L152.865 163.726C147.444 172.161 139.458 184.805 138.412 187.01V187.021Z" fill="#1C2024"/>
<path d="M146.183 171.763L154.761 188.463C154.761 188.463 137.011 189.421 136.483 188.571C135.416 186.881 146.183 171.763 146.183 171.763Z" fill="#1C2024"/>
<path d="M163.76 187.699L165.991 176.778L157.844 173.894L159.924 167.739C159.924 167.739 152.498 165.985 152.477 163.317C152.455 160.648 210.135 130.832 210.135 130.832C210.135 130.832 223.251 154.106 221.138 155.3C219.026 156.495 163.954 190.55 163.76 187.699Z" fill="#D0E2FF"/>
<path d="M165.991 177.316C165.808 177.316 165.625 177.219 165.528 177.047C165.377 176.788 165.463 176.465 165.722 176.315C180.336 167.814 218.53 145.509 219.813 144.325C220.028 144.131 220.363 144.121 220.567 144.325C220.772 144.53 220.794 144.842 220.6 145.057C219.522 146.251 171.714 174.066 166.261 177.24C166.174 177.294 166.078 177.316 165.991 177.316Z" fill="#1C2024"/>
<path d="M158.878 168.309C158.695 168.309 158.512 168.212 158.415 168.051C158.264 167.793 158.35 167.47 158.598 167.309L215.265 133.651C215.524 133.5 215.847 133.587 216.008 133.834C216.17 134.081 216.073 134.415 215.825 134.576L159.158 168.234C159.072 168.288 158.975 168.309 158.889 168.309H158.878Z" fill="#1C2024"/>
<path d="M203.334 133.985C203.334 133.985 214.845 158.098 215.858 158.421C216.871 158.744 229.34 149.834 229.049 147.94C228.758 146.047 218.584 127.152 215.502 128.271C212.42 129.39 203.334 133.995 203.334 133.995V133.985Z" fill="white"/>
<path d="M215.912 158.959C215.858 158.959 215.739 158.937 215.685 158.927C214.866 158.668 210.544 150.351 202.839 134.211C202.709 133.942 202.817 133.63 203.087 133.5C203.464 133.317 212.236 128.874 215.308 127.755C215.459 127.701 215.61 127.679 215.771 127.679C219.576 127.679 229.265 145.907 229.566 147.854C229.642 148.328 229.362 148.898 228.683 149.694C226.15 152.643 217.442 158.959 215.912 158.959ZM204.046 134.221C208.184 142.883 214.78 156.28 216.03 157.85C216.784 157.592 219.479 155.946 222.734 153.471C226.937 150.286 228.489 148.446 228.499 148.005C228.176 145.918 218.541 128.755 215.771 128.755C213.077 129.713 205.943 133.274 204.035 134.232L204.046 134.221Z" fill="#1C2024"/>
<path d="M208.217 130.821C208.217 130.821 219.296 155.01 221.149 155.3C223.003 155.591 234.513 147.101 234.513 147.101C234.513 147.101 220.74 124.623 219.565 124.849C218.401 125.075 208.206 130.821 208.206 130.821H208.217Z" fill="#0065FF"/>
<path d="M20.4552 163.629L29.2279 173.969C29.2279 173.969 33.2155 171.58 34.013 169.988C34.8105 168.395 25.6391 157.259 24.4428 158.055C23.2465 158.851 17.6639 161.24 20.4552 163.629Z" fill="#0065FF"/>
<path d="M32.9353 153.59L41.708 163.93C41.708 163.93 45.6956 161.541 46.4931 159.949C47.2906 158.356 38.1192 147.22 36.9229 148.016C35.7266 148.812 30.144 151.201 32.9353 153.59Z" fill="#0065FF"/>
<path d="M46.8056 142.162L55.5783 152.503C55.5783 152.503 59.5659 150.114 60.3634 148.522C61.1609 146.929 51.9895 135.792 50.7932 136.589C49.5969 137.385 44.0143 139.774 46.8056 142.162Z" fill="#0065FF"/>
<path d="M60.6652 131.779L69.4379 142.119C69.4379 142.119 73.4254 139.731 74.223 138.138C75.0205 136.546 65.849 125.409 64.6528 126.205C63.4565 127.001 57.8739 129.39 60.6652 131.779Z" fill="#0065FF"/>
<path d="M76.2707 157.011C76.2707 157.011 83.0711 160.261 83.6531 159.077C84.2351 157.894 83.3621 138.719 84.5368 139.01C85.7115 139.3 90.1518 141.076 90.1518 141.076C90.1518 141.076 89.268 165.856 87.4898 164.974C85.7115 164.091 76.2599 163.198 75.6671 161.724C75.0744 160.25 76.2599 157 76.2599 157L76.2707 157.011Z" fill="#A3C7FF"/>
<path d="M95.6805 175.357C95.6805 175.357 102.481 178.607 103.063 177.423C103.645 176.24 102.772 157.065 103.947 157.356C105.121 157.646 109.562 159.421 109.562 159.421C109.562 159.421 108.678 184.202 106.9 183.32C105.121 182.437 95.6697 181.544 95.077 180.07C94.4842 178.596 95.6697 175.346 95.6697 175.346L95.6805 175.357Z" fill="#A3C7FF"/>
<path d="M114.358 195.436C114.358 195.436 121.158 198.685 121.74 197.502C122.322 196.318 121.449 177.143 122.624 177.434C123.798 177.724 128.239 179.5 128.239 179.5C128.239 179.5 127.355 204.28 125.577 203.398C123.798 202.516 114.347 201.623 113.754 200.148C113.161 198.674 114.347 195.425 114.347 195.425L114.358 195.436Z" fill="#A3C7FF"/>
<path d="M39.7681 191.971C39.7681 191.971 67.8536 168.439 69.9336 167.395L39.7681 191.971Z" fill="white"/>
<path d="M39.7681 192.509C39.6172 192.509 39.4663 192.444 39.3585 192.315C39.1645 192.089 39.1969 191.745 39.4232 191.562C40.5763 190.604 67.5734 167.976 69.6857 166.921C69.9551 166.792 70.2785 166.9 70.4078 167.158C70.5371 167.416 70.4293 167.75 70.1707 167.879C68.511 168.707 47.9157 185.848 40.1129 192.38C40.0159 192.466 39.8866 192.509 39.7681 192.509Z" fill="#1C2024"/>
<path d="M44.9735 196.813C44.9735 196.813 63.6936 179.909 65.0839 179.156L44.9735 196.813Z" fill="white"/>
<path d="M44.9735 197.351C44.8226 197.351 44.6825 197.286 44.5747 197.168C44.37 196.953 44.3915 196.608 44.6178 196.404C46.5362 194.672 63.4241 179.435 64.8252 178.682C65.0838 178.542 65.4179 178.639 65.558 178.897C65.6981 179.156 65.6012 179.489 65.3425 179.629C64.3725 180.156 52.8517 190.432 45.3399 197.211C45.2321 197.308 45.1028 197.351 44.9735 197.351Z" fill="#1C2024"/>
<path d="M61.6136 210.661C61.6136 210.661 89.6991 187.129 91.7791 186.085L61.6136 210.661Z" fill="white"/>
<path d="M61.6136 211.199C61.4627 211.199 61.3118 211.135 61.204 211.005C61.01 210.779 61.0424 210.435 61.2687 210.252C62.4219 209.295 89.4189 186.666 91.5312 185.612C91.8007 185.482 92.124 185.59 92.2533 185.848C92.3826 186.107 92.2749 186.44 92.0162 186.569C90.3565 187.398 69.7612 204.539 61.9584 211.07C61.8615 211.156 61.7321 211.199 61.6136 211.199Z" fill="#1C2024"/>
<path d="M66.8082 215.503C66.8082 215.503 85.5283 198.599 86.9186 197.846L66.8082 215.503Z" fill="white"/>
<path d="M66.8082 216.041C66.6573 216.041 66.5172 215.977 66.4094 215.858C66.2047 215.643 66.2262 215.299 66.4526 215.094C68.3709 213.362 85.2589 198.126 86.6599 197.372C86.9186 197.233 87.2527 197.329 87.3928 197.588C87.5329 197.846 87.4359 198.179 87.1772 198.319C86.2073 198.847 74.6864 209.122 67.1746 215.901C67.0669 215.998 66.9375 216.041 66.8082 216.041Z" fill="#1C2024"/>
<path d="M79.978 228.308C79.978 228.308 108.064 204.775 110.144 203.732L79.978 228.308Z" fill="white"/>
<path d="M79.9888 228.846C79.8379 228.846 79.6871 228.781 79.5793 228.652C79.3853 228.426 79.4176 228.082 79.6439 227.899C80.7971 226.941 107.794 204.313 109.906 203.258C110.176 203.129 110.499 203.237 110.629 203.495C110.758 203.753 110.65 204.087 110.391 204.216C108.732 205.044 88.1364 222.185 80.3337 228.717C80.2367 228.803 80.1074 228.846 79.9888 228.846Z" fill="#1C2024"/>
<path d="M85.1835 233.16C85.1835 233.16 103.904 216.256 105.294 215.503L85.1835 233.16Z" fill="white"/>
<path d="M85.1835 233.698C85.0326 233.698 84.8925 233.634 84.7847 233.516C84.5799 233.3 84.6015 232.956 84.8278 232.752C86.7462 231.019 103.634 215.783 105.035 215.03C105.294 214.89 105.628 214.987 105.768 215.245C105.908 215.503 105.811 215.837 105.552 215.977C104.583 216.504 93.0616 226.78 85.5499 233.559C85.4421 233.655 85.3128 233.698 85.1835 233.698Z" fill="#1C2024"/>
<path d="M146.851 245.179H146.484C146.183 245.169 145.956 244.921 145.956 244.62C145.956 244.319 146.247 244.082 146.506 244.093H146.851C147.422 244.093 148.004 244.06 148.575 243.996C148.866 243.953 149.136 244.168 149.179 244.459C149.211 244.749 149.006 245.018 148.705 245.061C148.09 245.136 147.465 245.179 146.851 245.179ZM144.351 244.997C144.351 244.997 144.307 244.997 144.286 244.997C143.542 244.9 142.809 244.771 142.12 244.609C141.829 244.545 141.645 244.254 141.71 243.964C141.775 243.673 142.066 243.49 142.357 243.555C143.014 243.705 143.715 243.824 144.426 243.921C144.717 243.964 144.932 244.233 144.889 244.523C144.857 244.792 144.62 244.997 144.351 244.997ZM150.752 244.641C150.515 244.641 150.3 244.491 150.235 244.254C150.149 243.964 150.321 243.673 150.601 243.587C151.259 243.393 151.905 243.157 152.541 242.866C152.811 242.737 153.134 242.866 153.253 243.124C153.382 243.393 153.253 243.716 152.994 243.834C152.315 244.146 151.614 244.415 150.903 244.62C150.849 244.631 150.806 244.641 150.752 244.641ZM140.169 244.039C140.115 244.039 140.05 244.039 139.997 244.007C139.285 243.759 138.595 243.479 137.949 243.157C137.679 243.027 137.572 242.705 137.701 242.436C137.83 242.167 138.154 242.059 138.423 242.188C139.037 242.489 139.684 242.758 140.341 242.984C140.622 243.081 140.772 243.393 140.675 243.673C140.6 243.899 140.384 244.039 140.169 244.039ZM154.643 242.834C154.47 242.834 154.298 242.748 154.19 242.597C154.029 242.35 154.093 242.016 154.341 241.855C154.901 241.478 155.462 241.058 155.99 240.596C156.216 240.402 156.55 240.423 156.755 240.649C156.949 240.875 156.928 241.209 156.701 241.413C156.13 241.908 155.537 242.36 154.934 242.769C154.848 242.834 154.74 242.855 154.632 242.855L154.643 242.834ZM136.321 242.134C136.214 242.134 136.117 242.102 136.02 242.038C135.405 241.618 134.813 241.155 134.274 240.66C134.058 240.456 134.037 240.122 134.241 239.896C134.446 239.681 134.78 239.67 135.007 239.864C135.513 240.327 136.052 240.757 136.634 241.144C136.882 241.317 136.947 241.65 136.774 241.887C136.666 242.038 136.505 242.124 136.332 242.124L136.321 242.134ZM157.876 240.025C157.747 240.025 157.617 239.982 157.51 239.885C157.294 239.681 157.272 239.347 157.466 239.122C157.93 238.616 158.372 238.067 158.792 237.497C158.964 237.26 159.309 237.206 159.546 237.378C159.784 237.551 159.837 237.895 159.665 238.132C159.223 238.734 158.749 239.304 158.275 239.842C158.167 239.961 158.027 240.015 157.876 240.015V240.025ZM133.164 239.24C133.002 239.24 132.851 239.175 132.743 239.046C132.28 238.487 131.849 237.873 131.461 237.228C131.31 236.97 131.385 236.647 131.644 236.485C131.903 236.335 132.226 236.41 132.388 236.668C132.754 237.271 133.153 237.841 133.584 238.368C133.767 238.594 133.735 238.939 133.509 239.122C133.412 239.208 133.293 239.24 133.164 239.24ZM160.441 236.561C160.344 236.561 160.247 236.539 160.161 236.485C159.902 236.335 159.827 236.001 159.978 235.743C160.333 235.151 160.678 234.527 161.001 233.892C161.131 233.623 161.454 233.516 161.723 233.655C161.993 233.785 162.101 234.107 161.961 234.376C161.626 235.043 161.271 235.689 160.904 236.302C160.807 236.475 160.624 236.561 160.441 236.561ZM130.933 235.571C130.728 235.571 130.534 235.452 130.437 235.248C130.146 234.592 129.877 233.892 129.65 233.182C129.564 232.902 129.715 232.601 129.995 232.504C130.286 232.418 130.577 232.569 130.674 232.848C130.89 233.526 131.138 234.183 131.418 234.807C131.536 235.076 131.418 235.399 131.148 235.517C131.073 235.549 130.997 235.56 130.933 235.56V235.571ZM175.885 232.719C175.497 232.719 175.12 232.719 174.753 232.698C174.451 232.698 174.225 232.44 174.236 232.138C174.236 231.837 174.505 231.611 174.796 231.622C175.486 231.643 176.187 231.643 176.919 231.622C177.221 231.632 177.469 231.848 177.48 232.149C177.48 232.45 177.253 232.698 176.962 232.698C176.607 232.698 176.251 232.709 175.906 232.709L175.885 232.719ZM162.381 232.719C162.316 232.719 162.241 232.709 162.176 232.676C161.896 232.558 161.767 232.246 161.885 231.977C162.155 231.32 162.402 230.653 162.618 229.997C162.715 229.717 163.017 229.556 163.297 229.653C163.577 229.749 163.728 230.051 163.642 230.331C163.415 231.019 163.157 231.708 162.877 232.386C162.79 232.59 162.586 232.719 162.381 232.719ZM179.075 232.579C178.795 232.579 178.568 232.364 178.536 232.084C178.514 231.783 178.73 231.525 179.021 231.503C179.711 231.439 180.411 231.363 181.133 231.267C181.424 231.224 181.704 231.428 181.737 231.729C181.769 232.031 181.575 232.3 181.273 232.332C180.53 232.429 179.808 232.515 179.107 232.579C179.096 232.579 179.075 232.579 179.064 232.579H179.075ZM172.619 232.558C172.619 232.558 172.576 232.558 172.565 232.558C171.822 232.483 171.089 232.375 170.388 232.246C170.097 232.192 169.903 231.912 169.957 231.622C170.011 231.331 170.302 231.138 170.582 231.191C171.251 231.32 171.951 231.417 172.673 231.493C172.964 231.525 173.18 231.783 173.147 232.084C173.115 232.364 172.889 232.569 172.608 232.569L172.619 232.558ZM183.332 231.977C183.084 231.977 182.858 231.805 182.804 231.546C182.739 231.256 182.933 230.965 183.224 230.912C183.925 230.772 184.614 230.6 185.272 230.406C185.563 230.32 185.854 230.481 185.94 230.772C186.026 231.062 185.865 231.353 185.574 231.439C184.884 231.643 184.172 231.815 183.44 231.966C183.407 231.966 183.364 231.977 183.332 231.977ZM168.384 231.751C168.384 231.751 168.287 231.751 168.233 231.729C167.511 231.525 166.8 231.277 166.142 231.008C165.862 230.901 165.733 230.578 165.851 230.309C165.97 230.029 166.282 229.9 166.552 230.018C167.177 230.277 167.845 230.503 168.535 230.696C168.826 230.782 168.987 231.073 168.901 231.363C168.836 231.6 168.621 231.751 168.384 231.751ZM129.607 231.482C129.359 231.482 129.133 231.31 129.079 231.051C128.928 230.341 128.81 229.61 128.713 228.878C128.68 228.587 128.885 228.318 129.187 228.275C129.489 228.232 129.747 228.448 129.79 228.749C129.877 229.448 129.995 230.148 130.135 230.825C130.2 231.116 130.017 231.407 129.726 231.46C129.683 231.46 129.65 231.471 129.618 231.471L129.607 231.482ZM187.46 230.772C187.244 230.772 187.039 230.643 186.953 230.427C186.845 230.148 186.985 229.836 187.266 229.728C187.923 229.48 188.57 229.19 189.195 228.889C189.464 228.76 189.787 228.867 189.917 229.136C190.046 229.405 189.938 229.728 189.669 229.857C189.022 230.18 188.343 230.47 187.654 230.739C187.589 230.761 187.524 230.772 187.46 230.772ZM164.407 230.115C164.321 230.115 164.224 230.094 164.138 230.04C163.459 229.653 162.844 229.233 162.284 228.77C162.058 228.577 162.025 228.243 162.208 228.017C162.392 227.791 162.737 227.759 162.963 227.942C163.028 227.996 163.103 228.049 163.168 228.114C163.168 228.06 163.168 228.017 163.189 227.963C163.362 227.275 163.512 226.575 163.631 225.897C163.685 225.607 163.954 225.402 164.256 225.456C164.547 225.51 164.752 225.79 164.698 226.08C164.579 226.79 164.429 227.511 164.245 228.232C164.191 228.426 164.051 228.566 163.868 228.62C164.127 228.792 164.396 228.964 164.676 229.115C164.935 229.265 165.021 229.588 164.881 229.846C164.784 230.018 164.601 230.115 164.418 230.115H164.407ZM191.318 228.878C191.135 228.878 190.962 228.792 190.854 228.62C190.703 228.361 190.779 228.039 191.038 227.877C191.63 227.511 192.223 227.124 192.784 226.704C193.021 226.521 193.355 226.575 193.538 226.812C193.721 227.049 193.667 227.393 193.43 227.565C192.837 228.006 192.223 228.415 191.609 228.792C191.523 228.846 191.426 228.867 191.329 228.867L191.318 228.878ZM161.131 227.371C160.969 227.371 160.807 227.296 160.7 227.167C160.193 226.521 159.816 225.844 159.568 225.144C159.471 224.864 159.611 224.552 159.891 224.456C160.172 224.359 160.484 224.499 160.581 224.778C160.786 225.359 161.12 225.94 161.551 226.5C161.734 226.737 161.691 227.07 161.454 227.253C161.357 227.328 161.238 227.361 161.12 227.361L161.131 227.371ZM129.09 227.21C128.799 227.21 128.562 226.984 128.551 226.694C128.551 226.392 128.54 226.113 128.54 225.865C128.54 224.983 128.594 224.466 128.594 224.466C128.627 224.176 128.885 223.95 129.176 223.982C129.467 224.014 129.693 224.273 129.661 224.563C129.661 224.574 129.618 225.058 129.618 225.854C129.618 226.091 129.618 226.349 129.629 226.64C129.629 226.941 129.402 227.189 129.111 227.199H129.09V227.21ZM194.777 226.306C194.626 226.306 194.486 226.242 194.379 226.123C194.185 225.897 194.195 225.564 194.422 225.359C194.939 224.897 195.445 224.402 195.92 223.885C196.124 223.67 196.469 223.659 196.685 223.864C196.9 224.068 196.911 224.402 196.706 224.628C196.2 225.166 195.672 225.682 195.133 226.166C195.025 226.263 194.907 226.306 194.777 226.306ZM164.45 224.38C164.45 224.38 164.429 224.38 164.407 224.38C164.105 224.359 163.89 224.1 163.911 223.81C163.944 223.423 163.954 223.046 163.954 222.702C163.954 222.368 163.944 222.045 163.911 221.744C163.89 221.443 164.105 221.184 164.407 221.163C164.709 221.141 164.967 221.357 164.989 221.658C165.021 221.981 165.032 222.336 165.032 222.702C165.032 223.078 165.021 223.476 164.989 223.885C164.967 224.165 164.73 224.38 164.45 224.38ZM159.805 223.38C159.805 223.38 159.773 223.38 159.751 223.38C159.46 223.347 159.234 223.089 159.266 222.788C159.342 221.991 159.622 221.227 160.075 220.539C160.236 220.291 160.57 220.227 160.818 220.388C161.066 220.55 161.131 220.883 160.969 221.131C160.613 221.669 160.398 222.271 160.333 222.885C160.301 223.164 160.075 223.369 159.794 223.369L159.805 223.38ZM197.72 223.154C197.601 223.154 197.482 223.111 197.385 223.035C197.148 222.852 197.105 222.508 197.299 222.282C197.73 221.733 198.151 221.163 198.539 220.571C198.7 220.324 199.034 220.248 199.282 220.42C199.53 220.582 199.595 220.915 199.433 221.163C199.034 221.776 198.592 222.368 198.151 222.949C198.043 223.089 197.881 223.154 197.73 223.154H197.72ZM163.9 220.162C163.717 220.162 163.545 220.076 163.437 219.904C163.221 219.549 163.017 219.549 162.941 219.549C162.78 219.549 162.564 219.624 162.338 219.775C162.09 219.936 161.756 219.861 161.594 219.613C161.432 219.366 161.508 219.032 161.756 218.871C162.165 218.602 162.564 218.473 162.952 218.473C163.351 218.473 163.922 218.624 164.364 219.334C164.526 219.581 164.439 219.915 164.191 220.076C164.105 220.13 164.008 220.162 163.911 220.162H163.9ZM200.09 219.57C200.004 219.57 199.907 219.549 199.832 219.506C199.573 219.366 199.476 219.032 199.627 218.774C199.961 218.172 200.284 217.537 200.586 216.891C200.716 216.622 201.028 216.504 201.298 216.633C201.567 216.762 201.686 217.074 201.556 217.343C201.244 218.01 200.91 218.667 200.565 219.301C200.468 219.474 200.284 219.581 200.09 219.581V219.57ZM201.901 215.665C201.836 215.665 201.772 215.654 201.707 215.632C201.427 215.525 201.287 215.213 201.395 214.944C201.642 214.276 201.869 213.599 202.074 212.942C202.16 212.662 202.461 212.501 202.742 212.576C203.033 212.662 203.194 212.964 203.108 213.243C202.903 213.932 202.666 214.632 202.408 215.32C202.321 215.535 202.117 215.665 201.901 215.665ZM203.108 211.522C203.108 211.522 203.043 211.522 203.011 211.522C202.72 211.468 202.526 211.188 202.58 210.898L203.022 210.984H203.033L202.591 210.822L203.119 210.909L203.539 210.553C203.636 210.672 203.669 210.941 203.636 211.091C203.593 211.35 203.367 211.533 203.108 211.533V211.522Z" fill="#1C2024"/>
<path d="M18.1058 157.614C17.9226 157.614 17.7501 157.528 17.6424 157.356C17.6424 157.356 17.5885 157.27 17.4915 157.097C17.3514 156.839 17.4484 156.506 17.707 156.366C17.9657 156.226 18.2998 156.323 18.4399 156.581C18.5046 156.71 18.5477 156.785 18.5584 156.785C18.7093 157.044 18.6339 157.366 18.3752 157.528C18.289 157.582 18.192 157.603 18.095 157.603L18.1058 157.614ZM17.1035 155.408C16.8772 155.408 16.6724 155.268 16.597 155.053C16.3491 154.354 16.1336 153.633 15.9827 152.922C15.918 152.632 16.1012 152.341 16.3922 152.277C16.6832 152.212 16.9742 152.395 17.0388 152.686C17.1897 153.353 17.3837 154.031 17.6208 154.687C17.7178 154.967 17.5777 155.279 17.2975 155.376C17.2328 155.397 17.1789 155.408 17.1143 155.408H17.1035ZM16.1874 151.212C15.9072 151.212 15.6701 150.996 15.6486 150.717C15.6162 150.34 15.6055 149.963 15.6055 149.565C15.6055 149.21 15.6162 148.844 15.6486 148.479C15.6701 148.177 15.9288 147.951 16.2306 147.984C16.5323 148.005 16.7479 148.263 16.7263 148.565C16.7047 148.909 16.6832 149.243 16.694 149.565C16.694 149.931 16.7047 150.286 16.7371 150.631C16.7586 150.932 16.5323 151.19 16.2413 151.212C16.2305 151.212 16.209 151.212 16.1982 151.212H16.1874ZM16.5215 146.94C16.5215 146.94 16.4353 146.94 16.3922 146.929C16.1012 146.854 15.9288 146.574 15.9935 146.284C16.1659 145.563 16.403 144.852 16.694 144.164C16.8125 143.895 17.1251 143.766 17.4053 143.873C17.6747 143.992 17.804 144.304 17.6963 144.583C17.4268 145.218 17.2113 145.875 17.0496 146.542C16.985 146.789 16.7694 146.951 16.5215 146.951V146.94ZM18.1812 142.991C18.0842 142.991 17.9872 142.969 17.901 142.916C17.6531 142.754 17.5669 142.431 17.7286 142.173C18.1058 141.56 18.5477 140.957 19.0326 140.365C19.2266 140.139 19.5607 140.107 19.787 140.29C20.0134 140.484 20.0457 140.817 19.8625 141.043C19.4098 141.592 19.0003 142.152 18.6447 142.722C18.5477 142.883 18.3644 142.98 18.1812 142.98V142.991ZM20.9079 139.677C20.7678 139.677 20.6277 139.623 20.5199 139.505C20.3151 139.289 20.3259 138.945 20.5415 138.741C21.0588 138.256 21.6192 137.772 22.2227 137.31C22.4598 137.127 22.7939 137.17 22.9771 137.406C23.1603 137.643 23.1172 137.977 22.8801 138.16C22.3089 138.601 21.7701 139.053 21.2851 139.515C21.1773 139.612 21.048 139.666 20.9187 139.666L20.9079 139.677ZM24.3135 137.051C24.1411 137.051 23.9578 136.965 23.8608 136.804C23.6992 136.556 23.7746 136.223 24.0225 136.061C24.6153 135.674 25.2511 135.308 25.9085 134.942C26.1672 134.802 26.5013 134.899 26.6414 135.158C26.7815 135.416 26.6845 135.749 26.4258 135.889C25.79 136.234 25.1757 136.599 24.6045 136.965C24.5183 137.019 24.4105 137.051 24.3135 137.051ZM28.0855 134.985C27.8808 134.985 27.6868 134.867 27.6006 134.673C27.4712 134.404 27.6006 134.082 27.8592 133.952C28.4951 133.651 29.1633 133.361 29.8638 133.081C30.1332 132.973 30.4565 133.102 30.5643 133.371C30.6721 133.651 30.5427 133.963 30.2733 134.071C29.5943 134.351 28.9477 134.63 28.3226 134.921C28.2472 134.953 28.1717 134.975 28.0963 134.975L28.0855 134.985ZM32.0731 133.361C31.8468 133.361 31.642 133.221 31.5666 133.006C31.4696 132.726 31.6097 132.414 31.8899 132.317C32.3749 132.145 32.8706 131.973 33.3772 131.811L33.9376 131.628C34.2178 131.542 34.5303 131.682 34.6165 131.962C34.7135 132.242 34.5627 132.543 34.2825 132.64L33.7113 132.833C33.2155 132.995 32.7198 133.156 32.2563 133.328C32.1917 133.35 32.1378 133.361 32.0731 133.361ZM36.1361 131.919C35.9206 131.919 35.7266 131.79 35.6404 131.585C35.5326 131.305 35.6619 130.993 35.9421 130.886C36.6103 130.617 37.257 130.326 37.8713 130.025C38.1407 129.896 38.464 130.003 38.5934 130.272C38.7227 130.541 38.6149 130.864 38.3455 130.993C37.7096 131.305 37.0307 131.607 36.3409 131.887C36.2762 131.908 36.2008 131.93 36.1361 131.93V131.919ZM40.0052 130.025C39.822 130.025 39.6387 129.928 39.5418 129.756C39.3909 129.498 39.4771 129.175 39.7357 129.014C40.35 128.648 40.9428 128.26 41.4924 127.862C41.7295 127.679 42.0744 127.744 42.2468 127.981C42.4193 128.217 42.3654 128.562 42.1283 128.734C41.5571 129.153 40.932 129.562 40.2854 129.939C40.1992 129.993 40.1022 130.014 40.016 130.014L40.0052 130.025ZM43.4755 127.486C43.3353 127.486 43.1845 127.432 43.0767 127.313C42.8719 127.098 42.8935 126.754 43.109 126.55C43.6263 126.065 44.1113 125.56 44.5424 125.043C44.7256 124.817 45.0705 124.774 45.2968 124.968C45.5231 125.161 45.5555 125.495 45.3722 125.721C44.9088 126.28 44.3915 126.819 43.8419 127.335C43.7341 127.432 43.6048 127.475 43.4755 127.475V127.486ZM46.2021 124.172C46.1051 124.172 46.0081 124.15 45.9219 124.096C45.6632 123.946 45.5878 123.612 45.7387 123.354C46.0943 122.762 46.3961 122.138 46.644 121.503C46.7517 121.223 47.0643 121.094 47.3445 121.191C47.6247 121.299 47.7648 121.611 47.657 121.89C47.3876 122.579 47.0643 123.257 46.6763 123.903C46.5793 124.075 46.3961 124.161 46.2129 124.161L46.2021 124.172ZM47.7432 120.18C47.7432 120.18 47.6786 120.18 47.6355 120.18C47.3445 120.126 47.1505 119.835 47.2044 119.545C47.3337 118.878 47.4091 118.189 47.4307 117.5C47.4307 117.199 47.6678 116.995 47.9803 116.973C48.2821 116.973 48.5084 117.231 48.5084 117.522C48.4869 118.275 48.4114 119.017 48.2713 119.749C48.2174 120.007 47.9911 120.18 47.7432 120.18ZM47.8618 115.897C47.5924 115.897 47.366 115.703 47.3229 115.434C47.2367 114.767 47.0966 114.079 46.9026 113.401C46.8272 113.11 46.9888 112.82 47.2798 112.734C47.5708 112.658 47.8618 112.82 47.948 113.11C48.1528 113.831 48.3037 114.563 48.4007 115.294C48.4438 115.585 48.2282 115.865 47.9372 115.897C47.9157 115.897 47.8941 115.897 47.8618 115.897ZM46.7086 111.765C46.5039 111.765 46.2991 111.647 46.2129 111.442C46.0512 111.066 45.8788 110.689 45.6848 110.323C45.48 110.431 45.2753 110.538 45.0705 110.635C44.8011 110.764 44.4777 110.646 44.3484 110.377C44.2191 110.108 44.3376 109.785 44.6071 109.656C44.8118 109.559 45.0166 109.452 45.2106 109.344C45.189 109.14 45.286 108.935 45.48 108.828C45.6632 108.72 45.8896 108.742 46.0512 108.849C46.1698 108.774 46.2883 108.699 46.4069 108.623C46.6547 108.451 46.9888 108.526 47.1505 108.774C47.3122 109.021 47.2475 109.355 46.9996 109.516C46.8703 109.602 46.741 109.688 46.6116 109.764C46.8272 110.173 47.0212 110.592 47.1936 111.012C47.3122 111.281 47.1828 111.604 46.9134 111.722C46.8487 111.754 46.7733 111.765 46.6979 111.765H46.7086ZM40.6949 111.744C40.4039 111.744 40.1668 111.507 40.1561 111.216C40.1561 110.915 40.3824 110.668 40.6841 110.668C41.3416 110.657 42.0097 110.549 42.6887 110.377C42.9797 110.302 43.2707 110.474 43.3461 110.764C43.4216 111.055 43.2491 111.345 42.9581 111.421C42.2037 111.625 41.4493 111.733 40.7057 111.754H40.6949V111.744ZM38.561 111.518C38.561 111.518 38.4748 111.518 38.4317 111.507C37.6773 111.324 36.966 111.033 36.2978 110.657C36.0391 110.506 35.9529 110.183 36.1038 109.925C36.2547 109.667 36.578 109.581 36.8367 109.731C37.4186 110.065 38.0437 110.313 38.6904 110.474C38.9813 110.549 39.1538 110.84 39.0891 111.12C39.0244 111.367 38.8089 111.528 38.561 111.528V111.518ZM34.8644 109.409C34.7243 109.409 34.5842 109.355 34.4764 109.247C33.916 108.677 33.4634 108.042 33.1293 107.375C33 107.106 33.1077 106.783 33.3664 106.654C33.6358 106.525 33.9591 106.633 34.0885 106.891C34.3794 107.461 34.7674 108.01 35.2416 108.505C35.4464 108.72 35.4464 109.054 35.2309 109.269C35.1231 109.366 34.9938 109.419 34.8536 109.419L34.8644 109.409ZM48.4222 108.311C48.2713 108.311 48.1204 108.247 48.0127 108.117C47.8187 107.892 47.851 107.547 48.0773 107.364C48.5839 106.934 49.1012 106.45 49.6185 105.933C49.8233 105.718 50.1681 105.718 50.3837 105.933C50.5992 106.138 50.5992 106.482 50.3837 106.697C49.8448 107.235 49.3059 107.741 48.7779 108.193C48.6809 108.279 48.5515 108.322 48.433 108.322L48.4222 108.311ZM44.5747 108.042C44.4131 108.042 44.2514 107.967 44.1436 107.827C43.7233 107.267 43.2707 106.729 42.7965 106.234C42.5917 106.019 42.6025 105.675 42.818 105.47C43.0336 105.266 43.3785 105.277 43.5832 105.492C44.0898 106.019 44.564 106.59 45.0166 107.192C45.1998 107.429 45.1459 107.773 44.9088 107.945C44.8118 108.021 44.7041 108.053 44.5855 108.053L44.5747 108.042ZM33.0646 105.557C32.7736 105.557 32.5365 105.374 32.5258 105.083C32.5258 105.083 32.5258 104.965 32.5258 104.954C32.5258 104.061 32.8167 103.286 33.3664 102.716C33.5712 102.501 33.916 102.49 34.1316 102.694C34.3471 102.899 34.3579 103.243 34.1531 103.458C33.7975 103.835 33.6143 104.351 33.6143 104.965C33.6143 105.255 33.3772 105.546 33.0862 105.546H33.0754L33.0646 105.557ZM51.4506 105.255C51.3321 105.255 51.2027 105.212 51.1057 105.126C50.8794 104.932 50.8471 104.599 51.0411 104.362C51.4183 103.921 51.8063 103.448 52.1835 102.942L52.3559 102.705C52.5391 102.468 52.8732 102.415 53.1103 102.598C53.3474 102.78 53.4013 103.114 53.2181 103.351L53.078 103.544C52.6469 104.115 52.2481 104.599 51.8602 105.062C51.7524 105.191 51.6015 105.255 51.4506 105.255ZM41.6002 104.943C41.4817 104.943 41.3631 104.9 41.2661 104.825C40.7057 104.373 40.1237 103.996 39.5525 103.674C39.2939 103.534 39.1969 103.2 39.337 102.942C39.4771 102.684 39.8112 102.587 40.0698 102.727C40.6949 103.071 41.32 103.491 41.9343 103.975C42.1714 104.158 42.2037 104.502 42.0205 104.728C41.9128 104.857 41.7619 104.932 41.6002 104.932V104.943ZM37.8174 102.931C37.8174 102.931 37.7312 102.931 37.6773 102.91C37.1923 102.78 36.7289 102.716 36.2978 102.716H36.1146C35.9853 102.716 35.8667 102.737 35.7482 102.748C35.4464 102.791 35.1877 102.576 35.1446 102.275C35.1123 101.984 35.3171 101.715 35.6188 101.672C35.7589 101.651 35.9098 101.64 36.0715 101.64H36.2978C36.8259 101.64 37.3863 101.715 37.9575 101.855C38.2485 101.93 38.4209 102.221 38.3455 102.511C38.2808 102.748 38.0653 102.91 37.8282 102.91L37.8174 102.931ZM54.0048 101.78C53.9078 101.78 53.8108 101.758 53.7246 101.704C53.466 101.554 53.3905 101.22 53.5414 100.962C53.9078 100.359 54.2419 99.7461 54.5329 99.122C54.6622 98.853 54.9856 98.7347 55.255 98.8638C55.5244 98.9929 55.643 99.3157 55.5136 99.5847C55.2011 100.241 54.8455 100.897 54.4683 101.522C54.3713 101.683 54.188 101.78 54.0048 101.78ZM55.837 97.8954C55.7831 97.8954 55.7184 97.8954 55.6645 97.8631C55.3843 97.7662 55.2334 97.465 55.3304 97.1852C55.5568 96.5288 55.74 95.851 55.8693 95.1731C55.934 94.8825 56.2142 94.6996 56.5052 94.7534C56.7961 94.818 56.9794 95.0977 56.9255 95.3883C56.7746 96.1092 56.5806 96.8301 56.3435 97.5295C56.2681 97.7555 56.0525 97.8954 55.837 97.8954ZM56.6884 93.6882C56.6884 93.6882 56.6668 93.6882 56.6453 93.6882C56.3435 93.6667 56.1279 93.4084 56.1495 93.1071C56.1818 92.6875 56.1926 92.2786 56.1926 91.859C56.1926 91.5792 56.1926 91.2994 56.1711 91.0197C56.1603 90.7184 56.3866 90.4709 56.6776 90.4601C56.9794 90.4171 57.2272 90.6753 57.238 90.9659C57.2488 91.2564 57.2596 91.5577 57.2596 91.859C57.2596 92.3001 57.238 92.7413 57.2057 93.1824C57.1841 93.4622 56.947 93.6774 56.6668 93.6774L56.6884 93.6882ZM56.4836 89.4057C56.2249 89.4057 55.9986 89.2227 55.9555 88.9537C55.8477 88.2866 55.6969 87.598 55.5029 86.9093C55.4274 86.6188 55.5891 86.3283 55.8801 86.2422C56.1711 86.1669 56.462 86.3283 56.5483 86.6188C56.753 87.3397 56.9039 88.0606 57.0225 88.7708C57.0763 89.0613 56.8716 89.3411 56.5806 89.3949C56.5483 89.3949 56.5159 89.3949 56.4944 89.3949L56.4836 89.4057ZM55.352 85.263C55.1364 85.263 54.9317 85.1339 54.8455 84.9187C54.5976 84.2731 54.3174 83.6275 54.0156 82.9819C53.8863 82.7129 54.0048 82.3901 54.2743 82.261C54.5437 82.1318 54.867 82.2502 54.9963 82.5192C55.3197 83.1863 55.6106 83.8642 55.8585 84.5421C55.9663 84.8219 55.8262 85.1339 55.546 85.2307C55.4813 85.2523 55.4167 85.263 55.352 85.263ZM53.4983 81.3786C53.3151 81.3786 53.1319 81.2818 53.0241 81.1096C52.6684 80.4963 52.302 79.8937 51.914 79.3019C51.7524 79.0544 51.817 78.7209 52.0649 78.5595C52.3128 78.3981 52.6469 78.4626 52.8086 78.7101C53.2073 79.3127 53.5953 79.9368 53.9509 80.5716C54.1018 80.8299 54.0048 81.1527 53.7462 81.3033C53.66 81.3463 53.5737 81.3786 53.4767 81.3786H53.4983ZM51.1381 77.774C50.9764 77.774 50.8148 77.6987 50.707 77.5588C50.2759 76.9777 49.8448 76.4182 49.3922 75.8802C49.1982 75.6543 49.2413 75.3099 49.4676 75.127C49.6939 74.9441 50.0388 74.9764 50.222 75.2023C50.6747 75.7511 51.1273 76.3321 51.5692 76.9239C51.7416 77.1607 51.6985 77.4942 51.4614 77.6772C51.3644 77.7525 51.2566 77.7848 51.1381 77.7848V77.774ZM48.4007 74.4384C48.2498 74.4384 48.1097 74.3738 48.0019 74.2554C47.5061 73.7067 47.0212 73.1902 46.5362 72.706C46.3314 72.4908 46.3314 72.1572 46.5362 71.942C46.7517 71.7376 47.0858 71.7376 47.3014 71.942C47.7971 72.4477 48.2929 72.975 48.7994 73.5238C48.9934 73.7497 48.9826 74.0833 48.7563 74.2877C48.6485 74.3846 48.5192 74.4276 48.4007 74.4276V74.4384ZM45.383 71.361C45.2537 71.361 45.1136 71.3179 45.0166 71.2103C44.4562 70.6831 43.9281 70.2096 43.4323 69.7792C43.206 69.5856 43.1845 69.2412 43.3785 69.0153C43.5724 68.7893 43.9173 68.7678 44.1436 68.9615C44.6502 69.4026 45.189 69.8868 45.7602 70.4248C45.9758 70.6293 45.9866 70.9736 45.7818 71.1888C45.674 71.2964 45.5339 71.361 45.3938 71.361H45.383ZM42.1283 68.5203C42.0097 68.5203 41.8912 68.4773 41.7942 68.402C40.7596 67.5734 40.1129 67.1107 40.1022 67.1107C39.8543 66.9386 39.8004 66.605 39.9728 66.3575C40.1453 66.1101 40.4794 66.0563 40.7273 66.2284C40.7596 66.2499 41.417 66.7126 42.4732 67.5627C42.7103 67.7456 42.7426 68.0899 42.5594 68.3159C42.4516 68.445 42.3007 68.5203 42.1391 68.5203H42.1283Z" fill="#1C2024"/>
</g>
<defs>
<clipPath id="clip0_2_22773">
<rect width="250" height="250" fill="white"/>
</clipPath>
</defs>
</svg>
