<svg width="14" height="15" viewBox="0 0 14 15" fill="none" xmlns="http://www.w3.org/2000/svg">
<path d="M12.75 6.75C12.3353 6.75 12 7.086 12 7.5C12 10.395 9.64425 12.75 6.75 12.75C5.364 12.75 4.05225 12.195 3.08325 11.25H5.25C5.66475 11.25 6 10.914 6 10.5C6 10.086 5.66475 9.75 5.25 9.75H1.68975C1.54125 9.71925 1.386 9.73725 1.23825 9.8025C1.22475 9.80775 1.2105 9.81 1.197 9.816C1.18725 9.82125 1.17675 9.8205 1.167 9.82575C1.14675 9.83775 1.1355 9.85725 1.116 9.87C0.90075 10.0028 0.75 10.2292 0.75 10.5V14.25C0.75 14.664 1.08525 15 1.5 15C1.91475 15 2.25 14.664 2.25 14.25V12.51C3.4725 13.6058 5.06625 14.25 6.75 14.25C10.4722 14.25 13.5 11.2215 13.5 7.5C13.5 7.086 13.1647 6.75 12.75 6.75Z" fill="#1C2024"/>
<path d="M1.5 7.5C1.5 4.605 3.85575 2.25 6.75 2.25C8.136 2.25 9.44775 2.805 10.4167 3.75H8.25C7.83525 3.75 7.5 4.086 7.5 4.5C7.5 4.914 7.83525 5.25 8.25 5.25H11.8088C11.958 5.2815 12.1147 5.26275 12.2625 5.19675C12.276 5.1915 12.2903 5.18925 12.3038 5.18325C12.3135 5.178 12.324 5.17875 12.3337 5.1735C12.354 5.1615 12.3653 5.142 12.3848 5.12925C12.5992 4.99725 12.75 4.77075 12.75 4.5V0.75C12.75 0.336 12.4147 0 12 0C11.5853 0 11.25 0.336 11.25 0.75V2.49C10.0275 1.39425 8.43375 0.75 6.75 0.75C3.02775 0.75 0 3.7785 0 7.5C0 7.914 0.33525 8.25 0.75 8.25C1.16475 8.25 1.5 7.914 1.5 7.5Z" fill="#1C2024"/>
</svg>
