<svg width="18" height="18" viewBox="0 0 18 18" fill="none" xmlns="http://www.w3.org/2000/svg">
<path d="M9.9 18H8.1C7.62261 18 7.16477 17.8104 6.82721 17.4728C6.48964 17.1352 6.3 16.6774 6.3 16.2V16.1199L5.8743 15.9399L5.8176 15.9966C5.48005 16.334 5.0223 16.5236 4.545 16.5236C4.0677 16.5236 3.60995 16.334 3.2724 15.9966L1.9998 14.7276C1.66235 14.39 1.47278 13.9323 1.47278 13.455C1.47278 12.9777 1.66235 12.5199 1.9998 12.1824L2.0565 12.1257L1.8801 11.7H1.8C1.32261 11.7 0.864773 11.5104 0.527208 11.1728C0.189642 10.8352 0 10.3774 0 9.9V8.1C0 7.62261 0.189642 7.16477 0.527208 6.82721C0.864773 6.48964 1.32261 6.3 1.8 6.3H1.8801L2.0601 5.8743L2.0034 5.8176C1.66595 5.48005 1.47638 5.0223 1.47638 4.545C1.47638 4.0677 1.66595 3.60995 2.0034 3.2724L3.2724 1.9998C3.60995 1.66235 4.0677 1.47278 4.545 1.47278C5.0223 1.47278 5.48005 1.66235 5.8176 1.9998L5.8752 2.0574L6.3 1.8801V1.8C6.3 1.32261 6.48964 0.864773 6.82721 0.527208C7.16477 0.189642 7.62261 0 8.1 0H9.9C10.3774 0 10.8352 0.189642 11.1728 0.527208C11.5104 0.864773 11.7 1.32261 11.7 1.8V1.8801L12.1248 2.0601L12.1824 2.0034C12.5199 1.66623 12.9775 1.47683 13.4545 1.47683C13.9316 1.47683 14.3892 1.66623 14.7267 2.0034L16.0002 3.2769C16.3376 3.61445 16.5272 4.0722 16.5272 4.5495C16.5272 5.0268 16.3376 5.48455 16.0002 5.8221L15.9426 5.8797L16.1226 6.3045H16.2C16.6774 6.3045 17.1352 6.49414 17.4728 6.83171C17.8104 7.16927 18 7.62711 18 8.1045V9.9045C18 10.3819 17.8104 10.8397 17.4728 11.1773C17.1352 11.5149 16.6774 11.7045 16.2 11.7045H16.1199L15.9399 12.1293L15.9966 12.1869C16.3338 12.5244 16.5232 12.982 16.5232 13.4591C16.5232 13.9361 16.3338 14.3937 15.9966 14.7312L14.7231 16.0047C14.3855 16.3421 13.9278 16.5317 13.4505 16.5317C12.9732 16.5317 12.5154 16.3421 12.1779 16.0047L12.1212 15.948L11.6955 16.128V16.2C11.6955 16.6766 11.5065 17.1338 11.1699 17.4712C10.8333 17.8086 10.3766 17.9988 9.9 18ZM5.6637 13.9824C5.78168 13.9824 5.89849 14.0057 6.0075 14.0508L7.5438 14.6871C7.70839 14.7551 7.84909 14.8705 7.9481 15.0185C8.04711 15.1665 8.09997 15.3406 8.1 15.5187V16.2H9.9V15.5187C9.90003 15.3406 9.95289 15.1665 10.0519 15.0185C10.1509 14.8705 10.2916 14.7551 10.4562 14.6871L11.9925 14.0508C12.1568 13.9827 12.3376 13.9649 12.512 13.9995C12.6864 14.0341 12.8467 14.1196 12.9726 14.2452L13.4541 14.7267L14.7276 13.455L14.2461 12.9726C14.1203 12.8468 14.0347 12.6866 13.9999 12.5121C13.9652 12.3377 13.9829 12.1569 14.0508 11.9925L14.6871 10.4562C14.7551 10.2916 14.8705 10.1509 15.0185 10.0519C15.1665 9.95289 15.3406 9.90003 15.5187 9.9H16.2V8.1H15.5187C15.3406 8.09997 15.1665 8.04711 15.0185 7.9481C14.8705 7.84909 14.7551 7.70839 14.6871 7.5438L14.0508 6.0075C13.9829 5.84312 13.9652 5.66229 13.9999 5.48785C14.0347 5.31341 14.1203 5.15318 14.2461 5.0274L14.7276 4.545L13.455 3.2724L12.9726 3.7539C12.8468 3.87966 12.6866 3.96533 12.5121 4.00009C12.3377 4.03485 12.1569 4.01714 11.9925 3.9492L10.4562 3.3129C10.2916 3.24487 10.1509 3.12954 10.0519 2.9815C9.95289 2.83347 9.90003 2.65939 9.9 2.4813V1.8H8.1V2.4813C8.09997 2.65939 8.04711 2.83347 7.9481 2.9815C7.84909 3.12954 7.70839 3.24487 7.5438 3.3129L6.0075 3.9492C5.84312 4.01714 5.66229 4.03485 5.48785 4.00009C5.31341 3.96533 5.15318 3.87966 5.0274 3.7539L4.545 3.2724L3.2724 4.545L3.7548 5.0274C3.88041 5.15328 3.96591 5.31356 4.00051 5.48799C4.0351 5.66243 4.01725 5.8432 3.9492 6.0075L3.3129 7.5438C3.24487 7.70839 3.12954 7.84909 2.9815 7.9481C2.83347 8.04711 2.65939 8.09997 2.4813 8.1H1.8V9.9H2.4813C2.65939 9.90003 2.83347 9.95289 2.9815 10.0519C3.12954 10.1509 3.24487 10.2916 3.3129 10.4562L3.9492 11.9925C4.01725 12.1568 4.0351 12.3376 4.00051 12.512C3.96591 12.6864 3.88041 12.8467 3.7548 12.9726L3.2733 13.4541L4.545 14.7276L5.0274 14.2452C5.19629 14.0767 5.42515 13.9822 5.6637 13.9824Z" fill="#1C2024"/>
<path d="M9 12.6C8.28799 12.6 7.59196 12.3889 6.99995 11.9933C6.40793 11.5977 5.94651 11.0355 5.67403 10.3777C5.40156 9.71985 5.33027 8.99601 5.46917 8.29768C5.60808 7.59934 5.95095 6.95788 6.45442 6.45442C6.95788 5.95095 7.59934 5.60808 8.29768 5.46917C8.99601 5.33027 9.71985 5.40156 10.3777 5.67403C11.0355 5.94651 11.5977 6.40793 11.9933 6.99995C12.3889 7.59196 12.6 8.28799 12.6 9C12.6 9.95478 12.2207 10.8705 11.5456 11.5456C10.8705 12.2207 9.95478 12.6 9 12.6ZM9 7.2C8.64399 7.2 8.29598 7.30557 7.99997 7.50335C7.70397 7.70114 7.47325 7.98226 7.33702 8.31117C7.20078 8.64008 7.16513 9.002 7.23459 9.35116C7.30404 9.70033 7.47547 10.0211 7.72721 10.2728C7.97894 10.5245 8.29967 10.696 8.64884 10.7654C8.998 10.8349 9.35992 10.7992 9.68883 10.663C10.0177 10.5267 10.2989 10.296 10.4966 10C10.6944 9.70402 10.8 9.35601 10.8 9C10.8 8.52261 10.6104 8.06477 10.2728 7.72721C9.93523 7.38964 9.47739 7.2 9 7.2Z" fill="#1C2024"/>
</svg>
