<svg width="242" height="223" viewBox="0 0 242 223" fill="none" xmlns="http://www.w3.org/2000/svg">
<g clip-path="url(#clip0_2_23022)">
<path d="M155.495 208.599C155.103 208.599 153.918 208.599 151.798 199.242C151.754 199.046 151.819 198.838 151.972 198.707C155.984 195.203 161.899 189.918 164.693 187.211C161.149 189.187 153.679 193.718 148.721 196.797C148.59 196.873 148.438 196.906 148.286 196.862C147.383 196.611 142.838 195.268 142.175 193.631C142.121 193.5 142.056 193.227 142.262 192.921C143.545 190.988 163.834 185.115 166.465 185.115C166.661 185.115 166.802 185.136 166.922 185.191C166.955 185.202 166.987 185.224 167.02 185.246C167.063 185.267 167.096 185.311 167.14 185.344C167.4 185.649 167.498 185.988 166.226 188.99C165.258 191.25 157.147 208.501 155.516 208.588C155.516 208.588 155.484 208.588 155.473 208.588L155.495 208.599ZM152.939 199.319C153.733 202.736 154.853 206.503 155.484 207.387C157.006 205.597 163.421 193.019 165.541 187.888C163.747 189.689 160.137 193.019 152.939 199.319ZM143.295 193.401C143.937 194.187 146.524 195.214 148.351 195.738C152.08 193.423 159.061 189.132 163.28 186.774C157.125 188.248 144.893 192.037 143.295 193.39V193.401Z" fill="#1C2024"/>
<path d="M150.025 205.411C149.764 205.411 149.59 205.313 149.482 205.215C148.775 204.625 148.253 200.192 147.938 196.578C147.916 196.273 148.133 196.011 148.427 195.989C148.721 195.956 148.992 196.185 149.014 196.48C149.286 199.69 149.786 203.402 150.134 204.276C150.613 204.057 151.722 202.976 152.678 201.797C152.863 201.568 153.211 201.524 153.44 201.721C153.668 201.906 153.711 202.256 153.516 202.485C152.831 203.326 151.134 205.302 150.112 205.4C150.08 205.4 150.047 205.4 150.015 205.4L150.025 205.411Z" fill="#1C2024"/>
<path d="M115.221 45.3534C113.384 45.3534 97.3241 31.6513 95.7802 29.555C95.5953 29.3148 95.4322 29.0201 95.5301 28.7034C95.541 28.6598 95.5627 28.627 95.5844 28.5833C95.6062 28.5397 95.6388 28.4851 95.6823 28.4523C95.6823 28.4523 95.704 28.4305 95.7149 28.4196C95.7367 28.3977 95.7693 28.3759 95.8019 28.3541C95.8236 28.3541 95.8345 28.3322 95.8563 28.3213C97.9439 27.1531 113.84 25.2424 118.809 25.2424C120.636 25.2424 121.701 25.3953 121.723 26.2032C121.767 27.9719 118.146 31.029 117.417 31.6295C117.298 31.7277 117.146 31.7714 116.993 31.7496C116.841 31.7277 104.152 29.9262 98.618 29.4349C102.293 30.7997 109.741 33.2235 114.775 34.8066C114.971 34.8612 115.112 35.025 115.145 35.2215C116.961 44.731 115.873 45.1459 115.471 45.2988C115.406 45.3206 115.297 45.3425 115.232 45.3425L115.221 45.3534ZM98.02 30.3739C102.021 34.217 112.916 43.1479 115.025 44.1742C115.254 43.1152 114.775 39.2065 114.134 35.7565C105.022 32.885 100.39 31.3019 98.02 30.3739ZM99.7162 28.4523C105.24 28.9982 115.167 30.3957 116.895 30.6359C118.385 29.3803 120.31 27.4479 120.592 26.4652C120.364 26.4107 119.864 26.3451 118.798 26.3451C114.145 26.3451 104.739 27.5461 99.7053 28.4523H99.7162Z" fill="#1C2024"/>
<path d="M118.722 40.2546C117.602 40.2546 115.699 39.3375 114.851 38.9008C114.58 38.7589 114.482 38.4313 114.612 38.1693C114.754 37.9073 115.08 37.7981 115.341 37.9291C116.7 38.6278 118.168 39.1737 118.679 39.1737C118.679 38.344 117.613 34.6755 116.569 31.5748C116.471 31.2909 116.624 30.9743 116.906 30.887C117.189 30.7887 117.504 30.9416 117.591 31.2254C118.755 34.6646 120.049 38.9335 119.636 39.7633C119.559 39.9052 119.418 40.1018 119.114 40.2C118.994 40.2437 118.853 40.2546 118.7 40.2546H118.722Z" fill="#1C2024"/>
<path d="M180.328 206.47C179.926 206.47 179.556 206.47 178.513 202.299C174.99 201.623 174.696 201.219 174.577 201.066C174.479 200.935 174.435 200.684 174.479 200.52C174.544 200.291 174.696 199.767 178.719 198.14C180.165 194.351 180.655 194.351 180.981 194.351C181.155 194.351 181.383 194.471 181.492 194.613C181.753 194.963 181.992 195.869 182.34 197.321C182.449 197.769 182.579 198.314 182.655 198.555C182.873 198.653 183.329 198.817 183.71 198.959C185.787 199.701 186.319 199.963 186.417 200.454C186.45 200.64 186.363 200.913 186.211 201.044C185.787 201.426 183.797 202.168 182.742 202.54C181.035 206.437 180.676 206.448 180.35 206.47C180.35 206.47 180.328 206.47 180.318 206.47H180.328ZM175.968 200.585C176.675 200.793 177.947 201.077 179.056 201.284C179.263 201.328 179.437 201.481 179.48 201.688C179.763 202.845 180.133 204.156 180.405 204.92C180.796 204.21 181.383 202.976 181.851 201.885C181.916 201.743 182.025 201.634 182.166 201.59C183.112 201.251 184.177 200.847 184.852 200.553C184.384 200.356 183.753 200.127 183.34 199.985C182.155 199.559 181.938 199.472 181.785 199.264C181.655 199.079 181.568 198.784 181.274 197.583C181.166 197.135 181.003 196.458 180.85 195.945C180.502 196.622 180.013 197.747 179.633 198.751C179.578 198.893 179.469 199.013 179.328 199.068C178.099 199.559 176.697 200.192 175.957 200.607L175.968 200.585Z" fill="#1C2024"/>
<path d="M90.0827 12.1298C89.6804 12.1298 89.3107 12.1298 88.2669 7.95916C84.7441 7.28225 84.4505 6.87828 84.3309 6.72543C84.233 6.59441 84.1896 6.3433 84.233 6.17953C84.2983 5.95025 84.4505 5.42619 88.4735 3.79941C89.9196 0.0108643 90.4089 0.0108643 90.7351 0.0108643C90.9091 0.0108643 91.1374 0.130962 91.2461 0.272896C91.5071 0.622272 91.7463 1.52847 92.0942 2.98056C92.2029 3.4282 92.3334 3.9741 92.4095 4.21429C92.627 4.31255 93.0837 4.47632 93.4642 4.61826C95.5409 5.36068 96.0737 5.62271 96.1716 6.11402C96.2042 6.29963 96.1172 6.57258 95.965 6.70359C95.5409 7.08572 93.5512 7.82815 92.4965 8.19936C90.7895 12.0971 90.4306 12.108 90.1045 12.1298C90.1045 12.1298 90.0827 12.1298 90.0718 12.1298H90.0827ZM85.7226 6.24504C86.4294 6.45248 87.7015 6.73635 88.8106 6.94379C89.0172 6.98746 89.1911 7.14031 89.2346 7.34775C89.5173 8.50506 89.887 9.81522 90.1588 10.5795C90.5502 9.86981 91.1374 8.63608 91.6049 7.54428C91.6702 7.40234 91.7789 7.29316 91.9202 7.24949C92.8662 6.91104 93.9317 6.50707 94.6059 6.21228C94.1383 6.01576 93.5077 5.78648 93.0945 5.64455C91.9094 5.21875 91.6919 5.1314 91.5397 4.92396C91.4092 4.73836 91.3222 4.44357 91.0287 3.24259C90.9199 2.79495 90.7568 2.11804 90.6046 1.60489C90.2567 2.28181 89.7674 3.40636 89.3868 4.41081C89.3325 4.55275 89.2237 4.67285 89.0824 4.72744C87.8537 5.21875 86.4511 5.85199 85.7118 6.26687L85.7226 6.24504Z" fill="#1C2024"/>
<path d="M227.898 190.694H227.876C226.865 190.694 225.93 190.29 225.212 189.569C224.505 188.848 224.114 187.899 224.125 186.894C224.125 184.82 225.821 183.127 227.887 183.127C228.909 183.127 229.855 183.531 230.562 184.252C231.268 184.973 231.66 185.922 231.649 186.927C231.649 189.001 229.953 190.694 227.887 190.694H227.898ZM227.898 184.219C226.419 184.219 225.212 185.42 225.201 186.894C225.201 187.615 225.473 188.292 225.973 188.805C226.473 189.318 227.148 189.602 227.865 189.602V190.148L227.876 189.602C229.344 189.602 230.551 188.401 230.551 186.927C230.551 186.206 230.279 185.529 229.779 185.016C229.279 184.503 228.605 184.219 227.887 184.219H227.898Z" fill="#1C2024"/>
<path d="M209.403 31.2582H209.381C208.37 31.2582 207.435 30.8542 206.717 30.1336C206.01 29.413 205.619 28.4632 205.63 27.4587C205.63 25.3843 207.326 23.692 209.392 23.692C210.414 23.692 211.36 24.096 212.067 24.8166C212.773 25.5372 213.165 26.487 213.154 27.4915C213.154 29.5659 211.458 31.2582 209.392 31.2582H209.403ZM209.403 24.7838C207.924 24.7838 206.717 25.9848 206.706 27.4587C206.706 28.1793 206.978 28.8562 207.478 29.3694C207.978 29.8825 208.653 30.1664 209.37 30.1664V30.7123L209.381 30.1664C210.849 30.1664 212.056 28.9654 212.056 27.4915C212.056 26.7709 211.784 26.094 211.284 25.5808C210.784 25.0677 210.11 24.7838 209.392 24.7838H209.403Z" fill="#1C2024"/>
<path d="M22.3875 97.8579H22.3658C21.3546 97.8579 20.4195 97.454 19.7019 96.7334C18.9952 96.0128 18.6037 95.0629 18.6146 94.0585C18.6146 91.984 20.3108 90.2917 22.3767 90.2917C23.3987 90.2917 24.3447 90.6957 25.0514 91.4163C25.7582 92.1369 26.1496 93.0868 26.1387 94.0912C26.1387 96.1656 24.4425 97.8579 22.3767 97.8579H22.3875ZM22.3875 91.3835C20.9088 91.3835 19.7019 92.5845 19.691 94.0585C19.691 94.779 19.9628 95.456 20.463 95.9691C20.9632 96.4823 21.6373 96.7661 22.3549 96.7661V97.312L22.3658 96.7661C23.8336 96.7661 25.0405 95.5651 25.0405 94.0912C25.0405 93.3706 24.7687 92.6937 24.2686 92.1806C23.7684 91.6674 23.0943 91.3835 22.3767 91.3835H22.3875Z" fill="#1C2024"/>
<path d="M39.5886 213.327H39.5668C38.5556 213.327 37.6206 212.923 36.9029 212.202C36.1962 211.482 35.8048 210.532 35.8157 209.527C35.8157 207.453 37.5118 205.76 39.5777 205.76C40.5998 205.76 41.5457 206.164 42.2525 206.885C42.9592 207.606 43.3506 208.555 43.3398 209.56C43.3398 211.634 41.6436 213.327 39.5777 213.327H39.5886ZM39.5886 206.852C38.1099 206.852 36.903 208.053 36.8921 209.527C36.8921 210.248 37.1639 210.925 37.6641 211.438C38.1642 211.951 38.8383 212.235 39.556 212.235V212.781L39.5668 212.235C41.0347 212.235 42.2416 211.034 42.2416 209.56C42.2416 208.839 41.9698 208.162 41.4696 207.649C40.9694 207.136 40.2953 206.852 39.5777 206.852H39.5886Z" fill="#1C2024"/>
<path d="M16.1572 183.477C16.1572 183.477 15.1134 175.507 22.7462 178.083C30.3791 180.66 27.9 187.953 24.9861 185.464C22.0721 182.964 27.5412 174.502 33.38 178.269C39.2188 182.036 37.914 189.351 33.7714 189.897C29.6288 190.432 36.2831 181.381 41.5021 186.971C46.7212 192.561 35.3263 202.758 30.6618 199.013C25.9973 195.268 29.6506 189.209 30.7705 192.899C31.8904 196.589 28.8677 200.203 20.6043 200.061C12.3299 199.919 16.1028 187.145 18.9842 190.857C21.8764 194.58 17.0705 198.773 11.2426 194.395C5.40383 190.017 12.069 180.955 16.1572 183.477Z" fill="white"/>
<path d="M21.0719 200.618H20.5934C17.8752 200.563 15.9724 199.177 15.2874 196.764C13.8631 196.578 12.3626 195.923 10.9165 194.832C8.62228 193.106 7.8503 190.497 8.78538 187.669C9.7422 184.765 12.3082 182.494 14.6133 182.494C14.9395 182.494 15.2548 182.538 15.5592 182.625C15.5592 181.512 15.7223 179.634 16.8423 178.356C18.0927 176.915 20.1585 176.642 22.9203 177.57C23.9749 177.93 24.8991 178.389 25.682 178.946C27.8892 176.609 31.0315 176.107 33.6736 177.81C36.1962 179.437 37.7293 181.948 37.8597 184.601C39.3385 184.645 40.6976 185.322 41.8936 186.599C43.5246 188.346 43.829 190.694 42.7417 193.205C41.0999 197.026 36.5985 200.367 33.1191 200.367C32.0318 200.367 31.0859 200.05 30.3248 199.439C29.966 199.144 29.6398 198.838 29.3462 198.5C27.5195 199.887 24.6708 200.607 21.0719 200.607V200.618ZM16.44 196.808C16.9184 198.14 18.0383 199.472 20.6043 199.515H21.061C25.2036 199.515 27.476 198.544 28.6938 197.616C27.5304 195.727 27.6283 193.652 28.2698 192.375C28.6503 191.633 29.194 191.207 29.7702 191.207C30.1617 191.207 30.8684 191.403 31.2707 192.746C31.8361 194.591 31.4229 196.404 30.1399 197.779C30.39 198.063 30.6727 198.336 30.988 198.598C31.5534 199.057 32.271 199.286 33.1082 199.286C36.1527 199.286 40.2627 196.185 41.7305 192.779C42.372 191.305 42.7743 189.165 41.089 187.353C40.0996 186.294 39.0014 185.737 37.8162 185.693C37.5662 188.237 35.9678 190.159 33.815 190.443C33.6736 190.464 33.5323 190.475 33.4127 190.475C32.3363 190.475 31.934 189.82 31.9122 189.198C31.847 187.691 33.9998 185.169 36.7616 184.689C36.6528 182.374 35.3046 180.18 33.0648 178.738C30.8684 177.319 28.3568 177.734 26.4975 179.656C28.3024 181.381 28.6286 183.51 28.1284 184.918C27.7805 185.912 27.0194 186.523 26.1495 186.534C25.6276 186.534 25.0949 186.316 24.6056 185.89C22.9964 184.514 23.5074 181.817 24.9535 179.797C24.2794 179.317 23.4639 178.924 22.5397 178.607C20.2346 177.832 18.5928 177.985 17.6251 179.077C16.3095 180.594 16.6465 183.379 16.6574 183.4C16.69 183.608 16.5922 183.815 16.4182 183.924C16.2442 184.034 16.0159 184.045 15.8419 183.924C15.4614 183.695 15.0373 183.575 14.5916 183.575C12.754 183.575 10.6012 185.562 9.79657 187.997C9.42689 189.111 8.86149 191.927 11.5471 193.947C12.7214 194.821 13.9174 195.388 15.0482 195.607C14.8416 193.74 15.32 191.698 16.2769 190.508C16.7444 189.929 17.2881 189.624 17.8426 189.624C18.234 189.624 18.8211 189.777 19.3865 190.508C20.4195 191.829 20.6478 193.325 20.028 194.613C19.4192 195.869 18.0492 196.688 16.4182 196.786L16.44 196.808ZM29.7811 192.299C29.6833 192.299 29.4549 192.451 29.2483 192.877C28.7808 193.805 28.7047 195.377 29.5093 196.862C30.4117 195.792 30.6727 194.471 30.2378 193.063C30.0529 192.441 29.8355 192.299 29.7702 192.299H29.7811ZM17.8643 190.726C17.6469 190.726 17.3859 190.901 17.1358 191.207C16.4291 192.08 15.9181 193.947 16.1681 195.716C17.4946 195.694 18.6037 195.094 19.0712 194.144C19.5061 193.248 19.3104 192.178 18.5493 191.196C18.3862 190.977 18.1253 190.726 17.8643 190.726ZM36.7289 185.791C34.5217 186.294 32.9886 188.324 33.0213 189.143C33.0213 189.242 33.0213 189.373 33.4344 189.373C33.5105 189.373 33.6084 189.373 33.6954 189.351C35.272 189.143 36.4571 187.724 36.7289 185.791ZM25.8233 180.474C24.5838 182.221 24.3446 184.186 25.3341 185.038C25.6276 185.289 25.9103 185.42 26.1713 185.42C26.5736 185.42 26.9215 185.093 27.1281 184.536C27.5087 183.477 27.226 181.85 25.8233 180.474Z" fill="#1C2024"/>
<path d="M156.43 13.8876C156.43 13.8876 155.386 5.91748 163.019 8.49413C170.652 11.0708 168.172 18.364 165.259 15.8747C162.345 13.3745 167.814 4.91302 173.652 8.67973C179.491 12.4464 178.187 19.7615 174.044 20.3074C169.901 20.8424 176.556 11.7914 181.775 17.3814C186.994 22.9714 175.599 33.1688 170.934 29.4239C166.27 25.679 169.923 19.6196 171.043 23.3098C172.163 27.0001 169.14 30.614 160.877 30.472C152.602 30.3301 156.375 17.5561 159.257 21.2682C162.149 24.9912 157.343 29.1837 151.515 24.8056C145.676 20.4275 152.341 11.3656 156.43 13.8876Z" fill="white"/>
<path d="M161.344 31.018H160.866C158.148 30.9634 156.245 29.5768 155.56 27.1639C154.135 26.9783 152.635 26.3232 151.189 25.2314C148.895 23.5064 148.123 20.897 149.058 18.0692C150.015 15.1651 152.581 12.8941 154.886 12.8941C155.212 12.8941 155.527 12.9378 155.832 13.0251C155.832 11.9115 155.995 10.0336 157.115 8.75619C158.365 7.31502 160.431 7.04207 163.193 7.9701C164.247 8.33039 165.171 8.78895 165.954 9.34576C168.162 7.00931 171.304 6.50709 173.946 8.21029C176.469 9.83707 178.002 12.3482 178.132 15.0013C179.611 15.045 180.97 15.7219 182.166 16.9993C183.797 18.7462 184.101 21.0935 183.014 23.6047C181.372 27.426 176.871 30.7669 173.391 30.7669C172.304 30.7669 171.358 30.4502 170.597 29.8388C170.238 29.5441 169.912 29.2383 169.619 28.8999C167.792 30.2865 164.943 31.0071 161.344 31.0071V31.018ZM156.712 27.2076C157.191 28.5396 158.311 29.8716 160.877 29.9153H161.333C165.476 29.9153 167.748 28.9436 168.966 28.0155C167.803 26.1267 167.901 24.0523 168.542 22.7749C168.923 22.0325 169.466 21.6067 170.043 21.6067C170.434 21.6067 171.141 21.8032 171.543 23.1461C172.108 24.9912 171.695 26.8036 170.412 28.1793C170.662 28.4632 170.945 28.7361 171.26 28.9981C171.826 29.4567 172.543 29.686 173.381 29.686C176.425 29.686 180.535 26.5853 182.003 23.1789C182.644 21.7049 183.047 19.565 181.361 17.7526C180.372 16.6936 179.274 16.1368 178.089 16.0931C177.839 18.637 176.24 20.5585 174.087 20.8424C173.946 20.8642 173.805 20.8752 173.685 20.8752C172.609 20.8752 172.206 20.2201 172.185 19.5978C172.119 18.0911 174.272 15.569 177.034 15.0886C176.925 12.774 175.577 10.5795 173.337 9.13832C171.141 7.71898 168.629 8.13387 166.77 10.0554C168.575 11.7805 168.901 13.9095 168.401 15.3179C168.053 16.3114 167.292 16.9228 166.422 16.9338C165.9 16.9338 165.367 16.7154 164.878 16.2896C163.269 14.9139 163.78 12.2172 165.226 10.1974C164.552 9.71698 163.736 9.32393 162.812 9.00731C160.507 8.23213 158.865 8.38498 157.908 9.47678C156.593 10.9835 156.93 13.7785 156.941 13.8112C156.962 14.0187 156.875 14.2261 156.701 14.3353C156.527 14.4445 156.299 14.4554 156.125 14.3353C155.745 14.106 155.321 13.9859 154.875 13.9859C153.037 13.9859 150.884 15.973 150.08 18.4077C149.71 19.5213 149.145 22.3382 151.83 24.358C153.005 25.2314 154.201 25.7992 155.331 26.0175C155.125 24.1506 155.603 22.1089 156.56 20.9188C157.028 20.3402 157.571 20.0345 158.126 20.0345C158.517 20.0345 159.104 20.1873 159.67 20.9188C160.703 22.2399 160.931 23.7357 160.311 25.024C159.702 26.2796 158.332 27.0984 156.701 27.1967L156.712 27.2076ZM170.053 22.6985C169.956 22.6985 169.727 22.8513 169.521 23.2771C169.053 24.2052 168.977 25.7773 169.782 27.2622C170.684 26.1922 170.945 24.8711 170.51 23.4627C170.325 22.8404 170.108 22.6985 170.043 22.6985H170.053ZM158.137 21.1263C157.919 21.1263 157.658 21.301 157.408 21.6067C156.701 22.4801 156.19 24.3471 156.44 26.1158C157.767 26.094 158.876 25.4935 159.344 24.5436C159.778 23.6483 159.583 22.5784 158.822 21.5958C158.659 21.3774 158.398 21.1263 158.137 21.1263ZM177.001 16.1913C174.794 16.6936 173.261 18.7243 173.294 19.5432C173.294 19.6414 173.294 19.7724 173.707 19.7724C173.783 19.7724 173.881 19.7724 173.968 19.7506C175.544 19.5432 176.729 18.1238 177.001 16.1913ZM166.096 10.8743C164.856 12.6212 164.617 14.5864 165.606 15.438C165.9 15.6891 166.183 15.8201 166.444 15.8201C166.846 15.8201 167.194 15.4926 167.4 14.9358C167.781 13.8767 167.498 12.2499 166.096 10.8743Z" fill="#1C2024"/>
<path d="M220.243 75.8037L212.643 94.8228L223.592 96.002L224.56 74.6682L220.243 75.8037Z" fill="white"/>
<path d="M223.592 96.5478C223.592 96.5478 223.548 96.5478 223.538 96.5478L212.589 95.3687C212.415 95.3469 212.273 95.2486 212.175 95.1067C212.088 94.9647 212.078 94.7791 212.132 94.6263L219.721 75.6181C219.786 75.4543 219.917 75.3342 220.091 75.2905L224.407 74.155C224.571 74.1114 224.755 74.155 224.886 74.2642C225.016 74.3734 225.092 74.5372 225.092 74.7119L224.125 96.0456C224.125 96.1985 224.049 96.3404 223.94 96.4387C223.842 96.526 223.712 96.5697 223.581 96.5697L223.592 96.5478ZM213.415 94.3533L223.07 95.4015L223.973 75.3888L220.635 76.2622L213.415 94.3533Z" fill="#1C2024"/>
<path d="M227.485 36.0403C227.485 36.0403 208.522 48.0392 205.554 55.1468C204.782 56.9919 213.274 56.3041 213.274 56.3041C213.274 56.3041 198.628 69.2637 200.596 70.7704C202.564 72.2771 210.501 72.288 210.501 72.288C210.501 72.288 197.214 82.2016 199.617 83.9157C202.02 85.6298 234.65 90.936 237.901 90.8923C241.152 90.8486 231.855 76.9063 231.855 76.9063C231.855 76.9063 239.021 79.6577 240.51 77.6815C242 75.7054 233.497 59.5904 233.497 59.5904C233.497 59.5904 239.901 60.5621 241.424 60.2455C244.881 59.5358 231.584 37.3286 227.474 36.0403H227.485Z" fill="#0065FF"/>
<path d="M233.193 49.3493C233.193 49.3493 233.149 49.3493 233.128 49.3493C232.834 49.3166 232.617 49.0436 232.649 48.7489C232.801 47.4715 231.584 46.2814 231.573 46.2705C231.355 46.063 231.344 45.7246 231.551 45.4953C231.758 45.2769 232.105 45.266 232.323 45.4735C232.388 45.539 233.954 47.0238 233.736 48.869C233.704 49.1419 233.465 49.3493 233.193 49.3493Z" fill="#1C2024"/>
<path d="M231.236 53.4217C231.236 53.4217 231.192 53.4217 231.17 53.4217C230.877 53.389 230.659 53.116 230.692 52.8212C230.844 51.5438 229.626 50.3538 229.616 50.3429C229.398 50.1354 229.387 49.797 229.594 49.5677C229.8 49.3493 230.137 49.3384 230.366 49.5458C230.431 49.6114 231.997 51.0962 231.779 52.9413C231.747 53.2143 231.507 53.4217 231.236 53.4217Z" fill="#1C2024"/>
<path d="M235.291 55.5289C235.291 55.5289 235.248 55.5289 235.226 55.5289C234.932 55.4962 234.715 55.2232 234.748 54.9284C234.9 53.6401 233.682 52.461 233.671 52.45C233.454 52.2426 233.443 51.8932 233.649 51.6749C233.856 51.4565 234.193 51.4456 234.421 51.653C234.487 51.7185 236.052 53.2034 235.835 55.0485C235.802 55.3215 235.563 55.5289 235.291 55.5289Z" fill="#1C2024"/>
<path d="M232.149 65.3988C232.149 65.3988 232.106 65.3988 232.084 65.3988C231.79 65.366 231.573 65.0931 231.605 64.7983C231.758 63.51 230.54 62.3308 230.529 62.3199C230.312 62.1125 230.301 61.7631 230.507 61.5447C230.714 61.3264 231.051 61.3155 231.279 61.5229C231.344 61.5884 232.91 63.0733 232.693 64.9184C232.66 65.1913 232.421 65.3988 232.149 65.3988Z" fill="#1C2024"/>
<path d="M230.192 69.4712C230.192 69.4712 230.148 69.4712 230.127 69.4712C229.833 69.4384 229.616 69.1655 229.648 68.8707C229.801 67.5824 228.583 66.4032 228.572 66.3923C228.354 66.1849 228.344 65.8355 228.55 65.6171C228.757 65.3988 229.094 65.3878 229.322 65.5953C229.387 65.6608 230.953 67.1456 230.736 68.9908C230.703 69.2637 230.464 69.4712 230.192 69.4712Z" fill="#1C2024"/>
<path d="M234.258 71.5783C234.258 71.5783 234.215 71.5783 234.193 71.5783C233.9 71.5456 233.682 71.2726 233.715 70.9779C233.867 69.6895 232.649 68.5104 232.638 68.4995C232.421 68.292 232.41 67.9427 232.617 67.7243C232.823 67.5059 233.16 67.495 233.388 67.7025C233.454 67.768 235.019 69.2528 234.802 71.098C234.769 71.3709 234.53 71.5783 234.258 71.5783Z" fill="#1C2024"/>
<path d="M228.898 80.6185C228.898 80.6185 228.855 80.6185 228.833 80.6185C228.539 80.5858 228.322 80.3128 228.354 80.018C228.507 78.7297 227.289 77.5506 227.278 77.5396C227.06 77.3322 227.05 76.9828 227.256 76.7645C227.463 76.5461 227.8 76.5352 228.028 76.7426C228.093 76.8081 229.659 78.293 229.442 80.1381C229.409 80.4111 229.17 80.6185 228.898 80.6185Z" fill="#1C2024"/>
<path d="M226.941 84.6799C226.941 84.6799 226.897 84.6799 226.876 84.6799C226.582 84.6472 226.365 84.3742 226.397 84.0794C226.549 82.7911 225.332 81.612 225.321 81.601C225.103 81.3936 225.092 81.0442 225.299 80.8259C225.506 80.6075 225.843 80.5966 226.071 80.804C226.136 80.8695 227.702 82.3544 227.484 84.1995C227.452 84.4725 227.213 84.6799 226.941 84.6799Z" fill="#1C2024"/>
<path d="M230.996 86.7871C230.996 86.7871 230.953 86.7871 230.931 86.7871C230.638 86.7543 230.42 86.4814 230.453 86.1866C230.605 84.8983 229.387 83.7191 229.376 83.7082C229.159 83.5008 229.148 83.1514 229.355 82.933C229.561 82.7147 229.898 82.7038 230.127 82.9112C230.192 82.9767 231.758 84.4616 231.54 86.3176C231.508 86.5906 231.268 86.798 230.996 86.798V86.7871Z" fill="#1C2024"/>
<path d="M22.5723 138.167L24.5946 158.551L34.8479 154.511L25.8777 135.154L22.5723 138.167Z" fill="white"/>
<path d="M24.5947 159.097C24.4968 159.097 24.399 159.075 24.312 159.021C24.1706 158.933 24.0728 158.78 24.051 158.606L22.0178 138.222C21.996 138.047 22.0613 137.883 22.1918 137.763L25.4971 134.75C25.6276 134.63 25.8016 134.586 25.9756 134.619C26.1495 134.652 26.2909 134.772 26.3561 134.925L35.3263 154.282C35.3916 154.413 35.3916 154.577 35.3372 154.719C35.2828 154.861 35.1741 154.97 35.0328 155.025L24.7795 159.064C24.7143 159.086 24.6491 159.097 24.5838 159.097H24.5947ZM23.1377 138.386L25.0731 157.776L34.1194 154.217L25.7037 136.06L23.1486 138.396L23.1377 138.386Z" fill="#1C2024"/>
<path d="M10.6664 99.5393C10.6664 99.5393 -0.619798 118.995 0.0217081 126.66C0.184803 128.658 7.39359 124.105 7.39359 124.105C7.39359 124.105 0.380516 142.403 2.81606 142.818C5.25161 143.233 12.2973 139.554 12.2973 139.554C12.2973 139.554 5.08852 154.511 8.00248 154.915C10.9164 155.319 42.2959 144.86 45.1555 143.31C48.0151 141.759 33.3474 133.724 33.3474 133.724C33.3474 133.724 40.9694 132.828 41.3825 130.383C41.7957 127.937 26.8345 117.609 26.8345 117.609C26.8345 117.609 32.956 115.501 34.1737 114.508C36.9137 112.27 14.8851 98.7641 10.6555 99.5284L10.6664 99.5393Z" fill="#0065FF"/>
<path d="M21.6045 108.754C21.3871 108.754 21.1805 108.623 21.0935 108.405C20.6368 107.193 19.0059 106.712 18.995 106.712C18.7014 106.625 18.5383 106.33 18.6145 106.035C18.6906 105.752 18.995 105.577 19.2777 105.653C19.3647 105.675 21.4414 106.276 22.1047 108.012C22.2134 108.296 22.0721 108.612 21.7894 108.721C21.7241 108.743 21.6589 108.754 21.5936 108.754H21.6045Z" fill="#1C2024"/>
<path d="M21.7459 113.274C21.5284 113.274 21.3218 113.143 21.2348 112.925C20.7782 111.713 19.1472 111.233 19.1364 111.233C18.8428 111.145 18.6797 110.85 18.7558 110.556C18.8319 110.272 19.1364 110.097 19.4191 110.173C19.506 110.195 21.5828 110.796 22.246 112.532C22.3548 112.816 22.2134 113.132 21.9307 113.241C21.8655 113.263 21.8002 113.274 21.735 113.274H21.7459Z" fill="#1C2024"/>
<path d="M26.3125 113.252C26.0951 113.252 25.8885 113.121 25.8015 112.903C25.3448 111.691 23.7248 111.211 23.703 111.211C23.4094 111.134 23.2463 110.829 23.3225 110.534C23.3986 110.239 23.703 110.075 23.9966 110.152C24.0836 110.173 26.1603 110.774 26.8236 112.51C26.9323 112.794 26.7909 113.11 26.5082 113.22C26.443 113.241 26.3778 113.252 26.3125 113.252Z" fill="#1C2024"/>
<path d="M28.0849 123.461C27.8674 123.461 27.6608 123.33 27.5738 123.111C27.1172 121.899 25.4862 121.419 25.4754 121.419C25.1818 121.332 25.0187 121.037 25.0948 120.742C25.1709 120.458 25.4754 120.283 25.7581 120.36C25.845 120.382 27.9218 120.982 28.585 122.718C28.6938 123.002 28.5524 123.319 28.2697 123.428C28.2045 123.45 28.1392 123.461 28.074 123.461H28.0849Z" fill="#1C2024"/>
<path d="M28.2262 127.981C28.0088 127.981 27.8022 127.85 27.7152 127.631C27.2585 126.419 25.6276 125.939 25.6167 125.939C25.3231 125.852 25.16 125.557 25.2362 125.262C25.3123 124.978 25.6167 124.803 25.8994 124.88C25.9864 124.902 28.0631 125.502 28.7264 127.238C28.8351 127.522 28.6938 127.839 28.4111 127.948C28.3458 127.97 28.2806 127.981 28.2154 127.981H28.2262Z" fill="#1C2024"/>
<path d="M32.7929 127.959C32.5754 127.959 32.3688 127.828 32.2818 127.61C31.8252 126.398 30.2051 125.917 30.1834 125.917C29.8898 125.841 29.7267 125.535 29.8028 125.24C29.8789 124.946 30.1834 124.782 30.4769 124.858C30.5639 124.88 32.6407 125.481 33.3039 127.216C33.4126 127.5 33.2713 127.817 32.9886 127.926C32.9234 127.948 32.8581 127.959 32.7929 127.959Z" fill="#1C2024"/>
<path d="M32.2057 138.462C31.9883 138.462 31.7817 138.331 31.6947 138.113C31.238 136.901 29.6071 136.42 29.5962 136.42C29.3026 136.333 29.1395 136.038 29.2156 135.743C29.2918 135.46 29.5962 135.285 29.8789 135.361C29.9659 135.383 32.0426 135.984 32.7059 137.72C32.8146 138.003 32.6733 138.32 32.3906 138.429C32.3253 138.451 32.2601 138.462 32.1948 138.462H32.2057Z" fill="#1C2024"/>
<path d="M32.3471 142.982C32.1296 142.982 31.923 142.851 31.836 142.633C31.3794 141.421 29.7593 140.94 29.7376 140.94C29.444 140.864 29.2809 140.558 29.357 140.263C29.4331 139.969 29.7376 139.805 30.0311 139.881C30.1181 139.903 32.1949 140.504 32.8581 142.24C32.9668 142.523 32.8255 142.84 32.5428 142.949C32.4776 142.971 32.4123 142.982 32.3471 142.982Z" fill="#1C2024"/>
<path d="M36.9137 142.96C36.6963 142.96 36.4897 142.829 36.4027 142.611C35.946 141.399 34.3151 140.919 34.3042 140.919C34.0106 140.831 33.8475 140.536 33.9237 140.242C33.9998 139.958 34.3042 139.783 34.5869 139.86C34.6739 139.881 36.7506 140.482 37.4139 142.218C37.5226 142.502 37.3813 142.818 37.0986 142.927C37.0333 142.949 36.9681 142.96 36.9029 142.96H36.9137Z" fill="#1C2024"/>
<path d="M131.443 133.822C131.28 133.822 131.106 133.745 131.009 133.593C130.835 133.352 130.889 133.003 131.128 132.828C131.226 132.752 133.683 130.983 136.141 131.9C136.423 132.009 136.565 132.315 136.467 132.599C136.369 132.883 136.054 133.025 135.771 132.927C133.868 132.217 131.802 133.702 131.781 133.713C131.683 133.778 131.574 133.822 131.465 133.822H131.443Z" fill="#1C2024"/>
<path d="M122.81 134.826C122.647 134.826 122.473 134.75 122.375 134.597C122.201 134.357 122.256 134.007 122.495 133.833C122.593 133.756 125.039 131.988 127.507 132.905C127.79 133.014 127.931 133.32 127.834 133.603C127.736 133.887 127.42 134.029 127.138 133.931C125.224 133.221 123.169 134.706 123.147 134.717C123.05 134.783 122.941 134.826 122.832 134.826H122.81Z" fill="#1C2024"/>
<path d="M117.928 140.285C117.765 140.285 117.591 140.209 117.493 140.056C117.319 139.816 117.374 139.466 117.613 139.292C117.711 139.215 120.168 137.447 122.625 138.364C122.908 138.473 123.05 138.779 122.952 139.062C122.854 139.346 122.539 139.488 122.256 139.39C120.353 138.691 118.287 140.165 118.265 140.176C118.168 140.242 118.059 140.285 117.95 140.285H117.928Z" fill="#1C2024"/>
<path d="M135.738 139.859C135.575 139.859 135.401 139.783 135.303 139.63C135.129 139.39 135.184 139.041 135.423 138.866C135.521 138.789 137.978 137.021 140.435 137.938C140.718 138.047 140.859 138.353 140.762 138.637C140.664 138.92 140.348 139.062 140.066 138.964C138.141 138.254 136.097 139.739 136.075 139.75C135.977 139.816 135.869 139.859 135.76 139.859H135.738Z" fill="#1C2024"/>
<path d="M140.512 135.383C140.349 135.383 140.175 135.307 140.077 135.154C139.903 134.914 139.957 134.564 140.196 134.39C140.305 134.313 142.751 132.544 145.209 133.461C145.491 133.571 145.633 133.876 145.535 134.16C145.437 134.444 145.122 134.586 144.839 134.488C142.936 133.789 140.86 135.263 140.849 135.274C140.751 135.339 140.642 135.383 140.533 135.383H140.512Z" fill="#1C2024"/>
<path d="M127.649 138.844C127.486 138.844 127.312 138.768 127.214 138.615C127.04 138.375 127.094 138.025 127.333 137.851C127.442 137.774 129.889 136.005 132.346 136.923C132.629 137.032 132.77 137.337 132.672 137.621C132.574 137.905 132.259 138.047 131.976 137.949C130.073 137.25 128.008 138.724 127.986 138.735C127.888 138.8 127.779 138.844 127.671 138.844H127.649Z" fill="#1C2024"/>
<path d="M217.46 64.4817C217.253 64.4817 217.057 64.3725 216.97 64.176C216.655 63.51 216.34 62.8549 216.014 62.2217C215.883 61.9487 215.992 61.6212 216.253 61.4902C216.525 61.3592 216.851 61.4683 216.981 61.7304C217.297 62.3745 217.623 63.0296 217.938 63.6956C218.069 63.9686 217.949 64.2961 217.677 64.4271C217.601 64.4599 217.525 64.4817 217.438 64.4817H217.46ZM215.503 60.584C215.307 60.584 215.122 60.4748 215.024 60.3001C214.676 59.645 214.328 59.0227 213.98 58.4113C213.828 58.1493 213.915 57.8108 214.176 57.6689C214.437 57.516 214.774 57.6143 214.915 57.8654C215.274 58.4877 215.622 59.1319 215.981 59.787C216.122 60.049 216.024 60.3874 215.753 60.5294C215.677 60.5731 215.579 60.5949 215.503 60.5949V60.584ZM213.328 56.8063C213.143 56.8063 212.969 56.719 212.871 56.5443C212.48 55.922 212.088 55.3106 211.697 54.7428C211.523 54.4917 211.588 54.1533 211.838 53.9786C212.088 53.8039 212.426 53.8694 212.599 54.1205C213.002 54.7101 213.404 55.3215 213.806 55.9657C213.969 56.2168 213.882 56.5552 213.632 56.719C213.545 56.7736 213.448 56.8063 213.35 56.8063H213.328ZM140.392 55.2342C140.055 55.2342 139.729 55.2342 139.403 55.2123C139.098 55.2014 138.87 54.9394 138.881 54.6446C138.892 54.3498 139.152 54.0987 139.446 54.1205C140.12 54.1533 140.827 54.1533 141.566 54.1205C141.86 54.0987 142.121 54.3389 142.143 54.6337C142.153 54.9394 141.925 55.1905 141.632 55.2123C141.207 55.2342 140.794 55.2451 140.392 55.2451V55.2342ZM137.271 54.994C137.271 54.994 137.217 54.994 137.184 54.994C136.434 54.8739 135.706 54.7101 134.999 54.5027C134.705 54.4153 134.542 54.1205 134.629 53.8257C134.716 53.531 135.01 53.3672 135.303 53.4545C135.967 53.651 136.652 53.8039 137.358 53.9131C137.652 53.9568 137.859 54.2406 137.815 54.5354C137.772 54.8084 137.543 54.994 137.282 54.994H137.271ZM143.763 54.994C143.491 54.994 143.262 54.7974 143.23 54.5245C143.186 54.2297 143.393 53.9458 143.697 53.9131C144.252 53.8367 144.817 53.7384 145.394 53.6183L145.796 53.531C146.089 53.4654 146.383 53.651 146.437 53.9458C146.503 54.2406 146.318 54.5354 146.024 54.59L145.6 54.6773C145.002 54.7974 144.415 54.8957 143.839 54.9721C143.817 54.9721 143.784 54.9721 143.763 54.9721V54.994ZM148.014 54.0878C147.775 54.0878 147.557 53.9349 147.492 53.6947C147.405 53.3999 147.579 53.1052 147.862 53.0178C148.558 52.8104 149.232 52.5811 149.873 52.3409C150.156 52.2317 150.471 52.3736 150.58 52.6575C150.689 52.9414 150.547 53.258 150.265 53.3672C149.591 53.6292 148.884 53.8694 148.166 54.0768C148.112 54.0878 148.068 54.0987 148.014 54.0987V54.0878ZM133.118 53.7821C133.042 53.7821 132.966 53.7711 132.901 53.7384C132.216 53.4327 131.552 53.0724 130.922 52.6793C130.672 52.5156 130.595 52.1771 130.748 51.926C130.911 51.6749 131.248 51.5985 131.498 51.7513C132.085 52.1225 132.705 52.461 133.346 52.7449C133.618 52.865 133.749 53.1925 133.618 53.4654C133.531 53.6729 133.325 53.793 133.118 53.793V53.7821ZM165.585 53.5091H165.302C164.998 53.5091 164.758 53.258 164.769 52.9523C164.769 52.6466 165.019 52.4064 165.324 52.4173H165.596C166.194 52.4173 166.813 52.3955 167.444 52.3409C167.748 52.3081 168.009 52.5374 168.031 52.8431C168.053 53.1488 167.835 53.4109 167.531 53.4327C166.879 53.4873 166.215 53.52 165.585 53.52V53.5091ZM163.149 53.3563C163.149 53.3563 163.106 53.3563 163.084 53.3563C162.323 53.258 161.583 53.1161 160.877 52.9305C160.583 52.854 160.409 52.5592 160.485 52.2645C160.561 51.9697 160.866 51.795 161.149 51.8714C161.812 52.0461 162.497 52.1771 163.214 52.2754C163.508 52.3191 163.725 52.592 163.682 52.8868C163.649 53.1597 163.41 53.3672 163.138 53.3672L163.149 53.3563ZM210.86 53.2252C210.697 53.2252 210.534 53.1488 210.425 53.0178C209.979 52.4392 209.522 51.8823 209.066 51.3583C208.87 51.129 208.892 50.7905 209.12 50.5831C209.348 50.3866 209.686 50.4084 209.892 50.6377C210.36 51.1836 210.827 51.7513 211.295 52.3518C211.48 52.592 211.436 52.9305 211.197 53.1161C211.099 53.1925 210.979 53.2252 210.871 53.2252H210.86ZM169.64 53.1379C169.379 53.1379 169.151 52.9523 169.108 52.6903C169.053 52.3955 169.249 52.1116 169.553 52.057C170.238 51.9369 170.934 51.7841 171.641 51.6094C171.935 51.533 172.228 51.7076 172.304 52.0024C172.38 52.2972 172.206 52.592 171.913 52.6684C171.184 52.854 170.456 53.0178 169.749 53.1379C169.716 53.1379 169.684 53.1379 169.651 53.1379H169.64ZM152.059 52.5156C151.863 52.5156 151.667 52.4064 151.569 52.2208C151.439 51.9478 151.537 51.6203 151.809 51.4893C152.45 51.1617 153.07 50.8015 153.635 50.4302C153.885 50.2665 154.222 50.332 154.386 50.5831C154.549 50.8342 154.483 51.1727 154.233 51.3364C153.635 51.7404 152.983 52.1116 152.298 52.461C152.222 52.5047 152.135 52.5156 152.059 52.5156ZM158.952 52.2317C158.876 52.2317 158.811 52.2208 158.735 52.188C158.028 51.8823 157.354 51.5111 156.745 51.1072C156.495 50.9434 156.43 50.6049 156.593 50.3538C156.756 50.1027 157.093 50.0372 157.343 50.201C157.897 50.5722 158.517 50.9106 159.17 51.1945C159.441 51.3146 159.572 51.6312 159.452 51.9151C159.365 52.1225 159.159 52.2426 158.952 52.2426V52.2317ZM173.848 52.057C173.62 52.057 173.402 51.9151 173.337 51.6858C173.239 51.4019 173.402 51.0962 173.685 50.998C174.337 50.7796 175.012 50.5285 175.697 50.2556C175.979 50.1464 176.295 50.2774 176.403 50.5613C176.512 50.8451 176.382 51.1617 176.099 51.2709C175.392 51.5548 174.707 51.8059 174.022 52.0352C173.968 52.057 173.903 52.0679 173.848 52.0679V52.057ZM129.443 51.4675C129.323 51.4675 129.193 51.4238 129.095 51.3364C128.53 50.856 127.986 50.332 127.475 49.7642C127.268 49.5459 127.29 49.1965 127.507 48.9891C127.725 48.7925 128.073 48.8035 128.279 49.0218C128.758 49.5459 129.258 50.0372 129.791 50.4848C130.019 50.6814 130.052 51.0198 129.856 51.2491C129.747 51.3801 129.595 51.4456 129.443 51.4456V51.4675ZM177.882 50.4412C177.675 50.4412 177.48 50.3211 177.393 50.1245C177.262 49.8516 177.393 49.524 177.654 49.404C178.197 49.1528 178.752 48.8799 179.306 48.5851L179.578 48.4432C179.85 48.3012 180.176 48.4104 180.307 48.6834C180.448 48.9563 180.339 49.2839 180.068 49.4149L179.796 49.5568C179.219 49.8516 178.654 50.1355 178.099 50.3975C178.023 50.4302 177.947 50.4521 177.871 50.4521L177.882 50.4412ZM155.669 50.1027C155.516 50.1027 155.364 50.0372 155.255 49.9171C155.212 49.8734 155.179 49.8188 155.157 49.7642C155.092 49.7315 155.038 49.6987 154.984 49.6441C154.429 49.0655 153.961 48.4322 153.614 47.7663C153.472 47.5042 153.57 47.1658 153.842 47.0238C154.103 46.8819 154.44 46.9802 154.581 47.2531C154.864 47.7881 155.244 48.3122 155.701 48.8035C156.082 48.4323 156.441 48.0501 156.767 47.6571C156.962 47.4278 157.299 47.3841 157.528 47.5806C157.756 47.7663 157.8 48.1156 157.604 48.3449C157.136 48.9126 156.614 49.4695 156.038 49.9826C155.94 50.0699 155.81 50.1136 155.679 50.1136L155.669 50.1027ZM207.989 49.9608C207.848 49.9608 207.718 49.9062 207.609 49.8079C207.087 49.2948 206.554 48.8253 206.021 48.3995C205.782 48.2139 205.749 47.8645 205.934 47.6352C206.119 47.406 206.467 47.3623 206.695 47.5479C207.261 47.9955 207.815 48.4978 208.359 49.0327C208.576 49.2402 208.576 49.5896 208.37 49.8079C208.261 49.9171 208.12 49.9717 207.978 49.9717L207.989 49.9608ZM181.785 48.5087C181.579 48.5087 181.383 48.3886 181.296 48.1921C181.166 47.9191 181.285 47.5916 181.557 47.4605C182.231 47.133 182.905 46.8382 183.558 46.5544C183.83 46.4343 184.156 46.5544 184.275 46.8382C184.395 47.1112 184.275 47.4387 183.993 47.5588C183.351 47.8318 182.699 48.1375 182.036 48.4541C181.959 48.4868 181.883 48.5087 181.807 48.5087H181.785ZM126.529 48.2466C126.355 48.2466 126.192 48.1702 126.083 48.0174C125.659 47.406 125.257 46.7727 124.909 46.1067C124.768 45.8447 124.865 45.5062 125.126 45.3643C125.387 45.2224 125.724 45.3206 125.866 45.5827C126.203 46.205 126.583 46.8164 126.986 47.3841C127.16 47.6352 127.094 47.9737 126.855 48.1484C126.757 48.2139 126.649 48.2466 126.54 48.2466H126.529ZM204.586 47.2531C204.488 47.2531 204.39 47.2313 204.293 47.1658C203.694 46.7836 203.075 46.4452 202.444 46.1613C202.172 46.0303 202.053 45.7137 202.183 45.4407C202.314 45.1678 202.629 45.0477 202.901 45.1787C203.564 45.4844 204.227 45.8556 204.869 46.2596C205.119 46.4233 205.195 46.7618 205.043 47.0129C204.934 47.1767 204.76 47.264 204.586 47.264V47.2531ZM185.776 46.7946C185.558 46.7946 185.352 46.6635 185.265 46.4452C185.156 46.1613 185.297 45.8447 185.58 45.7464C186.287 45.4735 186.983 45.2333 187.657 45.0149C187.94 44.9276 188.244 45.0804 188.342 45.3643C188.429 45.6482 188.277 45.9539 187.994 46.0521C187.331 46.2596 186.657 46.4998 185.972 46.7618C185.906 46.7836 185.841 46.7946 185.776 46.7946ZM158.376 46.729C158.289 46.729 158.202 46.7072 158.126 46.6635C157.865 46.5216 157.756 46.1941 157.897 45.9211C158.235 45.2879 158.474 44.6437 158.626 44.0105C158.702 43.7157 158.985 43.541 159.278 43.6065C159.572 43.672 159.746 43.9777 159.681 44.2616C159.507 44.9822 159.224 45.7137 158.854 46.4233C158.756 46.6089 158.572 46.7181 158.376 46.7181V46.729ZM153.407 45.9975C153.135 45.9975 152.907 45.801 152.874 45.5281C152.842 45.2551 152.82 44.9931 152.82 44.7201C152.82 44.1742 152.896 43.6392 153.048 43.137C153.135 42.8532 153.429 42.6894 153.722 42.7767C154.005 42.8641 154.168 43.1698 154.081 43.4536C153.961 43.8576 153.896 44.2943 153.896 44.7311C153.896 44.9494 153.907 45.1678 153.94 45.3861C153.983 45.6809 153.777 45.9648 153.472 45.9975C153.45 45.9975 153.418 45.9975 153.396 45.9975H153.407ZM189.918 45.4844C189.679 45.4844 189.451 45.3206 189.397 45.0695C189.32 44.7747 189.505 44.4799 189.788 44.4035C190.527 44.2179 191.256 44.0651 191.963 43.945C192.256 43.9013 192.539 44.0978 192.593 44.3926C192.648 44.6874 192.441 44.9712 192.147 45.0258C191.473 45.135 190.767 45.2879 190.06 45.4626C190.016 45.4626 189.973 45.4735 189.929 45.4735L189.918 45.4844ZM200.65 45.4407C200.65 45.4407 200.541 45.4407 200.487 45.4189C199.824 45.2114 199.139 45.0586 198.443 44.9385C198.149 44.8948 197.943 44.611 197.997 44.3162C198.041 44.0214 198.323 43.8139 198.617 43.8685C199.356 43.9886 200.096 44.1633 200.802 44.3817C201.085 44.469 201.248 44.7747 201.161 45.0586C201.085 45.2988 200.878 45.4407 200.639 45.4407H200.65ZM194.202 44.7747C193.92 44.7747 193.68 44.5564 193.659 44.2725C193.637 43.9668 193.865 43.7048 194.159 43.6829C194.92 43.6283 195.67 43.6065 196.388 43.6393C196.692 43.6502 196.921 43.9013 196.91 44.207C196.91 44.5127 196.649 44.7638 196.344 44.7311C195.659 44.7092 194.953 44.7201 194.235 44.7747C194.224 44.7747 194.213 44.7747 194.192 44.7747H194.202ZM124.441 44.4253C124.224 44.4253 124.028 44.2943 123.941 44.0869C123.419 42.8204 123.224 41.9579 123.224 41.9251C123.158 41.6303 123.343 41.3356 123.637 41.27C123.93 41.2045 124.224 41.3901 124.289 41.6849C124.289 41.6849 124.474 42.4929 124.963 43.6829C125.072 43.9668 124.941 44.2834 124.67 44.3926C124.604 44.4253 124.528 44.4363 124.463 44.4363L124.441 44.4253ZM159.311 42.5365C159.039 42.5365 158.811 42.34 158.767 42.0561C158.68 41.3574 158.419 40.8115 158.028 40.5276C157.789 40.3529 157.734 40.0036 157.908 39.7634C158.082 39.5232 158.43 39.4686 158.669 39.6433C159.289 40.1018 159.713 40.9098 159.833 41.9142C159.876 42.209 159.659 42.4819 159.365 42.5256C159.344 42.5256 159.322 42.5256 159.3 42.5256L159.311 42.5365ZM154.614 41.947C154.483 41.947 154.364 41.9033 154.255 41.8159C154.027 41.6194 154.005 41.27 154.201 41.0408C154.309 40.9207 154.418 40.8006 154.527 40.6805C155.038 40.1673 155.549 39.7852 156.049 39.545C156.321 39.414 156.647 39.5232 156.778 39.7961C156.908 40.0691 156.799 40.3966 156.528 40.5276C156.136 40.7241 155.712 41.0299 155.299 41.4557C155.201 41.5539 155.114 41.6522 155.027 41.7504C154.918 41.8815 154.766 41.936 154.614 41.936V41.947Z" fill="#1C2024"/>
<path d="M114.938 223C114.329 223 113.753 222.978 113.188 222.935C112.883 222.913 112.666 222.651 112.688 222.345C112.709 222.039 112.981 221.832 113.275 221.843C113.808 221.886 114.362 221.908 114.938 221.908H115.384C115.699 221.908 115.928 222.138 115.939 222.443C115.939 222.749 115.71 222.989 115.406 223H114.938ZM117.754 222.836L117.559 222.312L117.493 221.766L117.678 222.29L117.613 221.744C118.298 221.668 118.972 221.57 119.614 221.461C119.907 221.406 120.19 221.613 120.244 221.908C120.299 222.203 120.092 222.487 119.799 222.541C119.135 222.651 118.45 222.749 117.744 222.836H117.754ZM111.078 222.629C111.078 222.629 111.002 222.629 110.97 222.629C110.23 222.476 109.502 222.279 108.806 222.039C108.523 221.941 108.371 221.635 108.469 221.341C108.567 221.057 108.882 220.904 109.165 221.002C109.817 221.231 110.491 221.417 111.187 221.548C111.481 221.603 111.676 221.897 111.611 222.192C111.557 222.454 111.329 222.629 111.078 222.629ZM121.854 222.127C121.603 222.127 121.386 221.952 121.321 221.701C121.256 221.406 121.44 221.111 121.734 221.046C122.452 220.882 123.137 220.696 123.8 220.5C124.093 220.412 124.387 220.576 124.474 220.871C124.561 221.155 124.398 221.461 124.104 221.548C123.419 221.755 122.713 221.941 121.973 222.105C121.93 222.105 121.897 222.116 121.854 222.116V222.127ZM106.979 221.199C106.892 221.199 106.816 221.177 106.729 221.133C106.055 220.784 105.414 220.391 104.805 219.954C104.566 219.779 104.511 219.441 104.685 219.19C104.859 218.949 105.196 218.895 105.446 219.07C106.001 219.474 106.61 219.845 107.229 220.161C107.501 220.303 107.599 220.631 107.469 220.893C107.371 221.078 107.186 221.188 106.979 221.188V221.199ZM82.8304 220.958C82.5369 220.958 82.2868 220.718 82.2868 220.412C82.2868 220.107 82.526 219.867 82.8304 219.867C83.5372 219.867 84.2439 219.834 84.9724 219.79C85.2768 219.79 85.5269 219.998 85.5487 220.292C85.5704 220.598 85.3421 220.849 85.0485 220.871C84.3092 220.926 83.5698 220.947 82.8413 220.958H82.8304ZM80.6558 220.904C80.6558 220.904 80.6341 220.904 80.6232 220.904C79.8839 220.86 79.1445 220.795 78.4269 220.707C78.1333 220.675 77.9158 220.402 77.9593 220.096C78.0028 219.79 78.2638 219.583 78.5682 219.626C79.2641 219.714 79.9817 219.779 80.6993 219.823C81.0038 219.845 81.2321 220.096 81.2104 220.402C81.1886 220.696 80.9494 220.915 80.6667 220.915L80.6558 220.904ZM126.007 220.882C125.79 220.882 125.583 220.751 125.496 220.533C125.387 220.249 125.529 219.932 125.811 219.834C126.485 219.583 127.149 219.299 127.779 219.004C128.051 218.873 128.377 219.004 128.497 219.266C128.627 219.539 128.497 219.867 128.236 219.987C127.584 220.292 126.899 220.587 126.192 220.849C126.127 220.871 126.061 220.882 125.996 220.882H126.007ZM87.321 220.642L87.1687 220.107L87.0926 219.561C87.8864 219.452 88.5714 219.353 89.2346 219.255C89.5282 219.212 89.8109 219.419 89.8544 219.714C89.8979 220.009 89.6913 220.292 89.3977 220.336C88.7236 220.434 88.0386 220.533 87.321 220.631V220.642ZM76.3393 220.369C76.3393 220.369 76.274 220.369 76.2414 220.369C75.5129 220.227 74.7953 220.063 74.0885 219.877C73.795 219.801 73.621 219.506 73.6971 219.212C73.7732 218.917 74.0777 218.742 74.3604 218.818C75.0454 219.004 75.7412 219.157 76.448 219.299C76.7416 219.353 76.9373 219.637 76.8829 219.943C76.8285 220.205 76.6002 220.391 76.3501 220.391L76.3393 220.369ZM91.4527 220.009C91.1918 220.009 90.9634 219.823 90.9199 219.561C90.8656 219.266 91.0613 218.982 91.3657 218.928C92.1051 218.797 92.8118 218.666 93.486 218.524C93.7795 218.458 94.0622 218.655 94.1275 218.949C94.1927 219.244 93.997 219.528 93.7034 219.594C93.0184 219.736 92.3008 219.867 91.5506 219.998C91.5179 219.998 91.4853 219.998 91.4527 219.998V220.009ZM72.1314 219.266C72.077 219.266 72.0118 219.266 71.9574 219.233C71.2507 218.993 70.5548 218.731 69.8916 218.447C69.6198 218.327 69.4893 218.011 69.598 217.738C69.7176 217.454 70.0329 217.334 70.3048 217.443C70.9571 217.716 71.6204 217.967 72.3054 218.207C72.5881 218.305 72.7403 218.611 72.6424 218.895C72.5663 219.124 72.3489 219.266 72.1314 219.266ZM95.7149 219.135C95.4648 219.135 95.2474 218.971 95.1821 218.72C95.1169 218.425 95.2909 218.131 95.5844 218.065C96.3238 217.89 97.0197 217.705 97.6612 217.519C97.9547 217.443 98.2483 217.607 98.3353 217.89C98.4223 218.174 98.2483 218.48 97.9656 218.567C97.3024 218.764 96.5956 218.949 95.8345 219.135C95.791 219.135 95.7475 219.146 95.704 219.146L95.7149 219.135ZM129.932 219.037C129.747 219.037 129.563 218.939 129.465 218.764C129.312 218.502 129.399 218.174 129.66 218.021C130.28 217.661 130.878 217.279 131.454 216.875C131.704 216.7 132.042 216.766 132.216 217.006C132.389 217.246 132.324 217.596 132.085 217.77C131.487 218.196 130.856 218.6 130.215 218.971C130.128 219.026 130.041 219.048 129.943 219.048L129.932 219.037ZM103.467 218.655C103.326 218.655 103.196 218.6 103.087 218.491C102.663 218.065 102.26 217.607 101.891 217.137C101.336 217.388 100.727 217.639 100.075 217.869C99.7923 217.967 99.477 217.825 99.3791 217.541C99.2813 217.257 99.4226 216.941 99.7053 216.842C100.423 216.58 101.086 216.318 101.662 216.034C101.684 216.034 101.706 216.013 101.728 216.013C101.967 215.838 102.304 215.892 102.478 216.133C102.891 216.689 103.348 217.224 103.837 217.716C104.054 217.923 104.054 218.273 103.837 218.491C103.728 218.6 103.587 218.655 103.456 218.655H103.467ZM68.1302 217.563C68.0432 217.563 67.9671 217.541 67.8801 217.508C67.2168 217.17 66.5644 216.81 65.9447 216.427C65.6837 216.275 65.6076 215.936 65.7598 215.674C65.9121 215.412 66.2491 215.336 66.5101 215.488C67.1081 215.86 67.7387 216.209 68.3694 216.537C68.6412 216.679 68.739 217.006 68.6086 217.268C68.5107 217.454 68.3259 217.563 68.1193 217.563H68.1302ZM133.477 216.515C133.325 216.515 133.172 216.449 133.064 216.329C132.868 216.1 132.89 215.761 133.118 215.554C133.651 215.095 134.173 214.604 134.651 214.091C134.858 213.873 135.206 213.862 135.423 214.069C135.641 214.277 135.651 214.626 135.445 214.844C134.934 215.379 134.39 215.903 133.836 216.384C133.738 216.471 133.607 216.515 133.477 216.515ZM103.783 216.002C103.609 216.002 103.446 215.925 103.337 215.772C103.163 215.521 103.228 215.183 103.478 215.008C104.109 214.571 104.587 214.113 104.913 213.654C105.087 213.403 105.424 213.349 105.675 213.523C105.925 213.698 105.979 214.036 105.805 214.287C105.414 214.855 104.837 215.401 104.098 215.914C104 215.98 103.891 216.013 103.794 216.013L103.783 216.002ZM64.4116 215.292C64.3029 215.292 64.1941 215.259 64.0963 215.183C63.4983 214.746 62.9111 214.277 62.3566 213.796C62.1283 213.6 62.1065 213.25 62.3022 213.021C62.4979 212.792 62.8459 212.77 63.0742 212.966C63.607 213.425 64.1724 213.873 64.7487 214.287C64.9879 214.462 65.0422 214.801 64.8683 215.052C64.7595 215.194 64.5964 215.281 64.4225 215.281L64.4116 215.292ZM100.89 215.139C100.695 215.139 100.499 215.03 100.401 214.844C100.042 214.156 99.7597 213.447 99.5422 212.737C99.4552 212.453 99.6183 212.148 99.901 212.049C100.195 211.962 100.488 212.126 100.586 212.41C100.782 213.054 101.054 213.709 101.38 214.342C101.521 214.615 101.412 214.943 101.141 215.074C101.064 215.117 100.977 215.139 100.89 215.139ZM136.445 213.338C136.326 213.338 136.217 213.305 136.119 213.228C135.88 213.043 135.836 212.704 136.021 212.464C136.456 211.896 136.847 211.307 137.206 210.706C137.358 210.444 137.695 210.368 137.956 210.521C138.217 210.674 138.294 211.012 138.141 211.274C137.761 211.907 137.337 212.53 136.88 213.13C136.771 213.272 136.608 213.349 136.445 213.349V213.338ZM105.914 212.453C105.642 212.453 105.403 212.246 105.37 211.962C105.316 211.416 105.055 210.848 104.609 210.27C104.424 210.029 104.468 209.691 104.707 209.505C104.946 209.32 105.283 209.363 105.468 209.604C106.044 210.346 106.37 211.099 106.457 211.853C106.49 212.148 106.273 212.421 105.979 212.453C105.957 212.453 105.936 212.453 105.925 212.453H105.914ZM61.1171 212.431C60.9757 212.431 60.8344 212.377 60.7257 212.268C60.2037 211.722 59.7145 211.154 59.2578 210.586C59.073 210.346 59.1165 210.008 59.3448 209.822C59.584 209.636 59.9211 209.68 60.1059 209.909C60.5299 210.455 60.9975 210.99 61.4976 211.514C61.7042 211.733 61.7042 212.082 61.4868 212.289C61.378 212.388 61.2476 212.442 61.1062 212.442L61.1171 212.431ZM99.6401 210.979C99.3574 210.979 99.1182 210.761 99.0964 210.477C99.0855 210.281 99.0747 210.084 99.0747 209.898C99.0747 209.189 99.1834 208.577 99.39 208.075C99.5096 207.791 99.8249 207.66 100.097 207.78C100.379 207.9 100.51 208.217 100.39 208.49C100.238 208.85 100.162 209.331 100.162 209.888C100.162 210.051 100.162 210.215 100.184 210.39C100.205 210.695 99.988 210.958 99.6836 210.979C99.6727 210.979 99.6509 210.979 99.6401 210.979ZM138.685 209.604C138.609 209.604 138.533 209.593 138.467 209.56C138.196 209.44 138.076 209.112 138.196 208.839C138.718 207.66 138.902 206.885 138.902 206.885C138.968 206.59 139.261 206.405 139.555 206.47C139.848 206.536 140.033 206.831 139.968 207.125C139.968 207.158 139.772 208.01 139.196 209.287C139.109 209.494 138.902 209.615 138.696 209.615L138.685 209.604ZM58.4423 209.003C58.2575 209.003 58.0835 208.916 57.9748 208.741C57.5725 208.086 57.2246 207.42 56.9201 206.754C56.8005 206.481 56.9201 206.154 57.1919 206.033C57.4638 205.913 57.7899 206.033 57.9095 206.306C58.1922 206.929 58.5293 207.562 58.899 208.173C59.0621 208.425 58.9751 208.763 58.725 208.927C58.638 208.981 58.5402 209.003 58.4423 209.003ZM103.478 208.981C103.359 208.981 103.25 208.949 103.152 208.872C102.848 208.643 102.521 208.414 102.163 208.195C101.913 208.042 101.684 207.933 101.478 207.879C101.184 207.802 101.01 207.507 101.086 207.213C101.162 206.918 101.456 206.743 101.749 206.82C102.065 206.896 102.402 207.049 102.75 207.267C103.13 207.507 103.489 207.748 103.815 207.999C104.054 208.184 104.098 208.523 103.924 208.763C103.815 208.905 103.652 208.981 103.489 208.981H103.478ZM56.67 205.04C56.4308 205.04 56.2134 204.887 56.1481 204.647C55.9415 203.904 55.7893 203.151 55.7132 202.42C55.6806 202.125 55.898 201.852 56.1916 201.819C56.4961 201.786 56.757 202.005 56.7896 202.3C56.8549 202.976 56.9962 203.664 57.1811 204.352C57.268 204.647 57.0941 204.942 56.8114 205.029C56.757 205.04 56.7135 205.051 56.6592 205.051L56.67 205.04ZM56.2351 200.716C56.2351 200.716 56.2025 200.716 56.1916 200.716C55.8872 200.695 55.6697 200.422 55.7023 200.127C55.7676 199.363 55.9198 198.609 56.1373 197.878C56.2242 197.594 56.5287 197.43 56.8114 197.517C57.0941 197.605 57.2572 197.91 57.1702 198.194C56.9745 198.849 56.844 199.537 56.7788 200.225C56.757 200.509 56.5178 200.727 56.2351 200.727V200.716ZM57.4855 196.568C57.3985 196.568 57.3115 196.546 57.2246 196.502C56.9636 196.36 56.8657 196.022 57.0071 195.76C57.355 195.105 57.7899 194.471 58.2684 193.871C58.4532 193.642 58.8011 193.598 59.0295 193.794C59.2578 193.98 59.3013 194.329 59.1056 194.559C58.6598 195.105 58.2684 195.694 57.953 196.284C57.8552 196.469 57.6703 196.568 57.4746 196.568H57.4855Z" fill="#1C2024"/>
<path d="M58.4858 158.344C58.4858 158.344 38.1859 159.621 38.947 161.16C39.7081 162.7 39.6429 170.877 39.6429 170.877C39.6429 170.877 58.464 169.895 58.6489 168.476C58.8337 167.056 58.4858 158.344 58.4858 158.344Z" fill="#1C2024"/>
<path d="M49.5373 75.9673L196.518 63.5536L206.032 106.068C206.032 106.068 225.538 107.018 226.484 108.459C229.822 113.482 241.706 146.672 232.193 154.315C222.679 161.957 59.0403 177.243 53.332 179.153C47.6237 181.064 40.0126 72.157 49.5265 75.9783L49.5373 75.9673Z" fill="#A3C7FF"/>
<path d="M158.006 167.504C158.006 167.504 157.974 167.504 157.963 167.504C157.658 167.482 157.441 167.22 157.463 166.914C157.517 166.259 158.843 150.843 168.162 142.906C172.185 139.488 177.099 138.003 182.775 138.484C189.94 139.095 195.366 141.606 198.899 145.963C204.195 152.492 203.292 160.724 203.249 161.062C203.216 161.357 202.944 161.575 202.64 161.543C202.346 161.51 202.129 161.237 202.161 160.931C202.161 160.855 203.042 152.797 198.041 146.64C194.703 142.534 189.538 140.154 182.677 139.576C177.295 139.117 172.652 140.515 168.857 143.746C159.876 151.389 158.55 166.86 158.539 167.012C158.517 167.296 158.278 167.515 157.995 167.515L158.006 167.504Z" fill="#1C2024"/>
<path d="M181.774 180.092C191.232 180.092 198.899 172.393 198.899 162.896C198.899 153.399 191.232 145.701 181.774 145.701C172.317 145.701 164.65 153.399 164.65 162.896C164.65 172.393 172.317 180.092 181.774 180.092Z" fill="#1C2024"/>
<path d="M66.6623 178.258C66.6623 178.258 66.6405 178.258 66.6296 178.258C66.3252 178.236 66.0969 177.985 66.1186 177.679C66.1621 176.97 67.2712 160.232 76.8394 151.935C80.721 148.561 85.4834 147.087 90.9743 147.557C98.1396 148.168 103.565 150.679 107.099 155.035C112.394 161.564 111.492 169.797 111.448 170.135C111.415 170.43 111.144 170.637 110.839 170.615C110.546 170.583 110.328 170.31 110.361 170.004C110.361 169.928 111.242 161.87 106.24 155.712C102.902 151.607 97.7373 149.227 90.8764 148.648C85.69 148.201 81.2103 149.587 77.5461 152.764C68.3367 160.756 67.2059 177.581 67.195 177.756C67.1733 178.051 66.9341 178.269 66.6514 178.269L66.6623 178.258Z" fill="#1C2024"/>
<path d="M89.9739 189.176C99.4318 189.176 107.099 181.477 107.099 171.98C107.099 162.483 99.4318 154.784 89.9739 154.784C80.5161 154.784 72.849 162.483 72.849 171.98C72.849 181.477 80.5161 189.176 89.9739 189.176Z" fill="#1C2024"/>
<path d="M182.036 170.681C186.425 170.681 189.984 167.108 189.984 162.7C189.984 158.292 186.425 154.719 182.036 154.719C177.646 154.719 174.087 158.292 174.087 162.7C174.087 167.108 177.646 170.681 182.036 170.681Z" fill="#FEFFFF"/>
<path d="M195.594 161.597C195.322 161.597 195.094 161.401 195.061 161.128C194.572 157.656 193.235 155.123 191.104 153.627C187.94 151.4 184.058 152.186 184.014 152.186C183.721 152.251 183.427 152.055 183.373 151.76C183.308 151.465 183.503 151.17 183.797 151.116C183.971 151.083 188.179 150.232 191.723 152.732C194.115 154.413 195.594 157.186 196.138 160.975C196.181 161.27 195.975 161.553 195.681 161.597C195.659 161.597 195.627 161.597 195.605 161.597H195.594Z" fill="#FEFFFF"/>
<path d="M89.1802 180.54C93.5698 180.54 97.1284 176.967 97.1284 172.559C97.1284 168.151 93.5698 164.578 89.1802 164.578C84.7906 164.578 81.2321 168.151 81.2321 172.559C81.2321 176.967 84.7906 180.54 89.1802 180.54Z" fill="#FEFFFF"/>
<path d="M102.75 171.456C102.478 171.456 102.25 171.26 102.217 170.987C101.728 167.515 100.39 164.982 98.2591 163.486C95.0951 161.259 91.2134 162.045 91.1699 162.045C90.8764 162.11 90.5828 161.914 90.5284 161.619C90.4632 161.324 90.6589 161.029 90.9525 160.975C91.1265 160.942 95.3343 160.091 98.8898 162.591C101.282 164.272 102.761 167.045 103.304 170.834C103.348 171.129 103.141 171.412 102.848 171.456C102.826 171.456 102.793 171.456 102.771 171.456H102.75Z" fill="#FEFFFF"/>
<path d="M236.955 145.701C236.955 145.701 212.219 149.522 214.122 151.433C216.024 153.343 216.97 160.505 216.97 160.505L239.804 153.824L236.955 145.701Z" fill="#1C2024"/>
<path d="M218.406 130.896C222.609 130.896 226.017 127.474 226.017 123.253C226.017 119.032 222.609 115.611 218.406 115.611C214.202 115.611 210.795 119.032 210.795 123.253C210.795 127.474 214.202 130.896 218.406 130.896Z" fill="#FEFFFF"/>
<path d="M196.518 108.448C196.518 108.448 192.234 72.1461 188.907 73.5763C185.58 75.0066 58.0944 81.2189 59.5188 86.9509C60.9431 92.6828 57.616 124.683 59.0403 125.164C60.4647 125.644 196.507 108.448 196.507 108.448H196.518Z" fill="#FEFFFF"/>
<path d="M80.4601 75.487C80.4601 75.487 83.8416 133.756 84.3961 134.237C84.9506 134.717 91.4092 132.806 91.4092 132.806C91.4092 132.806 89.1911 74.5371 88.4626 74.5371C87.7341 74.5371 80.471 75.487 80.471 75.487H80.4601Z" fill="#A3C7FF"/>
<path d="M121.364 72.146C121.364 72.146 124.746 130.415 125.3 130.896C125.855 131.376 132.313 129.465 132.313 129.465C132.313 129.465 130.095 71.1962 129.367 71.1962C128.638 71.1962 121.375 72.146 121.375 72.146H121.364Z" fill="#A3C7FF"/>
<path d="M157.104 72.015C157.104 72.015 167.118 129.509 167.727 129.924C168.336 130.339 174.522 127.697 174.522 127.697C174.522 127.697 165.661 70.0607 164.932 70.148C164.204 70.2354 157.104 72.015 157.104 72.015Z" fill="#A3C7FF"/>
<path d="M58.5728 132.402C58.3009 132.402 58.0617 132.195 58.0291 131.922C57.9965 131.627 58.214 131.354 58.5075 131.322C59.7579 131.18 183.242 116.986 192.18 116.036C192.474 116.004 192.745 116.222 192.778 116.517C192.811 116.812 192.593 117.084 192.3 117.117C183.373 118.056 59.8884 132.26 58.638 132.402C58.6163 132.402 58.5945 132.402 58.5728 132.402Z" fill="#1C2024"/>
<path d="M110.426 85.0402C110.426 85.0402 99.0094 108.448 98.531 112.27L110.426 85.0402Z" fill="white"/>
<path d="M98.531 112.816C98.531 112.816 98.4875 112.816 98.4658 112.816C98.1722 112.783 97.9547 112.51 97.9982 112.204C98.4766 108.339 109.469 85.7608 109.937 84.8109C110.067 84.5379 110.393 84.4288 110.665 84.5598C110.937 84.6908 111.046 85.0183 110.915 85.2913C106.979 93.3597 99.4443 109.398 99.0747 112.346C99.042 112.619 98.8028 112.826 98.531 112.826V112.816Z" fill="#1C2024"/>
<path d="M112.329 93.6436C112.329 93.6436 105.675 105.588 105.675 107.968L112.329 93.6436Z" fill="white"/>
<path d="M105.664 108.514C105.359 108.514 105.12 108.274 105.12 107.968C105.12 105.511 111.165 94.6043 111.85 93.3706C111.992 93.1086 112.329 93.0103 112.59 93.1632C112.851 93.3051 112.949 93.6436 112.796 93.9056C110.143 98.6549 106.207 106.319 106.207 107.968C106.207 108.274 105.968 108.514 105.664 108.514Z" fill="#1C2024"/>
<path d="M150.384 82.1797C150.384 82.1797 138.968 105.588 138.489 109.409L150.384 82.1797Z" fill="white"/>
<path d="M138.489 109.955C138.489 109.955 138.446 109.955 138.424 109.955C138.13 109.922 137.913 109.649 137.956 109.344C138.435 105.479 149.427 82.9003 149.895 81.9504C150.025 81.6775 150.352 81.5683 150.623 81.6993C150.895 81.8303 151.004 82.1579 150.873 82.4308C146.937 90.4992 139.402 106.538 139.033 109.486C139 109.759 138.761 109.966 138.489 109.966V109.955Z" fill="#1C2024"/>
<path d="M152.287 90.7722C152.287 90.7722 145.633 102.717 145.633 105.097L152.287 90.7722Z" fill="white"/>
<path d="M145.622 105.653C145.317 105.653 145.078 105.413 145.078 105.107C145.078 102.651 151.113 91.7439 151.809 90.5101C151.95 90.2481 152.287 90.1498 152.548 90.3027C152.809 90.4446 152.907 90.7831 152.755 91.0451C150.102 95.7944 146.166 103.459 146.166 105.107C146.166 105.413 145.926 105.653 145.622 105.653Z" fill="#1C2024"/>
<path d="M74.817 90.3026C74.817 90.3026 63.7917 111.243 63.3351 114.661L74.817 90.3026Z" fill="white"/>
<path d="M63.3351 115.207C63.3351 115.207 63.2916 115.207 63.259 115.207C62.9654 115.163 62.7479 114.89 62.7914 114.595C63.259 111.123 73.8819 90.914 74.3277 90.0515C74.469 89.7895 74.7952 89.6803 75.067 89.8222C75.328 89.9642 75.4367 90.2917 75.2954 90.5647C71.5007 97.7815 64.2267 112.117 63.8679 114.748C63.8352 115.021 63.596 115.217 63.3242 115.217L63.3351 115.207Z" fill="#1C2024"/>
<path d="M76.6546 97.9889C76.6546 97.9889 70.2286 108.678 70.2286 110.807L76.6546 97.9889Z" fill="white"/>
<path d="M70.2177 111.363C69.9133 111.363 69.6741 111.123 69.6741 110.818C69.6741 108.59 75.5129 98.8187 76.187 97.716C76.3392 97.454 76.6763 97.3775 76.9372 97.5304C77.1982 97.6832 77.2743 98.0217 77.1221 98.2837C74.6648 102.367 70.7722 109.376 70.7722 110.818C70.7722 111.123 70.533 111.363 70.2286 111.363H70.2177Z" fill="#1C2024"/>
<path d="M184.678 79.3082C184.678 79.3082 176.414 98.1964 176.066 101.275L184.678 79.3082Z" fill="white"/>
<path d="M176.066 101.832C176.066 101.832 176.023 101.832 176.001 101.832C175.707 101.799 175.49 101.526 175.523 101.232C175.87 98.0981 183.84 79.876 184.177 79.1008C184.297 78.8278 184.623 78.6968 184.895 78.8169C185.167 78.937 185.297 79.2646 185.178 79.5375C182.329 86.0446 176.871 98.9715 176.61 101.352C176.577 101.636 176.338 101.832 176.066 101.832Z" fill="#1C2024"/>
<path d="M186.059 86.2521C186.059 86.2521 181.231 95.8927 181.231 97.8142L186.059 86.2521Z" fill="white"/>
<path d="M181.231 98.3601C180.926 98.3601 180.687 98.1199 180.687 97.8142C180.687 95.8163 185.069 87.0054 185.569 86.001C185.7 85.728 186.026 85.6189 186.298 85.7608C186.57 85.8918 186.678 86.2193 186.537 86.4923C184.699 90.1717 181.775 96.5041 181.775 97.8142C181.775 98.1199 181.535 98.3601 181.231 98.3601Z" fill="#1C2024"/>
<path d="M16.7444 23.299C16.7444 23.299 39.6103 0.928011 66.6188 12.3919C86.3968 20.7878 102.978 43.137 75.7956 70.0607C75.7956 70.0607 83.9503 74.4279 81.2321 76.6115C78.5139 78.7951 41.176 92.3553 20.1042 76.3495C-0.956782 60.3328 8.5897 34.217 16.7444 23.299Z" fill="#D0E2FF"/>
<path d="M61.4324 66.0538C61.4324 66.0538 63.7157 74.1332 62.5197 74.024C61.3237 73.9148 56.5396 68.6742 56.5396 68.6742" fill="white"/>
<path d="M62.5414 74.5698C62.5414 74.5698 62.498 74.5698 62.4653 74.5698C61.1932 74.4497 57.616 70.6721 56.1373 69.0453C55.9307 68.827 55.9524 68.4776 56.1699 68.2702C56.3873 68.0627 56.7353 68.0845 56.9419 68.3029C58.9316 70.4865 61.3889 72.8666 62.324 73.3798C62.411 72.3426 61.7042 69.0126 60.9105 66.1957C60.8235 65.9009 60.9975 65.6062 61.2802 65.5188C61.5737 65.4315 61.8673 65.6062 61.9543 65.89C62.7263 68.6195 63.9006 73.3361 63.1286 74.275C62.9764 74.4607 62.7698 74.5589 62.5414 74.5589V74.5698Z" fill="#1C2024"/>
<path d="M31.0098 66.0538C31.0098 66.0538 28.7265 74.1332 29.9225 74.024C31.1185 73.9148 35.9027 68.6742 35.9027 68.6742" fill="white"/>
<path d="M29.9008 74.5699C29.6725 74.5699 29.455 74.4716 29.3136 74.286C28.5417 73.3471 29.716 68.6305 30.4879 65.901C30.5749 65.6062 30.8685 65.4425 31.1621 65.5298C31.4556 65.6172 31.6187 65.9119 31.5317 66.2067C30.738 69.0236 30.0204 72.3536 30.1183 73.3908C31.0533 72.8776 33.5106 70.4975 35.5004 68.3139C35.707 68.0955 36.044 68.0737 36.2724 68.2811C36.4898 68.4886 36.5116 68.827 36.305 69.0563C34.8263 70.6831 31.2382 74.4607 29.9769 74.5808C29.9552 74.5808 29.9334 74.5808 29.9008 74.5808V74.5699Z" fill="#1C2024"/>
<path d="M46.9169 72.288C60.0618 72.288 70.7179 61.5878 70.7179 48.3885C70.7179 35.1892 60.0618 24.489 46.9169 24.489C33.772 24.489 23.116 35.1892 23.116 48.3885C23.116 61.5878 33.772 72.288 46.9169 72.288Z" fill="#0065FF"/>
<path d="M46.917 66.4578C56.6932 66.4578 64.6183 58.4999 64.6183 48.6833C64.6183 38.8667 56.6932 30.9088 46.917 30.9088C37.1409 30.9088 29.2158 38.8667 29.2158 48.6833C29.2158 58.4999 37.1409 66.4578 46.917 66.4578Z" fill="white"/>
<path d="M46.917 67.0037C36.8595 67.0037 28.6721 58.7824 28.6721 48.6833C28.6721 38.5842 36.8595 30.3629 46.917 30.3629C56.9745 30.3629 65.1618 38.5842 65.1618 48.6833C65.1618 58.7824 56.9745 67.0037 46.917 67.0037ZM46.917 31.4547C37.4575 31.4547 29.7594 39.1847 29.7594 48.6833C29.7594 58.182 37.4575 65.9119 46.917 65.9119C56.3765 65.9119 64.0746 58.182 64.0746 48.6833C64.0746 39.1847 56.3765 31.4547 46.917 31.4547Z" fill="#1C2024"/>
<path d="M36.9681 46.2923C36.9681 46.2923 46.3298 50.0153 46.9278 48.6833C47.5258 47.3513 52.299 39.7415 52.299 39.7415" fill="white"/>
<path d="M46.0036 49.4693C44.3291 49.4693 41.2412 48.5741 36.7615 46.7944C36.4789 46.6853 36.3484 46.3686 36.4571 46.0848C36.5658 45.8009 36.8812 45.6699 37.1638 45.7791C41.0999 47.3513 45.797 48.7706 46.4929 48.3775C47.0365 47.1111 51.6467 39.7632 51.8424 39.4466C52.0055 39.1955 52.3425 39.1191 52.5926 39.2719C52.8427 39.4357 52.9188 39.7742 52.7666 40.0253C51.1248 42.6456 47.8846 47.8753 47.4279 48.9016C47.254 49.2837 46.7864 49.4693 46.0145 49.4693H46.0036Z" fill="#1C2024"/>
<path d="M33.7389 26.7053C33.7389 26.7053 23.0507 39.4466 21.5938 38.1692C20.1368 36.8918 15.4288 27.0656 22.3222 22.884C27.5304 19.7178 34.4674 25.0676 33.7389 26.7053Z" fill="white"/>
<path d="M21.8656 38.8134C21.5612 38.8134 21.3546 38.6933 21.235 38.5841C20.1803 37.6561 17.7882 33.0596 18.1688 28.747C18.408 25.9629 19.7128 23.8339 22.0396 22.4255C23.203 21.7158 24.5077 21.3665 25.9212 21.3665C29.4876 21.3665 32.8582 23.6483 33.9237 25.286C34.4348 26.0721 34.3695 26.618 34.2282 26.9346C34.2064 26.9783 34.1847 27.022 34.1521 27.0656C31.8361 29.817 24.1163 38.8134 21.8656 38.8134ZM25.9321 22.4583C24.7143 22.4583 23.5944 22.764 22.605 23.3644C20.5935 24.5873 19.4627 26.4324 19.2561 28.8453C18.919 32.7539 21.0393 36.87 21.9091 37.7216C23.1812 37.6015 28.6286 31.946 33.2496 26.4542C33.2496 26.3778 33.2061 26.1813 33.0213 25.8865C32.1188 24.489 29.0744 22.4583 25.9321 22.4583Z" fill="#1C2024"/>
<path d="M46.0581 35.4398C45.7536 35.4398 45.5144 35.1887 45.5144 34.8939L45.547 31.1053C45.547 30.8106 45.7971 30.5594 46.0907 30.5594C46.3951 30.5594 46.6343 30.8106 46.6343 31.1053L46.6017 34.8939C46.6017 35.1887 46.3516 35.4398 46.0581 35.4398Z" fill="#1C2024"/>
<path d="M47.1344 50.2227C48.0052 50.2227 48.711 49.514 48.711 48.6396C48.711 47.7653 48.0052 47.0565 47.1344 47.0565C46.2637 47.0565 45.5579 47.7653 45.5579 48.6396C45.5579 49.514 46.2637 50.2227 47.1344 50.2227Z" fill="white"/>
<path d="M47.1344 50.7686C45.9601 50.7686 45.0142 49.8188 45.0142 48.6396C45.0142 47.4605 45.971 46.5106 47.1344 46.5106C48.2978 46.5106 49.2546 47.4714 49.2546 48.6396C49.2546 49.8079 48.2978 50.7686 47.1344 50.7686ZM47.1344 47.6024C46.569 47.6024 46.1015 48.0719 46.1015 48.6396C46.1015 49.2074 46.569 49.6768 47.1344 49.6768C47.6998 49.6768 48.1673 49.2074 48.1673 48.6396C48.1673 48.0719 47.6998 47.6024 47.1344 47.6024Z" fill="#1C2024"/>
<path d="M46.7539 66.4906C46.4494 66.4906 46.2102 66.2504 46.2102 65.9447V61.905C46.2102 61.5993 46.4494 61.3591 46.7539 61.3591C47.0583 61.3591 47.2975 61.5993 47.2975 61.905V65.9447C47.2975 66.2504 47.0583 66.4906 46.7539 66.4906Z" fill="#1C2024"/>
<path d="M29.6833 48.6943C29.3897 48.6943 29.1505 48.465 29.1396 48.1593C29.1396 47.8536 29.368 47.6025 29.6724 47.6025L33.478 47.4933C33.7715 47.4933 34.0325 47.7226 34.0325 48.0283C34.0325 48.334 33.8042 48.5851 33.4997 48.5851L29.6942 48.6943H29.6833Z" fill="#1C2024"/>
<path d="M64.4768 47.8209H64.4659L60.4429 47.7117C60.1385 47.7117 59.9102 47.4496 59.9102 47.1549C59.9102 46.8601 60.182 46.6308 60.4647 46.6199L64.4877 46.7291C64.7921 46.7291 65.0205 46.9911 65.0205 47.2859C65.0205 47.5807 64.7704 47.8209 64.4768 47.8209Z" fill="#1C2024"/>
<path d="M37.5118 23.1461C37.5118 23.1461 43.9268 21.29 44.4705 21.1809C45.0141 21.0717 43.9268 17.5779 40.0125 18.7789C36.0983 19.9799 37.5118 23.1461 37.5118 23.1461Z" fill="white"/>
<path d="M37.5118 23.692C37.3052 23.692 37.1095 23.5719 37.0116 23.3645C36.9899 23.299 36.3593 21.8797 37.0116 20.4385C37.4683 19.4231 38.4251 18.6916 39.8495 18.2549C40.4475 18.0693 41.0129 17.9819 41.5457 17.9819C43.8072 17.9819 45.0141 19.6415 45.1338 20.766C45.199 21.3774 44.8728 21.6613 44.5684 21.7159C44.1878 21.7923 40.2192 22.9278 37.6531 23.6702C37.5988 23.6811 37.5553 23.692 37.5009 23.692H37.5118ZM41.5565 19.0737C41.1325 19.0737 40.665 19.1502 40.1757 19.303C39.0666 19.6415 38.3381 20.1765 38.0119 20.8861C37.7401 21.4648 37.7945 22.0762 37.8815 22.4692C39.2841 22.0653 42.8613 21.039 44.0356 20.7223C43.9812 20.5258 43.8507 20.2201 43.568 19.9035C43.231 19.5214 42.6003 19.0628 41.5565 19.0628V19.0737Z" fill="#1C2024"/>
<path d="M41.9697 25.8757C41.7196 25.8757 41.4913 25.701 41.4369 25.439L40.7845 22.2728C40.7193 21.978 40.915 21.6941 41.2086 21.6286C41.4913 21.5631 41.7849 21.7596 41.8501 22.0544L42.5025 25.2206C42.5677 25.5154 42.372 25.8102 42.0784 25.8648C42.0458 25.8648 42.0023 25.8757 41.9697 25.8757Z" fill="#1C2024"/>
<path d="M30.988 26.6399C30.8684 26.6399 30.7597 26.6072 30.6618 26.5307C27.2803 23.9323 23.2356 26.0176 23.2029 26.0394C22.9311 26.1814 22.6049 26.0722 22.4636 25.8102C22.3222 25.5481 22.431 25.2097 22.6919 25.0677C22.8876 24.9695 27.389 22.6439 31.3251 25.6682C31.5643 25.8538 31.6078 26.1923 31.4229 26.4325C31.3142 26.5744 31.1511 26.6508 30.988 26.6508V26.6399Z" fill="#1C2024"/>
<path d="M69.2827 35.2651C69.2827 35.2651 55.5501 25.9084 56.6701 24.3362C57.79 22.764 67.0211 17.0321 71.8814 23.4737C75.5564 28.3541 70.9789 35.822 69.2827 35.2761V35.2651Z" fill="white"/>
<path d="M69.4676 35.8438C69.348 35.8438 69.2175 35.822 69.1088 35.7892C69.0653 35.7783 69.0109 35.7455 68.9674 35.7237C66.8907 34.3044 56.4961 27.1203 56.072 24.762C56.0068 24.4127 56.1155 24.1615 56.2134 24.0196C57.0506 22.8295 61.4433 19.9363 65.8142 19.9363C68.5216 19.9363 70.7071 21.0172 72.3163 23.1462C74.567 26.1268 73.9472 30.0463 72.6207 32.7212C71.9031 34.1624 70.6527 35.8438 69.4676 35.8438ZM65.8142 21.0281C61.8347 21.0281 57.7465 23.7467 57.105 24.6529C57.1811 25.6901 63.5635 30.7123 69.4893 34.752C69.8264 34.7302 70.7832 33.9768 71.6422 32.2299C72.8164 29.8498 73.3927 26.3779 71.4356 23.8012C70.0438 21.9561 68.1519 21.0281 65.8034 21.0281H65.8142Z" fill="#1C2024"/>
<path d="M69.6089 32.9942C69.511 32.9942 69.4131 32.9723 69.3262 32.9177C69.0652 32.7649 68.9891 32.4264 69.1413 32.1644C71.3485 28.5287 68.9565 24.8166 68.8586 24.6637C68.6955 24.4126 68.7608 24.0742 69.0108 23.9104C69.2609 23.7466 69.598 23.8121 69.7611 24.0632C69.8807 24.2379 72.6424 28.5069 70.0655 32.743C69.9677 32.9068 69.7828 33.0051 69.598 33.0051L69.6089 32.9942Z" fill="#1C2024"/>
</g>
<defs>
<clipPath id="clip0_2_23022">
<rect width="242" height="223" fill="white"/>
</clipPath>
</defs>
</svg>
