<svg width="247" height="199" viewBox="0 0 247 199" fill="none" xmlns="http://www.w3.org/2000/svg">
<g clip-path="url(#clip0_2_21902)">
<path d="M171.433 25.6031V74.6407C171.308 74.7017 171.183 74.7654 171.059 74.8299L168.457 72.8236L166.202 71.0841L164.186 73.0939L158.56 78.7003L156.545 80.7084L158.289 82.9553L160.301 85.5467C159.621 86.8467 159.06 88.1999 158.619 89.5985L155.354 90.0135L152.526 90.3727V103.983L155.354 104.342L158.619 104.757C159.06 106.155 159.621 107.509 160.301 108.809L158.289 111.4L156.545 113.647L158.56 115.655L164.186 121.261L165.521 122.592L163.963 123.793C161.624 122.498 159.156 121.478 156.588 120.748L155.864 115.091L155.503 112.273H138.251L137.891 115.091L137.166 120.748C134.599 121.478 132.131 122.498 129.792 123.793L125.263 120.301L123.009 118.563L110.808 130.719L112.553 132.966L116.058 137.478C114.757 139.808 113.734 142.267 113 144.825L107.322 145.547L104.494 145.906V163.095L107.322 163.455L113.001 164.176C113.004 164.185 113.006 164.195 113.009 164.203H66.7524V89.3073H122.149C124.292 89.3073 126.388 88.73 128.211 87.6384C129.917 86.6174 131.347 85.1656 132.346 83.441C133.346 81.7163 133.892 79.7562 133.927 77.7735C133.964 75.6547 133.418 73.5578 132.346 71.7084L105.63 25.6031H171.433Z" fill="white"/>
<path d="M56.6621 174.257V87.6942H65.1331V165.816H115.664L116.057 166.867C116.53 168.137 117.081 169.389 117.697 170.588L118.165 171.5L116.026 174.256H56.663L56.6621 174.257Z" fill="#DEEBFF"/>
<path d="M181.523 15.5498V70.3081H178.753L178.061 75.7123C176.911 75.9599 175.778 76.2982 174.67 76.7315C174.124 76.9452 173.584 77.1814 173.052 77.4404V23.99H102.821L97.9297 15.5498H181.523Z" fill="#DEEBFF"/>
<path d="M45.8423 87.6942C43.9932 87.6942 42.1852 87.1972 40.6144 86.2555C39.1434 85.3749 37.9095 84.1228 37.0475 82.6344C36.1855 81.1461 35.7138 79.4554 35.6832 77.7456C35.6508 75.9189 36.1225 74.1105 37.0475 72.5149L75.2004 6.67279C76.1245 5.07717 77.4608 3.76581 79.0649 2.88081C80.5666 2.05161 82.2713 1.61304 83.9961 1.61304C85.721 1.61304 87.4266 2.05161 88.9274 2.88081C90.5306 3.76668 91.8669 5.07805 92.7918 6.67279L130.945 72.5149C131.869 74.1105 132.341 75.9189 132.309 77.7456C132.279 79.4554 131.808 81.1461 130.945 82.6344C130.083 84.1228 128.849 85.3749 127.378 86.2555C125.806 87.1963 123.998 87.6933 122.149 87.6933H45.8432L45.8423 87.6942Z" fill="#0065FF"/>
<g style="mix-blend-mode:multiply">
<path d="M95.4539 70.3177C94.7521 68.5652 93.5672 67.055 92.0226 65.9494C92.0086 65.9389 91.9938 65.9285 91.9798 65.918C90.6093 64.9467 89.0377 64.352 87.3819 64.1707C87.0223 64.1314 86.6582 64.1114 86.2916 64.1114C84.2211 64.1114 82.2442 64.7331 80.5754 65.9084C79.0098 67.0123 77.8074 68.5312 77.1003 70.3012C76.5289 71.7285 76.3232 73.2055 76.4624 74.6372C76.6155 76.2337 77.1966 77.7744 78.1767 79.1267C78.5355 79.6246 78.9494 80.0963 79.415 80.5357C80.4327 81.4975 81.6071 82.2247 82.904 82.6972C83.99 83.0922 85.125 83.2928 86.2767 83.2928C87.4283 83.2928 88.5633 83.0922 89.6485 82.6964C90.9428 82.2247 92.1154 81.4975 93.134 80.5357C94.6086 79.1442 95.5852 77.4178 95.958 75.544C96.3037 73.8124 96.1295 72.0049 95.4539 70.3177ZM90.9077 78.1938C90.1937 78.8678 89.3859 79.3569 88.5353 79.6673C87.8029 79.9341 87.0398 80.0667 86.2767 80.0667C85.5136 80.0667 84.747 79.9332 84.0163 79.6673C83.7905 79.5854 83.5682 79.4912 83.3503 79.3831C82.7413 79.084 82.1646 78.6881 81.6412 78.1938C81.1783 77.7569 80.8029 77.2896 80.5088 76.8031C78.048 72.7382 81.2326 67.3375 86.2916 67.3375C87.5535 67.3375 88.706 67.6863 89.6835 68.2739C90.7817 68.9331 91.6568 69.8931 92.2143 70.9996C93.3406 73.2334 93.1682 76.0584 90.9077 78.1938Z" fill="#DEEBFF"/>
</g>
<g style="mix-blend-mode:multiply">
<path d="M93.2313 23.0161C92.8891 22.69 92.5312 22.3918 92.1593 22.1223C91.4959 21.6402 90.7853 21.2487 90.0371 20.9522C89.2355 20.6348 88.3884 20.4256 87.5054 20.3253C87.1081 20.2808 86.703 20.2582 86.2917 20.2582H86.2575C84.9344 20.2582 83.6751 20.4919 82.5121 20.9522C81.3438 21.4152 80.2692 22.1093 79.3179 23.0152C77.3839 24.8593 76.3618 27.2196 76.3618 29.8441C76.3618 32.9542 77.1765 38.0253 78.7999 48.1273C79.1989 50.6141 79.6461 53.3955 80.1388 56.5074C80.1992 56.8884 80.2604 57.2738 80.3217 57.6653L80.3934 58.1204L80.7514 60.3909H91.7978L92.2275 57.6653C92.7928 54.0817 93.3013 50.9184 93.7493 48.1273C95.3727 38.0253 96.1874 32.9542 96.1874 29.8441C96.1874 27.2196 95.1653 24.8593 93.2313 23.0161ZM83.1614 54.8943C80.8564 40.3786 79.5997 33.3413 79.5997 29.8441C79.5997 28.0889 80.2517 26.5901 81.5556 25.3476C82.8595 24.1051 84.4268 23.4843 86.2575 23.4843H86.2917C87.6043 23.4843 88.7822 23.8034 89.8236 24.4425C90.2349 24.6945 90.6252 24.9962 90.9936 25.3476C91.5292 25.8585 91.9554 26.4131 92.2704 27.0103C92.7237 27.8657 92.9495 28.81 92.9495 29.8441C92.9495 33.5192 91.5607 41.1023 89.029 57.1648H83.5202C83.4852 56.9442 83.4511 56.7253 83.4161 56.5074C83.3303 55.9598 83.2445 55.4218 83.1614 54.8943Z" fill="#DEEBFF"/>
</g>
<path d="M83.9983 79.4092C83.0366 79.4092 82.0897 79.2418 81.1822 78.9114C80.0936 78.5146 79.1065 77.9034 78.2497 77.0943C75.8721 74.85 75.1352 71.6055 76.3262 68.6271C77.5829 65.4847 80.6011 63.4531 84.0141 63.4531C85.7293 63.4531 87.3719 63.9745 88.7633 64.9615C90.0742 65.8901 91.0797 67.164 91.6721 68.6445C92.2313 70.0413 92.3766 71.5332 92.0922 72.9588C91.7841 74.5029 90.972 75.9329 89.7434 77.0934C88.8858 77.9034 87.8995 78.5146 86.8135 78.9105C85.9069 79.2409 84.9601 79.4084 83.9983 79.4084V79.4092Z" fill="white"/>
<path d="M79.8571 56.5074L79.6418 55.1446C79.0765 51.5584 78.568 48.3942 78.1191 45.6023C76.5089 35.5839 75.7012 30.5556 75.7012 27.5727C75.7012 25.3685 76.5273 23.4634 78.1576 21.9105C79.7678 20.3768 81.7254 19.5999 83.9779 19.5999H84.0121C86.2646 19.5999 88.2231 20.3776 89.8324 21.9105C91.4627 23.4634 92.2888 25.3685 92.2888 27.5727C92.2888 30.5556 91.4811 35.5839 89.8709 45.6023C89.422 48.3942 88.9135 51.5575 88.3482 55.1437L88.1338 56.5065H79.8562L79.8571 56.5074Z" fill="white"/>
<path d="M182.924 146.728L179.472 146.289C178.816 143.698 177.851 141.198 176.592 138.833C176.426 138.52 176.254 138.209 176.077 137.9C175.971 137.715 175.862 137.531 175.752 137.347L179.795 132.141L180.794 130.855L170.609 120.708L166.675 123.741L164.702 125.262L164.094 125.731C161.399 124.125 158.513 122.915 155.487 122.119C155.365 122.086 155.242 122.055 155.12 122.024L154.575 117.769L154.161 114.543L154.077 113.886H139.677L138.634 122.024C135.898 122.711 133.274 123.735 130.798 125.083C130.415 125.291 130.035 125.507 129.659 125.731L124.424 121.694L123.145 120.708L112.961 130.855L113.95 132.129L118.002 137.347C117.777 137.721 117.56 138.099 117.351 138.48C115.999 140.947 114.971 143.562 114.282 146.288L106.113 147.327V161.675L106.773 161.759L110.011 162.17L114.282 162.713C114.313 162.835 114.345 162.957 114.377 163.08C114.477 163.456 114.584 163.831 114.697 164.203C114.861 164.746 115.04 165.284 115.231 165.816C115.508 166.584 115.812 167.341 116.144 168.083C116.687 169.302 117.31 170.5 118.002 171.655L117.531 172.261L117.235 172.644L115.981 174.257L115.471 174.914L114.729 175.87L112.966 178.14L112.961 178.147L114.085 179.268L123.145 188.294L124.436 187.299L129.659 183.271C130.15 183.563 130.648 183.843 131.151 184.108C133.523 185.362 136.027 186.323 138.634 186.977L139.075 190.417L139.677 195.116H154.077L155.12 186.977C158.28 186.185 161.29 184.941 164.094 183.271L165.372 184.256L170.609 188.294L171.473 187.433L179.931 179.007L180.794 178.147L179.025 175.87L176.741 172.929L176.52 172.644L175.752 171.655C177.429 168.86 178.677 165.862 179.472 162.713L187.64 161.676V147.327L182.924 146.728ZM146.876 132.02C149.345 132.02 151.722 132.417 153.946 133.15C161.581 135.666 167.424 142.143 169.009 150.126C169.291 151.541 169.439 153.004 169.439 154.502C169.439 158.792 168.222 162.963 165.92 166.563C164.762 168.375 163.349 170.012 161.722 171.43C157.614 175.01 152.342 176.981 146.876 176.981C145.389 176.981 143.916 176.836 142.476 176.55C138.627 175.789 135.021 174.035 132.032 171.429C130.406 170.014 128.994 168.376 127.834 166.563C126.832 164.996 126.035 163.32 125.454 161.574C124.702 159.308 124.314 156.924 124.314 154.502C124.314 142.105 134.436 132.02 146.876 132.02Z" fill="white"/>
<path d="M195.598 86.6322C195.259 86.2224 194.897 85.8248 194.512 85.4412C191.258 82.2002 186.995 80.5793 182.731 80.5793C181.785 80.5793 180.839 80.6596 179.905 80.8191C178.091 81.1278 176.32 81.7381 174.671 82.6475C173.338 83.3826 172.084 84.3138 170.952 85.4412C164.446 91.923 164.446 102.432 170.952 108.914C171.337 109.297 171.735 109.657 172.146 109.995C172.944 110.651 173.79 111.222 174.671 111.708C176.32 112.617 178.091 113.228 179.905 113.536C180.839 113.696 181.785 113.776 182.731 113.776C186.995 113.776 191.258 112.155 194.512 108.914C200.632 102.816 200.994 93.1524 195.598 86.6322ZM180.177 111.946C178.516 111.663 176.928 111.108 175.455 110.296C174.228 109.62 173.098 108.771 172.097 107.774C170.527 106.209 169.347 104.361 168.606 102.344C168.005 100.711 167.692 98.969 167.692 97.1781C167.692 93.1751 169.256 89.4119 172.097 86.5816C173.098 85.5842 174.228 84.7349 175.455 84.0592C176.928 83.2474 178.516 82.692 180.178 82.4095C181.02 82.2656 181.879 82.1924 182.731 82.1924C184.529 82.1924 186.278 82.5045 187.917 83.1035C189.941 83.8421 191.797 85.0174 193.366 86.5816C195.659 88.8661 197.056 91.7111 197.556 94.6783C198.334 99.2995 196.938 104.215 193.366 107.774C190.526 110.604 186.749 112.163 182.731 112.163C181.908 112.163 181.078 112.095 180.263 111.96C180.235 111.955 180.206 111.951 180.177 111.946ZM195.598 86.6322C195.259 86.2224 194.897 85.8248 194.512 85.4412C191.258 82.2002 186.995 80.5793 182.731 80.5793C181.785 80.5793 180.839 80.6596 179.905 80.8191C178.091 81.1278 176.32 81.7381 174.671 82.6475C173.338 83.3826 172.084 84.3138 170.952 85.4412C164.446 91.923 164.446 102.432 170.952 108.914C171.337 109.297 171.735 109.657 172.146 109.995C172.944 110.651 173.79 111.222 174.671 111.708C176.32 112.617 178.091 113.228 179.905 113.536C180.839 113.696 181.785 113.776 182.731 113.776C186.995 113.776 191.258 112.155 194.512 108.914C200.632 102.816 200.994 93.1524 195.598 86.6322ZM180.177 111.946C178.516 111.663 176.928 111.108 175.455 110.296C174.228 109.62 173.098 108.771 172.097 107.774C170.527 106.209 169.347 104.361 168.606 102.344C168.005 100.711 167.692 98.969 167.692 97.1781C167.692 93.1751 169.256 89.4119 172.097 86.5816C173.098 85.5842 174.228 84.7349 175.455 84.0592C176.928 83.2474 178.516 82.692 180.178 82.4095C181.02 82.2656 181.879 82.1924 182.731 82.1924C184.529 82.1924 186.278 82.5045 187.917 83.1035C189.941 83.8421 191.797 85.0174 193.366 86.5816C195.659 88.8661 197.056 91.7111 197.556 94.6783C198.334 99.2995 196.938 104.215 193.366 107.774C190.526 110.604 186.749 112.163 182.731 112.163C181.908 112.163 181.078 112.095 180.263 111.96C180.235 111.955 180.206 111.951 180.177 111.946ZM209.003 91.4993L205.586 91.065C205.203 89.6325 204.687 88.2479 204.043 86.9208C203.792 86.4029 203.522 85.8946 203.232 85.3958L205.769 82.1314L206.767 80.8453L200.248 74.3503L199.124 73.2299L195.087 76.3418L194.556 76.7516C192.88 75.7864 191.099 75.0348 189.236 74.5073C189.113 74.4724 188.99 74.4393 188.867 74.4061L188.633 72.5786L188.221 69.3525L188.137 68.6951H177.327L176.949 71.65L176.597 74.4061C175.945 74.5797 175.302 74.7802 174.671 75.0078C174.472 75.0793 174.275 75.1534 174.079 75.2301C173.957 75.2781 173.834 75.3269 173.712 75.3775C173.49 75.4681 173.271 75.5623 173.052 75.66C172.722 75.8073 172.395 75.9625 172.072 76.1247C171.857 76.2328 171.645 76.3436 171.433 76.4586C171.256 76.5537 171.081 76.6513 170.907 76.7516L167.617 74.2152L166.339 73.2299L158.697 80.8444L159.686 82.1191L162.231 85.3967C162.01 85.7786 161.8 86.1649 161.602 86.5572C160.872 87.995 160.295 89.5026 159.876 91.065L154.145 91.7931V102.562L154.805 102.646L158.043 103.057L159.876 103.29C159.909 103.413 159.943 103.535 159.978 103.658C160.507 105.514 161.262 107.288 162.231 108.959L161.82 109.49L158.697 113.511L159.822 114.631L166.339 121.125L167.63 120.13L170.907 117.604C171.407 117.891 171.918 118.161 172.438 118.411C172.976 118.67 173.523 118.908 174.079 119.125C174.897 119.445 175.74 119.722 176.596 119.949L177.032 123.352L177.1 123.888L177.249 125.041L177.328 125.66H188.137L188.867 119.949C190.865 119.418 192.771 118.633 194.556 117.604L195.832 118.587L199.124 121.125L199.988 120.265L205.903 114.371L206.767 113.511L204.22 110.23L203.232 108.959C204.264 107.18 205.054 105.281 205.586 103.29L211.318 102.562V91.7931L209.003 91.4993ZM209.699 101.142L204.275 101.831C203.727 104.364 202.725 106.819 201.269 109.068L204.614 113.374L198.987 118.98L194.664 115.648C192.408 117.098 189.944 118.096 187.402 118.643L186.71 124.047H178.753L178.706 123.682L178.281 120.366L178.061 118.643C176.911 118.395 175.778 118.057 174.671 117.624C173.333 117.101 172.034 116.442 170.798 115.648L166.475 118.98L163.129 115.644L160.85 113.374L164.194 109.068C164.141 108.986 164.09 108.905 164.039 108.823C164.013 108.783 163.988 108.744 163.964 108.704C163.921 108.634 163.878 108.565 163.836 108.496C163.823 108.474 163.81 108.452 163.797 108.43C163.741 108.339 163.687 108.246 163.634 108.154C163.626 108.141 163.618 108.127 163.61 108.114C163.558 108.022 163.505 107.93 163.454 107.837C163.265 107.5 163.087 107.158 162.918 106.814C162.873 106.722 162.829 106.63 162.786 106.538C162.734 106.43 162.684 106.321 162.635 106.212C162.579 106.089 162.525 105.965 162.472 105.841C162.431 105.746 162.39 105.651 162.351 105.555C162.307 105.451 162.265 105.346 162.225 105.242C162.196 105.172 162.169 105.102 162.143 105.031C162.122 104.978 162.102 104.924 162.081 104.87C162.071 104.844 162.061 104.818 162.052 104.791C162.025 104.719 161.999 104.648 161.974 104.576C161.968 104.561 161.961 104.544 161.956 104.528C161.928 104.45 161.9 104.371 161.874 104.291C161.827 104.155 161.781 104.018 161.737 103.881C161.736 103.875 161.733 103.868 161.731 103.862C161.707 103.786 161.683 103.71 161.66 103.634C161.643 103.58 161.626 103.526 161.611 103.472C161.592 103.412 161.575 103.353 161.558 103.293C161.548 103.261 161.54 103.23 161.531 103.199C161.513 103.139 161.497 103.081 161.481 103.022C161.451 102.913 161.422 102.804 161.394 102.695C161.38 102.643 161.367 102.593 161.354 102.541C161.334 102.463 161.315 102.383 161.296 102.305C161.258 102.147 161.222 101.989 161.188 101.831L158.043 101.431L155.764 101.142V93.2135L161.188 92.5246C161.737 89.9917 162.739 87.5364 164.194 85.2877L160.85 80.9813L166.475 75.3748L170.798 78.7073C171.007 78.573 171.219 78.4423 171.433 78.315C171.962 77.9993 172.503 77.7081 173.052 77.4404C173.584 77.1815 174.125 76.9452 174.671 76.7316C175.778 76.2982 176.911 75.9599 178.061 75.7123L178.753 70.3081H186.71L187.001 72.5786L187.402 75.7123C187.488 75.7306 187.574 75.7498 187.661 75.7698C187.733 75.7864 187.805 75.803 187.877 75.8204C187.957 75.8387 188.035 75.8588 188.114 75.8779C188.194 75.898 188.272 75.9181 188.351 75.939C188.43 75.959 188.509 75.98 188.587 76.0018C188.643 76.0166 188.698 76.0323 188.753 76.048C188.802 76.0619 188.851 76.0759 188.901 76.0898C189.004 76.1195 189.108 76.1509 189.211 76.1822C189.288 76.2058 189.365 76.2293 189.441 76.2537C189.447 76.2555 189.453 76.2581 189.46 76.2598C189.482 76.2668 189.504 76.2738 189.526 76.2808C189.617 76.3104 189.708 76.3401 189.799 76.3706C189.903 76.4055 190.006 76.4412 190.109 76.4778C190.125 76.4831 190.142 76.4892 190.157 76.4953C190.256 76.5301 190.354 76.5659 190.452 76.6016C190.459 76.6043 190.466 76.6069 190.472 76.6095C190.563 76.6426 190.652 76.6775 190.741 76.7115C190.788 76.7298 190.836 76.749 190.883 76.7673C191.096 76.8519 191.31 76.9399 191.521 77.0324C191.614 77.0716 191.706 77.1126 191.798 77.1544C191.924 77.2102 192.05 77.2687 192.175 77.3279C192.259 77.3672 192.343 77.4082 192.427 77.4483C192.448 77.4587 192.47 77.4692 192.492 77.4805C192.585 77.5259 192.678 77.5721 192.77 77.6192C192.775 77.6218 192.78 77.6244 192.785 77.6279C192.886 77.6793 192.987 77.7308 193.086 77.784C193.09 77.7857 193.094 77.7883 193.098 77.7901C193.169 77.8276 193.24 77.8659 193.31 77.9043C193.331 77.9156 193.352 77.9278 193.374 77.94C193.435 77.9732 193.496 78.0072 193.556 78.0412C193.576 78.0516 193.597 78.0638 193.618 78.0752C193.682 78.1118 193.745 78.1484 193.808 78.185C193.903 78.2391 193.997 78.2949 194.09 78.3507C194.16 78.3926 194.23 78.4353 194.299 78.478C194.34 78.5024 194.379 78.5268 194.419 78.553C194.501 78.6036 194.583 78.655 194.664 78.7073L198.987 75.3748L201.266 77.6453L204.614 80.9813L201.269 85.2877C202.725 87.5364 203.727 89.9917 204.275 92.5246L206.005 92.7444L209.699 93.2135V101.142ZM194.512 85.4412C191.258 82.2002 186.995 80.5793 182.731 80.5793C181.785 80.5793 180.839 80.6596 179.905 80.8191C178.091 81.1278 176.32 81.7381 174.671 82.6475C173.338 83.3826 172.084 84.3138 170.952 85.4412C164.446 91.923 164.446 102.432 170.952 108.914C171.337 109.297 171.735 109.657 172.146 109.995C172.944 110.651 173.79 111.222 174.671 111.708C176.32 112.617 178.091 113.228 179.905 113.536C180.839 113.696 181.785 113.776 182.731 113.776C186.995 113.776 191.258 112.155 194.512 108.914C200.632 102.816 200.994 93.1524 195.598 86.6322C195.259 86.2224 194.897 85.8248 194.512 85.4412ZM197.556 94.6783C198.334 99.2995 196.938 104.215 193.366 107.774C190.526 110.604 186.749 112.163 182.731 112.163C181.908 112.163 181.078 112.095 180.263 111.96C180.235 111.955 180.206 111.951 180.177 111.946C178.516 111.663 176.928 111.108 175.455 110.296C174.228 109.62 173.098 108.771 172.097 107.774C170.527 106.209 169.347 104.361 168.606 102.344C168.005 100.711 167.692 98.969 167.692 97.1781C167.692 93.1751 169.256 89.4119 172.097 86.5816C173.098 85.5842 174.228 84.7349 175.455 84.0592C176.928 83.2474 178.516 82.692 180.178 82.4095C181.02 82.2656 181.879 82.1924 182.731 82.1924C184.529 82.1924 186.278 82.5045 187.917 83.1035C189.941 83.8421 191.797 85.0174 193.366 86.5816C195.659 88.8661 197.056 91.7111 197.556 94.6783ZM195.598 86.6322C195.259 86.2224 194.897 85.8248 194.512 85.4412C191.258 82.2002 186.995 80.5793 182.731 80.5793C181.785 80.5793 180.839 80.6596 179.905 80.8191C178.091 81.1278 176.32 81.7381 174.671 82.6475C173.338 83.3826 172.084 84.3138 170.952 85.4412C164.446 91.923 164.446 102.432 170.952 108.914C171.337 109.297 171.735 109.657 172.146 109.995C172.944 110.651 173.79 111.222 174.671 111.708C176.32 112.617 178.091 113.228 179.905 113.536C180.839 113.696 181.785 113.776 182.731 113.776C186.995 113.776 191.258 112.155 194.512 108.914C200.632 102.816 200.994 93.1524 195.598 86.6322ZM180.177 111.946C178.516 111.663 176.928 111.108 175.455 110.296C174.228 109.62 173.098 108.771 172.097 107.774C170.527 106.209 169.347 104.361 168.606 102.344C168.005 100.711 167.692 98.969 167.692 97.1781C167.692 93.1751 169.256 89.4119 172.097 86.5816C173.098 85.5842 174.228 84.7349 175.455 84.0592C176.928 83.2474 178.516 82.692 180.178 82.4095C181.02 82.2656 181.879 82.1924 182.731 82.1924C184.529 82.1924 186.278 82.5045 187.917 83.1035C189.941 83.8421 191.797 85.0174 193.366 86.5816C195.659 88.8661 197.056 91.7111 197.556 94.6783C198.334 99.2995 196.938 104.215 193.366 107.774C190.526 110.604 186.749 112.163 182.731 112.163C181.908 112.163 181.078 112.095 180.263 111.96C180.235 111.955 180.206 111.951 180.177 111.946ZM195.598 86.6322C195.259 86.2224 194.897 85.8248 194.512 85.4412C191.258 82.2002 186.995 80.5793 182.731 80.5793C181.785 80.5793 180.839 80.6596 179.905 80.8191C178.091 81.1278 176.32 81.7381 174.671 82.6475C173.338 83.3826 172.084 84.3138 170.952 85.4412C164.446 91.923 164.446 102.432 170.952 108.914C171.337 109.297 171.735 109.657 172.146 109.995C172.944 110.651 173.79 111.222 174.671 111.708C176.32 112.617 178.091 113.228 179.905 113.536C180.839 113.696 181.785 113.776 182.731 113.776C186.995 113.776 191.258 112.155 194.512 108.914C200.632 102.816 200.994 93.1524 195.598 86.6322ZM180.177 111.946C178.516 111.663 176.928 111.108 175.455 110.296C174.228 109.62 173.098 108.771 172.097 107.774C170.527 106.209 169.347 104.361 168.606 102.344C168.005 100.711 167.692 98.969 167.692 97.1781C167.692 93.1751 169.256 89.4119 172.097 86.5816C173.098 85.5842 174.228 84.7349 175.455 84.0592C176.928 83.2474 178.516 82.692 180.178 82.4095C181.02 82.2656 181.879 82.1924 182.731 82.1924C184.529 82.1924 186.278 82.5045 187.917 83.1035C189.941 83.8421 191.797 85.0174 193.366 86.5816C195.659 88.8661 197.056 91.7111 197.556 94.6783C198.334 99.2995 196.938 104.215 193.366 107.774C190.526 110.604 186.749 112.163 182.731 112.163C181.908 112.163 181.078 112.095 180.263 111.96C180.235 111.955 180.206 111.951 180.177 111.946Z" fill="white"/>
<path d="M206.004 92.7444L204.274 92.5246C203.727 89.9917 202.725 87.5364 201.268 85.2877L204.614 80.9813L201.266 77.6453L198.987 75.3748L194.664 78.7073C194.583 78.655 194.5 78.6035 194.419 78.553C194.379 78.5268 194.339 78.5024 194.299 78.478C194.23 78.4353 194.16 78.3925 194.09 78.3507C193.996 78.2949 193.903 78.2391 193.808 78.185C193.745 78.1484 193.681 78.1118 193.617 78.0752C193.597 78.0638 193.576 78.0516 193.556 78.0412C193.496 78.0072 193.434 77.9732 193.374 77.94C193.352 77.9278 193.331 77.9156 193.309 77.9043C193.239 77.8659 193.168 77.8275 193.098 77.79C193.094 77.7883 193.09 77.7857 193.086 77.7839C192.986 77.7316 192.886 77.6793 192.785 77.6279C192.78 77.6244 192.775 77.6218 192.769 77.6192C192.677 77.5721 192.585 77.5259 192.492 77.4805C192.47 77.4692 192.448 77.4587 192.426 77.4483C192.342 77.4073 192.259 77.3672 192.175 77.3279C192.05 77.2686 191.924 77.2102 191.798 77.1544C191.706 77.1126 191.613 77.0716 191.521 77.0324C191.31 76.9399 191.096 76.8519 190.883 76.7673C190.835 76.749 190.788 76.7298 190.741 76.7115C190.652 76.6766 190.561 76.6426 190.472 76.6095C190.466 76.6069 190.459 76.6042 190.452 76.6016C190.354 76.565 190.256 76.5293 190.157 76.4953C190.141 76.4891 190.125 76.483 190.109 76.4778C190.006 76.4412 189.903 76.4054 189.798 76.3706C189.707 76.34 189.616 76.3104 189.525 76.2808C189.503 76.2738 189.482 76.2668 189.46 76.2598C189.453 76.2581 189.447 76.2555 189.44 76.2537C189.364 76.2293 189.287 76.2058 189.211 76.1822C189.108 76.1508 189.004 76.1195 188.901 76.0898C188.852 76.0759 188.802 76.0619 188.753 76.048C188.697 76.0323 188.642 76.0166 188.586 76.0017C188.508 75.9799 188.43 75.959 188.351 75.939C188.272 75.918 188.193 75.898 188.114 75.8779C188.035 75.8587 187.956 75.8387 187.877 75.8204C187.805 75.8029 187.733 75.7864 187.66 75.7698C187.575 75.7498 187.488 75.7306 187.401 75.7123L187.001 72.5786L186.71 70.3081H178.753L178.061 75.7123C176.911 75.9599 175.777 76.2982 174.67 76.7315C174.124 76.9452 173.583 77.1814 173.051 77.4404C172.503 77.7081 171.962 77.9993 171.432 78.3149C171.219 78.4422 171.007 78.573 170.798 78.7073L166.475 75.3748L160.85 80.9813L164.194 85.2877C162.738 87.5364 161.736 89.9917 161.188 92.5246L155.764 93.2134V101.142L158.042 101.431L161.188 101.831C161.222 101.989 161.258 102.147 161.296 102.305C161.314 102.383 161.334 102.463 161.354 102.541C161.367 102.593 161.38 102.643 161.393 102.695C161.421 102.804 161.451 102.913 161.481 103.022C161.497 103.081 161.513 103.139 161.531 103.199C161.539 103.23 161.548 103.261 161.558 103.293C161.574 103.353 161.592 103.412 161.61 103.472C161.626 103.526 161.643 103.58 161.659 103.634C161.683 103.71 161.707 103.786 161.731 103.862C161.733 103.868 161.735 103.875 161.737 103.881C161.781 104.018 161.826 104.155 161.874 104.291C161.901 104.371 161.928 104.45 161.956 104.528C161.961 104.544 161.967 104.561 161.973 104.576C161.999 104.648 162.025 104.719 162.051 104.791C162.061 104.818 162.071 104.844 162.081 104.87C162.101 104.924 162.121 104.978 162.142 105.031C162.169 105.102 162.196 105.172 162.225 105.242C162.265 105.346 162.307 105.451 162.351 105.555C162.39 105.651 162.43 105.746 162.471 105.841C162.525 105.965 162.579 106.089 162.635 106.212C162.684 106.321 162.734 106.43 162.786 106.538C162.829 106.631 162.873 106.722 162.918 106.814C163.087 107.158 163.265 107.5 163.453 107.837C163.505 107.93 163.557 108.022 163.61 108.114C163.618 108.127 163.626 108.141 163.634 108.154C163.687 108.246 163.741 108.339 163.796 108.43C163.809 108.452 163.823 108.474 163.836 108.496C163.878 108.565 163.921 108.635 163.963 108.704C163.988 108.744 164.012 108.783 164.039 108.823C164.089 108.905 164.141 108.986 164.194 109.068L160.85 113.374L163.129 115.644L166.475 118.98L170.798 115.648C172.034 116.442 173.332 117.101 174.67 117.624C175.777 118.057 176.911 118.395 178.061 118.643L178.281 120.366L178.705 123.682L178.753 124.047H186.71L187.401 118.643C189.944 118.096 192.408 117.098 194.664 115.648L198.987 118.98L204.614 113.374L201.268 109.068C202.725 106.819 203.727 104.364 204.274 101.831L209.698 101.142V93.2134L206.004 92.7444ZM170.952 108.914C164.446 102.432 164.446 91.923 170.952 85.4411C172.084 84.3138 173.338 83.3825 174.67 82.6475C176.32 81.7381 178.091 81.1278 179.904 80.8191C180.839 80.6595 181.785 80.5793 182.731 80.5793C186.995 80.5793 191.258 82.2002 194.512 85.4411C194.897 85.8248 195.259 86.2224 195.598 86.6322C200.994 93.1524 200.631 102.816 194.512 108.914C191.258 112.155 186.995 113.776 182.731 113.776C181.785 113.776 180.839 113.696 179.904 113.536C178.091 113.227 176.32 112.617 174.67 111.708C173.79 111.222 172.944 110.651 172.146 109.995C171.734 109.657 171.336 109.297 170.952 108.914Z" fill="white"/>
<path d="M167.82 154.502C167.82 158.485 166.69 162.356 164.555 165.696C163.479 167.378 162.167 168.899 160.656 170.215C156.844 173.538 151.95 175.368 146.876 175.368C141.802 175.368 136.91 173.538 133.098 170.215C131.587 168.9 130.276 167.38 129.199 165.696C127.063 162.356 125.933 158.485 125.933 154.502C125.933 142.995 135.328 133.633 146.876 133.633C158.424 133.633 167.82 142.995 167.82 154.502Z" fill="#4790FF"/>
<path d="M196.153 97.1781C196.153 100.749 194.757 104.107 192.222 106.633C189.687 109.158 186.317 110.55 182.731 110.55C181.971 110.55 181.203 110.484 180.451 110.356C178.968 110.103 177.551 109.609 176.239 108.885C175.144 108.282 174.136 107.524 173.242 106.633C170.706 104.107 169.311 100.749 169.311 97.1781C169.311 93.6067 170.706 90.248 173.242 87.723C174.136 86.831 175.144 86.0733 176.239 85.4699C177.551 84.7462 178.968 84.2518 180.45 83.999C181.203 83.8708 181.971 83.8054 182.731 83.8054C186.317 83.8054 189.687 85.197 192.222 87.723C194.757 90.248 196.153 93.6058 196.153 97.1781Z" fill="#A3C7FF"/>
<g style="mix-blend-mode:multiply">
<path d="M165.076 138.636C161.967 135.924 158.155 133.993 153.946 133.15C152.398 132.84 150.796 132.677 149.155 132.677C135.801 132.677 124.974 143.465 124.974 156.772C124.974 158.417 125.14 160.023 125.455 161.574C126.051 164.512 127.184 167.256 128.748 169.7C129.409 170.735 130.148 171.716 130.957 172.636C131.668 173.445 132.432 174.206 133.245 174.914C137.497 178.62 143.063 180.865 149.155 180.865C155.247 180.865 160.815 178.62 165.067 174.914C166.803 173.402 168.32 171.646 169.564 169.7C171.953 165.965 173.337 161.529 173.337 156.772C173.337 149.54 170.139 143.052 165.076 138.636ZM162.935 172.486C159.123 175.809 154.229 177.639 149.155 177.639C146.865 177.639 144.611 177.266 142.476 176.55C139.883 175.681 137.467 174.308 135.377 172.486C134.615 171.823 133.904 171.107 133.249 170.345H133.248C132.604 169.596 132.012 168.802 131.478 167.967C129.342 164.626 128.212 160.755 128.212 156.772C128.212 145.265 137.607 135.904 149.155 135.904C154.351 135.904 159.109 137.797 162.773 140.929C165.611 143.354 167.792 146.522 169.01 150.126C169.717 152.215 170.099 154.449 170.099 156.772C170.099 160.755 168.969 164.626 166.834 167.967C165.758 169.649 164.446 171.169 162.935 172.486Z" fill="#DEEBFF"/>
</g>
<g style="mix-blend-mode:multiply">
<path d="M196.791 87.7116C196.407 87.3288 196.008 86.9696 195.598 86.6322C193.324 84.7628 190.67 83.5866 187.917 83.1035C186.956 82.9344 185.983 82.8498 185.01 82.8498C184.037 82.8498 183.118 82.93 182.183 83.0896C180.37 83.3982 178.599 84.0086 176.949 84.918C175.617 85.653 174.363 86.5842 173.231 87.7116C169.235 91.6919 167.693 97.192 168.606 102.344C169.091 105.086 170.271 107.731 172.146 109.995C172.485 110.405 172.847 110.802 173.231 111.185C174.363 112.312 175.617 113.243 176.949 113.978C178.599 114.888 180.37 115.498 182.183 115.807C183.118 115.966 184.064 116.046 185.01 116.046C189.274 116.046 193.537 114.425 196.791 111.185C203.295 104.703 203.295 94.1935 196.791 87.7116ZM185.01 112.82C184.25 112.82 183.482 112.755 182.729 112.627C181.883 112.483 181.059 112.26 180.263 111.96C179.664 111.735 179.081 111.466 178.518 111.156C177.423 110.552 176.415 109.795 175.52 108.904C175.135 108.52 174.777 108.117 174.444 107.697C172.593 105.352 171.589 102.478 171.589 99.4485C171.589 95.8763 172.985 92.5185 175.52 89.9934C176.415 89.1015 177.423 88.3438 178.518 87.7404C179.83 87.0167 181.247 86.5223 182.729 86.2695C183.482 86.1413 184.25 86.0759 185.01 86.0759C188.052 86.0759 190.94 87.0777 193.293 88.9245C193.713 89.254 194.116 89.6107 194.501 89.9934C195.86 91.3475 196.891 92.9405 197.556 94.6783C198.131 96.1814 198.432 97.791 198.432 99.4485C198.432 103.02 197.036 106.378 194.501 108.904C191.965 111.429 188.595 112.82 185.01 112.82Z" fill="#DEEBFF"/>
</g>
<g style="mix-blend-mode:multiply">
<path d="M158.618 104.757L155.354 104.342L154.805 104.272V106.253L157.633 106.612L159.376 106.834C159.093 106.154 158.841 105.461 158.618 104.757ZM158.618 104.757L155.354 104.342L154.805 104.272V106.253L157.633 106.612L159.376 106.834C159.093 106.154 158.841 105.461 158.618 104.757ZM154.161 114.543H140.53L140.169 117.361L139.445 123.018C136.877 123.749 134.409 124.768 132.07 126.064L130.798 125.083L127.542 122.572L125.287 120.833L113.087 132.99L114.832 135.236L117.351 138.48L118.336 139.749C117.036 142.078 116.013 144.537 115.279 147.095L109.601 147.817L106.773 148.177V164.203H113.009C113.164 164.745 113.334 165.283 113.517 165.816H115.231C115.04 165.284 114.861 164.746 114.697 164.203C114.584 163.831 114.477 163.456 114.377 163.08L110.011 162.525V151.017L117.88 150.017C118.702 146.221 120.203 142.677 122.25 139.516L117.392 133.262L125.56 125.123L131.838 129.963C135.01 127.925 138.567 126.429 142.377 125.61L143.381 117.769H154.575L154.161 114.543ZM173.052 24.6474V27.8735H173.711V73.6423C174.028 73.522 174.348 73.4078 174.671 73.3006V24.6474H173.052ZM173.711 73.6423V75.3775C173.834 75.3269 173.956 75.2781 174.079 75.2301C174.275 75.1534 174.472 75.0793 174.671 75.0078V73.3006C174.348 73.4078 174.028 73.522 173.711 73.6423ZM170.736 75.0941L168.481 73.3546L167.617 74.2152L170.907 76.7516C171.081 76.6513 171.256 76.5537 171.433 76.4586C171.644 76.3436 171.857 76.2328 172.072 76.1247L171.433 75.6312L170.736 75.0941ZM158.823 82.9789L160.567 85.2258L161.602 86.5572C161.799 86.1649 162.009 85.7786 162.231 85.3967L159.686 82.1191L158.823 82.9789ZM155.354 104.342L154.805 104.272V106.253L157.633 106.612L159.376 106.834C159.093 106.154 158.841 105.461 158.618 104.757L155.354 104.342ZM113.009 164.203H106.773V165.366L109.601 165.726L110.315 165.816L113.665 166.242C113.615 166.101 113.565 165.959 113.517 165.816C113.334 165.283 113.164 164.745 113.009 164.203ZM173.711 73.6423V76.9112C173.586 76.9722 173.462 77.0359 173.338 77.1004L173.052 76.8798L172.072 76.1247L171.433 75.6312L170.736 75.0941L168.481 73.3546L167.617 74.2152L166.465 75.3644L160.839 80.9708L158.823 82.9789L160.567 85.2258L161.602 86.5572L162.58 87.8171C161.9 89.1172 161.338 90.4704 160.897 91.8689L157.633 92.284L154.805 92.6432V104.272L155.354 104.342L158.618 104.757C158.841 105.461 159.093 106.154 159.376 106.834L160.897 107.027C161.161 107.865 161.469 108.687 161.82 109.49C162.054 110.028 162.308 110.558 162.58 111.079L160.567 113.67L159.822 114.631L166.339 121.125L167.629 120.13L166.475 118.98L163.129 115.644L166.473 111.338C165.017 109.089 164.015 106.634 163.467 104.101L161.737 103.881L159.977 103.658L158.043 103.412V101.431L155.764 101.142V93.2135L161.188 92.5246C161.736 89.9917 162.738 87.5364 164.194 85.2877L160.85 80.9813L166.475 75.3748L170.798 78.7073C171.007 78.5731 171.219 78.4423 171.433 78.315C171.962 77.9993 172.503 77.7081 173.052 77.4404C173.584 77.1815 174.124 76.9452 174.671 76.7316V73.3006C174.348 73.4078 174.028 73.522 173.711 73.6423ZM212.936 92.3537L212.387 92.284L211.317 92.148L209.124 91.8689C209.084 91.7451 209.045 91.6222 209.003 91.4993C208.812 90.9221 208.598 90.3527 208.365 89.792C208.087 89.1215 207.778 88.4624 207.441 87.8171L209.453 85.2258L211.198 82.9789L209.182 80.97L203.555 75.3635L201.539 73.3555L200.248 74.3503L199.284 75.0941L196.683 77.0995C196.16 76.8275 195.628 76.5746 195.087 76.3418C194.281 75.9922 193.457 75.6861 192.617 75.4228L192.424 73.9083L192.202 72.1714L191.841 69.3525H185.421V16.2064H101.147L100.767 15.5498L99.8322 13.9359L96.4718 8.13675C95.6789 6.76871 94.6236 5.57941 93.3739 4.63861C92.9355 4.30728 92.4734 4.00734 91.9903 3.74053C90.7197 3.03864 89.323 2.57826 87.8843 2.38121C87.3523 2.30797 86.8141 2.27048 86.2741 2.27048C84.2754 2.27048 82.2994 2.77881 80.5579 3.74053C78.6975 4.76766 77.1485 6.28828 76.0765 8.13675L70.4653 17.8203L67.4445 23.0344L62.9893 30.723L57.7561 39.7543L37.9236 73.9789C36.8524 75.8282 36.3055 77.9252 36.3431 80.0449C36.351 80.507 36.3869 80.9682 36.4508 81.426C36.6573 82.9292 37.157 84.3888 37.9236 85.7115C38.1704 86.137 38.4425 86.5459 38.74 86.9356C39.6449 88.1258 40.7738 89.1398 42.0593 89.9089C43.8822 91.0005 45.9789 91.5777 48.1212 91.5777H57.3221V175.87H112.682L112.553 176.036L110.919 178.14H114.961L114.832 178.307L114.085 179.268L113.087 180.554L125.287 192.71L127.542 190.97L132.07 187.478C133.773 188.422 135.544 189.218 137.372 189.863C137.934 190.063 138.502 190.247 139.075 190.417C139.198 190.453 139.321 190.489 139.445 190.525L140.033 195.116L140.169 196.182L140.239 196.73L140.53 199H157.782L158.142 196.182L158.867 190.525C161.435 189.793 163.902 188.774 166.241 187.478L170.77 190.97L173.024 192.709L175.041 190.701L185.225 180.554L183.48 178.307L181.587 175.87L179.975 173.794C180.188 173.413 180.393 173.031 180.589 172.644C181.602 170.659 182.419 168.588 183.033 166.447L188.71 165.726L191.538 165.367V148.177L189.259 147.887L188.71 147.817L187.64 147.681L183.032 147.096C182.997 146.973 182.96 146.85 182.924 146.728C182.754 146.157 182.568 145.591 182.367 145.031C181.72 143.211 180.921 141.445 179.975 139.749L183.48 135.236L185.225 132.99L182.946 130.719L181.767 129.544H191.841L192.202 126.725L192.617 123.473C194.022 123.034 195.38 122.474 196.683 121.797L199.284 123.802L201.539 125.541L203.555 123.533L209.182 117.926L211.198 115.917L209.453 113.67L207.441 111.079C208.12 109.78 208.682 108.426 209.124 107.027L212.387 106.612L215.215 106.253V92.6432L212.936 92.3537ZM188.989 72.5786L189.236 74.5073L189.46 76.2598L189.68 77.9828C192.223 78.5295 194.687 79.5278 196.943 80.9778L201.266 77.6453L204.614 80.9813L205.768 82.1314L206.893 83.2518L204.043 86.9208L203.547 87.5582C204.607 89.1939 205.426 90.9395 206.005 92.7444C206.221 93.421 206.404 94.1054 206.553 94.7951L209.698 95.1945L211.317 95.4002L211.977 95.4839V103.412L206.553 104.101C206.094 106.223 205.316 108.292 204.219 110.23C204.008 110.604 203.784 110.974 203.547 111.338L205.903 114.371L206.893 115.644L201.266 121.251L199.987 120.265L196.943 117.918C196.578 118.153 196.207 118.376 195.831 118.587C193.887 119.68 191.811 120.456 189.68 120.913L188.989 126.318H181.032L180.984 125.952L180.947 125.66L180.74 124.047L180.339 120.913C179.646 120.764 178.959 120.582 178.281 120.366C177.833 120.224 177.389 120.066 176.949 119.894C175.611 119.371 174.313 118.713 173.077 117.918L172.438 118.411L171.398 119.212L168.754 121.251L166.475 118.98L163.129 115.644L166.473 111.338C165.017 109.089 164.015 106.634 163.467 104.101L161.737 103.881L159.977 103.658L158.043 103.412V95.4839L163.467 94.7951C164.015 92.2622 165.017 89.8069 166.473 87.5582L163.129 83.2518L168.754 77.6453L173.077 80.9778C173.286 80.8435 173.498 80.7127 173.711 80.5854C174.241 80.2698 174.782 79.9786 175.33 79.7109C175.862 79.4519 176.403 79.2157 176.949 79.002C178.056 78.5687 179.19 78.2304 180.339 77.9828L181.032 72.5786H188.989ZM140.53 114.543L140.169 117.361L139.445 123.018C136.877 123.749 134.409 124.768 132.07 126.064L130.798 125.083L127.542 122.572L125.287 120.833L113.087 132.99L114.832 135.236L117.351 138.48L118.336 139.749C117.036 142.078 116.013 144.537 115.279 147.095L109.601 147.817L106.773 148.177V165.366L109.601 165.726L110.315 165.816L113.665 166.242L115.28 166.447C115.282 166.456 115.285 166.465 115.287 166.474H69.031V91.5777H124.427C126.57 91.5777 128.666 91.0005 130.49 89.9089C132.195 88.8879 133.625 87.4361 134.625 85.7115C135.624 83.9868 136.171 82.0267 136.206 80.044C136.243 77.9252 135.697 75.8282 134.625 73.9789L107.909 27.8735H173.711V76.9112C173.586 76.9722 173.462 77.0359 173.338 77.1004L173.052 76.8798L172.072 76.1247L171.433 75.6312L170.736 75.0941L168.481 73.3546L167.617 74.2152L166.465 75.3644L160.839 80.9708L158.823 82.9789L160.567 85.2258L161.602 86.5572L162.58 87.8171C161.9 89.1172 161.338 90.4704 160.897 91.8689L157.633 92.284L154.805 92.6432V106.253L157.633 106.612L159.376 106.834L160.897 107.027C161.161 107.865 161.469 108.687 161.82 109.49C162.054 110.028 162.308 110.558 162.58 111.079L160.567 113.67L159.822 114.631L158.823 115.917L160.839 117.925L164.186 121.261L165.521 122.591L166.203 123.271L166.465 123.532L166.675 123.741L167.799 124.862L166.241 126.064C165.735 125.783 165.221 125.515 164.702 125.262C162.828 124.34 160.878 123.59 158.867 123.018L158.66 121.409L158.142 117.361L157.831 114.929L157.782 114.543H140.53ZM43.7264 87.144C42.6684 86.5101 41.7557 85.6478 41.06 84.6268C40.9427 84.455 40.8324 84.2789 40.7274 84.0984C40.002 82.8463 39.6055 81.4251 39.5802 79.9882C39.553 78.4545 39.9503 76.9338 40.7274 75.592L60.56 41.3674L65.7931 32.336L70.2483 24.6474L73.27 19.4333L78.8812 9.7498C79.6583 8.40792 80.7811 7.30581 82.1279 6.56207C83.3898 5.8654 84.8232 5.49658 86.2741 5.49658C87.7251 5.49658 89.1594 5.8654 90.4204 6.56207C90.6383 6.68239 90.8501 6.81231 91.0557 6.95094C92.1216 7.66853 93.016 8.62503 93.6679 9.7498L96.0937 13.9359L97.409 16.2064H97.4038L100.208 21.0464L102.85 25.6031L103.23 26.2605L104.165 27.8735H104.17L131.821 75.592C131.978 75.8623 132.119 76.1404 132.244 76.4238C132.741 77.5477 132.99 78.764 132.968 79.9882C132.943 81.4251 132.546 82.8463 131.821 84.0984C131.095 85.3505 130.058 86.4038 128.822 87.144C127.502 87.934 125.983 88.3516 124.427 88.3516H48.1212C46.9206 88.3516 45.7418 88.1031 44.6593 87.6262C44.339 87.4849 44.0274 87.3245 43.7264 87.144ZM177.249 125.041L175.378 123.178L175.041 122.842L174.608 122.411C174.843 122.516 175.08 122.619 175.319 122.717C175.468 122.779 175.617 122.839 175.767 122.897C176.183 123.06 176.605 123.212 177.032 123.352C177.155 123.394 177.279 123.433 177.403 123.473L177.656 125.447L177.249 125.041ZM179.905 17.162V19.4325H182.183V69.3525H178.181L177.82 72.1705L177.403 75.4237C177.251 75.4716 177.1 75.5205 176.949 75.571V67.082H175.902L175.541 69.9001L175.125 73.1532C174.972 73.2011 174.821 73.25 174.671 73.3006V24.6474H106.039L105.659 23.99L105.105 23.0344L104.724 22.3769H103.761L102.826 20.7639L100.739 17.162H179.905ZM60.56 174.914V172.644H58.2812V89.3081H63.5143V91.5786H65.7931V167.43H114.113C114.288 167.87 114.472 168.306 114.664 168.737C114.808 169.06 114.957 169.381 115.112 169.7H116.392C116.567 170.14 116.751 170.576 116.943 171.008C117.13 171.428 117.326 171.846 117.531 172.261C117.536 172.272 117.543 172.283 117.548 172.294C117.606 172.411 117.664 172.528 117.724 172.644C117.92 173.03 118.125 173.413 118.336 173.794L117.466 174.914H60.56ZM188.3 151.017V162.525L182.183 163.302L180.43 163.525C179.727 166.777 178.525 169.844 176.908 172.644C176.853 172.739 176.798 172.834 176.741 172.929C176.522 173.3 176.296 173.666 176.062 174.027L176.752 174.914L177.494 175.87L179.931 179.007L180.92 180.281L172.751 188.419L171.473 187.433L166.474 183.579C166.112 183.812 165.744 184.038 165.372 184.256C162.486 185.952 159.31 187.207 155.934 187.933L154.931 195.774H143.381L143.297 195.116L143.091 193.503L142.377 187.933C141.684 187.784 140.999 187.613 140.323 187.419C137.285 186.552 134.432 185.247 131.838 183.579L131.151 184.108L125.56 188.419L117.392 180.281L119.055 178.14H119.099L120.071 176.888L121.096 175.568L122.352 173.949L121.418 172.126C120.83 170.983 120.304 169.789 119.853 168.577L119.07 166.474H118.672C118.361 165.51 118.097 164.527 117.88 163.525L116.118 163.301L114.377 163.08L110.011 162.525V151.017L117.88 150.017C118.702 146.221 120.203 142.677 122.25 139.516L117.392 133.262L125.56 125.123L131.838 129.963C135.01 127.925 138.567 126.429 142.377 125.61L143.381 117.769H154.931L155.487 122.119L155.71 123.854L155.934 125.61C159.745 126.429 163.302 127.925 166.474 129.963L172.751 125.123L176.949 129.307L178.641 130.991L179.795 132.141L180.92 133.262L176.949 138.373L176.592 138.833L176.062 139.516C176.371 139.992 176.667 140.478 176.949 140.97C178.202 143.155 179.205 145.502 179.916 147.972C180.109 148.645 180.281 149.327 180.43 150.017L182.183 150.24L186.022 150.728L187.64 150.934L188.3 151.017ZM158.618 104.757L155.354 104.342L154.805 104.272V106.253L157.633 106.612L159.376 106.834C159.093 106.154 158.841 105.461 158.618 104.757ZM158.618 104.757L155.354 104.342L154.805 104.272V106.253L157.633 106.612L159.376 106.834C159.093 106.154 158.841 105.461 158.618 104.757Z" fill="#DEEBFF"/>
</g>
<path d="M119.139 169.855C118.552 168.712 118.026 167.518 117.574 166.306L116.791 164.203H66.7524V86.082H55.0435V175.87H116.82L117.792 174.618L118.817 173.298L120.074 171.678L119.139 169.855ZM63.5145 167.43H114.539C114.825 168.197 115.136 168.954 115.473 169.7C115.72 170.247 115.981 170.788 116.255 171.324L115.231 172.644H58.2814V89.3081H63.5145V167.43Z" fill="#1C2024"/>
<path d="M95.125 13.9359L97.9297 18.7759L100.951 23.99L101.886 25.603H171.433V78.3149C171.962 77.9993 172.503 77.7081 173.052 77.4404C173.584 77.1814 174.124 76.9452 174.671 76.7315V22.3769H103.755L100.734 17.162H179.905V70.3081H183.142V13.9359H95.125ZM103.761 22.3769L104.695 23.99H173.052V73.9048C173.196 73.8437 173.341 73.7853 173.487 73.7286C173.562 73.6999 173.636 73.6711 173.711 73.6423C174.028 73.522 174.348 73.4078 174.671 73.3005V22.3769H103.761Z" fill="#1C2024"/>
<path d="M132.346 71.7084L105.63 25.6031L102.826 20.7639L100.739 17.162L99.8042 15.5498L98.8687 13.9359L94.193 5.86628C93.9453 5.43904 93.6723 5.02923 93.3739 4.63861C92.3885 3.3412 91.1415 2.26002 89.7115 1.47006C87.971 0.508329 85.9941 0 83.9953 0C81.9966 0 80.0206 0.508329 78.2791 1.47006C76.4187 2.49718 74.8697 4.01781 73.7977 5.86628L68.1865 15.5498L65.1656 20.7639L60.7105 28.4525L55.4773 37.4838L35.6448 71.7084C34.5736 73.5578 34.0267 75.6547 34.0643 77.7744C34.0993 79.7571 34.6454 81.7163 35.6448 83.441C36.4332 84.802 37.4904 85.9931 38.74 86.9356C39.0734 87.1885 39.4209 87.423 39.7805 87.6384C41.6034 88.73 43.7001 89.3073 45.8424 89.3073H122.148C124.291 89.3073 126.387 88.73 128.211 87.6384C129.917 86.6174 131.347 85.1656 132.346 83.441C133.345 81.7163 133.892 79.7562 133.927 77.7735C133.964 75.6547 133.418 73.5578 132.346 71.7084ZM41.4476 84.8735C41.3163 84.7951 41.1868 84.7122 41.0599 84.6268C39.994 83.9066 39.0971 82.9466 38.4486 81.8279C37.7231 80.5759 37.3267 79.1546 37.3013 77.7177C37.2742 76.184 37.6715 74.6634 38.4486 73.3215L58.2812 39.0969L63.5143 30.0655L67.9695 22.3769L70.9912 17.1629L76.6024 7.47933C77.3795 6.13744 78.5023 5.03534 79.8491 4.29159C81.111 3.59493 82.5444 3.2261 83.9953 3.2261C85.4463 3.2261 86.8806 3.59493 88.1416 4.29159C89.3072 4.93507 90.3049 5.84709 91.0557 6.95094C91.173 7.12271 91.2841 7.29884 91.3891 7.47933L95.1302 13.9359L97.0003 17.1629L100.022 22.3769L101.891 25.6031L129.542 73.3215C130.32 74.6634 130.716 76.184 130.689 77.7177C130.664 79.1546 130.268 80.5759 129.542 81.8279C128.817 83.08 127.78 84.1333 126.543 84.8735C125.223 85.6635 123.704 86.0812 122.148 86.0812H45.8424C44.2873 86.0812 42.7681 85.6635 41.4476 84.8735Z" fill="#1C2024"/>
<path d="M93.1755 68.0472C92.8771 67.2991 92.4895 66.5964 92.023 65.9494C91.3868 65.0653 90.6045 64.2875 89.7014 63.6475C88.0334 62.4652 86.0662 61.8409 84.0132 61.8409C81.9602 61.8409 79.9658 62.4617 78.297 63.6379C76.7305 64.7418 75.529 66.2607 74.821 68.0298C73.3797 71.6343 74.2662 75.5562 77.1357 78.2653C77.4665 78.5774 77.8139 78.8651 78.1771 79.1267C78.9305 79.6725 79.7496 80.1076 80.6256 80.4268C81.7116 80.8217 82.8466 81.0223 83.9983 81.0223C85.1499 81.0223 86.2841 80.8217 87.3701 80.4259C88.6644 79.9533 89.837 79.227 90.8556 78.2653C92.3302 76.8728 93.3059 75.1473 93.6796 73.2735C94.0244 71.541 93.8502 69.7344 93.1755 68.0472ZM80.5092 76.8031C80.1067 76.5563 79.7225 76.2625 79.3628 75.9233C75.0346 71.8375 78.3486 65.067 84.0132 65.067C86.4941 65.067 88.5558 66.415 89.6838 68.2739C91.0761 70.568 91.0464 73.6397 88.6285 75.9233C87.9153 76.5964 87.1075 77.0864 86.2569 77.396C85.5245 77.6636 84.7614 77.7962 83.9983 77.7962C83.2352 77.7962 82.4686 77.6628 81.737 77.396C81.3143 77.2425 80.903 77.0446 80.5092 76.8031Z" fill="#1C2024"/>
<path d="M92.1592 22.1224C91.8083 21.6376 91.4058 21.1772 90.9525 20.7456C90.0003 19.8388 88.9257 19.1448 87.7583 18.6818C86.5953 18.2205 85.3351 17.9868 84.0129 17.9868H83.9787C82.6556 17.9868 81.3954 18.2205 80.2333 18.6818C79.065 19.1448 77.9904 19.8388 77.0391 20.7447C75.1051 22.588 74.083 24.9491 74.083 27.5736C74.083 30.6837 74.8977 35.7548 76.5211 45.8569C76.9691 48.6479 77.4776 51.8112 78.0429 55.3948L78.4725 58.1204H89.519L89.9487 55.3948C90.5132 51.8112 91.0216 48.6479 91.4705 45.8569C93.0938 35.7548 93.9086 30.6837 93.9086 27.5736C93.9086 25.5638 93.3091 23.7084 92.1592 22.1224ZM81.2414 54.8943C78.7088 38.8318 77.3209 31.2487 77.3209 27.5736C77.3209 25.8184 77.9729 24.3196 79.2768 23.0771C80.5807 21.8346 82.148 21.2129 83.9787 21.2129C83.984 21.2129 83.9901 21.2138 83.9954 21.2138C84.0015 21.2138 84.0067 21.2129 84.0129 21.2129C85.8436 21.2129 87.41 21.8346 88.7148 23.0771C89.1611 23.5026 89.5304 23.9578 89.8236 24.4425C90.3889 25.3755 90.6707 26.4192 90.6707 27.5736C90.6707 31.2487 89.2819 38.8318 86.7502 54.8943H81.2414Z" fill="#1C2024"/>
<path d="M165.076 138.636C160.643 133.592 154.134 130.407 146.876 130.407C133.522 130.407 122.695 141.194 122.695 154.502C122.695 159.259 124.079 163.694 126.469 167.43C127.711 169.372 129.224 171.126 130.957 172.636C130.96 172.638 130.963 172.641 130.966 172.644C132.403 173.896 133.99 174.981 135.697 175.87C139.041 177.61 142.844 178.594 146.876 178.594C150.909 178.594 154.714 177.61 158.058 175.87C159.764 174.981 161.351 173.896 162.788 172.644C164.524 171.132 166.041 169.376 167.286 167.43C169.674 163.694 171.058 159.259 171.058 154.502C171.058 148.425 168.8 142.875 165.076 138.636ZM142.162 174.833C142.074 174.813 141.986 174.792 141.899 174.771C141.848 174.759 141.796 174.746 141.746 174.733C141.666 174.714 141.586 174.693 141.507 174.672C141.409 174.646 141.311 174.619 141.213 174.591C140.972 174.524 140.732 174.453 140.494 174.376C140.401 174.347 140.308 174.317 140.216 174.285C140.115 174.252 140.015 174.217 139.915 174.183C139.697 174.107 139.481 174.026 139.265 173.943C139.161 173.902 139.056 173.861 138.953 173.818C138.888 173.792 138.824 173.766 138.761 173.739C138.689 173.709 138.618 173.679 138.547 173.648C138.475 173.618 138.404 173.586 138.333 173.554C138.231 173.509 138.129 173.462 138.026 173.414C138.019 173.412 138.013 173.409 138.007 173.406C137.912 173.361 137.817 173.316 137.723 173.271C137.654 173.238 137.587 173.205 137.52 173.17C137.471 173.147 137.424 173.123 137.376 173.099C137.369 173.095 137.361 173.092 137.354 173.087C137.276 173.048 137.198 173.007 137.121 172.967C137.023 172.916 136.927 172.864 136.831 172.812C136.827 172.81 136.823 172.808 136.819 172.805C136.729 172.756 136.64 172.706 136.551 172.657C136.347 172.542 136.145 172.424 135.945 172.301C135.884 172.264 135.823 172.226 135.762 172.188C135.55 172.056 135.341 171.92 135.133 171.78C135.036 171.714 134.939 171.648 134.844 171.581C134.591 171.404 134.341 171.221 134.095 171.031C134.034 170.985 133.973 170.937 133.912 170.889C133.868 170.855 133.824 170.82 133.78 170.785C133.734 170.748 133.688 170.711 133.641 170.672C133.509 170.566 133.379 170.457 133.249 170.345H133.248C133.197 170.302 133.148 170.259 133.098 170.215C131.587 168.9 130.276 167.38 129.199 165.696C127.063 162.356 125.933 158.484 125.933 154.502C125.933 142.995 135.328 133.633 146.876 133.633C153.229 133.633 158.929 136.466 162.773 140.929C165.918 144.581 167.82 149.324 167.82 154.502C167.82 158.484 166.69 162.356 164.555 165.696C163.479 167.378 162.167 168.899 160.657 170.215C160.478 170.371 160.297 170.524 160.113 170.672C160.067 170.711 160.02 170.748 159.974 170.785C159.93 170.82 159.887 170.855 159.842 170.889C159.781 170.937 159.72 170.985 159.659 171.031C159.413 171.221 159.164 171.404 158.911 171.581C158.815 171.648 158.718 171.714 158.621 171.78C158.414 171.92 158.204 172.056 157.992 172.188C157.932 172.226 157.87 172.264 157.809 172.301C157.609 172.424 157.407 172.542 157.203 172.657C157.114 172.706 157.025 172.756 156.936 172.805C156.931 172.808 156.928 172.81 156.923 172.812C156.827 172.864 156.731 172.916 156.634 172.967C156.556 173.007 156.478 173.048 156.4 173.087C156.393 173.092 156.385 173.095 156.378 173.099C156.33 173.123 156.283 173.147 156.235 173.17C156.167 173.205 156.099 173.238 156.032 173.271C155.937 173.316 155.843 173.361 155.747 173.406C155.741 173.409 155.735 173.412 155.728 173.414C155.626 173.462 155.523 173.509 155.421 173.554C155.35 173.586 155.279 173.618 155.207 173.648C155.136 173.679 155.066 173.709 154.994 173.739C154.93 173.766 154.866 173.792 154.801 173.818C154.698 173.861 154.593 173.902 154.489 173.943C154.274 174.026 154.057 174.107 153.84 174.183C153.74 174.217 153.639 174.252 153.538 174.285C153.447 174.317 153.353 174.347 153.26 174.376C153.022 174.453 152.782 174.524 152.542 174.591C152.444 174.619 152.346 174.646 152.248 174.672C152.168 174.693 152.088 174.714 152.009 174.733C151.958 174.746 151.906 174.759 151.856 174.771C151.768 174.792 151.681 174.813 151.592 174.833C151.49 174.857 151.387 174.88 151.283 174.902C151.159 174.929 151.036 174.954 150.912 174.978C150.82 174.996 150.727 175.013 150.634 175.03C150.619 175.034 150.604 175.036 150.589 175.038C150.486 175.057 150.382 175.075 150.279 175.092C150.272 175.093 150.266 175.094 150.259 175.095C150.153 175.112 150.045 175.129 149.938 175.144C149.937 175.144 149.934 175.144 149.931 175.144C149.834 175.159 149.737 175.172 149.64 175.185C149.609 175.19 149.579 175.193 149.548 175.197C149.452 175.21 149.355 175.221 149.258 175.232C149.149 175.245 149.04 175.256 148.93 175.267C148.856 175.274 148.781 175.281 148.706 175.287C148.649 175.292 148.592 175.298 148.535 175.302H148.534C148.437 175.31 148.34 175.317 148.244 175.323H148.24C148.135 175.33 148.03 175.336 147.925 175.341C147.8 175.347 147.674 175.353 147.548 175.356C147.459 175.36 147.37 175.362 147.28 175.363C147.228 175.365 147.176 175.366 147.125 175.366C147.042 175.367 146.959 175.367 146.876 175.367C146.793 175.367 146.711 175.367 146.628 175.366C146.576 175.366 146.524 175.366 146.473 175.363C146.384 175.362 146.293 175.36 146.204 175.356C146.08 175.353 145.956 175.347 145.832 175.341C145.725 175.336 145.618 175.33 145.511 175.323C145.414 175.317 145.317 175.31 145.22 175.302H145.218C145.161 175.298 145.104 175.292 145.047 175.287C144.973 175.281 144.898 175.274 144.823 175.267C144.714 175.256 144.605 175.245 144.495 175.232C144.398 175.221 144.302 175.21 144.205 175.197C144.175 175.193 144.144 175.19 144.114 175.185C144.016 175.172 143.919 175.159 143.822 175.144C143.82 175.144 143.818 175.144 143.815 175.144C143.706 175.129 143.597 175.111 143.488 175.094C143.377 175.075 143.266 175.056 143.154 175.036C143.143 175.034 143.132 175.033 143.119 175.03C143.03 175.014 142.942 174.997 142.853 174.98C142.725 174.955 142.598 174.929 142.471 174.902C142.368 174.88 142.264 174.857 142.162 174.833Z" fill="#1C2024"/>
<path d="M116.118 163.301C115.923 162.628 115.752 161.946 115.602 161.255L110.011 160.544V162.525L114.378 163.08C114.477 163.456 114.584 163.831 114.697 164.203H116.393C116.297 163.904 116.205 163.604 116.118 163.301ZM186.431 145.547L182.367 145.031L180.754 144.826C180.02 142.272 178.996 139.811 177.697 137.478L181.202 132.966L182.947 130.719L181.767 129.544L180.93 128.71L179.488 127.273L179.194 126.98L177.87 125.66L177.249 125.041L175.378 123.178L175.041 122.842L174.608 122.411H174.607L172.762 120.572L172.328 120.139L171.398 119.212L170.746 118.563L168.492 120.301L168.102 120.601L165.522 122.591H165.521L163.963 123.793C163.83 123.72 163.697 123.647 163.563 123.575C163.535 123.56 163.507 123.545 163.478 123.53C163.348 123.46 163.216 123.391 163.084 123.323C163.083 123.322 163.08 123.321 163.077 123.32C162.93 123.243 162.782 123.167 162.634 123.094C162.504 123.029 162.374 122.965 162.243 122.902C162.198 122.88 162.152 122.858 162.106 122.836C162.021 122.795 161.935 122.754 161.849 122.715C161.684 122.636 161.518 122.561 161.352 122.486C161.251 122.44 161.149 122.396 161.048 122.351C161.037 122.346 161.025 122.341 161.014 122.336C160.907 122.289 160.8 122.243 160.693 122.198C160.54 122.132 160.386 122.069 160.232 122.006C160.13 121.963 160.027 121.922 159.923 121.881C159.901 121.873 159.88 121.864 159.858 121.856C159.733 121.806 159.608 121.758 159.482 121.71C159.459 121.701 159.435 121.692 159.412 121.683C159.276 121.631 159.139 121.581 159.003 121.531C158.889 121.49 158.775 121.449 158.661 121.409C158.576 121.378 158.49 121.349 158.404 121.319C158.395 121.315 158.384 121.312 158.375 121.308C158.274 121.274 158.173 121.24 158.073 121.206C158.038 121.195 158.003 121.183 157.968 121.172C157.828 121.125 157.688 121.08 157.547 121.036C157.415 120.994 157.283 120.953 157.151 120.913C157.138 120.909 157.124 120.905 157.111 120.901C157.061 120.886 157.011 120.871 156.961 120.857C156.837 120.819 156.713 120.784 156.588 120.748L155.864 115.091L155.794 114.543L155.503 112.273H138.251L137.891 115.091L137.166 120.748C134.599 121.478 132.131 122.498 129.792 123.793L125.263 120.301L123.009 118.563L110.808 130.719L112.553 132.966L116.058 137.478C114.757 139.808 113.734 142.267 113 144.825L107.322 145.547L104.494 145.906V163.095L106.773 163.386L107.322 163.455L113.001 164.176C113.004 164.185 113.006 164.195 113.009 164.203C113.165 164.745 113.334 165.283 113.517 165.816C113.566 165.959 113.615 166.101 113.665 166.242C113.692 166.32 113.72 166.397 113.749 166.474C113.866 166.795 113.986 167.113 114.113 167.43C114.288 167.87 114.472 168.306 114.665 168.737C114.808 169.06 114.957 169.381 115.112 169.7C115.408 170.316 115.724 170.924 116.058 171.523L115.188 172.644L113.935 174.257L113.425 174.914L112.683 175.87L112.553 176.036L110.919 178.14L110.808 178.283L123.009 190.439L125.263 188.7L129.792 185.208C132.131 186.504 134.599 187.523 137.166 188.254L137.372 189.863L137.891 193.911L138.251 196.73H155.503L155.864 193.911L156.588 188.254C159.156 187.523 161.624 186.504 163.963 185.208L168.492 188.7L170.746 190.439L172.762 188.431L180.93 180.292L182.947 178.283L181.202 176.036L181.072 175.87L178.567 172.644L177.697 171.523C178.998 169.193 180.02 166.735 180.755 164.176L186.431 163.455L189.26 163.096V145.906L186.431 145.547ZM164.196 181.309C161.023 183.348 157.466 184.844 153.656 185.662L152.652 193.503H141.103L140.324 187.419L140.099 185.662C136.289 184.844 132.731 183.348 129.559 181.309L123.282 186.149L117.392 180.281L115.114 178.01L116.776 175.87L119.282 172.644L119.971 171.757C119.082 170.384 118.295 168.938 117.624 167.43C117.157 166.383 116.745 165.306 116.393 164.203C116.297 163.904 116.205 163.604 116.118 163.301C115.923 162.628 115.752 161.946 115.602 161.255L110.011 160.544L107.732 160.255V148.747L115.602 147.747C116.424 143.95 117.924 140.406 119.971 137.245L115.114 130.991L123.282 122.853L129.559 127.693C132.731 125.654 136.289 124.159 140.099 123.34L141.103 115.499H152.652L152.943 117.769L153.656 123.34C154.349 123.489 155.034 123.661 155.71 123.854C158.748 124.721 161.601 126.025 164.196 127.693L170.473 122.853L172.752 125.123L176.95 129.307L178.641 130.991L174.671 136.102L173.783 137.245C174.092 137.721 174.388 138.207 174.671 138.7C176.266 141.48 177.454 144.523 178.152 147.747L179.905 147.97L179.916 147.972L186.022 148.747V160.255L179.905 161.031L178.152 161.255C177.33 165.051 175.829 168.595 173.783 171.757L174.473 172.644L176.978 175.87L178.641 178.01L170.473 186.149L164.196 181.309Z" fill="#1C2024"/>
<path d="M195.598 86.6322C195.259 86.2224 194.897 85.8248 194.512 85.4412C191.258 82.2002 186.995 80.5793 182.731 80.5793C181.785 80.5793 180.839 80.6596 179.904 80.8191C178.091 81.1278 176.32 81.7381 174.67 82.6475C173.338 83.3826 172.084 84.3138 170.952 85.4412C164.446 91.923 164.446 102.432 170.952 108.914C171.336 109.297 171.734 109.657 172.146 109.995C172.944 110.651 173.79 111.222 174.67 111.708C176.32 112.617 178.091 113.228 179.904 113.536C180.839 113.696 181.785 113.776 182.731 113.776C186.995 113.776 191.258 112.155 194.512 108.914C200.631 102.816 200.994 93.1524 195.598 86.6322ZM176.239 108.885C175.609 108.539 175.01 108.142 174.444 107.697C174.024 107.367 173.622 107.012 173.241 106.633C170.706 104.107 169.31 100.749 169.31 97.1781C169.31 93.6067 170.706 90.2481 173.241 87.723C174.136 86.831 175.144 86.0733 176.239 85.4699C177.551 84.7463 178.968 84.2519 180.45 83.999C181.203 83.8708 181.971 83.8054 182.731 83.8054C186.316 83.8054 189.686 85.197 192.222 87.723C192.605 88.1049 192.963 88.506 193.293 88.9245C195.147 91.2691 196.153 94.1464 196.153 97.1781C196.153 100.749 194.757 104.107 192.222 106.633C189.686 109.158 186.316 110.55 182.731 110.55C181.971 110.55 181.203 110.484 180.451 110.356C178.968 110.103 177.551 109.609 176.239 108.885Z" fill="#1C2024"/>
<path d="M175.902 67.082L175.541 69.9001L175.125 73.1532C174.972 73.2012 174.821 73.25 174.67 73.3006V76.7316C175.777 76.2982 176.911 75.9599 178.061 75.7123L178.753 70.3081H179.905V67.082H175.902ZM175.902 67.082L175.541 69.9001L175.125 73.1532C174.972 73.2012 174.821 73.25 174.67 73.3006V76.7316C175.777 76.2982 176.911 75.9599 178.061 75.7123L178.753 70.3081H179.905V67.082H175.902ZM210.108 90.0135L208.365 89.792L206.845 89.5985C206.404 88.1999 205.841 86.8458 205.162 85.5467L207.175 82.9553L208.92 80.7084L203.555 75.3635L201.539 73.3555L201.276 73.093L199.26 71.085L197.005 72.8236L194.404 74.829C193.757 74.4934 193.097 74.1856 192.424 73.9083C191.741 73.6258 191.046 73.3738 190.338 73.1523L189.923 69.9009L189.853 69.3525L189.562 67.082H175.902L175.541 69.9001L175.125 73.1532C174.972 73.2012 174.821 73.25 174.67 73.3006C174.348 73.4078 174.028 73.522 173.711 73.6424C173.636 73.6711 173.562 73.6999 173.487 73.7287C173.341 73.7854 173.196 73.8438 173.052 73.9048C172.504 74.1298 171.964 74.3756 171.433 74.6407C171.307 74.7017 171.183 74.7654 171.059 74.8299L168.457 72.8236L166.202 71.0841L164.186 73.0939L158.56 78.7004L156.544 80.7084L158.288 82.9553L160.301 85.5467C159.621 86.8467 159.059 88.1999 158.618 89.5985L155.354 90.0135L152.526 90.3727V103.983L154.805 104.272L155.354 104.342L158.618 104.757C158.841 105.461 159.093 106.154 159.376 106.834C159.414 106.925 159.452 107.016 159.492 107.107C159.524 107.182 159.557 107.258 159.592 107.334C159.663 107.498 159.738 107.661 159.814 107.823C159.969 108.155 160.131 108.483 160.301 108.809L158.288 111.4L156.544 113.647L160.839 117.925L164.186 121.261L165.52 122.592L166.202 123.271L168.456 121.532L171.058 119.525C171.475 119.742 171.898 119.947 172.327 120.139C172.709 120.312 173.096 120.474 173.487 120.627C174.024 120.837 174.57 121.029 175.124 121.202L175.318 122.717L175.377 123.177L175.493 124.09L175.54 124.458L175.713 125.794L175.904 127.273H189.561L189.922 124.454L190.338 121.203C191.742 120.764 193.1 120.204 194.403 119.526L197.004 121.532L199.259 123.27L201.276 121.262L206.902 115.656L208.919 113.647L207.174 111.4L205.161 108.809C205.84 107.509 206.403 106.155 206.844 104.757L210.107 104.342L212.935 103.983V90.3727L210.107 90.0135H210.108ZM194.664 115.648C192.408 117.098 189.944 118.096 187.402 118.643L186.71 124.047H178.753L178.706 123.682L178.281 120.366L178.061 118.643C176.911 118.395 175.777 118.057 174.67 117.624C173.332 117.101 172.034 116.442 170.798 115.648L166.475 118.98L163.129 115.644L160.85 113.374L164.194 109.068C164.141 108.986 164.09 108.905 164.039 108.823C164.013 108.783 163.988 108.744 163.964 108.704C163.921 108.635 163.878 108.565 163.836 108.496C163.823 108.474 163.81 108.452 163.796 108.43C163.741 108.339 163.687 108.246 163.634 108.154C163.626 108.141 163.618 108.127 163.61 108.114C163.557 108.022 163.505 107.93 163.453 107.837C163.265 107.5 163.087 107.158 162.918 106.814C162.873 106.722 162.829 106.631 162.786 106.538C162.734 106.43 162.684 106.321 162.635 106.212C162.579 106.089 162.525 105.965 162.471 105.841C162.43 105.746 162.39 105.651 162.351 105.555C162.307 105.451 162.265 105.346 162.225 105.242C162.196 105.172 162.169 105.102 162.142 105.031C162.121 104.977 162.101 104.924 162.081 104.87C162.071 104.844 162.061 104.818 162.051 104.791C162.025 104.719 161.999 104.648 161.974 104.576C161.967 104.561 161.961 104.544 161.956 104.528C161.928 104.45 161.901 104.371 161.874 104.291C161.827 104.155 161.781 104.018 161.737 103.881C161.736 103.875 161.733 103.868 161.731 103.862C161.707 103.786 161.683 103.71 161.659 103.634C161.643 103.58 161.626 103.526 161.61 103.472C161.592 103.412 161.574 103.352 161.558 103.293C161.548 103.261 161.539 103.23 161.531 103.199C161.513 103.14 161.497 103.081 161.481 103.022C161.451 102.913 161.421 102.804 161.393 102.695C161.38 102.643 161.367 102.593 161.354 102.541C161.334 102.463 161.315 102.383 161.296 102.305C161.258 102.147 161.222 101.989 161.188 101.831L158.043 101.431L155.764 101.142V93.2135L161.188 92.5247C161.736 89.9917 162.738 87.5364 164.194 85.2877L160.85 80.9813L166.475 75.3749L170.798 78.7073C171.007 78.5731 171.219 78.4423 171.433 78.315C171.962 77.9993 172.503 77.7081 173.052 77.4404C173.584 77.1815 174.124 76.9452 174.67 76.7316C175.777 76.2982 176.911 75.9599 178.061 75.7123L178.753 70.3081H186.71L187.001 72.5786L187.402 75.7123C187.488 75.7306 187.575 75.7498 187.661 75.7698C187.733 75.7864 187.805 75.803 187.877 75.8204C187.956 75.8387 188.035 75.8579 188.114 75.878C188.194 75.898 188.272 75.9181 188.351 75.939C188.43 75.959 188.508 75.98 188.586 76.0018C188.642 76.0166 188.698 76.0323 188.753 76.048C188.803 76.0619 188.852 76.0759 188.901 76.0898C189.004 76.1195 189.108 76.1509 189.211 76.1823C189.287 76.2058 189.364 76.2293 189.441 76.2538C189.447 76.2555 189.453 76.2581 189.46 76.2599C189.482 76.2668 189.504 76.2738 189.525 76.2808C189.616 76.3104 189.707 76.3401 189.798 76.3706C189.903 76.4055 190.006 76.4412 190.109 76.4778C190.125 76.4831 190.142 76.4892 190.157 76.4953C190.256 76.5293 190.354 76.565 190.452 76.6017C190.459 76.6043 190.466 76.6069 190.472 76.6095C190.562 76.6426 190.652 76.6766 190.741 76.7115C190.788 76.7298 190.835 76.7481 190.883 76.7673C191.096 76.8519 191.31 76.94 191.521 77.0324C191.613 77.0716 191.706 77.1126 191.798 77.1544C191.924 77.2103 192.05 77.2687 192.175 77.328C192.259 77.3672 192.342 77.4073 192.426 77.4483C192.448 77.4587 192.47 77.4692 192.492 77.4805C192.585 77.5259 192.677 77.5721 192.769 77.6192C192.775 77.6218 192.78 77.6244 192.785 77.6279C192.886 77.6793 192.986 77.7317 193.086 77.784C193.09 77.7857 193.094 77.7883 193.098 77.7901C193.169 77.8276 193.239 77.8659 193.309 77.9043C193.331 77.9156 193.352 77.9278 193.374 77.9401C193.435 77.9732 193.496 78.0063 193.556 78.0412C193.576 78.0517 193.597 78.0639 193.617 78.0752C193.681 78.1118 193.745 78.1476 193.808 78.1851C193.903 78.2391 193.996 78.2949 194.09 78.3507C194.16 78.3926 194.23 78.4353 194.299 78.478C194.339 78.5024 194.379 78.5277 194.419 78.553C194.5 78.6036 194.583 78.655 194.664 78.7073L198.987 75.3749L201.266 77.6453L204.614 80.9813L201.268 85.2877C202.725 87.5364 203.727 89.9917 204.275 92.5247L206.005 92.7444L209.698 93.2135V101.142L204.275 101.831C203.727 104.364 202.725 106.819 201.268 109.068L204.614 113.374L198.987 118.98L194.664 115.648ZM175.902 67.082L175.541 69.9001L175.125 73.1532C174.972 73.2012 174.821 73.25 174.67 73.3006V76.7316C175.777 76.2982 176.911 75.9599 178.061 75.7123L178.753 70.3081H179.905V67.082H175.902ZM175.902 67.082L175.541 69.9001L175.125 73.1532C174.972 73.2012 174.821 73.25 174.67 73.3006V76.7316C175.777 76.2982 176.911 75.9599 178.061 75.7123L178.753 70.3081H179.905V67.082H175.902Z" fill="#1C2024"/>
<path d="M119.282 172.644L116.776 175.87H15.6707C14.7772 175.87 14.0518 175.148 14.0518 174.257C14.0518 173.366 14.7772 172.644 15.6707 172.644H119.282Z" fill="#1C2024"/>
<path d="M232.947 174.257C232.947 175.148 232.222 175.87 231.328 175.87H176.978L174.473 172.644H231.328C232.222 172.644 232.947 173.366 232.947 174.257Z" fill="#1C2024"/>
<path d="M8.99261 175.869H1.61895C0.724589 175.869 0 175.147 0 174.256C0 173.365 0.724589 172.643 1.61895 172.643H8.99261C9.88697 172.643 10.6116 173.365 10.6116 174.256C10.6116 175.147 9.88697 175.869 8.99261 175.869Z" fill="#1C2024"/>
<path d="M45.3017 167.964H37.928C37.0337 167.964 36.3091 167.242 36.3091 166.351C36.3091 165.46 37.0337 164.738 37.928 164.738H45.3017C46.196 164.738 46.9206 165.46 46.9206 166.351C46.9206 167.242 46.196 167.964 45.3017 167.964Z" fill="#1C2024"/>
<path d="M31.2485 167.964H23.8748C22.9804 167.964 22.2559 167.242 22.2559 166.351C22.2559 165.46 22.9804 164.738 23.8748 164.738H31.2485C32.1428 164.738 32.8674 165.46 32.8674 166.351C32.8674 167.242 32.1428 167.964 31.2485 167.964Z" fill="#1C2024"/>
<path d="M209.071 167.964H201.698C200.803 167.964 200.079 167.242 200.079 166.351C200.079 165.46 200.803 164.738 201.698 164.738H209.071C209.966 164.738 210.69 165.46 210.69 166.351C210.69 167.242 209.966 167.964 209.071 167.964Z" fill="#1C2024"/>
<path d="M223.125 167.964H215.752C214.857 167.964 214.133 167.242 214.133 166.351C214.133 165.46 214.857 164.738 215.752 164.738H223.125C224.019 164.738 224.743 165.46 224.743 166.351C224.743 167.242 224.019 167.964 223.125 167.964Z" fill="#1C2024"/>
<path d="M245.381 175.869H238.008C237.114 175.869 236.389 175.147 236.389 174.256C236.389 173.365 237.114 172.643 238.008 172.643H245.381C246.275 172.643 247 173.365 247 174.256C247 175.147 246.275 175.869 245.381 175.869Z" fill="#1C2024"/>
</g>
<defs>
<clipPath id="clip0_2_21902">
<rect width="247" height="199" fill="white"/>
</clipPath>
</defs>
</svg>
