<svg width="11" height="14" viewBox="0 0 11 14" fill="none" xmlns="http://www.w3.org/2000/svg">
<path d="M5.33153 8.00657C4.80411 8.00657 4.28854 7.85018 3.85001 7.55716C3.41148 7.26414 3.06969 6.84767 2.86785 6.3604C2.66602 5.87313 2.61321 5.33695 2.7161 4.81967C2.819 4.30238 3.07297 3.82723 3.44591 3.45429C3.81885 3.08135 4.29401 2.82737 4.81129 2.72448C5.32857 2.62159 5.86475 2.67439 6.35202 2.87623C6.83929 3.07806 7.25577 3.41986 7.54878 3.85839C7.8418 4.29692 7.9982 4.81249 7.9982 5.33991C7.9982 6.04715 7.71725 6.72543 7.21715 7.22553C6.71705 7.72562 6.03878 8.00657 5.33153 8.00657ZM5.33153 4.00657C5.06782 4.00657 4.81004 4.08477 4.59077 4.23128C4.37151 4.37779 4.20061 4.58603 4.09969 4.82966C3.99878 5.0733 3.97237 5.34139 4.02382 5.60003C4.07526 5.85867 4.20225 6.09625 4.38872 6.28272C4.57519 6.46919 4.81277 6.59617 5.07141 6.64762C5.33005 6.69907 5.59814 6.67266 5.84178 6.57175C6.08541 6.47083 6.29365 6.29993 6.44016 6.08067C6.58667 5.8614 6.66487 5.60362 6.66487 5.33991C6.66487 4.98629 6.52439 4.64715 6.27434 4.3971C6.02429 4.14705 5.68515 4.00657 5.33153 4.00657Z" fill="#6A737D"/>
<path d="M5.33153 13.3399C5.2331 13.3399 5.1359 13.318 5.04692 13.2759C4.95793 13.2339 4.87937 13.1726 4.81686 13.0966L1.3202 8.84724C1.25353 8.77257 1.17753 8.67924 1.10287 8.58057L1.02287 8.48324C0.991816 8.44562 0.964989 8.40471 0.942865 8.36124C0.39375 7.56502 0.0714924 6.63447 0.0105864 5.66918C-0.0503196 4.70389 0.152419 3.74021 0.597101 2.88129C1.04178 2.02236 1.71167 1.30053 2.53505 0.793062C3.35844 0.285589 4.30433 0.0115785 5.27147 0.000358941C6.23861 -0.0108606 7.1906 0.241133 8.02554 0.729368C8.86047 1.2176 9.54692 1.9237 10.0114 2.77207C10.4759 3.62045 10.7009 4.57917 10.6624 5.54561C10.6239 6.51205 10.3234 7.44983 9.79286 8.25857C9.7711 8.30441 9.74378 8.3474 9.71153 8.38657L9.62687 8.48991C9.5077 8.6529 9.37903 8.80872 9.24153 8.95657L5.84687 13.0932C5.78462 13.17 5.70609 13.2319 5.61696 13.2746C5.52784 13.3172 5.43034 13.3396 5.33153 13.3399ZM2.11487 7.71457L2.1462 7.75257C2.21287 7.84257 2.27487 7.91391 2.3362 7.98324L5.33153 11.6232L8.23687 8.08457C8.35624 7.95601 8.46756 7.8202 8.5702 7.67791L8.6202 7.61724L8.63753 7.58991C9.04989 6.98527 9.28847 6.2791 9.32728 5.54826C9.36609 4.81743 9.20365 4.08996 8.85764 3.44505C8.51164 2.80015 7.99533 2.26253 7.36494 1.89074C6.73455 1.51895 6.01424 1.32723 5.28244 1.33646C4.55063 1.3457 3.83539 1.55553 3.21458 1.94311C2.59377 2.33069 2.09119 2.88116 1.76157 3.53459C1.43195 4.18802 1.28792 4.91937 1.34516 5.64899C1.4024 6.37861 1.65871 7.07854 2.0862 7.67257C2.09687 7.6868 2.10642 7.7008 2.11487 7.71457Z" fill="#6A737D"/>
</svg>
