<svg width="252" height="244" viewBox="0 0 252 244" fill="none" xmlns="http://www.w3.org/2000/svg">
<g clip-path="url(#clip0_2_22894)">
<path d="M206.105 35.5643C205.693 35.5643 204.444 35.5643 202.211 25.7451C202.166 25.5389 202.234 25.3212 202.395 25.1837C206.62 21.5058 212.849 15.9604 215.792 13.1189C212.059 15.1927 204.192 19.9476 198.971 23.1786C198.833 23.2588 198.673 23.2818 198.513 23.2474C197.562 22.9839 192.776 21.5746 192.077 19.856C192.02 19.7185 191.963 19.432 192.169 19.1112C193.52 17.0832 214.888 10.9191 217.659 10.9191C217.865 10.9191 218.014 10.942 218.14 10.9993C218.14 10.9993 218.208 11.0336 218.243 11.0566C218.289 11.0795 218.323 11.1253 218.369 11.1597C218.644 11.4805 218.747 11.8357 217.407 14.9865C216.399 17.3582 207.857 35.4611 206.128 35.5528C206.128 35.5528 206.093 35.5528 206.082 35.5528L206.105 35.5643ZM203.402 25.8253C204.238 29.4116 205.418 33.3644 206.082 34.2925C207.685 32.4134 214.441 19.2143 216.674 13.8293C214.785 15.7198 210.983 19.2143 203.402 25.8253ZM193.245 19.6153C193.91 20.4403 196.601 21.4944 198.57 22.0673C202.498 19.6383 209.849 15.1354 214.292 12.6606C207.811 14.2074 194.929 18.1946 193.245 19.6039V19.6153Z" fill="#1C2024"/>
<path d="M200.345 32.2187C200.07 32.2187 199.887 32.1156 199.772 32.0125C199.028 31.3938 198.478 26.742 198.146 22.9496C198.123 22.6287 198.352 22.3538 198.673 22.3308C198.982 22.285 199.269 22.5371 199.291 22.8464C199.578 26.215 200.104 30.1105 200.471 31.0271C200.975 30.798 202.143 29.6637 203.15 28.4263C203.345 28.1742 203.711 28.1398 203.952 28.3461C204.192 28.5408 204.238 28.9075 204.032 29.1481C203.311 30.0303 201.524 32.1041 200.448 32.2073C200.414 32.2073 200.379 32.2073 200.345 32.2073V32.2187Z" fill="#1C2024"/>
<path d="M198.353 233.115C197.929 233.115 197.54 233.115 196.44 228.739C192.73 228.028 192.421 227.604 192.295 227.444C192.192 227.306 192.146 227.043 192.192 226.871C192.261 226.63 192.41 226.08 196.646 224.373C198.169 220.409 198.685 220.397 199.028 220.397C199.211 220.397 199.452 220.524 199.566 220.672C199.841 221.039 200.082 221.99 200.46 223.514C200.574 223.984 200.711 224.557 200.792 224.809C201.021 224.912 201.502 225.084 201.902 225.233C204.089 226.012 204.651 226.287 204.754 226.814C204.788 227.008 204.696 227.295 204.547 227.432C204.101 227.833 202.005 228.613 200.895 229.002C199.097 233.092 198.719 233.104 198.375 233.127C198.375 233.127 198.353 233.127 198.341 233.127L198.353 233.115ZM193.761 226.94C194.505 227.157 195.845 227.455 197.013 227.673C197.23 227.719 197.414 227.879 197.459 228.097C197.757 229.311 198.146 230.686 198.433 231.488C198.845 230.744 199.463 229.449 199.956 228.303C200.024 228.154 200.139 228.04 200.288 227.994C201.284 227.639 202.418 227.215 203.116 226.905C202.624 226.699 201.96 226.459 201.524 226.31C200.276 225.863 200.047 225.771 199.887 225.553C199.75 225.359 199.658 225.049 199.349 223.789C199.234 223.319 199.062 222.609 198.902 222.07C198.536 222.781 198.02 223.961 197.62 225.015C197.562 225.164 197.448 225.29 197.299 225.347C196.005 225.863 194.528 226.527 193.749 226.963L193.761 226.94Z" fill="#1C2024"/>
<path d="M13.3976 79.756C12.9739 79.756 12.5846 79.756 11.4853 75.3792C7.77519 74.6688 7.46601 74.2449 7.34005 74.0845C7.23699 73.947 7.19119 73.6835 7.23699 73.5116C7.3057 73.271 7.46601 72.721 11.6914 71.0139C13.2144 67.0381 13.7297 67.0381 14.0732 67.0381C14.2564 67.0381 14.4969 67.1641 14.6114 67.3131C14.8862 67.6797 15.1381 68.6307 15.5045 70.1545C15.6191 70.6243 15.7565 71.1972 15.8366 71.4492C16.0656 71.5524 16.5466 71.7242 16.9474 71.8732C19.1345 72.6523 19.6956 72.9273 19.7986 73.4429C19.833 73.6376 19.7414 73.9241 19.5925 74.0616C19.1459 74.4626 17.0504 75.2417 15.9397 75.6313C14.1419 79.7216 13.764 79.7331 13.4205 79.756C13.4205 79.756 13.3976 79.756 13.3861 79.756H13.3976ZM8.80577 73.5804C9.55008 73.798 10.8898 74.0959 12.0578 74.3136C12.2754 74.3595 12.4586 74.5199 12.5044 74.7376C12.8021 75.9521 13.1915 77.327 13.4777 78.129C13.89 77.3843 14.5083 76.0896 15.0007 74.9438C15.0694 74.7949 15.1839 74.6803 15.3328 74.6344C16.329 74.2793 17.4626 73.8553 18.1612 73.546C17.6688 73.3397 17.0046 73.0991 16.5695 72.9502C15.3213 72.5033 15.0923 72.4117 14.932 72.194C14.7946 71.9992 14.703 71.6899 14.3938 70.4295C14.2793 69.9598 14.1075 69.2494 13.9472 68.7109C13.5808 69.4213 13.0655 70.6014 12.6647 71.6555C12.6075 71.8044 12.493 71.9305 12.3441 71.9878C11.0501 72.5033 9.57298 73.1679 8.79432 73.6033L8.80577 73.5804Z" fill="#1C2024"/>
<path d="M179.31 16.2698C178.886 16.2698 178.497 16.2698 177.397 11.893C173.687 11.1826 173.378 10.7587 173.252 10.5983C173.149 10.4608 173.103 10.1973 173.149 10.0254C173.218 9.78479 173.378 9.23483 177.604 7.52765C179.126 3.55188 179.642 3.55188 179.985 3.55188C180.168 3.55188 180.409 3.67791 180.523 3.82686C180.798 4.1935 181.039 5.14448 181.417 6.66833C181.531 7.13809 181.669 7.71097 181.749 7.96304C181.978 8.06615 182.459 8.23802 182.859 8.38697C185.047 9.16608 185.608 9.44106 185.711 9.95665C185.745 10.1514 185.653 10.4379 185.505 10.5754C185.058 10.9764 182.963 11.7555 181.852 12.145C180.054 16.2354 179.676 16.2468 179.333 16.2698C179.333 16.2698 179.31 16.2698 179.298 16.2698H179.31ZM174.718 10.0941C175.462 10.3118 176.802 10.6097 177.97 10.8274C178.187 10.8733 178.371 11.0337 178.417 11.2514C178.714 12.4659 179.104 13.8408 179.39 14.6428C179.802 13.898 180.42 12.6033 180.913 11.4576C180.982 11.3086 181.096 11.1941 181.245 11.1482C182.241 10.7931 183.375 10.3691 184.073 10.0598C183.581 9.85353 182.917 9.61292 182.482 9.46398C181.233 9.01713 181.004 8.92547 180.844 8.70778C180.707 8.513 180.615 8.20365 180.306 6.94331C180.191 6.47356 180.02 5.76319 179.859 5.22468C179.493 5.93505 178.978 7.11518 178.577 8.16927C178.52 8.31822 178.405 8.44425 178.256 8.50154C176.962 9.01713 175.485 9.68167 174.706 10.1171L174.718 10.0941Z" fill="#1C2024"/>
<path d="M19.455 55.7525H19.4436C18.3787 55.7525 17.3939 55.3285 16.6381 54.5723C15.8938 53.8161 15.4816 52.8193 15.493 51.7652C15.493 49.5883 17.2794 47.8124 19.455 47.8124C20.5314 47.8124 21.5277 48.2363 22.272 48.9925C23.0163 49.7487 23.4285 50.7455 23.4171 51.7996C23.4171 53.9765 21.6307 55.7525 19.455 55.7525ZM19.4665 48.9581C17.9092 48.9581 16.6381 50.2185 16.6267 51.7652C16.6267 52.5214 16.9129 53.2318 17.4397 53.7703C17.9664 54.3088 18.6764 54.6067 19.4321 54.6067V55.1796L19.4436 54.6067C20.9895 54.6067 22.2605 53.3464 22.2605 51.7996C22.2605 51.0434 21.9742 50.333 21.4475 49.7945C20.9208 49.256 20.2108 48.9581 19.455 48.9581H19.4665Z" fill="#1C2024"/>
<path d="M212.975 47.1593H212.964C211.899 47.1593 210.914 46.7354 210.158 45.9792C209.414 45.223 209.002 44.2262 209.013 43.1721C209.013 40.9952 210.8 39.2192 212.975 39.2192C214.052 39.2192 215.048 39.6432 215.792 40.3994C216.537 41.1556 216.949 42.1524 216.937 43.2065C216.937 45.3834 215.151 47.1593 212.975 47.1593ZM212.987 40.365C211.429 40.365 210.158 41.6253 210.147 43.1721C210.147 43.9283 210.433 44.6387 210.96 45.1772C211.487 45.7157 212.197 46.0136 212.952 46.0136V46.5864L212.964 46.0136C214.51 46.0136 215.781 44.7532 215.781 43.2065C215.781 42.4503 215.495 41.7399 214.968 41.2014C214.441 40.6629 213.731 40.365 212.975 40.365H212.987Z" fill="#1C2024"/>
<path d="M53.7505 93.8145H53.7276C52.6627 93.8145 51.6779 93.3905 50.9222 92.6343C50.1779 91.8781 49.7656 90.8813 49.7771 89.8272C49.7771 87.6503 51.5634 85.8744 53.7391 85.8744C54.8155 85.8744 55.8117 86.2983 56.556 87.0545C57.3003 87.8107 57.7126 88.8075 57.7011 89.8616C57.7011 92.0386 55.9148 93.8145 53.7391 93.8145H53.7505ZM53.7505 87.0201C52.1932 87.0201 50.9222 88.2805 50.9107 89.8272C50.9107 90.5834 51.197 91.2938 51.7237 91.8323C52.2505 92.3708 52.9604 92.6687 53.7162 92.6687V93.2416L53.7276 92.6687C55.2735 92.6687 56.5446 91.4084 56.5446 89.8616C56.5446 89.1054 56.2583 88.3951 55.7316 87.8565C55.2048 87.318 54.4949 87.0201 53.7391 87.0201H53.7505Z" fill="#1C2024"/>
<path d="M210.41 179.391C210.41 179.391 209.311 171.027 217.35 173.731C225.388 176.435 222.777 184.088 219.708 181.476C216.64 178.852 222.399 169.973 228.549 173.926C234.698 177.878 233.324 185.555 228.961 186.128C224.598 186.689 231.606 177.191 237.102 183.057C242.599 188.924 230.598 199.625 225.686 195.695C220.773 191.765 224.621 185.406 225.8 189.279C226.98 193.151 223.796 196.944 215.094 196.795C206.38 196.646 210.353 183.241 213.388 187.136C216.433 191.043 211.372 195.443 205.234 190.848C199.085 186.254 206.105 176.744 210.41 179.391Z" fill="white"/>
<path d="M215.586 197.379H215.082C212.22 197.322 210.216 195.867 209.494 193.335C207.994 193.14 206.414 192.452 204.891 191.307C202.475 189.496 201.662 186.758 202.647 183.791C203.654 180.743 206.357 178.36 208.784 178.36C209.128 178.36 209.46 178.405 209.78 178.497C209.78 177.328 209.952 175.358 211.132 174.017C212.46 172.505 214.624 172.218 217.533 173.192C218.643 173.57 219.617 174.052 220.441 174.636C222.766 172.184 226.075 171.657 228.858 173.444C231.514 175.152 233.129 177.787 233.266 180.571C234.824 180.617 236.255 181.327 237.515 182.668C239.232 184.501 239.553 186.964 238.408 189.599C236.679 193.61 231.938 197.116 228.274 197.116C227.129 197.116 226.132 196.783 225.319 196.142C224.941 195.832 224.598 195.512 224.289 195.156C222.365 196.612 219.365 197.368 215.575 197.368L215.586 197.379ZM210.708 193.38C211.212 194.778 212.391 196.176 215.094 196.222H215.575C219.937 196.222 222.319 195.202 223.613 194.24C222.388 192.258 222.491 190.081 223.167 188.74C223.567 187.961 224.14 187.514 224.747 187.514C225.159 187.514 225.903 187.72 226.327 189.13C226.922 191.066 226.487 192.968 225.136 194.412C225.4 194.71 225.697 194.996 226.029 195.271C226.625 195.752 227.381 195.993 228.262 195.993C231.468 195.993 235.797 192.739 237.343 189.164C238.018 187.617 238.442 185.372 236.667 183.47C235.625 182.358 234.469 181.774 233.22 181.728C232.957 184.398 231.274 186.414 229.018 186.712C228.869 186.735 228.72 186.747 228.594 186.747C227.461 186.747 227.037 186.059 227.014 185.406C226.945 183.825 229.213 181.178 232.121 180.674C232.007 178.245 230.587 175.942 228.228 174.43C225.915 172.94 223.27 173.376 221.312 175.392C223.212 177.202 223.556 179.437 223.029 180.915C222.434 182.587 220.705 183.103 219.319 181.934C217.624 180.491 218.163 177.661 219.686 175.541C218.976 175.037 218.117 174.624 217.143 174.292C214.727 173.479 212.987 173.628 211.979 174.785C210.594 176.366 210.948 179.299 210.96 179.334C210.983 179.551 210.891 179.769 210.708 179.884C210.525 180.01 210.284 180.01 210.101 179.884C209.7 179.643 209.254 179.517 208.773 179.517C206.838 179.517 204.57 181.602 203.723 184.157C203.334 185.326 202.738 188.282 205.567 190.402C206.803 191.318 208.063 191.914 209.254 192.143C209.036 190.184 209.54 188.041 210.548 186.792C211.04 186.185 211.613 185.864 212.197 185.864C212.609 185.864 213.227 186.025 213.823 186.792C214.91 188.179 215.151 189.748 214.498 191.1C213.857 192.418 212.414 193.277 210.697 193.38H210.708ZM224.758 188.649C224.655 188.649 224.415 188.809 224.197 189.256C223.705 190.23 223.625 191.891 224.472 193.438C225.422 192.315 225.697 190.929 225.239 189.451C225.045 188.797 224.816 188.649 224.747 188.649H224.758ZM212.208 186.999C211.979 186.999 211.704 187.182 211.441 187.503C210.697 188.419 210.158 190.379 210.422 192.235C211.819 192.212 212.987 191.582 213.479 190.585C213.937 189.645 213.731 188.522 212.929 187.491C212.758 187.262 212.483 186.999 212.208 186.999ZM232.075 181.82C229.751 182.347 228.136 184.478 228.171 185.337C228.171 185.44 228.171 185.578 228.606 185.578C228.686 185.578 228.789 185.578 228.881 185.555C230.541 185.337 231.789 183.848 232.075 181.82ZM220.59 176.24C219.285 178.073 219.033 180.136 220.075 181.029C220.865 181.694 221.621 181.453 221.964 180.502C222.365 179.379 222.067 177.684 220.59 176.24Z" fill="#1C2024"/>
<path d="M122.067 6.71411C122.067 6.71411 121.151 -1.67282 129.132 1.21448C137.113 4.09033 134.331 11.6867 131.319 9.00562C128.307 6.32455 134.25 -2.44047 140.319 1.64987C146.388 5.74022 144.842 13.3824 140.468 13.8522C136.094 14.3219 143.308 4.97256 148.679 10.9649C154.049 16.9572 141.808 27.395 136.987 23.3505C132.166 19.306 136.14 13.0501 137.239 16.9342C138.338 20.8184 135.075 24.5535 126.372 24.2098C117.669 23.8661 121.929 10.5524 124.884 14.5167C127.838 18.481 122.696 22.7776 116.65 18.0456C110.604 13.3137 117.818 3.9643 122.078 6.70265L122.067 6.71411Z" fill="white"/>
<path d="M139.678 24.817C138.476 24.817 137.445 24.4619 136.621 23.7744C136.243 23.465 135.911 23.1213 135.613 22.7661C133.575 24.2327 130.426 24.9316 126.349 24.7712C123.487 24.6566 121.517 23.1557 120.853 20.6121C119.353 20.383 117.784 19.6611 116.295 18.4925C113.948 16.6593 113.181 13.9324 114.188 11.0107C115.23 7.99735 117.956 5.62564 120.395 5.62564C120.773 5.62564 121.128 5.68293 121.471 5.78605C121.483 4.62883 121.712 2.68105 122.891 1.37489C124.242 -0.137508 126.429 -0.389574 129.338 0.653063C130.437 1.05408 131.411 1.55821 132.212 2.16546C133.598 0.779096 135.327 -0.0114746 137.044 -0.0114746C138.281 -0.0114746 139.495 0.378082 140.651 1.1572C143.274 2.92166 144.831 5.59127 144.911 8.37545C146.446 8.45566 147.9 9.21185 149.114 10.5638C150.763 12.4085 151.049 14.8375 149.892 17.4155C148.14 21.3569 143.365 24.8056 139.678 24.8056V24.817ZM136.483 22.0214C136.735 22.3307 137.033 22.6172 137.354 22.8922C137.96 23.4078 138.751 23.6598 139.678 23.6598C142.907 23.6598 147.281 20.4632 148.839 16.9457C149.514 15.4333 149.961 13.2335 148.243 11.3315C147.224 10.1972 146.079 9.58995 144.842 9.52121C144.522 12.1908 142.793 14.1615 140.525 14.4136C140.4 14.425 140.274 14.4365 140.159 14.4365C138.991 14.4365 138.556 13.7376 138.544 13.0845C138.499 11.5034 140.812 8.89104 143.755 8.4442C143.697 6.0152 142.323 3.68931 139.999 2.11963C137.72 0.584318 135.063 0.962417 133.071 2.93312C134.903 4.76632 135.224 6.98909 134.686 8.45566C134.308 9.48684 133.506 10.1399 132.601 10.1399C132.04 10.1399 131.468 9.89931 130.953 9.42955C129.292 7.94007 129.888 5.13297 131.468 3.04769C130.769 2.5321 129.922 2.09671 128.96 1.75299C126.544 0.882214 124.792 1.00825 123.761 2.154C122.364 3.71223 122.662 6.62245 122.662 6.64536C122.685 6.86306 122.582 7.08075 122.399 7.19533C122.204 7.3099 121.975 7.3099 121.792 7.19533C121.38 6.9318 120.922 6.79431 120.418 6.79431C118.471 6.79431 116.169 8.86813 115.299 11.4002C114.807 12.821 114.383 15.525 117.028 17.5988C118.242 18.5498 119.49 19.1685 120.681 19.4205C120.509 17.4842 121.047 15.3646 122.067 14.1271C122.57 13.5199 123.143 13.1991 123.738 13.1991C124.162 13.1991 124.78 13.3709 125.376 14.173C126.418 15.5708 126.636 17.129 125.971 18.4581C125.296 19.7986 123.864 20.6236 122.101 20.6923C122.57 22.1016 123.716 23.5223 126.429 23.6369C130.254 23.7859 133.174 23.1557 134.995 21.8381C133.827 19.8445 133.964 17.6904 134.651 16.3614C135.063 15.5823 135.647 15.1354 136.254 15.1354C136.667 15.1354 137.434 15.3531 137.835 16.7853C138.384 18.7331 137.903 20.6236 136.529 22.0329L136.483 22.0214ZM136.208 16.2697C136.105 16.2697 135.854 16.4416 135.624 16.8884C135.235 17.6446 134.892 19.2945 135.819 21.0475C136.792 19.9476 137.09 18.5612 136.678 17.0832C136.506 16.4759 136.289 16.2697 136.208 16.2697ZM121.803 19.5466H121.826C123.246 19.5466 124.403 18.9508 124.906 17.9425C125.364 17.0259 125.193 15.8916 124.414 14.8604C124.242 14.6313 123.979 14.3563 123.693 14.3563C123.452 14.3563 123.177 14.5396 122.914 14.8604C122.17 15.7656 121.586 17.7134 121.815 19.5466H121.803ZM143.674 9.61287C141.361 10.0941 139.667 12.2137 139.69 13.0387C139.69 13.1303 139.69 13.2793 140.159 13.2793C140.239 13.2793 140.319 13.2793 140.4 13.2678C142.06 13.0845 143.342 11.6179 143.674 9.61287ZM132.315 3.79243C130.975 5.59127 130.678 7.65363 131.697 8.57023C132.475 9.25768 133.243 9.02853 133.598 8.05464C134.01 6.95472 133.735 5.259 132.304 3.79243H132.315Z" fill="#1C2024"/>
<path d="M173.39 235.533C173.172 235.533 172.977 235.418 172.874 235.224C171.626 232.76 169.519 231.511 166.599 231.511C163.439 231.511 160.45 233.001 160.427 233.012C160.255 233.104 160.049 233.092 159.878 233.001C159.706 232.909 159.603 232.726 159.591 232.531L159.259 225.588C159.248 225.278 159.477 225.015 159.786 224.992C165.34 224.511 169.382 225.622 171.764 228.292C174.363 231.213 173.974 234.868 173.962 235.029C173.928 235.281 173.745 235.487 173.493 235.533C173.458 235.533 173.424 235.533 173.39 235.533ZM166.611 230.366C169.164 230.366 171.237 231.248 172.714 232.932C172.519 231.786 172.038 230.32 170.905 229.048C168.855 226.756 165.34 225.76 160.439 226.092L160.702 231.637C161.859 231.156 164.149 230.366 166.599 230.366H166.611Z" fill="#1C2024"/>
<path d="M174.581 244C174.5 244 174.432 243.989 174.363 243.954C164.401 239.749 167.355 231.042 167.389 230.95C167.492 230.652 167.825 230.492 168.122 230.606C168.42 230.709 168.58 231.042 168.477 231.34C168.363 231.649 165.947 238.913 174.42 242.728L176.825 239.704C175.577 239.131 173.184 237.676 172.577 234.811C172.508 234.502 172.714 234.192 173.023 234.135C173.332 234.066 173.642 234.273 173.699 234.582C174.363 237.756 177.89 238.913 177.924 238.924C178.107 238.982 178.245 239.119 178.302 239.303C178.359 239.486 178.325 239.681 178.199 239.83L175.05 243.805C174.936 243.943 174.775 244.023 174.603 244.023L174.581 244Z" fill="#1C2024"/>
<path d="M29.5661 42.0606C23.4857 42.0606 21.3444 36.5381 21.3215 36.4923C21.2299 36.2517 21.31 35.9881 21.5162 35.8392C21.7108 35.6902 21.9971 35.6788 22.2032 35.8392C23.4285 36.7329 24.7339 37.1797 26.0622 37.1797C30.5624 37.1797 34.2496 32.1728 34.2839 32.1269C34.3984 31.9665 34.5931 31.8749 34.7763 31.8863C34.971 31.8863 35.1427 32.0009 35.2458 32.1728L38.704 38.1994C38.8528 38.463 38.7727 38.8067 38.5093 38.9671C35.2229 41.0295 32.2228 42.0721 29.5661 42.0721V42.0606ZM23.3598 37.7755C24.3903 39.1733 26.3255 40.9149 29.5661 40.9149C31.8678 40.9149 34.5129 40.0212 37.4215 38.2682L34.6503 33.456C33.3907 34.934 30.0814 38.3026 26.0393 38.3026C25.1232 38.3026 24.2186 38.1307 23.3483 37.7755H23.3598Z" fill="#1C2024"/>
<path d="M28.4669 37.764C28.1806 37.764 27.9402 37.5578 27.9058 37.2714C27.86 36.9391 26.692 29.3771 17.4168 29.8469L16.661 33.6393C18.0237 33.582 20.8291 33.7768 22.6727 36.0569C22.8674 36.2975 22.8331 36.6641 22.5926 36.8589C22.3521 37.0537 21.9857 37.0193 21.791 36.7787C19.7528 34.258 16.0999 34.8309 16.0541 34.8424C15.8709 34.8767 15.6762 34.808 15.5503 34.6705C15.4243 34.533 15.3671 34.3497 15.4014 34.1549L16.3976 29.1823C16.4435 28.9303 16.661 28.7469 16.9129 28.724C27.6997 27.8991 29.0394 37.0193 29.0509 37.111C29.0967 37.4203 28.8791 37.7067 28.5585 37.7526C28.5356 37.7526 28.5013 37.7526 28.4784 37.7526L28.4669 37.764Z" fill="#1C2024"/>
<path d="M112.448 69.5473C112.448 69.5473 106.15 54.366 116.742 49.4965C127.334 44.6271 137.926 51.2152 137.64 57.5168C137.354 63.8185 132.487 72.1252 132.487 72.1252H126.475C126.475 72.1252 134.491 56.9439 125.903 56.3711C117.315 55.7982 118.746 69.5473 118.746 69.5473H112.448Z" fill="#1C2024"/>
<path d="M140.789 75.276C140.789 75.276 160.141 31.2447 199.188 56.944C242.702 85.5878 210.639 179.54 172.851 195.58L163.691 181.831C163.691 181.831 231.251 116.523 194.608 76.4218C163.965 42.8855 149.95 107.357 145.369 101.628C140.789 95.8996 139.644 81.0048 140.789 75.276Z" fill="#A3C7FF"/>
<path d="M102.554 68.4015C102.554 68.4015 82.4007 24.3702 43.3531 50.0694C-0.16028 78.7133 23.9897 158.343 76.6638 194.721L81.2442 187.274C81.2442 187.274 5.06133 94.5247 49.4679 63.2456C80.7747 41.1898 90.1186 85.5878 92.9813 83.8692C99.2679 80.0997 103.699 74.1303 102.554 68.4015Z" fill="#A3C7FF"/>
<path d="M83.5343 94.7539C83.5343 94.7539 149.95 86.7336 157.965 93.6082C165.981 100.483 206.059 194.435 180.867 208.184C155.675 221.933 66.358 218.495 60.6325 204.746C54.9071 190.997 73.2285 100.483 83.5343 94.7539Z" fill="#0065FF"/>
<path d="M82.3893 70.693C82.3893 70.693 49.1816 133.71 67.5031 140.584C85.8245 147.459 171.706 141.73 175.142 132.564C178.577 123.398 183.157 64.3914 146.514 68.4015C118.036 71.518 85.8245 61.527 82.3893 70.693Z" fill="#A3C7FF"/>
<path d="M146.514 68.4015C146.514 68.4015 149.377 168.369 153.385 172.379C154.564 173.559 167.126 174.957 167.126 169.228C167.126 163.499 162.878 71.1513 158.538 68.9744C158.538 68.9744 151.473 65.7319 146.514 68.4015Z" fill="#4790FF"/>
<path d="M145.369 127.408C145.369 127.408 167.126 123.971 167.698 125.689C168.271 127.408 171.134 142.589 169.13 144.021C167.126 145.453 146.228 148.891 146.514 146.886C146.801 144.881 142.793 128.84 145.369 127.408Z" fill="#DEEBFF"/>
<path d="M151.266 131.808C151.266 131.808 162.683 130.009 162.981 130.902C163.278 131.796 164.779 139.771 163.737 140.515C162.694 141.26 151.725 143.07 151.873 142.016C152.022 140.962 149.927 132.552 151.278 131.796L151.266 131.808Z" fill="#4790FF"/>
<path d="M104.718 67.2558C104.718 67.2558 99.6915 168.369 95.6837 172.379C94.5043 173.559 81.9426 174.957 81.9426 169.228C81.9426 163.499 85.71 67.3475 90.4048 66.1101C90.4048 66.1101 101.089 65.732 104.718 67.2558Z" fill="#4790FF"/>
<path d="M103.699 127.408C103.699 127.408 81.9427 123.971 81.3702 125.689C80.7976 127.408 77.9349 142.589 79.9388 144.021C81.9427 145.453 102.841 148.891 102.554 146.886C102.268 144.881 106.276 128.84 103.699 127.408Z" fill="#DEEBFF"/>
<path d="M97.8022 131.808C97.8022 131.808 86.3856 130.009 86.0879 130.902C85.7902 131.796 84.2901 139.771 85.3321 140.515C86.3742 141.26 97.3441 143.07 97.1953 142.016C97.0464 140.962 99.1419 132.552 97.7907 131.796L97.8022 131.808Z" fill="#4790FF"/>
<path d="M200.23 65.3193C200.23 65.3193 202.841 66.6255 204.147 68.917L200.23 65.3193Z" fill="white"/>
<path d="M204.147 69.4899C203.952 69.4899 203.757 69.3868 203.654 69.2035C202.452 67.1068 200.001 65.8464 199.979 65.835C199.692 65.6975 199.578 65.3538 199.727 65.0673C199.864 64.7809 200.208 64.6663 200.494 64.8153C200.608 64.8725 203.276 66.2245 204.65 68.6306C204.811 68.9056 204.708 69.2493 204.433 69.4097C204.341 69.4556 204.25 69.4899 204.147 69.4899Z" fill="#1C2024"/>
<path d="M199.578 71.1971C199.578 71.1971 202.189 72.5033 203.494 74.7948L199.578 71.1971Z" fill="white"/>
<path d="M203.494 75.3677C203.299 75.3677 203.105 75.2646 203.002 75.0813C201.799 72.9731 199.349 71.7242 199.326 71.7128C199.04 71.5753 198.925 71.2316 199.074 70.9451C199.211 70.6587 199.555 70.5441 199.841 70.6931C199.956 70.7504 202.624 72.1023 203.998 74.5084C204.158 74.7834 204.055 75.1271 203.78 75.2875C203.689 75.3334 203.597 75.3677 203.494 75.3677Z" fill="#1C2024"/>
<path d="M206.574 73.0762C206.574 73.0762 208.807 74.9552 209.551 77.4759L206.574 73.0762Z" fill="white"/>
<path d="M209.551 78.0488C209.3 78.0488 209.071 77.8883 209.002 77.6363C208.315 75.2989 206.231 73.5345 206.208 73.5116C205.967 73.3053 205.933 72.9501 206.139 72.7095C206.345 72.4689 206.7 72.4346 206.941 72.6408C207.032 72.721 209.322 74.6573 210.101 77.3269C210.193 77.6363 210.021 77.9456 209.712 78.0373C209.655 78.0488 209.609 78.0602 209.551 78.0602V78.0488Z" fill="#1C2024"/>
<path d="M206.254 80.5924C206.254 80.5924 208.487 82.4714 209.231 84.9921L206.254 80.5924Z" fill="white"/>
<path d="M209.231 85.565C208.979 85.565 208.75 85.4046 208.681 85.1525C207.994 82.8152 205.91 81.0507 205.887 81.0278C205.647 80.8216 205.612 80.4664 205.819 80.2258C206.025 79.9852 206.38 79.9508 206.62 80.157C206.712 80.2372 209.002 82.1736 209.781 84.8432C209.872 85.1525 209.7 85.4619 209.391 85.5535C209.334 85.565 209.288 85.5765 209.231 85.5765V85.565Z" fill="#1C2024"/>
<path d="M182.917 195.798C182.837 195.798 182.768 195.787 182.699 195.752C182.413 195.626 182.275 195.294 182.39 194.996C183.329 192.75 182.837 190.058 182.825 190.035C182.768 189.726 182.974 189.428 183.283 189.359C183.581 189.302 183.89 189.508 183.947 189.817C183.97 189.943 184.52 192.888 183.443 195.443C183.352 195.661 183.134 195.798 182.917 195.798Z" fill="#1C2024"/>
<path d="M182.928 185.738C182.848 185.738 182.779 185.727 182.711 185.692C182.424 185.566 182.287 185.234 182.401 184.936C183.34 182.702 182.848 179.998 182.837 179.975C182.779 179.666 182.985 179.368 183.295 179.311C183.604 179.242 183.901 179.448 183.959 179.769C183.982 179.895 184.531 182.84 183.455 185.395C183.363 185.612 183.146 185.75 182.928 185.75V185.738Z" fill="#1C2024"/>
<path d="M181.783 177.145C181.703 177.145 181.634 177.134 181.565 177.099C181.279 176.973 181.142 176.641 181.256 176.343C182.195 174.109 181.703 171.405 181.691 171.382C181.634 171.073 181.84 170.775 182.149 170.717C182.459 170.649 182.756 170.855 182.814 171.176C182.837 171.302 183.386 174.246 182.31 176.801C182.218 177.019 182.001 177.157 181.783 177.157V177.145Z" fill="#1C2024"/>
<path d="M177.684 185.796C177.603 185.796 177.535 185.784 177.466 185.75C177.18 185.624 177.042 185.292 177.157 184.994C178.096 182.748 177.603 180.055 177.592 180.032C177.535 179.723 177.741 179.425 178.05 179.356C178.359 179.299 178.657 179.505 178.714 179.815C178.737 179.941 179.287 182.885 178.21 185.44C178.119 185.658 177.901 185.796 177.684 185.796Z" fill="#1C2024"/>
<path d="M176.722 195.489C176.642 195.489 176.573 195.477 176.504 195.443C176.218 195.317 176.08 194.985 176.195 194.687C177.134 192.452 176.642 189.748 176.63 189.725C176.573 189.416 176.779 189.118 177.088 189.061C177.397 188.992 177.695 189.198 177.752 189.519C177.775 189.645 178.325 192.59 177.248 195.145C177.157 195.363 176.939 195.5 176.722 195.5V195.489Z" fill="#1C2024"/>
<path d="M179.722 204.781C179.653 204.781 179.573 204.769 179.504 204.735C179.218 204.609 179.081 204.277 179.195 203.99C180.134 201.756 179.642 199.052 179.63 199.029C179.573 198.72 179.779 198.422 180.088 198.365C180.397 198.307 180.695 198.502 180.752 198.823C180.775 198.949 181.325 201.893 180.249 204.449C180.157 204.666 179.939 204.804 179.722 204.804V204.781Z" fill="#1C2024"/>
<path d="M172.817 205.159C172.714 205.159 172.611 205.136 172.519 205.079C172.244 204.918 172.164 204.563 172.325 204.288C173.584 202.203 173.47 199.464 173.47 199.441C173.458 199.121 173.699 198.857 174.019 198.846C174.374 198.811 174.603 199.075 174.615 199.396C174.615 199.522 174.741 202.512 173.309 204.895C173.206 205.079 173.012 205.17 172.817 205.17V205.159Z" fill="#1C2024"/>
<path d="M126.464 74.4512C126.235 74.4512 126.029 74.3137 125.937 74.096C125.811 73.7981 125.96 73.4658 126.246 73.3512C126.361 73.3054 129.143 72.1711 131.857 72.7211C132.166 72.7784 132.372 73.0877 132.304 73.3971C132.247 73.7064 131.937 73.9127 131.628 73.8439C129.258 73.3742 126.704 74.4053 126.681 74.4168C126.613 74.4512 126.533 74.4626 126.464 74.4626V74.4512Z" fill="#1C2024"/>
<path d="M116.616 76.4562C116.387 76.4562 116.181 76.3187 116.089 76.1011C115.963 75.8032 116.112 75.4709 116.398 75.3563C116.513 75.3105 119.284 74.1876 122.009 74.7262C122.319 74.7834 122.525 75.0928 122.456 75.4021C122.399 75.7115 122.09 75.9177 121.78 75.849C119.399 75.3792 116.857 76.4104 116.834 76.4219C116.765 76.4562 116.685 76.4677 116.616 76.4677V76.4562Z" fill="#1C2024"/>
<path d="M108.429 79.3092C108.2 79.3092 107.994 79.1717 107.902 78.954C107.776 78.6561 107.925 78.3239 108.211 78.2093C108.326 78.1635 111.097 77.0291 113.822 77.5791C114.131 77.6364 114.337 77.9458 114.269 78.2551C114.211 78.5645 113.902 78.7707 113.593 78.702C111.211 78.2322 108.669 79.2634 108.646 79.2748C108.578 79.3092 108.497 79.3207 108.429 79.3207V79.3092Z" fill="#1C2024"/>
<path d="M117.727 81.5892C117.498 81.5892 117.292 81.4517 117.2 81.2341C117.074 80.9362 117.223 80.6039 117.509 80.4893C117.624 80.4435 120.395 79.3092 123.12 79.8591C123.429 79.9164 123.635 80.2258 123.567 80.5351C123.509 80.8445 123.2 81.0507 122.891 80.982C120.509 80.5008 117.967 81.5434 117.944 81.5549C117.876 81.5892 117.795 81.6007 117.727 81.6007V81.5892Z" fill="#1C2024"/>
<path d="M127.414 80.581C127.185 80.581 126.979 80.4435 126.888 80.2258C126.762 79.9279 126.91 79.5957 127.197 79.4811C127.311 79.4352 130.082 78.3124 132.808 78.8509C133.117 78.9082 133.323 79.2176 133.254 79.5269C133.197 79.8363 132.888 80.0425 132.579 79.9738C130.197 79.4925 127.655 80.5352 127.632 80.5466C127.563 80.581 127.483 80.5925 127.414 80.5925V80.581Z" fill="#1C2024"/>
<path d="M135.899 75.7803C135.67 75.7803 135.464 75.6428 135.373 75.4251C135.247 75.1272 135.396 74.7949 135.682 74.6803C135.796 74.6345 138.579 73.5002 141.293 74.0502C141.602 74.1075 141.808 74.4168 141.739 74.7262C141.682 75.0355 141.373 75.2418 141.064 75.173C138.693 74.7033 136.14 75.7344 136.117 75.7459C136.048 75.7803 135.968 75.7917 135.899 75.7917V75.7803Z" fill="#1C2024"/>
<path d="M142.942 81.8528C142.873 81.8528 142.816 81.8528 142.747 81.8184C140.457 81.0049 137.789 81.658 137.766 81.6694C137.457 81.7496 137.148 81.5549 137.067 81.257C136.987 80.9476 137.17 80.6383 137.48 80.5581C137.606 80.5237 140.514 79.8133 143.125 80.7414C143.423 80.8445 143.583 81.1768 143.468 81.4747C143.388 81.7153 143.159 81.8528 142.93 81.8528H142.942Z" fill="#1C2024"/>
<path d="M68.11 194.263C67.881 194.263 67.6749 194.137 67.5833 193.908C66.5069 191.353 67.0565 188.408 67.0794 188.282C67.1367 187.973 67.4344 187.766 67.7436 187.824C68.0528 187.881 68.2589 188.179 68.2016 188.488C68.2016 188.511 67.6978 191.227 68.6368 193.449C68.7627 193.736 68.6253 194.079 68.3276 194.206C68.2589 194.24 68.1787 194.251 68.11 194.251V194.263Z" fill="#1C2024"/>
<path d="M68.0871 184.214C67.858 184.214 67.6519 184.088 67.5603 183.859C66.4839 181.304 67.0336 178.36 67.0565 178.234C67.1137 177.924 67.4115 177.718 67.7206 177.775C68.0298 177.833 68.2359 178.13 68.1787 178.44C68.1787 178.463 67.6748 181.178 68.6138 183.401C68.7398 183.687 68.6024 184.031 68.3046 184.146C68.2359 184.18 68.1558 184.192 68.0871 184.192V184.214Z" fill="#1C2024"/>
<path d="M69.2322 175.621C69.0032 175.621 68.7971 175.495 68.7055 175.266C67.6291 172.711 68.1787 169.766 68.2016 169.64C68.2589 169.331 68.5566 169.125 68.8658 169.182C69.175 169.239 69.3811 169.537 69.3238 169.847C69.3238 169.87 68.82 172.585 69.7589 174.808C69.8849 175.094 69.7475 175.438 69.4498 175.553C69.3811 175.587 69.3009 175.598 69.2322 175.598V175.621Z" fill="#1C2024"/>
<path d="M73.3431 184.272C73.114 184.272 72.9079 184.146 72.8163 183.917C71.7399 181.362 72.2896 178.417 72.3125 178.291C72.3697 177.982 72.6674 177.775 72.9766 177.833C73.2858 177.89 73.4919 178.188 73.4347 178.497C73.4347 178.52 72.9308 181.236 73.8698 183.458C73.9958 183.745 73.8583 184.088 73.5606 184.203C73.4919 184.237 73.4118 184.249 73.3431 184.249V184.272Z" fill="#1C2024"/>
<path d="M74.305 193.965C74.0759 193.965 73.8698 193.839 73.7782 193.61C72.7018 191.055 73.2515 188.11 73.2744 187.984C73.3316 187.675 73.6294 187.468 73.9385 187.526C74.2477 187.583 74.4538 187.881 74.3966 188.19C74.3966 188.213 73.8927 190.929 74.8317 193.151C74.9577 193.438 74.8203 193.782 74.5225 193.908C74.4538 193.942 74.3737 193.953 74.305 193.953V193.965Z" fill="#1C2024"/>
<path d="M71.3047 203.245C71.0757 203.245 70.8696 203.119 70.778 202.89C69.7016 200.335 70.2512 197.391 70.2741 197.265C70.3314 196.955 70.6291 196.749 70.9383 196.806C71.2475 196.864 71.4536 197.161 71.3963 197.471C71.3963 197.494 70.8925 200.209 71.8315 202.432C71.9574 202.718 71.82 203.062 71.5223 203.188C71.4536 203.223 71.3734 203.234 71.3047 203.234V203.245Z" fill="#1C2024"/>
<path d="M78.1983 203.635C78.0036 203.635 77.8204 203.532 77.7059 203.36C76.2745 200.988 76.389 197.986 76.4005 197.872C76.4119 197.551 76.618 197.299 76.9959 197.322C77.3165 197.333 77.557 197.608 77.5456 197.918C77.5456 197.941 77.4425 200.69 78.6907 202.764C78.851 203.039 78.7708 203.383 78.496 203.555C78.4044 203.612 78.3013 203.635 78.1983 203.635Z" fill="#1C2024"/>
<path d="M212.597 82.1392C212.597 82.1392 214.384 84.4536 214.556 87.0774L212.597 82.1392Z" fill="white"/>
<path d="M214.556 87.6502C214.258 87.6502 214.006 87.4211 213.983 87.1117C213.823 84.6827 212.162 82.5058 212.139 82.4828C211.945 82.2308 211.991 81.8756 212.242 81.6808C212.494 81.486 212.849 81.5319 213.044 81.7839C213.124 81.8871 214.933 84.2702 215.117 87.0315C215.14 87.3523 214.899 87.6158 214.59 87.6387C214.578 87.6387 214.567 87.6387 214.544 87.6387L214.556 87.6502Z" fill="#1C2024"/>
<path d="M192.925 64.4028C192.925 64.4028 195.696 65.308 197.322 67.3818L192.925 64.4028Z" fill="white"/>
<path d="M197.322 67.9662C197.15 67.9662 196.99 67.886 196.875 67.7485C195.375 65.8465 192.776 64.9643 192.742 64.9643C192.444 64.8612 192.284 64.5404 192.375 64.2425C192.478 63.9446 192.799 63.7842 193.097 63.8758C193.223 63.9102 196.051 64.8612 197.769 67.0496C197.963 67.3016 197.917 67.6568 197.677 67.8516C197.574 67.9318 197.448 67.9776 197.322 67.9776V67.9662Z" fill="#1C2024"/>
<path d="M43.1356 53.0942C43.1356 53.0942 40.5248 54.4004 39.2194 56.6919L43.1356 53.0942Z" fill="white"/>
<path d="M39.2194 57.2648C39.1278 57.2648 39.0247 57.2419 38.9331 57.1846C38.6583 57.0242 38.5667 56.6805 38.7156 56.4055C40.0897 53.9994 42.7577 52.636 42.8722 52.5901C43.1585 52.4526 43.502 52.5672 43.6395 52.8422C43.7769 53.1286 43.6624 53.4724 43.3875 53.6098C43.3646 53.6213 40.9141 54.8702 39.7118 56.9784C39.6087 57.1617 39.4141 57.2648 39.2194 57.2648Z" fill="#1C2024"/>
<path d="M43.7883 58.9719C43.7883 58.9719 41.1775 60.2781 39.8721 62.5696L43.7883 58.9719Z" fill="white"/>
<path d="M39.8721 63.1425C39.7805 63.1425 39.6775 63.1196 39.5858 63.0623C39.311 62.9019 39.2194 62.5582 39.3683 62.2832C40.7424 59.8771 43.4104 58.5136 43.525 58.4678C43.8112 58.3303 44.1548 58.4449 44.2922 58.7199C44.4296 59.0063 44.3151 59.35 44.0402 59.4875C44.0173 59.499 41.5668 60.7479 40.3645 62.856C40.2614 63.0394 40.0668 63.1425 39.8721 63.1425Z" fill="#1C2024"/>
<path d="M36.7918 60.8624C36.7918 60.8624 34.5589 62.7415 33.8146 65.2621L36.7918 60.8624Z" fill="white"/>
<path d="M33.8146 65.835C33.8146 65.835 33.7115 65.835 33.6542 65.8121C33.3565 65.7204 33.1733 65.3996 33.2649 65.1017C34.0436 62.4436 36.3223 60.4958 36.4254 60.4156C36.6658 60.2093 37.0323 60.2437 37.2269 60.4843C37.433 60.7249 37.3987 61.0916 37.1582 61.2863C37.1353 61.3093 35.0398 63.0852 34.3642 65.4111C34.2955 65.6631 34.0665 65.8235 33.8146 65.8235V65.835Z" fill="#1C2024"/>
<path d="M37.1124 68.3672C37.1124 68.3672 34.8794 70.2462 34.1351 72.7669L37.1124 68.3672Z" fill="white"/>
<path d="M34.1351 73.3398C34.1351 73.3398 34.0321 73.3398 33.9748 73.3168C33.6771 73.2252 33.4939 72.9044 33.5855 72.6065C34.3641 69.9483 36.6429 68.0005 36.7459 67.9203C36.9864 67.7141 37.3528 67.7485 37.5475 67.9891C37.7536 68.2297 37.7192 68.5963 37.4788 68.7911C37.4559 68.814 35.3604 70.5899 34.6848 72.9158C34.6161 73.1679 34.387 73.3283 34.1351 73.3283V73.3398Z" fill="#1C2024"/>
<path d="M30.7685 69.9139C30.7685 69.9139 28.9822 72.2284 28.8104 74.8521L30.7685 69.9139Z" fill="white"/>
<path d="M28.8105 75.425C28.8105 75.425 28.7875 75.425 28.7646 75.425C28.444 75.4021 28.215 75.1271 28.2379 74.8178C28.4326 72.045 30.2418 69.6619 30.3105 69.5702C30.5052 69.3181 30.8602 69.2723 31.1121 69.4671C31.364 69.6619 31.4098 70.017 31.2151 70.2691C31.2037 70.292 29.5433 72.4804 29.3715 74.898C29.3486 75.1959 29.0967 75.4365 28.799 75.4365L28.8105 75.425Z" fill="#1C2024"/>
<path d="M50.487 52.2578C50.487 52.2578 47.6816 53.0828 45.9983 55.0993L50.487 52.2578Z" fill="white"/>
<path d="M45.9983 55.6722C45.8724 55.6722 45.735 55.6263 45.6319 55.5347C45.3914 55.3284 45.3571 54.9732 45.5632 54.7326C47.3495 52.613 50.2123 51.7537 50.3382 51.7078C50.6474 51.6162 50.9566 51.7881 51.0482 52.0974C51.1398 52.4068 50.968 52.7161 50.6588 52.8078C50.6359 52.8078 48.0022 53.6098 46.4449 55.4659C46.3304 55.6034 46.1701 55.6722 46.0098 55.6722H45.9983Z" fill="#1C2024"/>
<path d="M135.636 64.9642C135.373 64.9642 135.144 64.7809 135.075 64.5174C134.308 61.1833 129.281 56.8065 124.735 56.6575C116.536 56.4055 111.818 63.2112 111.772 63.28C111.589 63.5435 111.234 63.6123 110.982 63.4289C110.719 63.2456 110.65 62.8904 110.833 62.6384C111.039 62.3405 116.032 55.2139 124.781 55.5118C129.475 55.6722 135.235 60.0833 136.197 64.2653C136.266 64.5747 136.071 64.884 135.762 64.9528C135.716 64.9528 135.67 64.9642 135.636 64.9642Z" fill="white"/>
<path d="M96.1303 122.825C96.1303 122.825 96.0502 122.825 96.0043 122.813C95.6952 122.745 95.5005 122.435 95.5692 122.126C96.68 117.13 95.0081 105.26 94.9852 105.146C94.9394 104.837 95.157 104.539 95.4662 104.493C95.7753 104.447 96.0731 104.665 96.1189 104.974C96.1876 105.467 97.8365 117.165 96.68 122.367C96.6227 122.63 96.3822 122.813 96.1189 122.813L96.1303 122.825Z" fill="#1C2024"/>
<path d="M157.965 120.533C157.965 120.533 157.885 120.533 157.839 120.522C157.53 120.453 157.335 120.144 157.404 119.834C158.515 114.839 156.843 102.969 156.82 102.854C156.774 102.545 156.992 102.247 157.301 102.201C157.61 102.155 157.908 102.373 157.954 102.683C158.022 103.175 159.671 114.873 158.515 120.075C158.458 120.339 158.217 120.522 157.954 120.522L157.965 120.533Z" fill="#1C2024"/>
<path d="M101.409 48.2133C101.089 48.2133 100.768 48.179 100.459 48.0988C100.15 48.0186 99.9663 47.7092 100.035 47.4113C100.115 47.102 100.413 46.9186 100.722 46.9874C100.951 47.0447 101.18 47.0676 101.398 47.0676C101.798 47.0676 102.199 46.9759 102.589 46.8155C102.875 46.6895 103.218 46.8155 103.344 47.1134C103.47 47.3999 103.344 47.7436 103.047 47.8696C102.508 48.0988 101.959 48.2248 101.398 48.2248L101.409 48.2133ZM98.6266 46.9874C98.4892 46.9874 98.3403 46.9301 98.2373 46.827C97.5617 46.1854 97.138 45.4292 96.9548 44.5698C96.886 44.2605 97.0922 43.9511 97.4013 43.8938C97.7105 43.8251 98.0197 44.0199 98.0769 44.3407C98.2144 44.9709 98.535 45.5208 99.0274 46.002C99.2564 46.2197 99.2678 46.5864 99.0503 46.8155C98.9358 46.9301 98.7869 46.9874 98.638 46.9874H98.6266ZM104.65 46.552C104.512 46.552 104.375 46.5062 104.272 46.403C104.031 46.1968 104.02 45.8302 104.226 45.5896C104.673 45.0969 105.073 44.5011 105.417 43.8136C105.566 43.5272 105.909 43.4241 106.184 43.5616C106.47 43.7105 106.574 44.0542 106.436 44.3292C106.047 45.0969 105.577 45.7843 105.073 46.3458C104.959 46.4718 104.81 46.5405 104.65 46.5405V46.552ZM169.908 43.9397C169.588 43.9397 169.313 43.6876 169.313 43.3668C169.313 43.046 169.542 42.7939 169.863 42.7939H169.908C170.641 42.7939 171.374 42.7481 172.073 42.6564C172.382 42.6106 172.668 42.8398 172.714 43.1491C172.76 43.4585 172.531 43.7449 172.222 43.7907C171.477 43.8824 170.699 43.9397 169.908 43.9397ZM167.584 43.8022C167.584 43.8022 167.538 43.8022 167.515 43.8022C166.782 43.722 166.004 43.5959 165.214 43.447C164.904 43.3897 164.698 43.0804 164.756 42.771C164.813 42.4617 165.122 42.2554 165.431 42.3127C166.198 42.4617 166.943 42.5762 167.641 42.6564C167.95 42.6908 168.179 42.9772 168.145 43.2866C168.111 43.5845 167.859 43.7907 167.572 43.7907L167.584 43.8022ZM174.386 43.3324C174.134 43.3324 173.905 43.172 173.836 42.92C173.756 42.6106 173.928 42.3012 174.237 42.2096C174.935 42.0148 175.634 41.7627 176.31 41.4648C176.596 41.3388 176.939 41.4648 177.065 41.7627C177.191 42.0492 177.065 42.3929 176.779 42.5189C176.046 42.8398 175.302 43.1147 174.546 43.321C174.489 43.3324 174.443 43.3439 174.386 43.3439V43.3324ZM163.084 42.9429C163.084 42.9429 162.992 42.9429 162.946 42.92C162.225 42.7366 161.481 42.5189 160.713 42.2898C160.416 42.1981 160.244 41.8773 160.336 41.5794C160.427 41.2815 160.748 41.1097 161.045 41.2013C161.79 41.4305 162.511 41.6367 163.221 41.82C163.53 41.9002 163.714 42.2096 163.633 42.5189C163.565 42.7825 163.336 42.9543 163.084 42.9543V42.9429ZM97.6418 42.771C97.6418 42.771 97.5273 42.771 97.47 42.7481C97.1723 42.6564 97.0006 42.3356 97.0922 42.0377C97.3097 41.3159 97.6762 40.5826 98.18 39.8379C98.3632 39.5744 98.7182 39.5056 98.9701 39.6889C99.2335 39.8608 99.3022 40.2274 99.119 40.4795C98.6838 41.1211 98.3632 41.7627 98.18 42.37C98.0998 42.6106 97.8823 42.771 97.6304 42.771H97.6418ZM106.757 42.5304C106.757 42.5304 106.654 42.5304 106.596 42.5075C106.299 42.4158 106.115 42.095 106.207 41.7971C106.413 41.1211 106.562 40.3878 106.665 39.6431C106.711 39.3337 106.997 39.116 107.306 39.1504C107.616 39.1962 107.833 39.4827 107.799 39.792C107.696 40.5941 107.524 41.3846 107.306 42.1179C107.238 42.37 107.009 42.5304 106.757 42.5304ZM158.698 41.6253C158.641 41.6253 158.572 41.6253 158.515 41.5909C157.805 41.3503 157.083 41.1097 156.339 40.8461C156.041 40.743 155.881 40.4107 155.984 40.1129C156.087 39.815 156.419 39.6546 156.717 39.7577C157.45 40.0212 158.171 40.2618 158.87 40.5024C159.168 40.6055 159.328 40.9263 159.236 41.2242C159.156 41.4648 158.927 41.6138 158.698 41.6138V41.6253ZM178.565 41.4992C178.371 41.4992 178.187 41.3961 178.073 41.2242C177.913 40.9493 177.993 40.6055 178.268 40.4337C178.886 40.067 179.504 39.6431 180.111 39.1848C180.363 38.99 180.73 39.0473 180.913 39.2994C181.107 39.5514 181.05 39.9066 180.798 40.1014C180.157 40.5826 179.493 41.0295 178.852 41.4076C178.76 41.4648 178.657 41.4878 178.554 41.4878L178.565 41.4992ZM154.37 40.1129C154.301 40.1129 154.244 40.1129 154.175 40.0785L152.022 39.2994C151.724 39.1962 151.576 38.864 151.679 38.5661C151.782 38.2682 152.114 38.1192 152.411 38.2224L154.564 39.0015C154.862 39.1046 155.011 39.4369 154.908 39.7348C154.828 39.9639 154.599 40.1129 154.37 40.1129ZM100.115 38.9671C99.9663 38.9671 99.8289 38.9098 99.7144 38.7952C99.4854 38.5775 99.4854 38.2109 99.7144 37.9818C100.241 37.4547 100.837 36.9277 101.489 36.4235C101.741 36.2287 102.096 36.2746 102.291 36.5266C102.486 36.7787 102.44 37.1339 102.188 37.3287C101.581 37.7984 101.02 38.2911 100.527 38.7838C100.413 38.8984 100.264 38.9556 100.127 38.9556L100.115 38.9671ZM182.23 38.7723C182.069 38.7723 181.909 38.7036 181.794 38.5775C181.588 38.3369 181.611 37.9817 181.84 37.7641C182.378 37.2828 182.928 36.7673 183.478 36.2173C183.695 35.9881 184.062 35.9881 184.291 36.2173C184.52 36.435 184.52 36.8016 184.291 37.0308C183.718 37.6037 183.157 38.1307 182.596 38.6348C182.493 38.7265 182.356 38.7723 182.218 38.7723H182.23ZM150.064 38.5432C149.995 38.5432 149.938 38.5432 149.869 38.5088L147.717 37.7297C147.419 37.6266 147.259 37.2943 147.373 36.9964C147.476 36.6985 147.808 36.5381 148.106 36.6527L150.259 37.4318C150.556 37.5349 150.705 37.8672 150.602 38.1651C150.522 38.3942 150.293 38.5432 150.064 38.5432ZM107.375 37.9703C107.054 37.9703 106.803 37.7411 106.803 37.4203C106.803 36.6527 106.757 35.9194 106.677 35.1976C106.642 34.8882 106.86 34.6018 107.18 34.5559C107.49 34.5216 107.776 34.7393 107.81 35.0601C107.902 35.8277 107.948 36.6068 107.948 37.363C107.948 37.6839 107.696 37.9588 107.375 37.9588V37.9703ZM145.747 36.9964C145.69 36.9964 145.621 36.9964 145.552 36.962C144.842 36.71 144.132 36.4694 143.388 36.2173C143.09 36.1142 142.93 35.7934 143.033 35.4955C143.136 35.1976 143.457 35.0372 143.755 35.1403C144.499 35.3923 145.22 35.6444 145.93 35.885C146.228 35.9881 146.388 36.3204 146.285 36.6183C146.205 36.8589 145.988 36.9964 145.747 36.9964ZM103.722 36.16C103.528 36.16 103.344 36.0569 103.23 35.885C103.07 35.61 103.15 35.2663 103.425 35.0944C104.066 34.7049 104.764 34.3268 105.474 33.9716C105.76 33.8341 106.104 33.9487 106.241 34.2351C106.379 34.5216 106.264 34.8653 105.978 35.0028C105.291 35.3351 104.638 35.7017 104.02 36.0798C103.928 36.1371 103.825 36.16 103.722 36.16ZM185.459 35.5298C185.321 35.5298 185.184 35.484 185.081 35.3809C184.84 35.1746 184.829 34.808 185.035 34.5674C185.356 34.2008 185.688 33.8341 186.02 33.4446C186.226 33.2039 186.592 33.1696 186.833 33.3758C187.073 33.582 187.108 33.9372 186.902 34.1778C186.558 34.5789 186.226 34.957 185.894 35.3236C185.779 35.4496 185.619 35.5184 185.47 35.5184L185.459 35.5298ZM141.407 35.5298C141.35 35.5298 141.293 35.5298 141.224 35.5069C140.514 35.2778 139.793 35.0372 139.048 34.808C138.751 34.7163 138.579 34.3955 138.67 34.0862C138.762 33.7883 139.083 33.6164 139.392 33.7081C140.136 33.9372 140.869 34.1778 141.579 34.407C141.877 34.5101 142.048 34.8309 141.945 35.1288C141.865 35.3694 141.648 35.5184 141.407 35.5184V35.5298ZM137.033 34.1549C137.033 34.1549 136.918 34.1549 136.873 34.132L135.762 33.7997C135.407 33.6966 135.04 33.5935 134.685 33.4904C134.376 33.4102 134.205 33.0894 134.285 32.7915C134.365 32.4821 134.685 32.3103 134.983 32.3905C135.35 32.4936 135.716 32.5967 136.082 32.6998L137.205 33.0321C137.502 33.1237 137.686 33.4446 137.583 33.7425C137.514 33.9945 137.285 34.1549 137.033 34.1549ZM107.822 34.1435C107.593 34.1435 107.375 34.006 107.295 33.7768C107.18 33.4789 107.318 33.1467 107.616 33.0321C108.314 32.7571 109.058 32.4936 109.814 32.253C110.112 32.1613 110.432 32.3217 110.536 32.6311C110.627 32.929 110.467 33.2498 110.158 33.3529C109.425 33.5821 108.715 33.8341 108.039 34.1091C107.971 34.132 107.902 34.1549 107.833 34.1549L107.822 34.1435ZM106.837 33.456C106.574 33.456 106.344 33.2727 106.276 33.0092C106.104 32.2988 105.898 31.577 105.646 30.8666C105.543 30.5687 105.692 30.2364 105.99 30.1333C106.287 30.0302 106.608 30.1792 106.722 30.4771C106.986 31.2218 107.215 31.9895 107.387 32.7342C107.455 33.0435 107.272 33.3529 106.963 33.4216C106.917 33.4216 106.871 33.4331 106.837 33.4331V33.456ZM132.613 32.9519C132.613 32.9519 132.533 32.9519 132.487 32.9404C131.743 32.7686 130.998 32.6196 130.265 32.4821C129.956 32.4248 129.75 32.1269 129.807 31.8176C129.865 31.5082 130.162 31.2905 130.472 31.3593C131.216 31.4968 131.972 31.6572 132.739 31.829C133.048 31.8978 133.243 32.2071 133.174 32.5165C133.117 32.78 132.876 32.9633 132.613 32.9633V32.9519ZM112.184 32.7571C111.921 32.7571 111.692 32.5852 111.623 32.3217C111.555 32.0124 111.738 31.703 112.047 31.6343C112.78 31.4509 113.547 31.2905 114.326 31.153C114.635 31.0958 114.933 31.302 114.99 31.6114C115.047 31.9207 114.841 32.2186 114.532 32.2759C113.776 32.4134 113.043 32.5623 112.322 32.7342C112.276 32.7342 112.23 32.7456 112.184 32.7456V32.7571ZM128.113 32.1155C128.113 32.1155 128.055 32.1155 128.033 32.1155C127.265 32.0124 126.521 31.9207 125.788 31.852C125.479 31.8176 125.238 31.5426 125.273 31.2333C125.296 30.9124 125.582 30.6833 125.891 30.7177C126.647 30.7864 127.414 30.8781 128.193 30.9812C128.502 31.027 128.72 31.3135 128.685 31.6228C128.651 31.9092 128.399 32.1155 128.124 32.1155H128.113ZM116.696 31.9436C116.41 31.9436 116.158 31.7259 116.124 31.4395C116.089 31.1301 116.307 30.8437 116.627 30.7979C117.383 30.7062 118.15 30.6375 118.94 30.5916C119.273 30.5687 119.524 30.8093 119.547 31.1301C119.57 31.4509 119.33 31.7145 119.009 31.7374C118.242 31.7832 117.498 31.852 116.765 31.9436C116.742 31.9436 116.719 31.9436 116.696 31.9436ZM123.555 31.703C123.555 31.703 123.544 31.703 123.532 31.703C122.891 31.6801 122.261 31.6572 121.643 31.6572H121.265C120.956 31.6572 120.692 31.4051 120.692 31.0843C120.692 30.7635 120.944 30.5114 121.265 30.5114H121.654C122.284 30.5114 122.937 30.5229 123.59 30.5573C123.91 30.5687 124.151 30.8322 124.139 31.153C124.128 31.4624 123.876 31.703 123.567 31.703H123.555ZM105.314 29.1365C105.096 29.1365 104.89 29.0105 104.799 28.8043C104.489 28.1397 104.134 27.4752 103.745 26.8336C103.585 26.5586 103.676 26.2148 103.94 26.043C104.203 25.8826 104.558 25.9742 104.73 26.2378C105.131 26.9138 105.509 27.6127 105.829 28.3116C105.967 28.598 105.841 28.9417 105.554 29.0792C105.474 29.1136 105.394 29.1365 105.314 29.1365ZM38.1887 28.6553C38.0742 28.6553 37.9597 28.6209 37.8566 28.5522C37.6047 28.3689 37.536 28.0137 37.7192 27.7502C37.7421 27.7158 38.2345 27.0283 39.185 25.9169C39.3911 25.6763 39.7575 25.642 39.998 25.8482C40.2384 26.0544 40.2728 26.4096 40.0667 26.6502C39.1506 27.7272 38.6697 28.4032 38.6582 28.4147C38.5437 28.5751 38.3719 28.6553 38.1887 28.6553ZM102.989 25.1951C102.818 25.1951 102.634 25.1149 102.531 24.9545C102.096 24.3587 101.627 23.7629 101.146 23.1901C100.94 22.9494 100.963 22.5943 101.203 22.3766C101.444 22.1703 101.81 22.1932 102.016 22.4339C102.52 23.0296 103.012 23.6369 103.459 24.2671C103.642 24.5191 103.585 24.8858 103.333 25.0691C103.23 25.1378 103.115 25.1837 103.001 25.1837L102.989 25.1951ZM41.1545 25.1378C41.0171 25.1378 40.8797 25.092 40.7652 24.9889C40.5362 24.7712 40.5247 24.416 40.7308 24.1754C41.2118 23.6598 41.75 23.0984 42.3454 22.5141C42.5744 22.2849 42.9294 22.2964 43.1584 22.5141C43.376 22.7432 43.376 23.0984 43.1584 23.3275C42.5859 23.9004 42.0591 24.4504 41.5782 24.966C41.4637 25.092 41.3148 25.1493 41.1545 25.1493V25.1378ZM44.4066 21.9068C44.2462 21.9068 44.0974 21.8495 43.9829 21.7235C43.7653 21.4943 43.7882 21.1277 44.0172 20.91C44.5669 20.4059 45.1509 19.9017 45.7578 19.3861C45.9982 19.1799 46.3647 19.2143 46.5708 19.4549C46.7769 19.6955 46.7425 20.0621 46.5021 20.2569C45.9066 20.7611 45.3341 21.2652 44.7959 21.7579C44.6814 21.861 44.544 21.9068 44.4066 21.9068ZM100.012 21.7235C99.8633 21.7235 99.7144 21.6662 99.6114 21.5516C99.0961 21.036 98.535 20.5204 97.9624 20.0163C97.722 19.8101 97.6991 19.4434 97.9052 19.2028C98.1113 18.9622 98.4777 18.9393 98.7182 19.1455C99.3136 19.6611 99.8862 20.1996 100.424 20.7267C100.653 20.9558 100.653 21.311 100.424 21.5402C100.31 21.6547 100.161 21.712 100.024 21.712L100.012 21.7235ZM47.9105 18.9508C47.7388 18.9508 47.567 18.8706 47.4525 18.7331C47.2578 18.481 47.3036 18.1258 47.5556 17.931C48.151 17.4727 48.7694 17.003 49.4221 16.5561C49.674 16.3728 50.0404 16.4416 50.2236 16.6936C50.4068 16.9571 50.3381 17.3123 50.0862 17.4956C49.4564 17.9425 48.8495 18.3893 48.2655 18.8362C48.1625 18.9164 48.0365 18.9508 47.9105 18.9508ZM96.554 18.7216C96.428 18.7216 96.3135 18.6872 96.2104 18.607C95.6264 18.1602 95.0196 17.7248 94.3669 17.3009C94.1035 17.129 94.0348 16.7738 94.2065 16.5103C94.3783 16.2468 94.7333 16.178 94.9966 16.3499C95.6608 16.7967 96.2906 17.2436 96.8861 17.7019C97.138 17.8967 97.1838 18.2518 97.0006 18.5039C96.886 18.6529 96.7143 18.7331 96.5425 18.7331L96.554 18.7216ZM51.6664 16.3041C51.4718 16.3041 51.2886 16.2124 51.1855 16.0405C51.0137 15.777 51.0939 15.4218 51.3573 15.25C51.9985 14.8375 52.6627 14.4365 53.3497 14.0469C53.6245 13.8865 53.9681 13.9896 54.1284 14.2646C54.2887 14.5396 54.1856 14.8948 53.9108 15.0437C53.2467 15.4218 52.6054 15.8114 51.9756 16.2124C51.884 16.2697 51.7695 16.3041 51.6664 16.3041ZM92.7523 16.1666C92.6492 16.1666 92.5576 16.1437 92.466 16.0864C91.8362 15.7083 91.172 15.3416 90.4964 14.9864C90.2216 14.8375 90.1071 14.4938 90.256 14.2073C90.4048 13.9209 90.7484 13.8178 91.0346 13.9667C91.7331 14.3334 92.4087 14.7115 93.0614 15.101C93.3363 15.2614 93.4279 15.6166 93.2676 15.8801C93.1645 16.0635 92.9698 16.1666 92.7752 16.1666H92.7523ZM55.6399 14.0355C55.4338 14.0355 55.2277 13.9209 55.1246 13.7147C54.9872 13.4282 55.0903 13.0845 55.3765 12.947C56.0636 12.6033 56.7621 12.271 57.4835 11.9617C57.7698 11.8356 58.1133 11.9617 58.2393 12.2595C58.3652 12.546 58.2393 12.8897 57.9415 13.0157C57.243 13.3251 56.556 13.6459 55.8918 13.9782C55.8117 14.024 55.7201 14.0355 55.6399 14.0355ZM88.6987 14.0355C88.6185 14.0355 88.5383 14.0126 88.4582 13.9782C87.794 13.6688 87.0955 13.3595 86.3856 13.0616C86.0993 12.9355 85.9619 12.6033 86.0764 12.3168C86.2024 12.0304 86.5344 11.8929 86.8322 12.0075C87.5536 12.3168 88.2635 12.6262 88.9391 12.947C89.2254 13.0845 89.3514 13.4282 89.2139 13.7147C89.1223 13.9209 88.9162 14.0469 88.6987 14.0469V14.0355ZM84.4847 12.2595C84.416 12.2595 84.3473 12.2595 84.2901 12.2252C83.5686 11.9617 82.8587 11.721 82.1487 11.5033C81.851 11.4117 81.6793 11.0909 81.7709 10.793C81.8625 10.4951 82.1831 10.3232 82.4808 10.4149C83.2137 10.6326 83.9465 10.8846 84.6794 11.1596C84.9771 11.2742 85.126 11.595 85.0229 11.8929C84.9313 12.1221 84.7137 12.271 84.4847 12.271V12.2595ZM59.8424 12.2137C59.6134 12.2137 59.3958 12.0762 59.3042 11.8356C59.1897 11.5377 59.35 11.2055 59.6477 11.1023C60.3691 10.8388 61.102 10.5867 61.8463 10.3576C62.1555 10.2659 62.4646 10.4378 62.5562 10.7357C62.6479 11.0336 62.4761 11.3544 62.1784 11.4461C61.4455 11.6638 60.7355 11.9044 60.037 12.1679C59.9683 12.1908 59.8996 12.2023 59.8424 12.2023V12.2137ZM80.099 10.9305C80.099 10.9305 80.0074 10.9305 79.9616 10.919C79.2173 10.7472 78.4845 10.5867 77.7516 10.4722C77.4424 10.4149 77.2363 10.117 77.2821 9.80763C77.3394 9.49828 77.6256 9.29204 77.9463 9.33787C78.702 9.46391 79.4578 9.62431 80.225 9.80763C80.5342 9.87638 80.7288 10.1857 80.6487 10.4951C80.5914 10.7586 80.3509 10.9305 80.0876 10.9305H80.099ZM64.2166 10.8846C63.9533 10.8846 63.7242 10.7013 63.6555 10.4378C63.5868 10.1284 63.77 9.81909 64.0792 9.75034C64.8235 9.57848 65.5907 9.41807 66.3579 9.29204C66.6671 9.24621 66.9648 9.45245 67.0221 9.7618C67.0793 10.0712 66.8618 10.3691 66.5526 10.4263C65.8083 10.5524 65.064 10.7013 64.3426 10.8732C64.2968 10.8732 64.251 10.8846 64.2166 10.8846ZM75.5874 10.1514C75.5874 10.1514 75.5416 10.1514 75.5301 10.1514C74.7744 10.0712 74.0186 10.0253 73.2857 9.99095C72.9651 9.9795 72.7246 9.71597 72.7361 9.39516C72.7475 9.07435 73.0224 8.82228 73.3315 8.8452C74.0988 8.86811 74.8774 8.9254 75.6561 9.0056C75.9652 9.03998 76.1943 9.31496 76.1714 9.63577C76.137 9.93366 75.8965 10.1514 75.5988 10.1514H75.5874ZM68.7283 10.1284C68.442 10.1284 68.1901 9.91075 68.1557 9.61285C68.1214 9.3035 68.3504 9.01706 68.671 8.98269C69.4382 8.90249 70.2169 8.85666 70.9956 8.83374C71.3162 8.83374 71.5796 9.07435 71.591 9.3837C71.591 9.70451 71.3505 9.96804 71.0414 9.9795C70.2856 10.0024 69.5413 10.0482 68.797 10.1284C68.7741 10.1284 68.7626 10.1284 68.7397 10.1284H68.7283Z" fill="#1C2024"/>
<path d="M28.9021 182.633C28.8334 182.633 28.6616 182.599 28.5929 182.576C26.9898 181.934 24.734 162.033 24.5393 159.466C24.2759 156.063 24.4935 155.754 24.8599 155.548C24.8714 155.548 24.8943 155.525 24.9057 155.525C25.0317 155.468 25.1805 155.445 25.3065 155.468C25.3523 155.468 25.3981 155.49 25.4325 155.513C27.4936 156.109 35.4062 161.735 36.3452 162.399C39.3109 164.519 46.2731 169.618 47.0518 171.313C47.2693 171.795 47.0976 172.104 46.9716 172.241C46.7197 172.528 45.9525 173.41 41.3492 173.41C40.4331 173.41 39.7804 173.376 39.7804 173.376C39.6201 173.376 39.4713 173.295 39.3682 173.169C35.4978 168.472 29.6693 161.517 26.7264 158.298C28.6158 161.964 32.6809 169.148 35.4749 173.96C35.578 174.143 35.578 174.372 35.4749 174.544C33.6199 177.569 30.2991 182.633 28.9021 182.633ZM25.6157 158.607C26.005 164.427 28.1463 179.093 29.0509 181.396C29.9785 180.731 32.3717 177.374 34.3184 174.246C29.2685 165.55 26.7951 161.013 25.6157 158.618V158.607ZM40.1011 172.241C40.3644 172.241 40.811 172.264 41.3492 172.264C43.96 172.264 45.3685 171.966 45.9181 171.634C44.7272 170.042 33.5855 161.46 28.0089 158.011C30.9861 161.265 35.8528 167.074 40.1011 172.23V172.241Z" fill="#1C2024"/>
<path d="M35.4634 181.327C35.3489 181.327 35.2115 181.304 35.0627 181.236C34.0779 180.789 33.0473 178.257 32.6465 177.18C32.532 176.882 32.6923 176.549 32.9786 176.446C33.2763 176.332 33.6084 176.492 33.7114 176.779C34.2725 178.291 35.0283 179.758 35.4291 180.113C36.0016 179.471 37.788 175.873 39.1621 172.734C39.288 172.448 39.6316 172.31 39.9178 172.436C40.2041 172.562 40.3415 172.906 40.2156 173.192C38.6811 176.675 36.6658 180.903 35.7612 181.259C35.681 181.293 35.5779 181.316 35.452 181.316L35.4634 181.327Z" fill="#1C2024"/>
<path d="M102.085 237.24C101.432 237.24 100.768 237.217 100.092 237.183C99.7717 237.16 99.5312 236.896 99.5542 236.575C99.5771 236.255 99.8404 236.014 100.161 236.037C100.814 236.071 101.444 236.094 102.073 236.094H102.405C102.749 236.083 102.978 236.346 102.978 236.656C102.978 236.977 102.726 237.229 102.405 237.229H102.062L102.085 237.24ZM104.707 237.125C104.409 237.125 104.157 236.896 104.135 236.598C104.112 236.289 104.341 236.003 104.661 235.98C105.406 235.911 106.15 235.819 106.894 235.705C107.203 235.659 107.501 235.865 107.547 236.174C107.593 236.484 107.387 236.782 107.077 236.828C106.31 236.954 105.532 237.045 104.764 237.114C104.753 237.114 104.73 237.114 104.719 237.114L104.707 237.125ZM97.8594 236.954C97.8594 236.954 97.8136 236.954 97.7793 236.954C97.0235 236.85 96.2448 236.724 95.4776 236.575C95.1684 236.518 94.9623 236.209 95.031 235.899C95.0883 235.59 95.3975 235.384 95.7066 235.453C96.4395 235.602 97.1953 235.728 97.9281 235.819C98.2373 235.865 98.4663 236.152 98.4205 236.461C98.3862 236.747 98.1342 236.954 97.848 236.954H97.8594ZM109.23 236.392C108.967 236.392 108.738 236.22 108.669 235.957C108.6 235.647 108.784 235.338 109.093 235.269C109.814 235.097 110.547 234.891 111.257 234.662C111.555 234.559 111.875 234.731 111.978 235.029C112.07 235.327 111.91 235.647 111.612 235.751C110.879 235.991 110.123 236.209 109.368 236.392C109.322 236.392 109.276 236.404 109.23 236.404V236.392ZM93.3707 236.06C93.3707 236.06 93.2676 236.06 93.2218 236.037C92.9928 235.98 92.7638 235.911 92.5347 235.842C92.008 235.693 91.4927 235.533 91.0003 235.372C90.7026 235.281 90.5308 234.96 90.6224 234.651C90.7141 234.353 91.0347 234.181 91.3438 234.273C91.8362 234.433 92.3401 234.582 92.8554 234.731C93.0729 234.8 93.302 234.857 93.5195 234.914C93.8287 234.994 94.0119 235.315 93.9203 235.613C93.8516 235.865 93.6226 236.037 93.3707 236.037V236.06ZM113.582 234.971C113.352 234.971 113.146 234.834 113.055 234.616C112.929 234.33 113.066 233.986 113.364 233.872C114.051 233.585 114.738 233.264 115.402 232.921C115.688 232.783 116.032 232.886 116.169 233.173C116.318 233.459 116.204 233.803 115.917 233.94C115.23 234.295 114.509 234.628 113.799 234.926C113.73 234.96 113.65 234.971 113.582 234.971ZM89.0079 234.674C88.9392 234.674 88.8705 234.674 88.8132 234.639C88.0574 234.364 87.3475 234.078 86.6604 233.791C86.3742 233.665 86.2368 233.333 86.3513 233.035C86.4772 232.737 86.8093 232.611 87.107 232.726C87.7712 233.012 88.4811 233.287 89.214 233.551C89.5117 233.654 89.6606 233.986 89.5575 234.284C89.4774 234.513 89.2483 234.662 89.0193 234.662L89.0079 234.674ZM84.7939 232.886C84.7138 232.886 84.6222 232.863 84.542 232.829C83.8321 232.485 83.145 232.119 82.4923 231.729C82.2175 231.569 82.1259 231.225 82.2862 230.95C82.4465 230.675 82.8015 230.583 83.0649 230.744C83.6947 231.11 84.3703 231.465 85.0459 231.798C85.3321 231.935 85.4466 232.279 85.3092 232.565C85.2062 232.772 85.0115 232.886 84.7939 232.886ZM117.647 232.886C117.452 232.886 117.269 232.795 117.166 232.611C116.994 232.348 117.074 231.992 117.349 231.821C117.99 231.42 118.608 230.996 119.204 230.56C119.456 230.377 119.811 230.423 120.005 230.675C120.2 230.927 120.143 231.282 119.891 231.477C119.273 231.935 118.62 232.382 117.956 232.794C117.864 232.852 117.761 232.886 117.658 232.886H117.647ZM80.8434 230.595C80.7289 230.595 80.6144 230.56 80.5113 230.492C79.8471 230.033 79.2288 229.552 78.6563 229.071C78.4158 228.865 78.3814 228.509 78.5875 228.269C78.7937 228.028 79.1601 227.994 79.4006 228.2C79.9502 228.658 80.5457 229.117 81.1754 229.552C81.4388 229.735 81.4961 230.091 81.3243 230.354C81.2098 230.514 81.038 230.595 80.8548 230.595H80.8434ZM121.311 230.136C121.151 230.136 121.002 230.068 120.887 229.942C120.681 229.701 120.693 229.346 120.933 229.128C121.494 228.624 122.021 228.097 122.525 227.558C122.742 227.329 123.097 227.306 123.338 227.524C123.567 227.742 123.59 228.097 123.372 228.338C122.857 228.91 122.296 229.46 121.712 229.987C121.597 230.091 121.46 230.136 121.334 230.136H121.311ZM77.3738 227.627C77.2249 227.627 77.0646 227.57 76.9501 227.444C76.4004 226.848 75.8966 226.229 75.4615 225.611C75.2782 225.347 75.3469 224.992 75.5989 224.809C75.8508 224.625 76.2172 224.694 76.4004 224.946C76.8127 225.53 77.2707 226.103 77.786 226.665C78.0036 226.894 77.9921 227.26 77.7631 227.478C77.6486 227.581 77.5112 227.627 77.3738 227.627ZM124.391 226.756C124.277 226.756 124.151 226.722 124.059 226.642C123.807 226.458 123.75 226.092 123.933 225.84C124.38 225.221 124.78 224.591 125.124 223.972C125.273 223.697 125.628 223.594 125.903 223.743C126.177 223.892 126.281 224.247 126.132 224.522C125.765 225.187 125.342 225.851 124.861 226.516C124.746 226.665 124.574 226.756 124.403 226.756H124.391ZM60.7127 225.473C60.163 225.473 59.6134 225.45 59.0752 225.404C58.7546 225.37 58.5256 225.095 58.5599 224.786C58.5943 224.476 58.8805 224.247 59.1783 224.27C59.6821 224.316 60.1859 224.339 60.7127 224.339C60.9875 224.339 61.1593 224.339 61.3883 224.327C61.7547 224.327 61.9723 224.568 61.9837 224.877C61.9837 225.198 61.7433 225.462 61.4341 225.473C61.1936 225.473 60.9646 225.485 60.7127 225.485V225.473ZM63.6899 225.255C63.4151 225.255 63.1632 225.049 63.1288 224.763C63.083 224.453 63.3006 224.156 63.6098 224.11L63.9991 224.052C64.6403 223.949 65.2587 223.835 65.8541 223.732C66.1633 223.674 66.461 223.881 66.5183 224.19C66.5756 224.499 66.3694 224.797 66.0603 224.854C65.4534 224.969 64.835 225.072 64.1823 225.187L63.7815 225.244C63.7815 225.244 63.7243 225.244 63.7014 225.244L63.6899 225.255ZM56.8766 225.038C56.8766 225.038 56.785 225.038 56.7392 225.026C55.972 224.843 55.2163 224.602 54.4834 224.304C54.1857 224.19 54.0483 223.846 54.1628 223.56C54.2773 223.262 54.6094 223.124 54.9071 223.239C55.5827 223.514 56.2812 223.732 56.9911 223.903C57.3003 223.972 57.4835 224.282 57.4148 224.591C57.3576 224.854 57.1171 225.026 56.8537 225.026L56.8766 225.038ZM68.1901 224.408C67.9268 224.408 67.6863 224.224 67.629 223.961C67.5603 223.651 67.755 223.342 68.0642 223.273C68.8428 223.101 69.5757 222.918 70.2627 222.735C70.5605 222.655 70.8811 222.838 70.9613 223.136C71.0414 223.445 70.8582 223.754 70.5605 223.835C69.8505 224.029 69.1062 224.213 68.3161 224.385C68.2703 224.385 68.2359 224.396 68.1901 224.396V224.408ZM74.7858 223.892C74.5683 223.892 74.3622 223.777 74.2706 223.571C74.1446 223.319 74.0301 223.056 73.927 222.792C73.5606 222.93 73.1827 223.067 72.7934 223.193C72.4842 223.296 72.1636 223.124 72.072 222.826C71.9689 222.529 72.1407 222.208 72.4384 222.105C72.8163 221.979 73.1942 221.841 73.5606 221.715C73.5262 221.589 73.4919 221.463 73.4575 221.325C73.3774 221.016 73.5606 220.707 73.8698 220.627C74.179 220.546 74.4881 220.73 74.5683 221.039C74.5912 221.131 74.6141 221.211 74.637 221.303C74.9004 221.234 75.1866 221.371 75.3011 221.635C75.4156 221.921 75.2897 222.254 75.0149 222.38C75.1065 222.62 75.2095 222.849 75.324 223.09C75.4614 223.376 75.3355 223.72 75.0492 223.858C74.9691 223.892 74.8889 223.915 74.7973 223.915L74.7858 223.892ZM52.6742 223.342C52.5711 223.342 52.468 223.319 52.3764 223.262C51.7123 222.861 51.0596 222.414 50.4412 221.91C50.2008 221.715 50.155 221.348 50.3611 221.108C50.5557 220.867 50.9222 220.821 51.1626 221.028C51.7352 221.497 52.3421 221.921 52.9604 222.288C53.2353 222.448 53.3269 222.804 53.1551 223.078C53.052 223.262 52.8574 223.353 52.6627 223.353L52.6742 223.342ZM126.59 222.758C126.521 222.758 126.464 222.758 126.395 222.723C126.097 222.62 125.937 222.288 126.052 221.99C126.303 221.268 126.487 220.569 126.578 219.893C126.624 219.584 126.91 219.366 127.22 219.401C127.529 219.446 127.758 219.733 127.712 220.042C127.609 220.798 127.414 221.578 127.128 222.38C127.048 222.609 126.819 222.758 126.59 222.758ZM76.8241 221.429C76.618 221.429 76.4233 221.325 76.3203 221.131C76.1714 220.856 76.263 220.501 76.5493 220.352C77.2478 219.962 77.8547 219.561 78.3585 219.137C78.599 218.931 78.9654 218.965 79.1601 219.217C79.3662 219.458 79.3319 219.825 79.0799 220.019C78.5188 220.478 77.8547 220.924 77.0875 221.348C76.9959 221.394 76.9043 221.417 76.8127 221.417L76.8241 221.429ZM49.1244 220.478C48.9755 220.478 48.8267 220.42 48.7121 220.306C48.1854 219.756 47.6701 219.16 47.1892 218.518C46.9945 218.266 47.0403 217.911 47.2922 217.716C47.5442 217.522 47.8991 217.567 48.0938 217.819C48.5518 218.415 49.0442 218.988 49.5366 219.515C49.7542 219.744 49.7427 220.111 49.5137 220.329C49.3992 220.432 49.2618 220.489 49.1129 220.489L49.1244 220.478ZM73.6408 219.481C73.3316 219.481 73.0797 219.24 73.0682 218.931C73.0682 218.736 73.0568 218.553 73.0568 218.358C73.0568 217.739 73.1026 217.121 73.2171 216.513C73.2743 216.204 73.572 215.998 73.8812 216.044C74.1904 216.101 74.3965 216.399 74.3507 216.708C74.2591 217.247 74.2133 217.797 74.2133 218.347C74.2133 218.518 74.2133 218.69 74.2248 218.862C74.2362 219.183 73.9957 219.446 73.6866 219.458H73.6637L73.6408 219.481ZM80.2365 218.45C80.1334 218.45 80.0304 218.427 79.9388 218.369C79.6639 218.209 79.5723 217.854 79.7441 217.579C80.0647 217.04 80.225 216.502 80.225 215.975C80.225 215.895 80.225 215.814 80.225 215.734C80.2021 215.413 80.4311 215.138 80.7518 215.115C81.0609 215.07 81.3472 215.322 81.3701 215.643C81.3701 215.757 81.3816 215.86 81.3816 215.975C81.3816 216.72 81.164 217.453 80.7403 218.163C80.6373 218.347 80.4426 218.438 80.2479 218.438L80.2365 218.45ZM127.116 218.243C126.842 218.243 126.601 218.049 126.555 217.762C126.441 217.052 126.212 216.399 125.857 215.826C125.697 215.551 125.777 215.207 126.052 215.035C126.315 214.875 126.67 214.955 126.842 215.23C127.265 215.94 127.552 216.731 127.689 217.579C127.735 217.888 127.529 218.186 127.22 218.232C127.185 218.232 127.162 218.232 127.128 218.232L127.116 218.243ZM46.3304 216.846C46.1357 216.846 45.9525 216.754 45.8494 216.582C45.4486 215.952 45.0593 215.264 44.6814 214.554C44.5326 214.279 44.6471 213.924 44.9219 213.786C45.1967 213.637 45.5517 213.752 45.7006 214.027C46.0555 214.714 46.4334 215.368 46.8113 215.975C46.9831 216.238 46.9029 216.594 46.6281 216.765C46.5365 216.823 46.4334 216.857 46.3189 216.857L46.3304 216.846ZM74.4309 215.001C74.3507 215.001 74.2706 214.989 74.1904 214.944C73.9041 214.806 73.7782 214.474 73.9041 214.187C74.2362 213.454 74.6599 212.824 75.1179 212.366C75.2095 212.274 75.3126 212.194 75.4156 212.114C75.679 211.93 76.034 211.988 76.2172 212.251C76.4004 212.503 76.3432 212.87 76.0798 213.053C76.0225 213.088 75.9767 213.133 75.9309 213.179C75.5645 213.534 75.2324 214.05 74.9462 214.669C74.8545 214.875 74.6484 215.001 74.4309 215.001ZM79.8472 214.21C79.6868 214.21 79.538 214.142 79.4235 214.016C78.9769 213.511 78.3929 213.133 77.786 212.939C77.4883 212.847 77.3165 212.515 77.4196 212.217C77.5226 211.919 77.8432 211.747 78.141 211.85C78.9425 212.114 79.7097 212.606 80.2823 213.259C80.4884 213.5 80.4769 213.855 80.2365 214.073C80.1334 214.165 79.996 214.222 79.8586 214.222L79.8472 214.21ZM44.189 212.79C43.9715 212.79 43.7654 212.664 43.6623 212.446C43.3531 211.736 43.0554 211.025 42.7806 210.292C42.6661 209.994 42.8149 209.662 43.1127 209.559C43.4104 209.444 43.7425 209.593 43.8455 209.891C44.1089 210.601 44.3952 211.3 44.6929 211.988C44.8188 212.274 44.6929 212.618 44.4066 212.744C44.3264 212.778 44.2577 212.79 44.1776 212.79H44.189ZM42.5745 208.493C42.334 208.493 42.105 208.333 42.0248 208.092C41.7843 207.359 41.5668 206.614 41.3607 205.869C41.2805 205.56 41.4523 205.251 41.7614 205.17C42.0706 205.09 42.3798 205.273 42.46 205.571C42.6546 206.305 42.8722 207.026 43.1012 207.748C43.1928 208.046 43.0325 208.367 42.7348 208.47C42.6775 208.493 42.6203 208.493 42.563 208.493H42.5745ZM41.3607 204.07C41.0973 204.07 40.8683 203.887 40.7996 203.624C40.6278 202.867 40.4675 202.111 40.3186 201.366C40.2614 201.057 40.456 200.759 40.7652 200.69C41.0744 200.622 41.3721 200.828 41.4408 201.137C41.5897 201.871 41.75 202.615 41.9218 203.36C41.9905 203.669 41.7958 203.979 41.4866 204.047C41.4408 204.047 41.395 204.059 41.3607 204.059V204.07ZM40.4675 199.568C40.1927 199.568 39.9522 199.373 39.9064 199.086C39.7804 198.319 39.6659 197.551 39.5629 196.795C39.5171 196.486 39.7346 196.188 40.0553 196.153C40.3644 196.107 40.6622 196.325 40.6965 196.646C40.7996 197.391 40.9141 198.135 41.04 198.903C41.0858 199.212 40.8797 199.51 40.5706 199.568C40.5362 199.568 40.5018 199.568 40.4789 199.568H40.4675ZM39.8377 195.019C39.5514 195.019 39.2995 194.801 39.2652 194.515C39.1735 193.724 39.1048 192.957 39.0361 192.212C39.0132 191.891 39.2422 191.616 39.5629 191.593C39.8606 191.559 40.1583 191.799 40.1812 192.109C40.2499 192.842 40.3186 193.598 40.4102 194.377C40.4446 194.687 40.2156 194.973 39.9064 195.007C39.8835 195.007 39.8606 195.007 39.8377 195.007V195.019ZM39.4369 190.436C39.1392 190.436 38.8873 190.207 38.8644 189.897C38.8071 189.072 38.7728 188.293 38.7499 187.583C38.7384 187.262 38.9789 186.999 39.2995 186.987C39.6087 186.987 39.8835 187.216 39.8949 187.537C39.9179 188.236 39.9637 189.004 40.0095 189.817C40.0324 190.138 39.7919 190.402 39.4713 190.424C39.4598 190.424 39.4484 190.424 39.4369 190.424V190.436ZM39.2537 185.841C38.9445 185.841 38.6812 185.589 38.6812 185.28C38.6812 184.868 38.6812 184.501 38.6812 184.192C38.6812 183.401 38.6926 182.954 38.6926 182.954C38.6926 182.633 38.9216 182.358 39.2881 182.404C39.6087 182.404 39.8491 182.679 39.8377 182.989C39.8377 182.989 39.8262 183.424 39.8262 184.192C39.8262 184.501 39.8262 184.856 39.8262 185.269C39.8262 185.589 39.5743 185.841 39.2652 185.853L39.2537 185.841Z" fill="#1C2024"/>
<path d="M250.42 95.1893C250.42 95.1893 198.467 88.5783 194.219 91.8781C189.971 95.1778 188.631 130.33 187.131 131.578C184.302 133.939 175.325 138.671 179.573 140.561C183.821 142.452 242.393 150.483 245.221 146.702C248.049 142.921 255.138 97.0798 250.42 95.1893Z" fill="#1C2024"/>
<path d="M1.28245 109.271C1.28245 109.271 43.2729 103.92 46.7082 106.601C50.1434 109.282 51.2198 137.674 52.4336 138.682C54.7238 140.596 61.9722 144.411 58.537 145.935C55.1017 147.459 7.77511 153.955 5.48493 150.896C3.19475 147.837 -2.5307 110.794 1.28245 109.271Z" fill="#0065FF"/>
<path d="M28.1004 139.438C28.1004 139.438 10.0309 129.195 14.554 121.656C19.0771 114.117 25.9934 123.467 25.9934 123.467C25.9934 123.467 32.1655 113.12 36.5283 117.142C44.0515 124.074 29.3027 139.736 28.1004 139.438Z" fill="#FEFFFF"/>
<path d="M210.158 123.1C210.158 123.1 195.547 116.076 209.677 102.9C223.808 89.7241 242.541 105.066 237.858 120.052C234.721 130.101 225.319 125.391 224.747 127.053C224.174 128.714 224.403 133.022 222.731 132.999C221.06 132.976 206.322 130.467 208.876 127.775C210.124 126.457 210.17 123.111 210.17 123.111L210.158 123.1Z" fill="white"/>
<path d="M219.308 129.447C219.308 129.447 219.262 129.447 219.239 129.447C218.93 129.413 218.701 129.127 218.735 128.817C219.021 126.32 219.605 122.023 220.453 118.54C219.605 118.391 218.598 118.116 217.43 117.646C217.189 117.555 216.972 117.451 216.765 117.36C216.09 121.061 214.624 125.644 213.754 128.222C213.651 128.519 213.33 128.68 213.032 128.577C212.735 128.474 212.574 128.153 212.678 127.855C214.097 123.684 215.174 119.64 215.701 116.775C213.834 115.572 213.502 114.243 213.456 113.648C213.387 112.788 213.754 112.021 214.395 111.631C215.002 111.276 215.758 111.31 216.422 111.746C217.212 112.261 217.281 113.98 216.972 116.18C217.235 116.317 217.544 116.455 217.876 116.581C218.941 117.005 219.914 117.28 220.762 117.417C221.426 115.011 222.239 113.212 223.201 113.063C223.945 112.949 224.621 113.35 225.044 114.129C225.537 115.034 225.651 116.5 224.712 117.566C224.174 118.173 223.258 118.712 221.644 118.666C221.002 121.37 220.361 125.036 219.903 128.955C219.869 129.241 219.617 129.459 219.33 129.459L219.308 129.447ZM223.418 114.186C223.418 114.186 223.373 114.186 223.361 114.186C222.949 114.301 222.434 115.538 221.907 117.497C222.766 117.474 223.43 117.245 223.831 116.787C224.38 116.168 224.335 115.252 224.014 114.667C223.945 114.553 223.728 114.186 223.418 114.186ZM215.277 112.525C215.162 112.525 215.059 112.548 214.968 112.605C214.693 112.765 214.544 113.132 214.578 113.544C214.601 113.842 214.773 114.656 215.895 115.504C216.113 113.922 216.101 112.891 215.781 112.685C215.609 112.57 215.437 112.513 215.277 112.513V112.525Z" fill="#1C2024"/>
<path d="M208.99 124.601C208.99 124.601 225.709 128.095 225.743 129.069C225.777 130.043 224.587 134.466 223.545 134.878C222.502 135.291 207.57 132.85 207.422 131.556C207.273 130.261 208.235 124.475 208.99 124.601Z" fill="#A3C7FF"/>
<path d="M212.139 130.88C212.139 130.88 210.754 136.437 211.189 136.929C211.624 137.422 219.594 139.106 220.304 138.258C221.014 137.41 222.125 132.117 221.22 131.51C220.315 130.903 212.208 130.238 212.139 130.891V130.88Z" fill="#A3C7FF"/>
<path d="M224.953 131.418C224.873 131.418 224.781 131.395 224.701 131.361C221.105 129.631 208.109 127.179 207.983 127.156C207.674 127.099 207.467 126.801 207.525 126.491C207.582 126.182 207.88 125.976 208.189 126.033C208.727 126.136 221.46 128.542 225.193 130.341C225.48 130.479 225.594 130.822 225.457 131.109C225.354 131.315 225.159 131.43 224.942 131.43L224.953 131.418Z" fill="#1C2024"/>
<path d="M224.209 134.168C224.094 134.168 223.968 134.134 223.876 134.053C223.098 133.492 214.693 131.682 207.181 130.272C206.872 130.215 206.666 129.917 206.723 129.608C206.78 129.299 207.101 129.092 207.387 129.15C210.021 129.642 223.224 132.163 224.541 133.125C224.793 133.309 224.85 133.675 224.667 133.927C224.552 134.076 224.38 134.168 224.209 134.168Z" fill="#1C2024"/>
<path d="M234.606 115.71C234.606 115.71 234.549 115.71 234.514 115.71C234.205 115.664 233.988 115.366 234.045 115.057C234.549 111.952 234.091 109.546 232.671 107.884C230.621 105.467 227.174 105.432 227.14 105.432C226.819 105.432 226.568 105.18 226.568 104.859C226.568 104.539 226.819 104.287 227.14 104.287C227.358 104.287 231.148 104.332 233.541 107.128C235.19 109.053 235.74 111.78 235.179 115.24C235.133 115.526 234.892 115.721 234.617 115.721L234.606 115.71Z" fill="#1C2024"/>
<path d="M214.693 138.086C214.487 138.086 214.292 137.983 214.189 137.788C213.227 136.047 214.006 133.927 214.04 133.847C214.155 133.549 214.475 133.4 214.773 133.515C215.071 133.629 215.22 133.95 215.105 134.248C215.105 134.26 214.475 135.967 215.185 137.239C215.334 137.514 215.243 137.869 214.956 138.018C214.865 138.063 214.773 138.086 214.681 138.086H214.693Z" fill="#1C2024"/>
<path d="M218.14 138.522C217.991 138.522 217.83 138.465 217.716 138.339C216.582 137.101 217.281 134.317 217.372 134.008C217.453 133.698 217.773 133.526 218.071 133.607C218.38 133.687 218.552 134.008 218.472 134.305C218.254 135.107 217.991 136.952 218.552 137.559C218.769 137.789 218.746 138.155 218.517 138.373C218.403 138.476 218.266 138.522 218.128 138.522H218.14Z" fill="#1C2024"/>
</g>
<defs>
<clipPath id="clip0_2_22894">
<rect width="252" height="244" fill="white"/>
</clipPath>
</defs>
</svg>
