<svg width="18" height="18" viewBox="0 0 18 18" fill="none" xmlns="http://www.w3.org/2000/svg">
<path d="M10.9971 18C10.7822 18 10.5732 17.9317 10.4013 17.8054L6.40702 14.8865C6.28368 14.7959 6.18357 14.6783 6.11463 14.5432C6.04568 14.4081 6.00978 14.2592 6.00978 14.1081V10.5373L0.38984 3.10378C0.171017 2.81419 0.0385587 2.47075 0.00722349 2.11175C-0.0241117 1.75274 0.0469069 1.39226 0.212366 1.07047C0.377826 0.748674 0.631228 0.478209 0.944341 0.289205C1.25745 0.100201 1.61798 8.13167e-05 1.98575 0H16.0143C16.382 8.13167e-05 16.7425 0.100201 17.0557 0.289205C17.3688 0.478209 17.6222 0.748674 17.7876 1.07047C17.9531 1.39226 18.0241 1.75274 17.9928 2.11175C17.9614 2.47075 17.829 2.81419 17.6102 3.10378L11.9902 10.5373V17.027C11.9902 17.2851 11.8856 17.5326 11.6993 17.715C11.5131 17.8975 11.2605 18 10.9971 18ZM7.99598 13.6216L10.004 15.0879V10.2162C10.004 10.0057 10.0737 9.80085 10.2026 9.63243L16.0143 1.94595H1.98575L7.80133 9.63243C7.93026 9.80085 7.99995 10.0057 7.99995 10.2162L7.99598 13.6216Z" fill="#6A737D"/>
</svg>
