<svg width="17" height="10" viewBox="0 0 17 10" fill="none" xmlns="http://www.w3.org/2000/svg">
<path d="M1.5625 0H0.520833C0.233185 0 0 0.223858 0 0.5V1.5C0 1.77614 0.233185 2 0.520833 2H1.5625C1.85015 2 2.08333 1.77614 2.08333 1.5V0.5C2.08333 0.223858 1.85015 0 1.5625 0Z" fill="#6A737D"/>
<path d="M1.5625 4H0.520833C0.233185 4 0 4.22386 0 4.5V5.5C0 5.77614 0.233185 6 0.520833 6H1.5625C1.85015 6 2.08333 5.77614 2.08333 5.5V4.5C2.08333 4.22386 1.85015 4 1.5625 4Z" fill="#6A737D"/>
<path d="M1.5625 8H0.520833C0.233185 8 0 8.22386 0 8.5V9.5C0 9.77614 0.233185 10 0.520833 10H1.5625C1.85015 10 2.08333 9.77614 2.08333 9.5V8.5C2.08333 8.22386 1.85015 8 1.5625 8Z" fill="#6A737D"/>
<path d="M15.625 2H5.20833C4.93207 2 4.66711 1.89464 4.47176 1.70711C4.27641 1.51957 4.16667 1.26522 4.16667 1C4.16667 0.734784 4.27641 0.48043 4.47176 0.292893C4.66711 0.105357 4.93207 0 5.20833 0H15.625C15.9013 0 16.1662 0.105357 16.3616 0.292893C16.5569 0.48043 16.6667 0.734784 16.6667 1C16.6667 1.26522 16.5569 1.51957 16.3616 1.70711C16.1662 1.89464 15.9013 2 15.625 2Z" fill="#6A737D"/>
<path d="M15.625 6H5.20833C4.93207 6 4.66711 5.89464 4.47176 5.70711C4.27641 5.51957 4.16667 5.26522 4.16667 5C4.16667 4.73478 4.27641 4.48043 4.47176 4.29289C4.66711 4.10536 4.93207 4 5.20833 4H15.625C15.9013 4 16.1662 4.10536 16.3616 4.29289C16.5569 4.48043 16.6667 4.73478 16.6667 5C16.6667 5.26522 16.5569 5.51957 16.3616 5.70711C16.1662 5.89464 15.9013 6 15.625 6Z" fill="#6A737D"/>
<path d="M15.625 10H5.20833C4.93207 10 4.66711 9.89464 4.47176 9.70711C4.27641 9.51957 4.16667 9.26522 4.16667 9C4.16667 8.73478 4.27641 8.48043 4.47176 8.29289C4.66711 8.10536 4.93207 8 5.20833 8H15.625C15.9013 8 16.1662 8.10536 16.3616 8.29289C16.5569 8.48043 16.6667 8.73478 16.6667 9C16.6667 9.26522 16.5569 9.51957 16.3616 9.70711C16.1662 9.89464 15.9013 10 15.625 10Z" fill="#6A737D"/>
</svg>
