<svg width="18" height="12" viewBox="0 0 18 12" fill="none" xmlns="http://www.w3.org/2000/svg">
<path d="M16.2 0H1.8C1.32261 0 0.864773 0.180612 0.527208 0.502103C0.189642 0.823594 0 1.25963 0 1.71429V10.2857C0 10.7404 0.189642 11.1764 0.527208 11.4979C0.864773 11.8194 1.32261 12 1.8 12H16.2C16.6774 12 17.1352 11.8194 17.4728 11.4979C17.8104 11.1764 18 10.7404 18 10.2857V1.71429C18 1.25963 17.8104 0.823594 17.4728 0.502103C17.1352 0.180612 16.6774 0 16.2 0ZM16.2 6.85714H9.9V5.14286H16.2V6.85714ZM1.8 1.71429H16.2V3.42857H1.8V1.71429ZM8.1 5.14286V6.85714H1.8V5.14286H8.1ZM1.8 8.57143H8.1V10.2857H1.8V8.57143ZM9.9 10.2857V8.57143H16.2V10.2857H9.9Z" fill="#6A737D"/>
</svg>
