<svg width="15" height="15" viewBox="0 0 15 15" fill="none" xmlns="http://www.w3.org/2000/svg">
<path d="M7.5 15C6.01664 15 4.56659 14.5601 3.33323 13.736C2.09986 12.9119 1.13856 11.7406 0.570907 10.3701C0.00324963 8.99968 -0.145275 7.49168 0.144114 6.03683C0.433503 4.58197 1.14781 3.2456 2.1967 2.1967C3.2456 1.14781 4.58197 0.433503 6.03683 0.144114C7.49168 -0.145275 8.99968 0.00324963 10.3701 0.570907C11.7406 1.13856 12.9119 2.09986 13.736 3.33323C14.5601 4.56659 15 6.01664 15 7.5C14.9978 9.48845 14.2069 11.3948 12.8009 12.8009C11.3948 14.2069 9.48845 14.9978 7.5 15ZM7.5 1.5C6.31331 1.5 5.15328 1.8519 4.16658 2.51119C3.17989 3.17047 2.41085 4.10755 1.95673 5.2039C1.5026 6.30026 1.38378 7.50666 1.61529 8.67054C1.8468 9.83443 2.41825 10.9035 3.25736 11.7426C4.09648 12.5818 5.16558 13.1532 6.32946 13.3847C7.49335 13.6162 8.69975 13.4974 9.7961 13.0433C10.8925 12.5892 11.8295 11.8201 12.4888 10.8334C13.1481 9.84673 13.5 8.68669 13.5 7.5C13.4982 5.90925 12.8655 4.38417 11.7407 3.25934C10.6158 2.1345 9.09075 1.50179 7.5 1.5Z" fill="#6A737D"/>
<path d="M7.5 11.25C7.30109 11.25 7.11032 11.171 6.96967 11.0303C6.82902 10.8897 6.75 10.6989 6.75 10.5V7.5H6C5.80109 7.5 5.61032 7.42098 5.46967 7.28033C5.32902 7.13968 5.25 6.94892 5.25 6.75C5.25 6.55109 5.32902 6.36032 5.46967 6.21967C5.61032 6.07902 5.80109 6 6 6H7.5C7.69891 6 7.88968 6.07902 8.03033 6.21967C8.17098 6.36032 8.25 6.55109 8.25 6.75V10.5C8.25 10.6989 8.17098 10.8897 8.03033 11.0303C7.88968 11.171 7.69891 11.25 7.5 11.25Z" fill="#6A737D"/>
<path d="M9 11.25H6C5.80109 11.25 5.61032 11.171 5.46967 11.0303C5.32902 10.8897 5.25 10.6989 5.25 10.5C5.25 10.3011 5.32902 10.1103 5.46967 9.96967C5.61032 9.82902 5.80109 9.75 6 9.75H9C9.19891 9.75 9.38968 9.82902 9.53033 9.96967C9.67098 10.1103 9.75 10.3011 9.75 10.5C9.75 10.6989 9.67098 10.8897 9.53033 11.0303C9.38968 11.171 9.19891 11.25 9 11.25Z" fill="#6A737D"/>
<path d="M7.125 5.25C7.74632 5.25 8.25 4.74632 8.25 4.125C8.25 3.50368 7.74632 3 7.125 3C6.50368 3 6 3.50368 6 4.125C6 4.74632 6.50368 5.25 7.125 5.25Z" fill="#6A737D"/>
</svg>
