<svg width="9" height="17" viewBox="0 0 9 17" fill="none" xmlns="http://www.w3.org/2000/svg">
<path d="M5.19861 3.65061C5.85572 3.80464 6.45072 4.17038 6.90063 4.69682C6.97004 4.78224 7.05479 4.85245 7.15002 4.90345C7.24524 4.95445 7.3491 4.98523 7.45565 4.99404C7.5622 5.00285 7.66935 4.98952 7.771 4.9548C7.87264 4.92008 7.96679 4.86466 8.04805 4.7917C8.12932 4.71874 8.19612 4.62967 8.24464 4.52957C8.29316 4.42948 8.32244 4.32032 8.33083 4.20833C8.33921 4.09633 8.32652 3.9837 8.29349 3.87687C8.26046 3.77003 8.20773 3.67107 8.13832 3.58565C7.46588 2.78681 6.57291 2.22861 5.58406 1.98899C5.41492 1.94625 5.24821 1.93087 5.07988 1.90352V0.854745C5.07988 0.628052 4.9942 0.410645 4.8417 0.250349C4.68919 0.0900532 4.48235 0 4.26668 0C4.05101 0 3.84417 0.0900532 3.69166 0.250349C3.53916 0.410645 3.45348 0.628052 3.45348 0.854745V1.92916C2.76695 2.01397 2.1173 2.30143 1.57977 2.75826C1.04224 3.2151 0.638809 3.82262 0.416186 4.51049C0.314366 4.91793 0.293224 5.34301 0.354072 5.75939C0.41492 6.17577 0.556462 6.57458 0.769928 6.93112C1.49978 8.13653 2.65412 8.98905 3.98043 9.30219C4.8789 9.50726 5.66627 10.0716 6.17607 10.8758C6.27569 11.0362 6.34389 11.2159 6.3767 11.4043C6.40951 11.5927 6.40627 11.7862 6.36717 11.9733C6.08093 13.0614 4.61066 13.6639 3.15179 13.2913C2.48803 13.1361 1.88799 12.7642 1.43756 12.2288C1.36906 12.1427 1.28508 12.0716 1.19042 12.0195C1.09576 11.9675 0.992283 11.9356 0.885886 11.9256C0.671008 11.9054 0.457296 11.9757 0.291767 12.1211C0.126237 12.2666 0.0224486 12.4751 0.00323311 12.701C-0.00628146 12.8128 0.00525376 12.9255 0.0371798 13.0327C0.0691059 13.1398 0.120798 13.2393 0.189304 13.3255C0.863091 14.1399 1.76542 14.7085 2.76633 14.9495C2.9936 15.0068 3.22425 15.0482 3.45674 15.0734V15.8119C3.45674 16.0386 3.54241 16.256 3.69492 16.4163C3.84742 16.5766 4.05426 16.6667 4.26993 16.6667C4.48561 16.6667 4.69245 16.5766 4.84495 16.4163C4.99746 16.256 5.08313 16.0386 5.08313 15.8119V14.9777C5.73439 14.8658 6.34422 14.5691 6.84681 14.1196C7.3494 13.6701 7.72567 13.0849 7.93502 12.4271C8.03596 12.0197 8.05643 11.5949 7.99517 11.1789C7.93391 10.7629 7.79222 10.3645 7.57884 10.0082C6.84843 8.80427 5.6951 7.95238 4.36996 7.638C3.47169 7.43296 2.6844 6.86902 2.17432 6.06527C2.07481 5.90464 2.00667 5.72482 1.97386 5.53626C1.94105 5.3477 1.94423 5.15417 1.98322 4.96692C2.27028 3.88054 3.74298 3.27795 5.19861 3.65061Z" fill="#6A737D"/>
</svg>
