<svg width="17" height="14" viewBox="0 0 17 14" fill="none" xmlns="http://www.w3.org/2000/svg">
<path d="M8.33333 10.5882C7.59165 10.5882 6.86663 10.3812 6.24995 9.99343C5.63326 9.60561 5.15261 9.05439 4.86878 8.40948C4.58496 7.76456 4.51069 7.05491 4.65539 6.37028C4.80008 5.68564 5.15724 5.05676 5.68168 4.56316C6.20613 4.06956 6.87432 3.73342 7.60174 3.59724C8.32917 3.46105 9.08317 3.53095 9.7684 3.79808C10.4536 4.06521 11.0393 4.51759 11.4513 5.098C11.8634 5.6784 12.0833 6.36078 12.0833 7.05883C12.0822 7.99457 11.6868 8.89168 10.9838 9.55335C10.2807 10.215 9.32756 10.5872 8.33333 10.5882ZM8.33333 5.09805C7.92129 5.09805 7.5185 5.21304 7.1759 5.4285C6.83329 5.64395 6.56627 5.95018 6.40858 6.30847C6.2509 6.66676 6.20964 7.061 6.29003 7.44136C6.37042 7.82171 6.56883 8.17109 6.86019 8.44531C7.15155 8.71953 7.52277 8.90628 7.92689 8.98194C8.33102 9.05759 8.74991 9.01876 9.13059 8.87036C9.51127 8.72195 9.83664 8.47063 10.0656 8.14818C10.2945 7.82573 10.4167 7.44664 10.4167 7.05883C10.4167 6.5388 10.1972 6.04007 9.80647 5.67235C9.41577 5.30463 8.88587 5.09805 8.33333 5.09805Z" fill="#6A737D"/>
<path d="M15 13.3333H1.66667C1.22464 13.3333 0.800716 13.1681 0.488155 12.8739C0.175595 12.5797 0 12.1807 0 11.7647V3.92158C0 3.29754 0.263392 2.69906 0.732233 2.2578C1.20107 1.81654 1.83696 1.56864 2.5 1.56864H3.65167L3.79417 1.3004C4.00059 0.908731 4.31946 0.57931 4.71462 0.349474C5.10979 0.119638 5.56547 -0.00142259 6.03 1.26143e-05H10.6367C11.1012 -0.00133136 11.5568 0.119767 11.952 0.349593C12.3471 0.579419 12.666 0.908789 12.8725 1.3004L13.015 1.56864H14.1667C14.8297 1.56864 15.4656 1.81654 15.9344 2.2578C16.4033 2.69906 16.6667 3.29754 16.6667 3.92158V11.7647C16.6667 12.1807 16.4911 12.5797 16.1785 12.8739C15.866 13.1681 15.442 13.3333 15 13.3333ZM2.5 3.13726C2.27899 3.13726 2.06702 3.2199 1.91074 3.36698C1.75446 3.51407 1.66667 3.71357 1.66667 3.92158V11.7647H15V3.92158C15 3.71357 14.9122 3.51407 14.7559 3.36698C14.5996 3.2199 14.3877 3.13726 14.1667 3.13726H12.5C12.3451 3.13733 12.1933 3.09679 12.0616 3.02017C11.9298 2.94356 11.8234 2.83392 11.7542 2.70354L11.3817 2.00236C11.313 1.8717 11.2068 1.76178 11.0751 1.68511C10.9434 1.60843 10.7915 1.56808 10.6367 1.56864H6.03C5.87516 1.56817 5.72328 1.60856 5.5916 1.68523C5.45991 1.76189 5.3537 1.87176 5.285 2.00236L4.91667 2.70354C4.84713 2.83452 4.74003 2.94456 4.60748 3.02121C4.47493 3.09786 4.32223 3.13806 4.16667 3.13726H2.5Z" fill="#6A737D"/>
</svg>
