<svg width="131" height="32" viewBox="0 0 131 32" fill="none" xmlns="http://www.w3.org/2000/svg">
<path fill-rule="evenodd" clip-rule="evenodd" d="M27.3048 0H7.37951C5.14525 0 3.33415 1.81655 3.33415 4.05741C3.33415 6.29828 5.14525 8.11474 7.37951 8.11474H17.5385L1.18505 24.5168C-0.395017 26.101 -0.395017 28.67 1.18505 30.2547C2.76477 31.8391 5.3262 31.8391 6.90592 30.2547L23.2594 13.8528V24.0416C23.2594 26.2825 25.0706 28.099 27.3048 28.099C29.5391 28.099 31.3502 26.2825 31.3502 24.0416V4.05741C31.3502 1.81655 29.5391 0 27.3048 0Z" fill="#0065FF"/>
<path fill-rule="evenodd" clip-rule="evenodd" d="M41.3955 31.4429H61.3209C63.5551 31.4429 65.3663 29.6265 65.3663 27.3856C65.3663 25.1448 63.5551 23.3282 61.3209 23.3282H51.1619L67.5154 6.92635C69.0954 5.34196 69.0954 2.77295 67.5154 1.18856C65.9356 -0.396185 63.3743 -0.396185 61.7945 1.18856L45.4409 17.5904V7.40134C45.4409 5.16047 43.6298 3.34402 41.3955 3.34402C39.1613 3.34402 37.3501 5.16047 37.3501 7.40134V27.3856C37.3501 29.6265 39.1613 31.4429 41.3955 31.4429Z" fill="#0065FF"/>
<path fill-rule="evenodd" clip-rule="evenodd" d="M81.2441 10.497C83.5223 10.497 84.3787 8.53162 84.3787 6.58259C84.3787 4.53529 83.5223 2.56981 81.2441 2.56981C78.9661 2.56981 78.1096 4.5352 78.1096 6.58259C78.1096 8.53153 78.9661 10.497 81.2441 10.497ZM81.2441 0.407959C84.8149 0.407959 86.9153 3.11033 86.9153 6.58259C86.9153 9.95649 84.8149 12.6589 81.2441 12.6589C77.6734 12.6589 75.573 9.95649 75.573 6.58259C75.573 3.11033 77.6734 0.407959 81.2441 0.407959ZM87.7877 4.13897H89.9099V5.72109H89.9413C90.3501 4.64992 91.4505 3.90822 92.5353 3.90822C92.6926 3.90822 92.8811 3.94138 93.0226 3.99082V6.16597C92.8181 6.11653 92.4881 6.08363 92.2208 6.08363C90.5861 6.08363 90.0201 7.31948 90.0201 8.81925V12.6589H87.7877V4.13897ZM99.8504 8.37183C99.435 8.709 98.5691 8.7251 97.8076 8.85356C97.0459 8.99794 96.3535 9.23885 96.3535 10.0738C96.3535 10.9248 97.063 11.1335 97.8595 11.1335C99.781 11.1335 99.8504 9.72057 99.8504 9.22292V8.37183ZM94.1721 6.68602C94.3109 4.5506 96.371 3.90822 98.3786 3.90822C100.162 3.90822 102.308 4.27741 102.308 6.26844V10.5878C102.308 11.3422 102.395 12.0967 102.62 12.4341H100.127C100.041 12.1771 99.9715 11.9042 99.954 11.6314C99.1751 12.3858 98.0328 12.6589 96.942 12.6589C95.2457 12.6589 93.8951 11.8722 93.8951 10.1702C93.8951 8.29159 95.4188 7.84198 96.942 7.6492C98.448 7.4405 99.8504 7.48872 99.8504 6.55739C99.8504 5.5781 99.1232 5.43354 98.2575 5.43354C97.3229 5.43354 96.7173 5.78681 96.6305 6.68602H94.1721ZM103.492 4.13897H105.678V5.32556H105.727C106.31 4.36973 107.314 3.90822 108.285 3.90822C110.73 3.90822 111.345 5.30902 111.345 7.41845V12.6589H109.046V7.84697C109.046 6.44617 108.641 5.75399 107.573 5.75399C106.326 5.75399 105.792 6.46279 105.792 8.19297V12.6589H103.493L103.492 4.13897ZM118.646 8.39082C118.646 6.97532 118.153 5.71138 116.588 5.71138C115.228 5.71138 114.632 6.89114 114.632 8.18851C114.632 9.43547 115.109 10.8005 116.588 10.8005C117.966 10.8005 118.646 9.63762 118.646 8.39082ZM120.942 12.3002C120.942 13.7326 120.432 16.1591 116.384 16.1591C114.65 16.1591 112.626 15.3501 112.507 13.3618H114.904C115.126 14.2548 115.857 14.5583 116.707 14.5583C118.051 14.5583 118.663 13.6483 118.646 12.4012V11.2555H118.612C118.085 12.1654 117.03 12.6037 115.976 12.6037C113.34 12.6037 112.217 10.6151 112.217 8.22229C112.217 5.96409 113.527 3.9083 115.993 3.9083C117.15 3.9083 118.034 4.29596 118.612 5.3071H118.646V4.14413H120.942V12.3002ZM128.124 7.39237C127.904 6.23624 127.38 5.62632 126.213 5.62632C124.69 5.62632 124.25 6.75016 124.216 7.39237H128.124ZM124.216 8.83737C124.284 10.2824 125.029 10.9408 126.365 10.9408C127.329 10.9408 128.107 10.3786 128.259 9.86487H130.374C129.697 11.824 128.259 12.6589 126.28 12.6589C123.523 12.6589 121.815 10.8606 121.815 8.29141C121.815 5.80291 123.625 3.90822 126.28 3.90822C129.257 3.90822 130.695 6.28437 130.526 8.83746L124.216 8.83737ZM81.3039 24.584H81.3379L84.0266 16.1591H87.7877V28.41H85.2861V19.7279H85.252L82.2737 28.41H80.2146L77.2365 19.8137H77.2023V28.41H74.7005V16.1591H78.4618L81.3039 24.584ZM93.8869 26.692C95.4687 26.692 95.9418 25.3593 95.9418 24.0427C95.9418 22.7099 95.4687 21.3774 93.8869 21.3774C92.3213 21.3774 91.8485 22.7099 91.8485 24.0427C91.8485 25.3593 92.3213 26.692 93.8869 26.692ZM93.8869 19.6594C96.5451 19.6594 98.2575 21.3936 98.2575 24.0427C98.2575 26.6758 96.5451 28.41 93.8869 28.41C91.2452 28.41 89.5327 26.6758 89.5327 24.0427C89.5327 21.3936 91.2452 19.6594 93.8869 19.6594ZM99.13 19.8901H101.316V21.0767H101.364C101.947 20.1211 102.951 19.6594 103.922 19.6594C106.367 19.6594 106.982 21.0602 106.982 23.1697V28.41H104.683V23.598C104.683 22.1973 104.279 21.5053 103.21 21.5053C101.963 21.5053 101.429 22.2139 101.429 23.9441V28.41H99.1301L99.13 19.8901ZM114.164 23.1436C113.945 21.9875 113.42 21.3774 112.253 21.3774C110.731 21.3774 110.291 22.5015 110.257 23.1436H114.164ZM110.257 24.5887C110.325 26.0334 111.069 26.692 112.405 26.692C113.369 26.692 114.148 26.1299 114.3 25.6161H116.414C115.738 27.5749 114.3 28.41 112.321 28.41C109.563 28.41 107.855 26.6115 107.855 24.0425C107.855 21.5542 109.665 19.6594 112.321 19.6594C115.298 19.6594 116.736 22.0357 116.566 24.5886L110.257 24.5887ZM121.756 29.131C121.246 30.4816 120.441 31.0352 118.831 31.0352C118.354 31.0352 117.878 31.0025 117.401 30.9537V29.0496C117.845 29.0822 118.305 29.1474 118.765 29.131C119.57 29.0496 119.833 28.2197 119.57 27.5525L116.58 19.6594H119.077L121 25.4205H121.033L122.889 19.6594H125.305L121.756 29.131Z" fill="#0065FF"/>
</svg>
