<svg width="123" height="123" viewBox="0 0 123 123" fill="none" xmlns="http://www.w3.org/2000/svg">
<path d="M119 61.0901C119 74.2001 93.22 84.8401 61.42 84.8401C29.62 84.8401 3.85001 74.2001 3.85001 61.0901C3.85001 47.9801 29.64 37.3401 61.45 37.3401C93.26 37.3401 119 48.0001 119 61.0901Z" fill="#0065FF"/>
<path d="M24.55 72.8101L30.5 49.0601H40.02V62.8901L46.27 49.0601H56.1L50.15 72.8101H43.89L47.46 57.4801L40.02 72.8101H34.97V57.4801L31.09 72.8101H24.55Z" fill="white"/>
<path d="M58.02 73.11L58.91 69.8H65.76L64.86 73.11H58.02Z" fill="white"/>
<path d="M73.34 72.8101L79.29 49.0601H86.14L89.12 61.6901L92.39 49.0601H98.64L92.69 72.8101H86.14L82.87 59.8801L79.59 72.8101H73.34Z" fill="white"/>
<path d="M58.02 49.0601L56.53 55.0801H62.79L59.42 68.1201H66.26L69.64 55.0801H75.88L77.37 49.0601H58.02Z" fill="white"/>
</svg>
