<svg width="30" height="30" viewBox="0 0 30 30" fill="none" xmlns="http://www.w3.org/2000/svg">
<path d="M25.3125 22.97H4.6875C3.99714 22.97 3.4375 23.5296 3.4375 24.22V25.47C3.4375 26.1603 3.99714 26.72 4.6875 26.72H25.3125C26.0029 26.72 26.5625 26.1603 26.5625 25.47V24.22C26.5625 23.5296 26.0029 22.97 25.3125 22.97Z" stroke="#0065FF" stroke-width="1.5" stroke-linecap="round" stroke-linejoin="round"/>
<path d="M6.5625 12.3424V22.9799M23.4375 12.3424V22.9799M18.125 12.3424V22.9799M11.875 12.3424V22.9799M13.8 3.93744L4.0875 9.24994C3.89079 9.35757 3.72666 9.51613 3.61229 9.70901C3.49793 9.90188 3.43756 10.122 3.4375 10.3462V11.5924C3.4375 11.7914 3.51652 11.9821 3.65717 12.1228C3.79782 12.2634 3.98859 12.3424 4.1875 12.3424H25.8125C26.0114 12.3424 26.2022 12.2634 26.3428 12.1228C26.4835 11.9821 26.5625 11.7914 26.5625 11.5924V10.3462C26.5624 10.122 26.5021 9.90188 26.3877 9.70901C26.2733 9.51613 26.1092 9.35757 25.9125 9.24994L16.2 3.93744C15.8321 3.73613 15.4194 3.63062 15 3.63062C14.5806 3.63062 14.1679 3.73613 13.8 3.93744Z" stroke="#0065FF" stroke-width="1.5" stroke-linecap="round" stroke-linejoin="round"/>
</svg>
