<svg width="221" height="245" viewBox="0 0 221 245" fill="none" xmlns="http://www.w3.org/2000/svg">
<g clip-path="url(#clip0_2_17847)">
<path d="M30.0058 29.416C29.1117 25.5549 30.6611 21.2373 33.8076 18.8244C35.6031 17.4476 38.1527 16.7013 40.1361 17.7903C40.4961 17.1029 41.3032 16.5881 41.8772 16.0661C42.7217 15.2989 43.5949 14.5402 44.6219 14.0437C47.0851 12.8533 50.1714 13.4008 52.3656 15.0347C55.3432 13.2601 60.3913 14.7678 62.6071 20.0953C63.7729 22.898 63.8004 26.4216 61.779 28.6867C61.0714 29.4801 60.9785 29.6122 61.2299 30.6293C62.4873 35.7259 58.8413 40.7748 53.5922 41.1751C53.494 44.9734 52.9507 48.5375 52.268 52.2749C50.7913 49.5003 49.0357 46.8735 47.036 44.4468C46.4429 46.5033 44.1571 47.5361 42.0239 47.7244C39.8906 47.9128 37.7017 46.6812 36.7565 44.7614C34.3594 45.9813 31.3955 44.9165 29.2537 43.2904C23.9948 39.2972 25.7471 34.4243 30.0058 29.4153V29.416Z" fill="#DEEBFF"/>
<path d="M69.8016 221.398C69.6203 223.204 71.3602 225.118 73.6289 225.217C74.2292 225.249 74.8713 225.145 75.465 225.039C74.4046 224.08 73.7697 222.56 73.8476 220.967C73.8508 220.906 73.8751 220.852 73.8934 220.797C72.2327 221.1 70.9772 221.07 69.67 220.918C69.765 221.054 69.8206 221.219 69.8023 221.397L69.8016 221.398Z" fill="#0065FF"/>
<path d="M85.9539 221.995C84.5747 222.693 83.1575 223.23 81.7017 223.65C80.932 222.735 79.0127 220.358 78.656 219.21C78.6462 219.171 78.618 219.142 78.5984 219.104C79.0664 218.917 79.9422 218.14 80.5811 217.841C81.108 217.602 80.9352 217.573 81.2514 218.071C81.309 218.157 81.3666 218.253 81.4144 218.348C82.4604 220.177 83.962 221.284 85.9539 221.995Z" fill="#0065FF"/>
<path d="M77.3128 219.738C76.5895 220.056 75.8518 220.318 75.1056 220.52C75.2293 220.656 75.3007 220.84 75.2908 221.038C75.2182 222.515 75.9978 223.944 77.142 224.434C77.2637 224.486 77.3541 224.574 77.4274 224.673C78.3543 224.492 79.2726 224.295 80.1812 224.07C79.3073 222.998 77.7507 221.044 77.3122 219.739L77.3128 219.738Z" fill="#0065FF"/>
<path d="M56.8422 226.41C55.8086 228.498 55.6934 230.091 55.6725 230.186C55.6875 230.19 93.3232 241.002 93.3336 241.006C93.6249 240.833 93.9332 240.569 94.0929 240.244C94.5106 239.389 94.8477 238.506 95.1501 237.612C91.2102 236.464 57.0399 226.543 56.8422 226.41Z" fill="#0065FF"/>
<path d="M97.1021 225.278C96.8533 228.933 96.5659 232.694 95.5795 236.235C81.3922 232.093 57.7521 225.192 57.6434 225.192L57.5479 225.163C59.8304 221.742 62.9566 220.304 66.0718 220.483C66.9338 220.531 67.7671 220.665 68.6194 220.78C68.476 220.895 68.3798 221.067 68.3608 221.259C68.0905 223.923 70.4908 226.521 73.5615 226.666C73.8763 226.642 73.9948 226.761 75.9749 226.418C79.8827 225.709 83.6943 224.915 87.2952 222.934C87.4771 222.838 87.5923 222.676 87.6493 222.494C90.4024 223.113 94.4215 223.632 97.2264 223.307C97.3881 224.02 97.1309 224.705 97.1021 225.279V225.278Z" fill="#0065FF"/>
<path d="M170.395 228.451C171.718 229.695 174.297 229.484 175.758 227.747C176.15 227.291 176.458 226.719 176.736 226.184C175.329 226.44 173.736 226.017 172.519 224.983C172.473 224.944 172.445 224.892 172.413 224.843C171.64 226.344 170.852 227.319 169.934 228.263C170.1 228.271 170.265 228.328 170.395 228.45V228.451Z" fill="#0065FF"/>
<path d="M180.713 216.023C180.425 217.535 179.985 218.99 179.439 220.397C178.244 220.455 175.17 220.517 174.056 220.1C174.018 220.09 173.98 220.09 173.941 220.081C174.088 219.345 173.98 218.447 174.142 217.746C174.276 217.172 174.142 217.306 174.736 217.353C175.339 217.41 175.707 217.567 176.824 217.449C178.251 217.309 179.542 216.781 180.712 216.023H180.713Z" fill="#0065FF"/>
<path d="M173.657 221.489C173.468 222.256 173.226 222.999 172.931 223.714C173.115 223.699 173.304 223.754 173.455 223.883C174.583 224.841 176.191 225.094 177.277 224.486C177.393 224.421 177.518 224.404 177.641 224.406C178.063 223.561 178.467 222.713 178.842 221.857C177.459 221.895 174.959 221.936 173.657 221.489Z" fill="#0065FF"/>
<path d="M197.145 219.403C196.246 220.04 166.722 241.687 166.472 241.771C167.021 242.89 167.694 243.899 168.593 244.843C168.645 244.898 168.706 244.943 168.754 245C168.792 244.971 200.2 221.833 200.296 221.763C200.336 221.427 200.315 221.022 200.154 220.697C199.731 219.845 199.235 219.04 198.711 218.255C198.615 218.325 197.045 219.475 197.145 219.403V219.403Z" fill="#0065FF"/>
<path d="M197.875 217.076C196.133 218.353 186.924 225.084 165.906 240.446C164.596 236.519 165.362 233.207 167.4 230.848C167.956 230.197 168.568 229.613 169.182 229.02C169.191 229.192 169.268 229.374 169.402 229.499C171.579 231.547 175.373 230.787 177.025 228.475C177.485 227.881 177.83 227.212 178.136 226.628C179.966 223.096 181.651 219.593 182.283 215.526C182.312 215.325 182.254 215.133 182.139 214.98C183.982 213.484 187.119 210.415 188.623 207.889C189.291 208.182 189.641 208.804 190.116 209.19C192.865 211.621 195.671 214.138 197.874 217.076H197.875Z" fill="#0065FF"/>
<path d="M130.688 98.1511C123.792 98.3702 119.825 98.3716 119.73 98.3729C119.672 97.0536 119.604 95.7245 119.546 94.4045C121.653 94.7846 123.773 95.2235 125.734 95.907C126.156 96.1562 130.035 97.8895 130.688 98.1511Z" fill="#A3C7FF"/>
<path d="M126.58 37.8386C121.096 39.5733 116.304 43.938 112.494 48.0809C114.265 48.7926 115.089 50.8058 115.574 52.651C116.992 58.042 117.111 63.6769 117.222 69.2497C117.222 69.2379 119.175 67.6936 119.329 67.5628C120.435 66.6229 121.546 66.0146 122.69 65.163C123.806 64.3323 124.708 63.0921 124.647 61.644C124.58 60.0781 123.266 58.3284 124.301 56.4381C124.686 55.7363 125.342 55.234 125.924 54.6845C127.348 53.3397 128.399 51.6051 128.933 49.7214L126.579 37.8386H126.58Z" fill="#A3C7FF"/>
<path d="M110.244 92.8143L86.9498 96.4676C85.8566 96.6391 85.1094 97.6636 85.281 98.756L85.517 100.258C85.6886 101.351 86.7139 102.097 87.8071 101.926L111.101 98.2725C112.194 98.1011 112.941 97.0765 112.77 95.9842L112.534 94.4818C112.362 93.3894 111.337 92.6429 110.244 92.8143Z" fill="#0065FF"/>
<path d="M149.136 40.2673C149.146 40.459 149.155 40.6598 149.174 40.8508C149.231 40.6788 149.26 40.4969 149.279 40.3151C149.231 40.2961 149.184 40.2863 149.136 40.2673Z" fill="#A3C7FF"/>
<path d="M137.634 39.406C137.605 38.784 137.547 38.1619 137.509 37.5301C137.48 37.5301 137.461 37.5203 137.433 37.5203C137.433 38.506 137.509 39.4917 137.653 40.4682C137.643 40.1137 137.643 39.7598 137.634 39.406Z" fill="#A3C7FF"/>
<path d="M159.671 50.8426C159.566 49.3879 159.432 47.8947 158.761 46.5839C157.278 43.6196 152.411 41.4055 149.28 40.3158C149.261 40.4976 149.232 40.6795 149.174 40.8515C149.174 40.9189 149.174 40.9954 149.184 41.0621C147.217 43.4234 143.623 44.8126 140.268 43.7995C139.424 43.5313 138.649 42.8903 138.103 42.1152C137.715 41.5507 137.708 41.0889 137.653 40.4689C137.509 39.493 137.433 38.5066 137.433 37.5209C135.316 37.1383 133.161 36.8322 131.026 37.0519C128.459 37.3005 124.624 37.1762 123.852 39.6166C120.452 50.4881 119.303 61.8005 119.111 73.2273C120.501 72.9958 121.163 75.0738 121.678 76.3852C122.957 79.6112 125.999 83.9948 129.043 85.1323C129.223 85.1944 129.8 85.3619 129.924 85.3619C131.23 86.1088 142.813 89.5362 146.8 88.8645C147.489 88.7494 147.805 88.0796 148.131 87.5151C150.152 84.108 152.048 80.6243 153.82 77.0838L160.677 79.4575C161.003 70.021 160.4 60.614 159.672 50.8426H159.671ZM139.865 75.3995C139.625 75.6566 139.162 75.6998 138.85 75.4093C138.562 75.132 138.553 74.6722 138.84 74.385C141.437 71.7229 145.529 66.0501 144.414 62.499C143.954 61.0731 142.594 59.9154 141.109 59.7041C139.519 59.4647 137.786 60.1443 137.001 61.3027C136.595 61.8783 135.701 61.6147 135.679 60.9201C135.611 59.0638 133.176 57.4816 131.657 57.7144C130.019 57.9584 129.31 59.901 129.061 61.533C128.573 64.8923 129.531 68.4904 131.628 71.1506C131.877 71.4665 131.82 71.9257 131.503 72.1651C131.187 72.4136 130.738 72.3659 130.488 72.0506C128.151 69.0739 127.088 65.0644 127.634 61.3223C128.4 56.1459 132.054 54.9882 135.315 57.5614C135.985 58.0971 136.493 58.7387 136.8 59.4464C139.924 56.9936 144.6 58.3299 145.783 62.0588C147.126 66.2358 142.928 72.2625 139.864 75.3995H139.865Z" fill="#A3C7FF"/>
<path d="M172.38 74.3562C172.399 77.0458 172.419 79.7825 171.835 82.4335C171.681 83.1131 171.595 84.3473 171.097 84.9504C170.532 85.6908 169.798 85.0243 169.239 84.8261C167.044 83.9954 169.853 85.055 147.269 76.4617C147.461 75.9541 147.681 75.4668 147.949 74.9972L152.833 60.1541C156.405 37.2193 155.171 45.1416 155.439 43.4252C158.82 44.7648 161.856 46.8513 164.815 48.9758C165.504 49.4736 166.194 49.9713 166.826 50.5456C173.732 56.8333 172.314 65.944 172.381 74.3562H172.38Z" fill="#A3C7FF"/>
<path d="M69.8409 117.896C69.8652 116.035 70.3286 113.795 68.988 112.143C68.0827 110.994 67.3797 110.873 58.5049 106.713C56.843 105.976 56.8194 105.594 56.824 102.539C56.8286 100.404 56.8332 98.1968 55.5737 96.3562C54.3752 94.6105 52.1346 93.6627 51.4146 91.951C50.1512 88.9853 53.5374 84.1889 49.0784 81.8951C48.6143 81.6459 48.1286 81.4627 47.6763 81.2547C44.5814 79.8445 42.1372 77.0817 41.1377 73.8636C41.0441 73.564 40.8366 73.1768 40.5034 72.679C40.307 72.3854 39.9247 72.2787 39.6047 72.4279C28.5763 77.5448 17.7967 83.612 7.56371 90.4616C3.91967 92.9072 0.486407 95.7381 0.0439117 99.8542C-0.305633 103.131 1.51213 106.239 2.83962 108.508C20.7685 139.166 20.8523 139.314 23.5505 143.939C25.4658 147.214 27.9237 150.589 31.7026 150.589C33.6696 150.589 35.4586 149.565 36.9012 148.739C74.3457 127.149 70.072 130.072 73.7586 127.298C74.1396 127.018 74.1494 126.451 73.7776 126.157C71.3026 124.206 69.7951 121.041 69.8416 117.896H69.8409ZM1.47286 100.007C1.85186 96.4752 5.00889 93.9047 8.36295 91.6533C18.3557 84.9653 28.8722 79.0276 39.6315 73.9983C40.0105 74.6988 41.1501 80.0172 47.5748 82.7787C47.728 82.8441 47.8805 82.9207 48.033 82.9913C33.9105 92.1923 19.9235 101.605 6.09811 111.24C3.5662 106.78 1.09909 103.497 1.4722 100.007H1.47286ZM36.1864 147.493C34.8059 148.284 33.2487 149.205 31.6253 149.153C28.6464 149.124 26.4987 146.135 24.7909 143.215C17.6193 130.923 13.3129 123.585 12.9234 122.919C25.7544 113.213 38.9769 104.02 52.5339 95.3581C53.2002 95.9055 53.9085 96.4674 54.3896 97.1686C55.7132 99.1027 55.291 101.774 55.4153 104.374C55.5168 106.502 56.2499 107.284 57.9099 108.02C66.7683 112.169 67.2259 112.226 67.8667 113.04C68.8172 114.213 68.4264 116.099 68.4048 117.876C68.3564 121.15 69.7873 124.445 72.1863 126.683C69.9627 128.359 72.7446 126.47 36.1871 147.494L36.1864 147.493Z" fill="#1C2024"/>
<path d="M182.92 201.607C183.068 201.465 184.026 200.535 184.039 200.495C184.132 200.226 183.844 200.111 181.407 197.125C181.33 197.038 180.964 196.47 180.858 196.47C180.733 196.32 160.496 171.894 160.367 171.738C157.215 167.944 152.213 163.706 151.124 158.736C150.368 155.29 150.863 150.563 151.414 143.577C152.41 131.129 151.228 132.5 153.881 127.811C158.18 120.328 160.869 113.258 160.397 104.571C160.38 104.171 160.225 100.835 159.784 98.896C163.827 94.7125 166.754 90.2516 168.406 84.5094C167.956 84.3374 167.515 84.1647 167.065 83.9927C165.839 88.309 163.637 92.3663 160.63 95.8499C157.503 99.5252 152.839 104 148.045 103.64C145.794 103.467 143.582 102.607 141.407 101.755C127.783 96.3935 127.252 95.742 125.968 95.2279C120.658 93.369 114.68 93.3742 109.524 91.3714C108.777 91.0745 108.184 90.7873 107.714 90.3569C106.618 89.351 106.965 88.0775 107.887 88.0016C107.904 88.0055 107.917 88.0166 107.935 88.0192C111.079 88.4941 112.62 88.969 112.879 88.969C113.724 88.969 113.871 87.7504 113.046 87.5529C112.181 87.3455 108.646 86.5914 108.022 86.6045C107.475 86.3991 106.955 86.1741 106.564 85.8483C106.21 85.5324 106.018 85.121 106.076 84.7959C106.116 84.5964 106.311 84.4316 106.449 84.391C106.878 84.8613 110.497 86.1198 111.94 86.1198C112.834 86.1198 112.918 84.7953 112.023 84.6893C109.158 84.3492 107.575 83.3412 107.16 83.232C107.064 83.1045 106.931 83.0024 106.765 82.9586C106.411 82.8723 106.076 82.5662 105.894 82.1547C105.275 80.7812 106.912 80.029 107.819 80.6425C107.928 80.7125 108.051 80.74 108.174 80.7471C108.218 80.8714 108.283 80.9885 108.394 81.0762C110.027 82.3693 112.076 82.504 113.702 83.3491C114.049 83.5303 114.486 83.3988 114.67 83.043C115.464 81.5229 111.2 81.466 109.286 79.9511C109.173 79.8609 109.039 79.8242 108.905 79.8118C108.877 79.732 108.835 79.6561 108.777 79.5894C108.276 78.9798 108.722 77.877 110.147 77.7423C111.117 77.6756 112.182 78.0824 113.594 78.537C114.973 78.9484 116.266 79.4174 117.463 79.9439C118.06 80.199 118.667 79.5816 118.412 78.987C117.909 77.8352 117.299 76.353 117.799 75.1495C118.109 74.411 118.775 73.9754 119.226 73.9342C120.718 73.7478 120.532 78.4513 125.432 83.4472C126.64 84.6743 128.015 85.7332 129.7 86.0491C132.267 87.2173 143.065 90.2301 146.924 89.572C147.872 89.4092 148.332 88.6249 148.657 88.0408C149.256 86.9917 151.061 84.0522 153.695 78.9013C153.599 78.8647 152.554 78.4683 152.345 78.3938C150.822 81.3705 149.193 84.308 147.518 87.1506C147.242 87.615 147.007 88.1082 146.684 88.1553C143.412 88.7427 133.899 86.1283 130.741 84.9091C130.622 84.7855 130.464 84.6991 130.285 84.6828C129.764 84.6383 129.444 84.2511 128.981 84.3126C128.171 83.9567 127.348 83.3504 126.457 82.4425C122.798 78.7064 122.402 75.661 121.371 73.9061C120.632 72.681 119.633 72.1715 118.35 72.6986C116.929 57.1014 116.952 54.5393 115.606 51.0995C112.984 44.4749 106.449 44.3736 101.679 44.299C96.1373 44.1996 92.9986 45.0165 68.2104 49.1431C67.7404 49.221 67.474 49.7285 67.6802 50.1609C69.3631 53.6766 70.3482 57.314 71.3707 60.3554L71.4623 60.6315C71.7647 61.5491 72.1627 63.2354 71.4427 64.2178C71.2267 64.5095 70.9891 64.7908 70.7528 65.0714C68.1456 68.1704 68.7144 68.7094 70.2527 75.5635C71.1985 79.7732 71.2908 80.0277 71.2031 80.4567C71.1645 80.6307 71.2044 80.6431 70.1584 82.1443C68.0782 85.1576 67.7162 85.4749 67.7162 86.2271C67.7162 86.8288 68.0382 87.2762 68.3053 87.6484C76.3108 98.7469 76.3756 97.2909 75.7865 99.4651C74.8668 103.063 73.6375 106.673 72.1307 110.195C71.9356 110.649 72.2498 111.195 72.8029 111.195C78.0768 111.116 92.0652 112.043 114.467 106.426C115.576 106.15 116.689 105.831 117.511 105.029C117.497 105.066 116.759 107.039 116.745 107.075C116.841 106.825 117.073 106.642 117.352 106.623C118.74 106.507 120.157 105.573 121.13 104.138C122.085 102.741 122.576 101.056 123 99.4572C123.096 99.072 123.491 98.8312 123.887 98.9372C124.272 99.0425 124.494 99.4382 124.398 99.8235C123.945 101.548 123.405 103.367 122.326 104.947C121.092 106.767 119.319 107.904 117.478 108.058H117.42C116.936 108.058 116.556 107.598 116.745 107.075C75.8002 216.8 78.8178 208.984 78.6555 209.307C78.808 209.356 83.5079 210.903 83.8496 211.015C83.3881 212.405 81.2804 218.755 81.4159 218.348C81.5998 218.67 81.8315 219.141 82.4501 219.784C82.4822 219.687 85.399 210.922 85.2183 211.465C85.7511 211.64 96.6983 215.238 97.2324 215.414C97.1408 215.676 97.2979 214.942 95.9927 223.392C96.4044 223.382 96.8161 223.354 97.2285 223.307C97.3437 223.814 97.2475 224.245 97.1807 224.723C97.3241 224.532 97.2102 224.825 98.5992 215.866C99.0502 216.029 99.9692 216.439 100.237 216.252C100.243 216.248 122.991 161.857 123.06 161.693C122.144 152.525 122.597 143.289 124.419 134.235C124.496 133.84 124.882 133.59 125.267 133.667C125.663 133.744 125.913 134.13 125.836 134.515C124.043 143.442 123.59 152.563 124.496 161.606C124.535 161.972 124.284 162.29 123.927 162.367C125.004 168.232 127.323 171.022 127.407 171.189C129.896 173.904 166.769 214.03 167.993 215.385C168.186 215.587 168.436 216.031 168.668 215.674C169.709 214.643 170.757 213.618 171.8 212.588L175.055 217.392C175.474 217.447 175.87 217.55 176.827 217.449C172.65 211.304 173.05 211.802 172.825 211.577C174.692 209.732 180.095 204.397 181.903 202.607L187.936 208.923C188.185 208.588 188.415 208.243 188.626 207.889C189.105 208.1 189.383 208.445 189.718 208.798C189.689 208.703 189.641 208.617 189.565 208.54C187.199 206.071 183.366 202.069 182.923 201.608L182.92 201.607ZM99.2034 210.618C99.0148 210.618 99.7938 210.826 82.5967 205.389C82.2112 205.274 81.9991 204.869 82.1248 204.483C82.2406 204.108 82.6451 203.896 83.0307 204.012L99.4253 209.203C100.217 209.467 100.014 210.619 99.2034 210.619V210.618ZM69.3762 50.4049C93.0575 46.4542 96.3154 45.6386 101.656 45.7347C109.758 45.861 113.761 47.0769 115.211 55.1326C101.066 57.3368 86.6427 57.0216 72.4926 59.1696C71.4708 55.9777 70.6101 53.1612 69.3762 50.4049ZM116.439 104.077C115.859 104.571 115.045 104.802 114.119 105.035C100.691 108.402 87.5427 110.113 73.8666 109.771C75.2144 106.496 76.3272 103.155 77.1755 99.8313C77.6645 98.0313 77.3967 97.2752 76.3461 95.9474C72.9364 91.5781 69.153 86.5135 69.153 86.2277C69.153 86.0452 69.2322 86.0138 71.3406 82.9599C72.509 81.2861 72.9201 80.9126 72.5005 79.0321C71.9474 76.5375 71.3903 74.0873 70.8163 71.4971C85.9645 69.4132 101.093 67.3417 116.241 65.2585C116.491 68.0789 116.741 70.8999 117 73.7203C116.027 74.9304 115.994 76.5146 116.487 77.9928C115.069 77.4636 114.238 77.2413 113.212 76.9109C112.245 76.5859 111.163 76.2314 110.032 76.3177C108.549 76.442 107.188 77.4211 107.149 78.9975C105.002 78.9975 103.753 80.8793 104.583 82.7395C104.726 83.0554 104.908 83.3425 105.138 83.5819C104.083 84.7207 104.757 86.5214 106.211 87.3527C105.174 88.536 105.504 90.2817 106.747 91.4198C108.887 93.403 115.576 94.4509 118.449 94.9434C118.385 97.058 118.018 102.675 116.44 104.077H116.439ZM120.003 98.3695C119.815 98.8698 119.628 99.3702 119.441 99.8706C119.679 98.4041 119.818 96.8526 119.876 95.2017C125.406 96.2247 125.356 96.608 128.976 98.1942C125.933 98.2825 122.921 98.3531 120.003 98.3688V98.3695ZM128.889 110.177C128.59 109.31 128.629 108.395 128.687 107.606C128.889 104.822 129.429 102.068 130.296 99.4193C130.372 99.1864 130.554 99.0321 130.769 98.9653C131.056 99.0896 131.343 99.2145 131.64 99.3408C131.714 99.5004 131.735 99.6842 131.675 99.8621C130.846 102.405 130.326 105.044 130.124 107.711C130.075 108.385 130.046 109.098 130.259 109.715C130.413 110.177 130.789 110.677 131.29 110.764C131.685 110.832 131.945 111.208 131.878 111.602C131.648 112.784 129.531 112.096 128.89 110.177H128.889ZM143.819 110.408H143.732C142.296 110.225 140.956 109.175 140.243 107.663C139.578 106.267 139.51 104.716 139.52 103.531C139.548 103.32 139.42 102.954 139.758 102.649C139.773 102.656 139.597 102.586 140.954 103.123C141.02 103.979 140.832 105.52 141.544 107.047C142.055 108.116 142.961 108.857 143.906 108.973C144.301 109.021 144.59 109.387 144.542 109.782C144.494 110.148 144.176 110.408 143.819 110.408H143.819ZM179.085 198.347C165.634 210.429 166.385 210.078 165.852 210.078C165.195 210.078 164.87 209.267 165.37 208.816L178.121 197.279C178.411 197.009 178.873 197.038 179.143 197.327C179.404 197.626 179.384 198.078 179.085 198.348L179.085 198.347Z" fill="#1C2024"/>
<path d="M151.692 22.2945C152.049 22.4599 152.49 22.3226 152.658 21.9622C152.969 22.0511 153.017 22.6758 153.029 22.9982C153.042 23.3861 153.362 23.6909 153.747 23.6909C153.755 23.6909 153.764 23.6909 153.772 23.6909C154.169 23.6772 154.479 23.3443 154.465 22.9485C154.452 22.5652 154.413 22.1165 154.234 21.6888C153.608 20.2014 151.843 20.2125 151.329 21.3244C151.163 21.6842 151.332 22.129 151.692 22.2958V22.2945Z" fill="#1C2024"/>
<path d="M137.549 26.0678C137.944 26.041 138.244 25.6996 138.218 25.3039C138.191 24.9088 137.843 24.6105 137.454 24.6354C136.439 24.7034 136.172 24.4889 136.106 24.3548C135.953 24.0441 136.366 23.3854 136.61 22.8419C137.097 21.7568 137.13 20.4623 136.699 19.2909C136.562 18.9194 136.147 18.7284 135.777 18.8644C135.404 19.0011 135.214 19.4139 135.35 19.786C136.255 22.2428 133.979 23.2913 134.818 24.9899C135.311 25.9854 136.455 26.1398 137.549 26.0678Z" fill="#1C2024"/>
<path d="M132.06 20.4415C131.624 20.5003 131.364 21.2401 131.479 22.0937C131.594 22.9473 132.041 23.5915 132.477 23.5327C132.913 23.4738 133.173 22.734 133.058 21.8805C132.943 21.0269 132.496 20.3826 132.06 20.4415Z" fill="#1C2024"/>
<path d="M126.815 13.567C126.398 14.3794 126.101 15.2617 125.882 16.1022C124.988 19.4655 127.353 20.1347 127.319 21.7771C127.309 22.5044 126.792 23.1075 126.409 23.7295C125.786 24.7531 125.499 26.0646 125.949 27.1746C126.591 28.7823 128.555 29.6535 128.937 31.3378C129.418 33.4897 127.147 35.2937 127.051 37.4528C128.363 37.2043 129.838 37.1657 131.026 37.0512C132.943 36.8537 134.875 37.0865 136.783 37.4116C137.054 40.7043 136.752 41.4499 137.514 42.5344C138.201 43.4959 139.104 44.1873 140.059 44.4803C143.413 45.5026 147.308 44.341 149.728 41.5258C150.011 41.1975 149.864 40.8449 149.87 40.5355C152.688 41.5703 154.881 42.7993 156.128 43.7216C159.979 45.3679 165.473 49.3159 166.826 50.545C173.731 56.8327 172.314 65.9434 172.381 74.3556C172.399 77.0452 172.419 79.7818 171.835 82.4328C171.681 83.1124 171.595 84.3467 171.097 84.9498C171.116 85.0073 171.145 85.0551 171.173 85.1028C172.572 87.6393 176.671 89.582 179.449 89.9548C182.714 90.3852 186.478 88.5864 187.178 85.3703C187.561 83.6383 187.015 81.8389 186.316 80.2122C183.73 74.1744 180.791 72.7818 180.292 69.7711C179.765 66.7087 182.312 63.7803 181.92 60.6983C181.134 54.4682 171.509 53.071 172.802 45.8166C173.07 44.3142 173.53 42.7633 173.128 41.2897C172.17 37.7204 166.97 36.8301 165.686 33.3563C164.939 31.3371 165.753 28.9635 164.863 26.9921C164.279 25.7003 163.062 24.829 162.095 23.7864C160.687 22.2644 159.768 20.2929 159.51 18.2359C159.06 14.6404 160.493 12.1686 155.975 6.81883C153.881 4.34051 151.199 2.11336 148.067 1.4475C142.53 -0.823478 136.104 -0.569039 131.108 3.25408C132.592 3.11803 134.09 3.10822 135.575 3.23315C135.536 3.9219 135.473 4.61065 135.395 5.2922C138.039 5.43348 140.56 7.01767 141.835 9.32855C140.757 8.45208 139.537 7.69923 138.176 7.36565C136.823 7.02422 135.329 7.11775 134.115 7.81958C134.183 7.34602 134.226 6.87312 134.247 6.40087C134.241 6.17914 134.205 6.09411 133.982 6.05552C132.118 5.6127 130.061 5.61205 128.991 5.83705C128.67 5.91162 128.264 6.03655 127.89 6.1085C126.748 7.2054 125.611 8.31145 124.362 9.27819C123.614 9.85771 122.715 10.4117 121.784 10.2449C122.421 10.3587 122.472 11.8559 126.817 13.5664L126.815 13.567ZM137.372 13.3427C137.795 13.1033 137.935 13.1477 138.219 13.4388C140.046 15.3108 142.973 16.0198 145.455 15.1911C145.888 15.0465 146.027 15.0943 146.24 15.4776C147.288 17.3712 148.87 18.9612 150.75 20.0339C150.776 20.0797 150.794 20.1294 150.831 20.17C151.1 20.4637 151.555 20.4839 151.846 20.2164C152.791 19.3556 154.219 19.1385 155.066 20.1648C156.129 21.4468 156.339 24.9193 153.925 25.3706C153.217 25.5027 152.473 25.3556 152.022 24.9952C151.693 24.7335 150.991 24.9114 150.844 25.525C150.34 27.6429 149.47 29.2604 148.124 30.6131C147.955 30.7406 147.845 30.9329 147.838 31.1566C147.822 31.3391 148.113 35.5449 148.448 40.8037C146.4 43.021 143.233 43.9426 140.478 43.1074C139.834 42.9092 139.18 42.397 138.686 41.705C138.249 41.085 138.447 40.4472 138.278 38.2194C138.196 37.1088 138.155 36.7673 138.168 35.6384C140.005 36.0917 141.937 35.9988 144.378 34.9562C144.742 34.8005 144.912 34.3786 144.755 34.0143C144.599 33.6493 144.175 33.4812 143.813 33.6369C135.691 37.1081 130.343 28.8202 130.156 19.9286C130.645 20.0261 130.573 19.6814 131.322 20.0634C131.665 20.238 131.974 20.3747 132.378 20.3747C133.177 20.3747 133.949 19.8299 134.173 19.0482C134.283 18.6676 134.063 18.2699 133.681 18.1606C133.298 18.0501 132.902 18.2712 132.793 18.6525C132.743 18.8298 132.501 18.9789 132.316 18.9325C131.967 18.8533 131.309 18.2391 130.18 18.5256C130.254 17.2417 130.478 15.9505 130.84 14.7084C133.087 14.9295 135.442 14.4311 137.371 13.342L137.372 13.3427Z" fill="#1C2024"/>
<path d="M137.636 29.0877C137.529 29.4696 137.754 29.8654 138.136 29.972C139.409 30.3272 140.868 29.9046 141.755 28.896C142.017 28.5984 141.988 28.1445 141.69 27.8828C141.393 27.6219 140.938 27.6506 140.676 27.9483C140.161 28.5343 139.275 28.7979 138.521 28.5886C138.137 28.482 137.743 28.7063 137.636 29.0877Z" fill="#1C2024"/>
<path d="M140.868 19.64C140.427 20.6833 141.04 22.378 141.748 22.2825C142.413 22.1929 142.598 20.5453 141.965 19.5949C142.062 19.5439 142.133 19.5648 142.612 19.2247C142.827 19.0703 143.039 18.9087 143.405 18.9604C143.798 19.0186 144.161 18.7439 144.218 18.3521C144.274 17.9597 144.002 17.596 143.609 17.5398C142.417 17.3697 141.793 18.1232 141.46 18.2527C141.289 18.3201 141.026 18.2141 140.95 18.046C140.785 17.685 140.356 17.5267 139.997 17.6915C139.636 17.8557 139.477 18.2815 139.642 18.6425C139.873 19.1488 140.343 19.502 140.869 19.64H140.868Z" fill="#1C2024"/>
<path d="M76.1327 125.054C75.7707 125.216 75.6077 125.64 75.77 126.003C77.0281 128.822 77.4248 132.048 76.8867 135.088C76.8173 135.478 77.0772 135.851 77.4687 135.92C77.845 135.991 78.2306 135.737 78.3013 135.338C78.8897 132.019 78.4564 128.496 77.0818 125.418C76.9208 125.056 76.4946 124.895 76.1333 125.055L76.1327 125.054Z" fill="#1C2024"/>
<path d="M78.6011 123.743C78.3779 124.071 78.4629 124.517 78.7909 124.74L87.9877 130.989C88.3117 131.21 88.7601 131.13 88.9859 130.799C89.2092 130.471 89.1241 130.025 88.7961 129.801L79.5993 123.553C79.27 123.329 78.8223 123.416 78.6011 123.743Z" fill="#1C2024"/>
<path d="M98.9983 122.577C99.395 122.554 99.6968 122.214 99.6739 121.819C99.6503 121.423 99.2903 121.119 98.9146 121.144C94.1237 121.429 89.2445 120.578 84.8241 118.691C84.4562 118.533 84.0353 118.703 83.8815 119.068C83.7251 119.432 83.8946 119.854 84.2592 120.01C88.9964 122.034 94.1152 122.867 98.9983 122.577V122.577Z" fill="#1C2024"/>
<path d="M45.2765 34.6801C47.1832 38.3208 48.4263 35.0765 48.6089 32.6054C48.7699 30.4292 48.6992 28.1661 48.4178 25.9998C48.2554 24.7551 47.9354 23.3907 46.9018 22.677C45.6476 21.811 43.767 22.3768 42.8931 23.6242C42.0193 24.8721 42.0147 26.5675 42.5063 28.0091C43.2878 30.2984 44.1539 32.536 45.2765 34.6795V34.6801Z" fill="#1C2024"/>
<path d="M46.4568 38.668C46.2663 39.4143 46.7166 40.173 47.4635 40.3634C48.2097 40.5537 48.9697 40.1037 49.1602 39.3574C49.3506 38.6111 48.9003 37.8523 48.1534 37.662C47.4072 37.4717 46.6472 37.9223 46.4568 38.668Z" fill="#1C2024"/>
<path d="M213.47 96.7898C213.273 96.4451 212.833 96.3248 212.49 96.5223C212.146 96.7185 212.026 97.1574 212.222 97.5015C216.29 104.626 218.354 115.747 214.497 122.69C213.226 124.976 211.302 126.722 209.16 127.624C208.816 126.536 208.227 125.467 207.169 124.785C206.156 124.131 204.681 124.159 203.587 124.849C200.95 126.511 202.682 130.776 208.105 129.476C210.04 142.214 201.103 156.348 187.843 159.847C187.459 159.949 187.23 160.341 187.331 160.725C187.433 161.11 187.829 161.336 188.21 161.235C202.355 157.503 211.68 142.34 209.491 129.037C212.017 128.039 214.283 126.032 215.753 123.388C219.881 115.959 217.795 104.362 213.47 96.7905V96.7898ZM206.515 128.281C205.499 128.357 203.948 128.01 203.819 127.003C203.686 125.982 205.458 125.39 206.39 125.99C207.022 126.398 207.482 127.076 207.794 128.075C207.372 128.177 206.945 128.246 206.516 128.28L206.515 128.281Z" fill="#1C2024"/>
<path d="M40.8451 133.307C41.4394 132.957 42.1084 132.584 41.7372 132.002C41.4054 131.483 40.6742 131.892 40.1695 132.25L37.2776 127.729C37.0505 127.373 36.7323 127.326 36.3219 127.589C35.9475 127.827 35.7465 128.193 35.7184 128.686L35.539 134.305C35.5057 134.719 35.2752 135.584 35.522 135.971C35.8205 136.437 36.6793 135.845 37.3306 135.429L39.7709 133.956L40.5669 135.187C40.667 135.345 40.7704 135.557 40.8791 135.723C41.2155 136.249 41.5756 136.389 41.9611 136.144C42.291 135.933 42.3473 135.659 42.132 135.322L40.8437 133.308L40.8451 133.307ZM36.7945 134.3C36.8469 133.183 36.8639 131.541 36.8449 129.377L39.1 132.904L36.7945 134.299V134.3Z" fill="#1C2024"/>
<path d="M41.4858 130.146C42.9678 132.466 45.0873 134.247 47.3875 132.778C49.8775 131.19 48.9565 128.419 47.3594 125.922C43.9876 120.652 38.0827 124.829 41.4858 130.147V130.146ZM46.7198 131.732C45.0782 132.779 43.5399 131.031 42.4867 129.385C41.5958 127.992 41.2652 125.948 42.6759 125.049C44.1663 124.098 45.4428 125.322 46.3984 126.817C47.4418 128.447 48.3484 130.694 46.7205 131.732H46.7198Z" fill="#1C2024"/>
<path d="M54.4623 124.612C55.0553 124.262 55.7249 123.89 55.3538 123.308C55.0219 122.789 54.2908 123.197 53.7861 123.556L50.8948 119.034C50.6664 118.678 50.3489 118.632 49.9378 118.894C49.5647 119.133 49.3624 119.498 49.3343 119.991L49.1549 125.61L49.041 126.464C48.8852 127.96 49.7761 127.484 50.9472 126.735L53.3874 125.261C54.1834 126.5 54.1461 126.414 54.3294 126.744C54.641 127.311 55.0226 127.803 55.5783 127.45C55.9082 127.239 55.9645 126.964 55.7492 126.627L54.4623 124.613V124.612ZM50.4104 125.605C50.4628 124.488 50.4798 122.847 50.4608 120.683L52.7158 124.21L50.4104 125.605Z" fill="#1C2024"/>
<path d="M217.043 39.7957C217.681 33.0566 211.156 28.3243 207.105 30.2336C206.674 29.832 206.167 29.5501 205.796 29.2708C205.006 28.6756 204.153 28.0634 203.172 27.6964C200.998 26.8821 198.392 27.3805 196.411 28.9588C193.391 27.8698 189.198 29.7882 187.706 34.582C186.767 37.592 187.375 40.6682 189.253 42.4198C189.754 42.8777 189.727 42.8018 189.641 43.3656C188.969 47.8075 192.208 52.0519 196.895 52.3776C197.309 55.4675 198.051 58.3533 198.797 61.0233C198.883 61.3333 199.167 61.5479 199.489 61.5479C200.497 61.5479 199.981 60.3228 203.225 55.2405C204.305 56.5023 206.099 56.9582 207.681 56.966C209.55 56.9588 211.332 55.8684 212.227 54.245C215.792 55.0907 219.945 51.6091 220.78 48.6761C221.721 45.3645 219.481 42.2236 217.042 39.7943L217.043 39.7957ZM219.398 48.285C218.696 50.7587 214.822 53.7898 212.109 52.7073C211.744 52.5614 211.317 52.7387 211.173 53.1174C210.639 54.5106 209.169 55.5257 207.677 55.5316C206.322 55.5584 204.466 55.045 203.917 53.6406C203.71 53.1121 202.985 53.0121 202.654 53.4987C201.528 55.1555 200.524 56.9006 199.657 58.7065C199.07 56.4663 198.54 54.0893 198.244 51.5934C198.201 51.231 197.895 50.9596 197.531 50.9596C193.956 51.1826 190.428 47.7801 191.073 43.5069C191.24 42.4336 190.983 42.0536 190.234 41.3707C188.439 39.6969 188.489 36.8981 189.078 35.0091C190.378 30.8301 193.999 29.3702 196.231 30.4377C196.489 30.562 196.803 30.5175 197.02 30.3239C198.617 28.8895 200.887 28.3727 202.669 29.0412C203.749 29.4454 204.608 30.2114 205.411 30.7523C205.783 31.0028 206.167 31.2612 206.346 31.5379C206.558 31.8655 207.01 31.9741 207.351 31.7419C210.395 29.6842 216.375 34.1189 215.578 39.9651C215.547 40.1901 215.625 40.4157 215.788 40.5747C217.886 42.6272 220.202 45.4646 219.399 48.2857L219.398 48.285Z" fill="#1C2024"/>
<path d="M205.382 37.0505L205.36 37.0393L205.821 36.1295C206.156 35.4689 205.155 35.0686 204.846 35.6769L204.322 36.711C201.803 36.259 200.02 37.8641 201.035 39.5124C201.492 40.2646 202.169 40.5714 202.314 40.6734L200.768 43.726C199.855 43.2139 199.657 42.8731 199.392 42.2328C199.188 41.7376 198.61 41.4636 198.315 42.0463C197.868 42.9294 198.514 43.8268 200.255 44.7386L199.559 46.1115C199.399 46.4274 199.476 46.6655 199.792 46.8257C200.074 46.967 200.38 46.8682 200.523 46.5863L201.249 45.1545C202.792 45.6039 204.314 45.2514 205.054 43.7921C205.616 42.6821 205.337 41.2536 203.734 40.2496L204.844 38.0584C205.725 38.4855 206.58 39.761 207.04 38.8577C207.308 38.3285 205.914 37.3212 205.382 37.0518L205.382 37.0505ZM201.784 44.0975L203.201 41.2981C205.007 42.896 203.657 44.3644 201.784 44.0975ZM202.819 39.6773C202.158 39.2076 201.916 38.7995 202.093 38.4515C202.379 37.8877 202.947 37.6522 203.798 37.7444L202.819 39.6773Z" fill="#1C2024"/>
<path d="M120.069 64.8058H120.075C120.469 64.8058 120.79 64.4879 120.793 64.0935C120.819 60.3705 121.274 56.6461 122.146 53.0231C122.239 52.6379 122.002 52.25 121.615 52.1571C121.238 52.0695 120.842 52.3017 120.749 52.6876C119.852 56.4172 119.383 60.2514 119.356 64.0837C119.353 64.4801 119.672 64.8038 120.069 64.8065V64.8058Z" fill="#1C2024"/>
<path d="M151.765 66.3267L150.662 77.7044C150.624 78.0989 150.913 78.4501 151.308 78.488C151.7 78.5273 152.053 78.2388 152.091 77.8425L153.194 66.4647C153.233 66.0703 152.943 65.7197 152.549 65.6811C152.151 65.6373 151.803 65.9316 151.765 66.3267Z" fill="#1C2024"/>
</g>
<defs>
<clipPath id="clip0_2_17847">
<rect width="221" height="245" fill="white"/>
</clipPath>
</defs>
</svg>
