<svg width="15" height="15" viewBox="0 0 15 15" fill="none" xmlns="http://www.w3.org/2000/svg">
<path d="M11.875 12.5H11.25V10.4169C11.2493 10.0113 11.1178 9.61675 10.875 9.29187L9.53125 7.5L10.875 5.70875C11.1176 5.38377 11.2491 4.9893 11.25 4.58375V2.5H11.875C12.0408 2.5 12.1997 2.43415 12.3169 2.31694C12.4342 2.19973 12.5 2.04076 12.5 1.875C12.5 1.70924 12.4342 1.55027 12.3169 1.43306C12.1997 1.31585 12.0408 1.25 11.875 1.25H3.125C2.95924 1.25 2.80027 1.31585 2.68306 1.43306C2.56585 1.55027 2.5 1.70924 2.5 1.875C2.5 2.04076 2.56585 2.19973 2.68306 2.31694C2.80027 2.43415 2.95924 2.5 3.125 2.5H3.75V4.58313C3.75067 4.98871 3.88219 5.38325 4.125 5.70813L5.46875 7.5L4.125 9.29125C3.88239 9.61623 3.75089 10.0107 3.75 10.4163V12.5H3.125C2.95924 12.5 2.80027 12.5658 2.68306 12.6831C2.56585 12.8003 2.5 12.9592 2.5 13.125C2.5 13.2908 2.56585 13.4497 2.68306 13.5669C2.80027 13.6842 2.95924 13.75 3.125 13.75H11.875C12.0408 13.75 12.1997 13.6842 12.3169 13.5669C12.4342 13.4497 12.5 13.2908 12.5 13.125C12.5 12.9592 12.4342 12.8003 12.3169 12.6831C12.1997 12.5658 12.0408 12.5 11.875 12.5ZM5 12.5V10.4169C5.00049 10.2817 5.0443 10.1503 5.125 10.0419L6.46875 8.25C6.63036 8.03335 6.71766 7.77029 6.71766 7.5C6.71766 7.22971 6.63036 6.96665 6.46875 6.75L5.125 4.95813C5.0441 4.84981 5.00027 4.71831 5 4.58313V2.5H10V4.58313C9.99951 4.71828 9.9557 4.84971 9.875 4.95813L8.53125 6.75C8.36964 6.96665 8.28234 7.22971 8.28234 7.5C8.28234 7.77029 8.36964 8.03335 8.53125 8.25L9.875 10.0425C9.9559 10.1508 9.99973 10.2823 10 10.4175V12.5H5Z" fill="#BA6900"/>
</svg>
