<svg width="12" height="13" viewBox="0 0 12 13" fill="none" xmlns="http://www.w3.org/2000/svg">
<path d="M11.3333 5.85C10.9647 5.85 10.6667 6.1412 10.6667 6.5C10.6667 9.009 8.57267 11.05 6 11.05C4.768 11.05 3.602 10.569 2.74067 9.75H4.66667C5.03533 9.75 5.33333 9.4588 5.33333 9.1C5.33333 8.7412 5.03533 8.45 4.66667 8.45H1.502C1.37 8.42335 1.232 8.43895 1.10067 8.4955C1.08867 8.50005 1.076 8.502 1.064 8.5072C1.05533 8.51175 1.046 8.5111 1.03733 8.51565C1.01933 8.52605 1.00933 8.54295 0.992 8.554C0.800667 8.66905 0.666667 8.86535 0.666667 9.1V12.35C0.666667 12.7088 0.964667 13 1.33333 13C1.702 13 2 12.7088 2 12.35V10.842C3.08667 11.7916 4.50333 12.35 6 12.35C9.30867 12.35 12 9.7253 12 6.5C12 6.1412 11.702 5.85 11.3333 5.85Z" fill="#0065FF"/>
<path d="M1.33333 6.5C1.33333 3.991 3.42733 1.95 6 1.95C7.232 1.95 8.398 2.431 9.25933 3.25H7.33333C6.96467 3.25 6.66667 3.5412 6.66667 3.9C6.66667 4.2588 6.96467 4.55 7.33333 4.55H10.4967C10.6293 4.5773 10.7687 4.56105 10.9 4.50385C10.912 4.4993 10.9247 4.49735 10.9367 4.49215C10.9453 4.4876 10.9547 4.48825 10.9633 4.4837C10.9813 4.4733 10.9913 4.4564 11.0087 4.44535C11.1993 4.33095 11.3333 4.13465 11.3333 3.9V0.65C11.3333 0.2912 11.0353 0 10.6667 0C10.298 0 10 0.2912 10 0.65V2.158C8.91333 1.20835 7.49667 0.65 6 0.65C2.69133 0.65 0 3.2747 0 6.5C0 6.8588 0.298 7.15 0.666667 7.15C1.03533 7.15 1.33333 6.8588 1.33333 6.5Z" fill="#0065FF"/>
</svg>
