<svg width="12" height="12" viewBox="0 0 12 12" fill="none" xmlns="http://www.w3.org/2000/svg">
<path d="M6 12C4.81331 12 3.65328 11.6481 2.66658 10.9888C1.67989 10.3295 0.910851 9.39246 0.456725 8.2961C0.0025997 7.19975 -0.11622 5.99335 0.115291 4.82946C0.346802 3.66557 0.918247 2.59648 1.75736 1.75736C2.59648 0.918247 3.66557 0.346802 4.82946 0.115291C5.99335 -0.11622 7.19975 0.0025997 8.2961 0.456725C9.39246 0.910851 10.3295 1.67989 10.9888 2.66658C11.6481 3.65328 12 4.81331 12 6C11.9983 7.59076 11.3656 9.11587 10.2407 10.2407C9.11587 11.3656 7.59076 11.9983 6 12ZM6 1.2C5.05065 1.2 4.12262 1.48152 3.33326 2.00895C2.54391 2.53638 1.92868 3.28604 1.56538 4.16312C1.20208 5.04021 1.10702 6.00533 1.29223 6.93644C1.47744 7.86754 1.9346 8.72282 2.60589 9.39411C3.27718 10.0654 4.13246 10.5226 5.06357 10.7078C5.99468 10.893 6.9598 10.7979 7.83688 10.4346C8.71397 10.0713 9.46362 9.45609 9.99105 8.66674C10.5185 7.87738 10.8 6.94935 10.8 6C10.7986 4.7274 10.2924 3.50733 9.39254 2.60747C8.49267 1.7076 7.2726 1.20143 6 1.2Z" fill="#22A06B"/>
<path d="M5.4 7.8C5.24088 7.79997 5.0883 7.73673 4.9758 7.6242L3.7758 6.4242C3.66651 6.31104 3.60603 6.15948 3.6074 6.00216C3.60876 5.84484 3.67187 5.69436 3.78311 5.58311C3.89436 5.47187 4.04484 5.40876 4.20216 5.4074C4.35948 5.40603 4.51104 5.46651 4.6242 5.5758L5.4 6.3516L7.3758 4.3758C7.48896 4.26651 7.64052 4.20603 7.79784 4.2074C7.95516 4.20876 8.10565 4.27187 8.21689 4.38311C8.32814 4.49436 8.39124 4.64484 8.3926 4.80216C8.39397 4.95948 8.3335 5.11104 8.2242 5.2242L5.8242 7.6242C5.71171 7.73673 5.55912 7.79997 5.4 7.8Z" fill="#22A06B"/>
</svg>
