<svg width="24" height="24" viewBox="0 0 24 24" fill="none" xmlns="http://www.w3.org/2000/svg">
<rect width="24" height="24" rx="12" fill="#0065FF"/>
<path d="M12 17.25C10.9616 17.25 9.94662 16.9421 9.08326 16.3652C8.2199 15.7883 7.54699 14.9684 7.14963 14.0091C6.75227 13.0498 6.64831 11.9942 6.85088 10.9758C7.05345 9.95738 7.55347 9.02192 8.28769 8.28769C9.02192 7.55347 9.95738 7.05345 10.9758 6.85088C11.9942 6.64831 13.0498 6.75227 14.0091 7.14963C14.9684 7.54699 15.7883 8.2199 16.3652 9.08326C16.9421 9.94662 17.25 10.9616 17.25 12C17.2485 13.3919 16.6949 14.7264 15.7106 15.7106C14.7264 16.6949 13.3919 17.2485 12 17.25ZM12 7.8C11.1693 7.8 10.3573 8.04633 9.66661 8.50783C8.97592 8.96933 8.4376 9.62528 8.11971 10.3927C7.80182 11.1602 7.71865 12.0047 7.8807 12.8194C8.04276 13.6341 8.44277 14.3825 9.03015 14.9698C9.61753 15.5572 10.3659 15.9572 11.1806 16.1193C11.9953 16.2814 12.8398 16.1982 13.6073 15.8803C14.3747 15.5624 15.0307 15.0241 15.4922 14.3334C15.9537 13.6427 16.2 12.8307 16.2 12C16.1987 10.8865 15.7558 9.81892 14.9685 9.03153C14.1811 8.24415 13.1135 7.80125 12 7.8Z" fill="white"/>
<path d="M11.475 13.575C11.3358 13.575 11.2023 13.5196 11.1038 13.4212L10.0538 12.3712C9.95819 12.2722 9.90528 12.1395 9.90647 12.0019C9.90767 11.8642 9.96288 11.7326 10.0602 11.6352C10.1576 11.5379 10.2892 11.4827 10.4269 11.4815C10.5645 11.4803 10.6972 11.5332 10.7962 11.6288L11.475 12.3077L13.2038 10.5788C13.3028 10.4832 13.4355 10.4303 13.5731 10.4315C13.7108 10.4327 13.8424 10.4879 13.9398 10.5852C14.0371 10.6826 14.0923 10.8142 14.0935 10.9519C14.0947 11.0895 14.0418 11.2222 13.9462 11.3212L11.8462 13.4212C11.7477 13.5196 11.6142 13.575 11.475 13.575Z" fill="white"/>
</svg>
