<svg width="17" height="17" viewBox="0 0 17 17" fill="none" xmlns="http://www.w3.org/2000/svg">
<path d="M7.01754 16.6667C5.15638 16.6667 3.37144 15.9273 2.05539 14.6113C0.739346 13.2952 0 11.5103 0 9.64912C0 7.78795 0.739346 6.00301 2.05539 4.68697C3.37144 3.37092 5.15638 2.63158 7.01754 2.63158C7.25019 2.63158 7.47331 2.724 7.63781 2.8885C7.80232 3.05301 7.89474 3.27613 7.89474 3.50877V8.77193H13.1579C13.3905 8.77193 13.6137 8.86435 13.7782 9.02885C13.9427 9.19336 14.0351 9.41648 14.0351 9.64912C14.033 11.5096 13.293 13.2934 11.9774 14.609C10.6618 15.9246 8.87807 16.6646 7.01754 16.6667ZM6.14035 4.45877C5.18796 4.61994 4.2983 5.04009 3.56879 5.6732C2.83928 6.30631 2.29808 7.12797 2.00444 8.04819C1.71081 8.9684 1.67607 9.95167 1.90404 10.8903C2.13201 11.829 2.61389 12.6868 3.2969 13.3698C3.97991 14.0528 4.83772 14.5347 5.77635 14.7626C6.71499 14.9906 7.69827 14.9559 8.61848 14.6622C9.53869 14.3686 10.3604 13.8274 10.9935 13.0979C11.6266 12.3684 12.0467 11.4787 12.2079 10.5263H7.01754C6.7849 10.5263 6.56178 10.4339 6.39727 10.2694C6.23277 10.1049 6.14035 9.88177 6.14035 9.64912V4.45877Z" fill="#22A06B"/>
<path d="M15.7895 7.89474H9.64912C9.41648 7.89474 9.19336 7.80232 9.02885 7.63781C8.86435 7.47331 8.77193 7.25019 8.77193 7.01754V0.877193C8.77193 0.644547 8.86435 0.421429 9.02885 0.256924C9.19336 0.0924182 9.41648 0 9.64912 0C11.5096 0.00208957 13.2934 0.742107 14.609 2.0577C15.9246 3.37329 16.6646 5.15702 16.6667 7.01754C16.6667 7.25019 16.5742 7.47331 16.4097 7.63781C16.2452 7.80232 16.0221 7.89474 15.7895 7.89474ZM10.5263 6.14035H14.8395C14.6554 5.06343 14.1416 4.07017 13.369 3.29762C12.5965 2.52507 11.6032 2.0113 10.5263 1.82719V6.14035Z" fill="#22A06B"/>
</svg>
