<svg width="20" height="20" viewBox="0 0 20 20" fill="none" xmlns="http://www.w3.org/2000/svg">
<path d="M16.6667 5.83333H14.1667V7.5H16.6667V13.3333H15C14.779 13.3333 14.567 13.4211 14.4107 13.5774C14.2545 13.7337 14.1667 13.9457 14.1667 14.1667V15L12.1667 13.5C12.0224 13.3918 11.847 13.3333 11.6667 13.3333H8.33333V12.9167L6.83333 14.0433C6.96746 14.3282 7.17954 14.5692 7.44501 14.7386C7.71047 14.9079 8.01847 14.9985 8.33333 15H11.3892L14.5 17.3333C14.6442 17.4415 14.8197 17.5 15 17.5C15.221 17.5 15.433 17.4122 15.5893 17.2559C15.7455 17.0996 15.8333 16.8877 15.8333 16.6667V15H16.6667C17.1087 15 17.5326 14.8244 17.8452 14.5118C18.1577 14.1993 18.3333 13.7754 18.3333 13.3333V7.5C18.3333 7.05797 18.1577 6.63405 17.8452 6.32149C17.5326 6.00893 17.1087 5.83333 16.6667 5.83333Z" fill="#E7A112"/>
<path d="M5 14.1667C4.77898 14.1667 4.56702 14.0789 4.41074 13.9226C4.25446 13.7663 4.16666 13.5543 4.16666 13.3333V11.6667H3.33333C2.8913 11.6667 2.46738 11.4911 2.15482 11.1785C1.84226 10.866 1.66666 10.442 1.66666 10V4.16667C1.66666 3.72464 1.84226 3.30072 2.15482 2.98816C2.46738 2.67559 2.8913 2.5 3.33333 2.5H11.6667C12.1087 2.5 12.5326 2.67559 12.8452 2.98816C13.1577 3.30072 13.3333 3.72464 13.3333 4.16667V10C13.3333 10.442 13.1577 10.866 12.8452 11.1785C12.5326 11.4911 12.1087 11.6667 11.6667 11.6667H8.61083L5.5 14C5.35575 14.1082 5.18031 14.1667 5 14.1667ZM3.33333 4.16667V10H5C5.22101 10 5.43297 10.0878 5.58925 10.2441C5.74553 10.4004 5.83333 10.6123 5.83333 10.8333V11.6667L7.83333 10.1667C7.97758 10.0585 8.15302 10 8.33333 10H11.6667V4.16667H3.33333Z" fill="#E7A112"/>
</svg>
