<svg width="17" height="17" viewBox="0 0 17 17" fill="none" xmlns="http://www.w3.org/2000/svg">
<path d="M8.33919 10.0051C9.26012 10.0051 10.0067 9.25857 10.0067 8.33764C10.0067 7.4167 9.26012 6.67014 8.33919 6.67014C7.41825 6.67014 6.67169 7.4167 6.67169 8.33764C6.67169 9.25857 7.41825 10.0051 8.33919 10.0051Z" fill="#D0371F"/>
<path d="M14.8859 8.33764C16.8692 5.16764 17.2325 2.34097 15.7842 0.891805C14.295 -0.598195 11.415 -0.164029 8.33919 1.76847C5.26335 -0.163196 2.38419 -0.596529 0.894188 0.891805C-0.597478 2.38347 -0.159978 5.27014 1.78002 8.3518C1.01419 9.5793 0.460855 10.791 0.195022 11.881C-0.323312 14.0093 0.289188 15.1776 0.894188 15.7826C1.49085 16.3793 2.31835 16.6718 3.30752 16.6718C4.72419 16.6718 6.47169 16.0643 8.33919 14.8943C10.2059 16.0618 11.9559 16.6685 13.3725 16.6685C14.3617 16.6685 15.19 16.3768 15.7842 15.7826C17.2334 14.3343 16.87 11.5076 14.8859 8.33764ZM2.07335 14.6043C1.49585 14.026 1.66419 12.8985 1.81502 12.276C1.99669 11.5301 2.34586 10.7026 2.82669 9.84347C3.38002 10.5576 4.00252 11.2726 4.70336 11.9735C4.86586 12.136 5.07919 12.2176 5.29252 12.2176C5.50586 12.2176 5.71919 12.136 5.88169 11.9735C6.20752 11.6476 6.20752 11.1201 5.88169 10.7943C4.13085 9.04347 2.79335 7.10847 2.11502 5.34431C1.53836 3.84431 1.52252 2.62097 2.07335 2.07014C2.80585 1.33847 4.65919 1.62097 6.82752 2.82764C6.11419 3.3818 5.40169 4.00181 4.70252 4.70097C4.37669 5.0268 4.37669 5.5543 4.70252 5.88014C5.02836 6.20597 5.55585 6.20597 5.88169 5.88014C6.69336 5.06847 7.52419 4.37597 8.33919 3.79347C9.15419 4.37514 9.98502 5.06847 10.7967 5.88014C11.1225 6.20597 11.65 6.20597 11.9759 5.88014C12.3017 5.5543 12.3017 5.0268 11.9759 4.70097C11.2767 4.00181 10.5634 3.38097 9.85085 2.82847C12.0192 1.62097 13.8734 1.33847 14.6059 2.07097C15.4859 2.9518 14.915 5.33847 13.2175 7.8743C13.2167 7.87597 13.2142 7.87847 13.2142 7.87847L13.2125 7.88097C12.9084 8.33347 12.57 8.79014 12.205 9.23847C11.7709 9.7718 11.2975 10.296 10.7975 10.7951C10.3684 11.2235 9.92252 11.6326 9.47252 12.0118C8.95585 12.446 8.42919 12.8435 7.90669 13.1943C5.35669 14.9101 2.95919 15.4885 2.07335 14.6043ZM14.6059 14.6043C13.85 15.361 11.9667 15.0393 9.83919 13.8501C10.075 13.6685 10.3117 13.4835 10.5442 13.2885C11.0309 12.8793 11.5125 12.4368 11.9759 11.9743C12.515 11.4351 13.0275 10.8693 13.4975 10.2918C13.6192 10.1418 13.7334 9.99014 13.85 9.83847C15.04 11.966 15.3642 13.8451 14.6059 14.6043Z" fill="#D0371F"/>
</svg>
