<svg width="15" height="15" viewBox="0 0 15 15" fill="none" xmlns="http://www.w3.org/2000/svg">
<path d="M13.5 1.5H12V0.75C12 0.551088 11.921 0.360322 11.7803 0.21967C11.6397 0.0790176 11.4489 0 11.25 0C11.0511 0 10.8603 0.0790176 10.7197 0.21967C10.579 0.360322 10.5 0.551088 10.5 0.75V1.5H8.25V0.75C8.25 0.551088 8.17098 0.360322 8.03033 0.21967C7.88968 0.0790176 7.69891 0 7.5 0C7.30109 0 7.11032 0.0790176 6.96967 0.21967C6.82902 0.360322 6.75 0.551088 6.75 0.75V1.5H4.5V0.75C4.5 0.551088 4.42098 0.360322 4.28033 0.21967C4.13968 0.0790176 3.94891 0 3.75 0C3.55109 0 3.36032 0.0790176 3.21967 0.21967C3.07902 0.360322 3 0.551088 3 0.75V1.5H1.5C1.10218 1.5 0.720644 1.65804 0.43934 1.93934C0.158035 2.22064 0 2.60218 0 3V13.5C0 13.8978 0.158035 14.2794 0.43934 14.5607C0.720644 14.842 1.10218 15 1.5 15H13.5C13.8978 15 14.2794 14.842 14.5607 14.5607C14.842 14.2794 15 13.8978 15 13.5V3C15 2.60218 14.842 2.22064 14.5607 1.93934C14.2794 1.65804 13.8978 1.5 13.5 1.5ZM3 3C3 3.19891 3.07902 3.38968 3.21967 3.53033C3.36032 3.67098 3.55109 3.75 3.75 3.75C3.94891 3.75 4.13968 3.67098 4.28033 3.53033C4.42098 3.38968 4.5 3.19891 4.5 3H6.75C6.75 3.19891 6.82902 3.38968 6.96967 3.53033C7.11032 3.67098 7.30109 3.75 7.5 3.75C7.69891 3.75 7.88968 3.67098 8.03033 3.53033C8.17098 3.38968 8.25 3.19891 8.25 3H10.5C10.5 3.19891 10.579 3.38968 10.7197 3.53033C10.8603 3.67098 11.0511 3.75 11.25 3.75C11.4489 3.75 11.6397 3.67098 11.7803 3.53033C11.921 3.38968 12 3.19891 12 3H13.5V4.5H1.5V3H3ZM1.5 13.5V6H13.5V13.5H1.5Z" fill="#22A06B"/>
<path d="M11.25 7.5H3.75C3.55109 7.5 3.36032 7.57902 3.21967 7.71967C3.07902 7.86032 3 8.05109 3 8.25C3 8.44891 3.07902 8.63968 3.21967 8.78033C3.36032 8.92098 3.55109 9 3.75 9H11.25C11.4489 9 11.6397 8.92098 11.7803 8.78033C11.921 8.63968 12 8.44891 12 8.25C12 8.05109 11.921 7.86032 11.7803 7.71967C11.6397 7.57902 11.4489 7.5 11.25 7.5Z" fill="#22A06B"/>
</svg>
