<svg width="126" height="179" viewBox="0 0 126 179" fill="none" xmlns="http://www.w3.org/2000/svg">
<g clip-path="url(#clip0_2_16620)">
<path d="M94.3529 15.2559L0.831421 35.3223L31.3243 177.438L124.846 157.371L94.3529 15.2559Z" fill="#F7F8FA"/>
<path d="M31.35 178.3C31.19 178.3 31.03 178.25 30.89 178.16C30.7 178.04 30.57 177.84 30.52 177.62L0.0199656 35.51C-0.0800344 35.05 0.209966 34.6 0.669966 34.5L94.2 14.43C94.66 14.34 95.11 14.62 95.21 15.08L125.71 157.2C125.76 157.42 125.71 157.65 125.59 157.84C125.47 158.03 125.27 158.16 125.05 158.21L31.52 178.28C31.46 178.29 31.4 178.3 31.34 178.3H31.35ZM1.85997 35.98L32 176.44L123.86 156.73L93.72 16.27L1.85997 35.98Z" fill="#1C2024"/>
<path d="M32.6229 38.2506L11.7578 42.7275L16.2347 63.5927L37.0998 59.1158L32.6229 38.2506Z" fill="#D0E2FF"/>
<path d="M87.9379 26.3775L39.0897 36.8585L39.8009 40.1731L88.6491 29.692L87.9379 26.3775Z" fill="#A3C7FF"/>
<path d="M81.924 46.0177L42.8435 54.403L43.5547 57.7175L82.6352 49.3322L81.924 46.0177Z" fill="#A3C7FF"/>
<path d="M89.8159 35.1478L40.9677 45.6289L41.6788 48.9435L90.5271 38.4624L89.8159 35.1478Z" fill="#A3C7FF"/>
<path d="M39.0407 68.1387L18.1755 72.6156L22.6524 93.4807L43.5176 89.0038L39.0407 68.1387Z" fill="#A3C7FF"/>
<path d="M94.3459 56.2676L45.4977 66.7487L46.2089 70.0632L95.0571 59.5821L94.3459 56.2676Z" fill="#A3C7FF"/>
<path d="M88.3438 75.9155L49.2633 84.3008L49.9745 87.6153L89.055 79.2301L88.3438 75.9155Z" fill="#A3C7FF"/>
<path d="M96.2259 65.0477L47.3777 75.5288L48.0889 78.8434L96.9371 68.3623L96.2259 65.0477Z" fill="#A3C7FF"/>
<path d="M45.2025 98.0703L24.3374 102.547L28.8143 123.412L49.6794 118.935L45.2025 98.0703Z" fill="#D0E2FF"/>
<path d="M100.51 86.209L51.6616 96.6901L52.3728 100.005L101.221 89.5236L100.51 86.209Z" fill="#A3C7FF"/>
<path d="M94.4961 105.849L55.4155 114.234L56.1267 117.549L95.2072 109.164L94.4961 105.849Z" fill="#A3C7FF"/>
<path d="M102.388 94.9794L53.5397 105.46L54.2509 108.775L103.099 98.2939L102.388 94.9794Z" fill="#A3C7FF"/>
<path d="M51.6126 127.97L30.7474 132.447L35.2243 153.312L56.0895 148.835L51.6126 127.97Z" fill="#A3C7FF"/>
<path d="M16.2599 64.44C15.8699 64.44 15.5199 64.17 15.4299 63.77L10.9499 42.9C10.8999 42.68 10.9499 42.45 11.0699 42.26C11.1899 42.07 11.3899 41.94 11.6099 41.89L32.4699 37.41C32.9299 37.32 33.3799 37.6 33.4799 38.06L37.9599 58.93C38.0099 59.15 37.9599 59.38 37.8399 59.57C37.7199 59.76 37.5199 59.89 37.2999 59.94L16.4399 64.42C16.3799 64.43 16.3199 64.44 16.2599 64.44ZM12.7899 43.38L16.9099 62.58L36.1099 58.46L31.9899 39.26L12.7899 43.38Z" fill="#1C2024"/>
<path d="M22.6699 94.34C22.5099 94.34 22.3499 94.29 22.2099 94.2C22.0199 94.08 21.8899 93.88 21.8399 93.66L17.3599 72.79C17.2599 72.33 17.5499 71.88 18.0099 71.78L38.8699 67.3C39.0899 67.25 39.3199 67.3 39.5099 67.42C39.6999 67.54 39.8299 67.74 39.8799 67.96L44.3599 88.83C44.4099 89.05 44.3599 89.28 44.2399 89.47C44.1199 89.66 43.9199 89.79 43.6999 89.84L22.8299 94.32C22.7699 94.33 22.7099 94.34 22.6499 94.34H22.6699ZM19.1999 73.28L23.3199 92.48L42.5199 88.36L38.3999 69.16L19.1999 73.28Z" fill="#1C2024"/>
<path d="M28.83 124.27C28.44 124.27 28.09 124 28 123.6L23.52 102.73C23.47 102.51 23.52 102.28 23.64 102.09C23.76 101.9 23.96 101.77 24.18 101.72L45.05 97.2399C45.51 97.1399 45.96 97.4299 46.06 97.8899L50.54 118.76C50.59 118.98 50.54 119.21 50.42 119.4C50.3 119.59 50.1 119.72 49.88 119.77L29.01 124.25C28.95 124.26 28.89 124.27 28.83 124.27ZM25.36 103.21L29.48 122.41L48.68 118.29L44.56 99.0899L25.36 103.21Z" fill="#1C2024"/>
<path d="M35.24 154.17C34.85 154.17 34.5 153.9 34.41 153.5L29.93 132.63C29.88 132.41 29.93 132.18 30.05 131.99C30.17 131.8 30.37 131.67 30.59 131.62L51.46 127.14C51.92 127.04 52.37 127.33 52.47 127.79L56.95 148.66C57 148.88 56.95 149.11 56.83 149.3C56.71 149.49 56.51 149.62 56.29 149.67L35.42 154.15C35.36 154.16 35.3 154.17 35.24 154.17ZM31.77 133.11L35.89 152.31L55.09 148.19L50.97 128.99L31.77 133.11Z" fill="#1C2024"/>
<path d="M106.918 116.099L58.0696 126.58L58.7808 129.895L107.629 119.414L106.918 116.099Z" fill="#A3C7FF"/>
<path d="M100.916 135.747L61.8353 144.132L62.5465 147.447L101.627 139.061L100.916 135.747Z" fill="#A3C7FF"/>
<path d="M108.796 124.87L59.9476 135.351L60.6588 138.665L109.507 128.184L108.796 124.87Z" fill="#A3C7FF"/>
<path d="M32.7199 88.4799C31.9399 88.6499 31.1199 88.4999 30.4399 88.0599L23.8599 83.8099C22.4599 82.8999 22.0599 81.0299 22.9599 79.6299C23.8699 78.2299 25.7399 77.8299 27.1399 78.7299L31.1799 81.3399L36.9999 72.3399C37.9099 70.9399 39.7799 70.5399 41.1799 71.4399C42.5799 72.3499 42.9799 74.2199 42.0799 75.6199L34.6199 87.1599C34.1799 87.8299 33.4999 88.3099 32.7099 88.4799H32.7199Z" fill="#0065FF"/>
<path d="M32.1 89.3999C31.36 89.3999 30.62 89.1899 29.99 88.7799L23.41 84.5299C21.62 83.3699 21.1 80.9699 22.26 79.1699C23.42 77.3799 25.82 76.8599 27.62 78.0199L30.95 80.1699L36.31 71.8799C36.87 71.0099 37.74 70.4099 38.75 70.1999C39.76 69.9799 40.8 70.1699 41.67 70.7299C43.46 71.8899 43.98 74.2899 42.82 76.0899L35.36 87.6299C34.8 88.4999 33.93 89.0999 32.92 89.3099C32.66 89.3699 32.39 89.3899 32.12 89.3899L32.1 89.3999ZM25.52 79.0999C24.81 79.0999 24.11 79.4499 23.69 80.0899C23.04 81.0999 23.33 82.4499 24.33 83.0999L30.91 87.3499C31.39 87.6599 31.99 87.7699 32.55 87.6499C33.12 87.5299 33.6 87.1899 33.92 86.7099L41.38 75.1699C42.03 74.1599 41.74 72.8099 40.73 72.1599C39.73 71.5099 38.38 71.7999 37.72 72.7999L31.9 81.7999C31.78 81.9899 31.58 82.1199 31.36 82.1699C31.14 82.2199 30.91 82.1699 30.72 82.0499L26.68 79.4399C26.32 79.1999 25.91 79.0899 25.5 79.0899L25.52 79.0999Z" fill="#1C2024"/>
<path d="M39.0399 118.54C38.2599 118.71 37.4399 118.56 36.7599 118.12L30.1799 113.87C28.7799 112.96 28.3799 111.09 29.2799 109.69C30.1899 108.29 32.0599 107.89 33.4599 108.79L37.4999 111.4L43.3199 102.4C44.2299 101 46.0999 100.6 47.4999 101.5C48.8999 102.41 49.2999 104.28 48.3999 105.68L40.9399 117.22C40.4999 117.89 39.8199 118.37 39.0299 118.54H39.0399Z" fill="#4790FF"/>
<path d="M38.4199 119.46C37.6799 119.46 36.9399 119.25 36.3099 118.84L29.7299 114.59C27.9399 113.43 27.4199 111.03 28.5799 109.23C29.7399 107.44 32.1399 106.92 33.9399 108.08L37.2699 110.23L42.6299 101.94C43.1899 101.07 44.0599 100.47 45.0699 100.26C46.0799 100.04 47.1199 100.23 47.9899 100.79C49.7799 101.95 50.2999 104.35 49.1399 106.15L41.6799 117.69C41.1199 118.56 40.2499 119.16 39.2399 119.37C38.9799 119.43 38.7099 119.45 38.4399 119.45L38.4199 119.46ZM31.8399 109.16C31.1299 109.16 30.4299 109.51 30.0099 110.15C29.3599 111.16 29.6499 112.51 30.6499 113.16L37.2299 117.41C37.7099 117.72 38.3099 117.83 38.8699 117.71C39.4399 117.59 39.9199 117.25 40.2399 116.77L47.6999 105.23C48.3499 104.22 48.0599 102.87 47.0499 102.22C46.0499 101.57 44.6999 101.86 44.0399 102.86L38.2199 111.86C38.0999 112.05 37.8999 112.18 37.6799 112.23C37.4599 112.28 37.2299 112.23 37.0399 112.11L32.9999 109.5C32.6399 109.26 32.2299 109.15 31.8199 109.15L31.8399 109.16Z" fill="#1C2024"/>
<path d="M25.7299 55.9001C24.9499 56.0701 24.1299 55.9201 23.4499 55.4801L16.8699 51.2301C15.4699 50.3201 15.0699 48.4501 15.9699 47.0501C16.8799 45.6501 18.7499 45.2501 20.1499 46.1501L24.1899 48.7601L30.0099 39.7601C30.9199 38.3601 32.7899 37.9601 34.1899 38.8601C35.5899 39.7701 35.9899 41.6401 35.0899 43.0401L27.6299 54.5801C27.1899 55.2501 26.5099 55.7301 25.7299 55.8901V55.9001Z" fill="#4790FF"/>
<path d="M25.09 56.82C24.35 56.82 23.63 56.61 22.99 56.2L16.41 51.95C14.62 50.79 14.1 48.39 15.26 46.59C16.42 44.8 18.82 44.28 20.62 45.44L23.95 47.59L29.31 39.3C29.87 38.43 30.74 37.83 31.75 37.62C32.76 37.41 33.8 37.59 34.67 38.15C35.54 38.71 36.14 39.58 36.35 40.59C36.57 41.6 36.38 42.64 35.82 43.51L28.36 55.05C27.81 55.91 26.92 56.52 25.92 56.73C25.65 56.79 25.37 56.82 25.1 56.82H25.09ZM18.52 46.52C17.81 46.52 17.11 46.87 16.69 47.51C16.04 48.52 16.33 49.87 17.34 50.52L23.92 54.77C24.41 55.09 24.99 55.19 25.56 55.07C26.12 54.95 26.62 54.61 26.93 54.13L34.39 42.59C34.71 42.1 34.81 41.52 34.69 40.95C34.57 40.38 34.23 39.9 33.74 39.58C33.25 39.27 32.67 39.16 32.1 39.28C31.53 39.4 31.05 39.74 30.73 40.22L24.91 49.22C24.65 49.61 24.13 49.73 23.73 49.47L19.69 46.86C19.33 46.62 18.92 46.51 18.51 46.51L18.52 46.52Z" fill="#1C2024"/>
<path d="M44.0999 145.7C43.3199 145.87 42.4999 145.72 41.8199 145.28L35.2399 141.03C33.8399 140.12 33.4399 138.25 34.3399 136.85C35.2499 135.45 37.1199 135.05 38.5199 135.95L42.5599 138.56L48.3799 129.56C49.2899 128.16 51.1599 127.76 52.5599 128.66C53.9599 129.57 54.3599 131.44 53.4599 132.84L45.9999 144.38C45.5599 145.06 44.8799 145.53 44.0899 145.7H44.0999Z" fill="#0065FF"/>
<path d="M43.45 146.62C42.71 146.62 41.99 146.41 41.35 146L34.77 141.75C32.98 140.59 32.46 138.19 33.62 136.39C34.18 135.52 35.05 134.92 36.06 134.71C37.08 134.49 38.11 134.68 38.98 135.24L42.31 137.39L47.67 129.1C48.23 128.23 49.1 127.63 50.11 127.42C51.13 127.2 52.16 127.39 53.03 127.95C54.82 129.11 55.34 131.51 54.18 133.31L46.72 144.85C46.16 145.72 45.29 146.32 44.28 146.53C44.01 146.59 43.73 146.62 43.46 146.62H43.45ZM36.88 136.32C36.73 136.32 36.57 136.34 36.42 136.37C35.85 136.49 35.37 136.83 35.05 137.31C34.4 138.32 34.69 139.66 35.69 140.32L42.27 144.57C42.76 144.89 43.34 144.99 43.91 144.87C44.48 144.75 44.96 144.41 45.28 143.92L52.74 132.38C53.39 131.37 53.1 130.03 52.09 129.37C51.6 129.05 51.02 128.95 50.45 129.07C49.88 129.19 49.4 129.53 49.08 130.02L43.26 139.02C43 139.42 42.48 139.53 42.08 139.27L38.04 136.66C37.69 136.43 37.28 136.31 36.87 136.31L36.88 136.32Z" fill="#1C2024"/>
<path d="M104.86 39.13L93.0201 104.75C84.8501 98.26 74.9401 101.5 74.9401 101.5L86.7801 35.88L104.86 39.13Z" fill="#0065FF"/>
<path d="M111.16 13.6601L106.53 39.4301L85.11 35.5801L89.74 9.81009C90.24 7.04009 91.75 4.70009 93.82 3.11009C96.16 1.31009 99.23 0.460085 102.37 1.02009C105.33 1.55009 107.79 3.24009 109.38 5.52009C109.49 5.68009 109.61 5.86009 109.71 6.03009C111.06 8.23009 111.64 10.9101 111.15 13.6501L111.16 13.6601Z" fill="#0065FF"/>
<path d="M101.42 4.80006C101.17 4.02006 100.27 3.34006 99.4101 3.66006C95.8401 4.98006 93.0301 7.92006 91.9801 11.6001C91.7501 12.4201 92.2701 13.4201 93.1201 13.6101C93.9901 13.8101 94.8801 13.3501 95.1301 12.4701C95.1801 12.2801 95.2401 12.0901 95.3101 11.9001C95.3401 11.8101 95.3801 11.7101 95.4101 11.6201C95.4301 11.5601 95.5601 11.2901 95.4401 11.5401C95.3101 11.8001 95.4701 11.4701 95.5001 11.4201C95.5401 11.3401 95.5701 11.2701 95.6101 11.1901C95.7001 11.0101 95.7901 10.8301 95.8901 10.6601C96.0801 10.3301 96.2901 10.0001 96.5101 9.69005C96.5501 9.64005 96.5901 9.59006 96.6301 9.54006L96.6501 9.51006C96.7801 9.36006 96.9101 9.20006 97.0401 9.06006C97.2901 8.79006 97.5501 8.53006 97.8301 8.29006C97.9101 8.22006 97.9801 8.16006 98.0601 8.10006C98.0901 8.07006 98.1701 8.02006 98.2101 7.99006C98.1801 8.01006 98.1301 8.05006 98.0401 8.11005C98.2001 7.99006 98.3601 7.87006 98.5301 7.76006C98.8301 7.56006 99.1501 7.37005 99.4701 7.20005C99.6501 7.11005 99.8301 7.02006 100.01 6.94006C100.09 6.91006 100.18 6.87006 100.27 6.84006C101.07 6.55006 101.7 5.72006 101.41 4.83006L101.42 4.80006Z" fill="white"/>
<path d="M90.7001 38.49C89.9101 38.27 88.8401 38.76 88.6901 39.63C86.5101 51.82 84.3301 64.02 82.1401 76.21C81.5201 79.7 80.8901 83.19 80.2701 86.68C80.1101 87.55 80.5101 88.44 81.4101 88.69C82.2001 88.91 83.2701 88.42 83.4201 87.55C85.6001 75.3601 87.7801 63.16 89.9701 50.97C90.5901 47.48 91.2201 43.99 91.8401 40.5C91.9901 39.63 91.6001 38.73 90.7001 38.49Z" fill="white"/>
<path d="M93.0201 104.74L86.1201 115.84C82.6901 113.13 79.3301 113.62 77.5101 114.23L74.9301 101.49C74.9301 101.49 84.8401 98.2601 93.0101 104.74H93.0201Z" fill="#A3C7FF"/>
<path d="M86.12 115.84L82.58 121.54C81.61 123.11 79.23 122.68 78.86 120.87L77.52 114.23C79.33 113.62 82.69 113.12 86.12 115.84Z" fill="#1C2024"/>
<path d="M84.68 18.68L81 39.12C81 39.12 82.14 47.45 80.92 50.35C79.71 53.26 74.79 54.36 74.79 54.36L81.65 16.19L89.34 11.99L88.49 16.72L84.67 18.67L84.68 18.68Z" fill="#A3C7FF"/>
<path d="M93.02 105.59C92.83 105.59 92.64 105.53 92.49 105.41C84.79 99.3 75.29 102.27 75.2 102.3C74.91 102.39 74.6 102.33 74.38 102.13C74.15 101.93 74.05 101.63 74.1 101.34L85.94 35.72C86.02 35.26 86.47 34.95 86.93 35.03L105.01 38.28C105.23 38.32 105.43 38.45 105.56 38.63C105.69 38.82 105.74 39.04 105.7 39.27L93.86 104.89C93.81 105.18 93.6 105.43 93.32 105.53C93.22 105.57 93.12 105.59 93.02 105.59ZM80.92 99.81C84.24 99.81 88.45 100.52 92.43 103.24L103.88 39.8L87.47 36.85L76.01 100.32C77.12 100.08 78.85 99.8 80.92 99.8V99.81Z" fill="#1C2024"/>
<path d="M86.1201 116.69C85.9301 116.69 85.7401 116.63 85.5901 116.51C82.4301 114.01 79.3401 114.52 77.7801 115.04C77.5501 115.12 77.3001 115.09 77.0801 114.97C76.8701 114.85 76.7201 114.64 76.6701 114.4L74.0901 101.66C74.0001 101.24 74.2501 100.82 74.6601 100.68C75.0801 100.54 85.1001 97.3801 93.5401 104.07C93.8801 104.34 93.9601 104.82 93.7301 105.18L86.8301 116.28C86.7001 116.49 86.4901 116.63 86.2501 116.67C86.2001 116.67 86.1501 116.68 86.1001 116.68L86.1201 116.69ZM80.4101 112.9C82.0201 112.9 83.9201 113.3 85.8801 114.61L91.8901 104.94C85.5401 100.33 78.2301 101.55 75.9301 102.09L78.1701 113.15C78.8101 113 79.5701 112.89 80.4201 112.89L80.4101 112.9Z" fill="#1C2024"/>
<path d="M80.86 123.36C80.69 123.36 80.51 123.35 80.34 123.31C79.17 123.1 78.26 122.21 78.03 121.04L76.69 114.4C76.61 113.98 76.85 113.56 77.25 113.43C79.13 112.8 82.86 112.18 86.65 115.18C86.99 115.45 87.07 115.93 86.84 116.3L83.29 122C82.76 122.86 81.84 123.37 80.85 123.37L80.86 123.36ZM78.51 114.84L79.7 120.71C79.85 121.44 80.46 121.61 80.65 121.64C80.83 121.67 81.47 121.73 81.86 121.1L84.99 116.06C82.47 114.36 80.07 114.46 78.51 114.83V114.84Z" fill="#1C2024"/>
<path d="M106.53 40.2701C106.53 40.2701 106.43 40.27 106.38 40.26L84.96 36.41C84.74 36.37 84.54 36.2401 84.41 36.0601C84.28 35.8701 84.23 35.65 84.27 35.42L88.91 9.65005C89.43 6.77005 90.99 4.21005 93.31 2.43005C95.93 0.420051 99.29 -0.399949 102.53 0.18005C105.61 0.730051 108.3 2.46005 110.09 5.03005C110.21 5.20005 110.33 5.40005 110.45 5.58005C111.96 8.04005 112.51 10.9601 112 13.8001L107.37 39.57C107.33 39.7901 107.2 39.99 107.02 40.12C106.88 40.22 106.71 40.2701 106.54 40.2701H106.53ZM86.1 34.8801L105.85 38.43L110.33 13.5001C110.77 11.0701 110.3 8.58005 109 6.48005C108.9 6.32005 108.8 6.16005 108.69 6.01005C107.16 3.81005 104.86 2.33005 102.23 1.86005C99.46 1.36005 96.58 2.06005 94.35 3.78005C92.37 5.30005 91.03 7.49005 90.58 9.95005L86.1 34.8801Z" fill="#1C2024"/>
<path d="M74.79 55.21C74.57 55.21 74.36 55.13 74.2 54.97C73.99 54.77 73.9 54.49 73.95 54.21L80.81 16.04C80.86 15.79 81.01 15.57 81.24 15.44L88.93 11.24C89.22 11.08 89.57 11.11 89.83 11.3C90.1 11.49 90.23 11.82 90.17 12.14L89.32 16.87C89.27 17.13 89.11 17.36 88.87 17.48L85.42 19.24L81.84 39.14C82.02 40.49 82.91 47.77 81.69 50.68C80.32 53.95 75.18 55.14 74.96 55.19C74.9 55.2 74.84 55.21 74.77 55.21H74.79ZM82.42 16.75L75.87 53.16C77.4 52.61 79.5 51.57 80.14 50.03C81.07 47.83 80.47 41.5 80.16 39.25C80.15 39.16 80.15 39.07 80.16 38.98L83.84 18.54C83.89 18.28 84.05 18.05 84.29 17.93L87.74 16.17L88.2 13.6L82.42 16.75Z" fill="#1C2024"/>
<path d="M92.0801 12.26C92.0001 12.26 91.9101 12.25 91.8301 12.22C91.3801 12.08 91.1301 11.6 91.2701 11.16C93.6101 3.70001 98.9801 2.67001 99.2101 2.63001C99.6701 2.55001 100.11 2.86001 100.19 3.32001C100.27 3.78001 99.9701 4.22001 99.5101 4.30001C99.3201 4.34001 94.9101 5.24001 92.8901 11.67C92.7801 12.03 92.4401 12.27 92.0801 12.27V12.26Z" fill="#1C2024"/>
<path d="M82.56 75.1401C82.56 75.1401 82.46 75.1401 82.41 75.1301C81.95 75.0501 81.64 74.6001 81.72 74.1401L87.99 39.2501C88.07 38.7901 88.52 38.4801 88.98 38.5601C89.44 38.6401 89.75 39.0901 89.67 39.5501L83.4 74.4401C83.33 74.8501 82.97 75.1401 82.56 75.1401Z" fill="#1C2024"/>
</g>
<defs>
<clipPath id="clip0_2_16620">
<rect width="125.72" height="178.3" fill="white"/>
</clipPath>
</defs>
</svg>
