<svg width="17" height="17" viewBox="0 0 17 17" fill="none" xmlns="http://www.w3.org/2000/svg">
<path d="M16.2681 7.66663L14.6161 6.01661L8.83399 0.241551C8.67909 0.086886 8.46903 0 8.25 0C8.03097 0 7.82091 0.086886 7.66601 0.241551L1.8839 6.01661L0.231872 7.66663C0.0814068 7.82223 -0.00185078 8.03063 3.12255e-05 8.24694C0.00191323 8.46326 0.0887844 8.67018 0.241934 8.82314C0.395084 8.97611 0.602259 9.06287 0.818837 9.06475C1.03542 9.06663 1.24407 8.98347 1.39986 8.83319L1.64188 8.59146V14.85C1.64188 15.2876 1.81593 15.7073 2.12575 16.0167C2.43556 16.3262 2.85576 16.5 3.29391 16.5H6.59797C6.81704 16.5 7.02714 16.4131 7.18205 16.2584C7.33696 16.1036 7.42399 15.8938 7.42399 15.675V11.5499H9.07601V15.675C9.07601 15.8938 9.16304 16.1036 9.31795 16.2584C9.47286 16.4131 9.68296 16.5 9.90203 16.5H13.2061C13.6442 16.5 14.0644 16.3262 14.3743 16.0167C14.6841 15.7073 14.8581 15.2876 14.8581 14.85V8.59146L15.1001 8.83319C15.2559 8.98347 15.4646 9.06663 15.6812 9.06475C15.8977 9.06287 16.1049 8.97611 16.2581 8.82314C16.4112 8.67018 16.4981 8.46326 16.5 8.24694C16.5019 8.03063 16.4186 7.82223 16.2681 7.66663ZM13.2061 14.85H10.728V11.5499C10.728 11.1123 10.554 10.6926 10.2442 10.3832C9.93436 10.0738 9.51416 9.89993 9.07601 9.89993H7.42399C6.98584 9.89993 6.56564 10.0738 6.25582 10.3832C5.94601 10.6926 5.77196 11.1123 5.77196 11.5499V14.85H3.29391V6.94145L8.25 1.99139L13.2061 6.94145V14.85Z" fill="#6A737D"/>
</svg>
