<svg width="14" height="17" viewBox="0 0 14 17" fill="none" xmlns="http://www.w3.org/2000/svg">
<path d="M11.7219 6.50383e-06H4.85686C4.52846 -0.000744808 4.20317 0.0636038 3.89979 0.189333C3.59641 0.315062 3.32096 0.499677 3.08936 0.732506L0.732695 3.08917C0.499716 3.32066 0.315003 3.59609 0.189263 3.89949C0.063524 4.2029 -0.000740641 4.52825 0.000194759 4.85667V15C-0.00649532 15.4346 0.159406 15.854 0.461524 16.1665C0.763643 16.4789 1.17732 16.6588 1.61186 16.6667H11.7219C12.1564 16.6588 12.5701 16.4789 12.8722 16.1665C13.1743 15.854 13.3402 15.4346 13.3335 15V1.66667C13.3402 1.23211 13.1743 0.812633 12.8722 0.500205C12.5701 0.187776 12.1564 0.00789714 11.7219 6.50383e-06ZM4.16686 2.01167V4.16667H2.01186L4.16686 2.01167ZM1.66686 15V5.83334H4.16686C4.60889 5.83334 5.03281 5.65774 5.34537 5.34518C5.65793 5.03262 5.83353 4.6087 5.83353 4.16667V1.66667L11.6669 1.64834C11.6681 1.65438 11.6681 1.66063 11.6669 1.66667L11.7219 15H1.66686Z" fill="#6A737D"/>
<path d="M4.16686 10.8333C3.94585 10.8333 3.73389 10.9211 3.57761 11.0774C3.42133 11.2337 3.33353 11.4457 3.33353 11.6667V13.3333C3.33353 13.5544 3.42133 13.7663 3.57761 13.9226C3.73389 14.0789 3.94585 14.1667 4.16686 14.1667C4.38788 14.1667 4.59984 14.0789 4.75612 13.9226C4.9124 13.7663 5.0002 13.5544 5.0002 13.3333V11.6667C5.0002 11.4457 4.9124 11.2337 4.75612 11.0774C4.59984 10.9211 4.38788 10.8333 4.16686 10.8333Z" fill="#6A737D"/>
<path d="M6.66686 7.50001C6.44585 7.50001 6.23389 7.5878 6.07761 7.74408C5.92133 7.90036 5.83353 8.11233 5.83353 8.33334V13.3333C5.83353 13.5544 5.92133 13.7663 6.07761 13.9226C6.23389 14.0789 6.44585 14.1667 6.66686 14.1667C6.88788 14.1667 7.09984 14.0789 7.25612 13.9226C7.4124 13.7663 7.5002 13.5544 7.5002 13.3333V8.33334C7.5002 8.11233 7.4124 7.90036 7.25612 7.74408C7.09984 7.5878 6.88788 7.50001 6.66686 7.50001Z" fill="#6A737D"/>
<path d="M9.16686 9.16667C8.94585 9.16667 8.73389 9.25447 8.57761 9.41075C8.42133 9.56703 8.33353 9.77899 8.33353 10V13.3333C8.33353 13.5544 8.42133 13.7663 8.57761 13.9226C8.73389 14.0789 8.94585 14.1667 9.16686 14.1667C9.38788 14.1667 9.59984 14.0789 9.75612 13.9226C9.9124 13.7663 10.0002 13.5544 10.0002 13.3333V10C10.0002 9.77899 9.9124 9.56703 9.75612 9.41075C9.59984 9.25447 9.38788 9.16667 9.16686 9.16667Z" fill="#6A737D"/>
</svg>
