<svg width="19" height="15" viewBox="0 0 19 15" fill="none" xmlns="http://www.w3.org/2000/svg">
<path d="M18.2417 6.12741C18.2417 6.11903 18.2417 6.10971 18.2362 6.10227L16.4028 2.3774C16.3268 2.22274 16.2098 2.09265 16.0651 2.0017C15.9203 1.91075 15.7535 1.86253 15.5833 1.86243H11.9167C11.9167 1.36849 11.7235 0.894768 11.3797 0.545494C11.0359 0.19622 10.5696 0 10.0833 0H1.83333C1.3471 0 0.880787 0.19622 0.536971 0.545494C0.193154 0.894768 0 1.36849 0 1.86243V10.2434C0 10.4904 0.0965771 10.7272 0.268485 10.9019C0.440394 11.0765 0.673552 11.1746 0.916667 11.1746H1.19167C1.16399 11.3283 1.14836 11.484 1.14492 11.6402C1.14492 12.4429 1.45879 13.2127 2.01749 13.7802C2.5762 14.3478 3.33396 14.6667 4.12408 14.6667C4.91421 14.6667 5.67197 14.3478 6.23067 13.7802C6.78937 13.2127 7.10325 12.4429 7.10325 11.6402C7.10042 11.484 7.0854 11.3284 7.05833 11.1746H11.275C11.2473 11.3283 11.2317 11.484 11.2282 11.6402C11.2282 12.4429 11.5421 13.2127 12.1008 13.7802C12.6595 14.3478 13.4173 14.6667 14.2074 14.6667C14.9975 14.6667 15.7553 14.3478 16.314 13.7802C16.8727 13.2127 17.1866 12.4429 17.1866 11.6402C17.1838 11.484 17.1687 11.3284 17.1417 11.1746H17.4167C17.6598 11.1746 17.8929 11.0765 18.0648 10.9019C18.2368 10.7272 18.3333 10.4904 18.3333 10.2434V6.51852C18.3315 6.38288 18.3002 6.24934 18.2417 6.12741ZM14.2083 8.61376C13.5207 8.61705 12.8558 8.86406 12.3283 9.31217H11.9167V7.44974H16.5V9.31217H16.0884C15.5609 8.86406 14.896 8.61705 14.2083 8.61376ZM15.0168 3.72487L15.9335 5.5873H11.9167V3.72487H15.0168ZM1.83333 1.86243H10.0833V9.31217H6.00508C5.47938 8.86159 4.81373 8.61443 4.12592 8.61443C3.4381 8.61443 2.77245 8.86159 2.24675 9.31217H1.83333V1.86243ZM4.125 12.8042C3.89838 12.8042 3.67684 12.736 3.48841 12.6081C3.29998 12.4802 3.15311 12.2984 3.06639 12.0857C2.97966 11.873 2.95697 11.6389 3.00118 11.4131C3.0454 11.1873 3.15453 10.9799 3.31477 10.8171C3.47502 10.6543 3.67919 10.5435 3.90146 10.4986C4.12373 10.4536 4.35412 10.4767 4.56349 10.5648C4.77287 10.6529 4.95182 10.8021 5.07773 10.9935C5.20363 11.1849 5.27083 11.41 5.27083 11.6402C5.27035 11.9488 5.14947 12.2446 4.93469 12.4628C4.71991 12.6809 4.42875 12.8037 4.125 12.8042ZM14.2083 12.8042C13.9817 12.8042 13.7602 12.736 13.5717 12.6081C13.3833 12.4802 13.2364 12.2984 13.1497 12.0857C13.063 11.873 13.0403 11.6389 13.0845 11.4131C13.1287 11.1873 13.2379 10.9799 13.3981 10.8171C13.5584 10.6543 13.7625 10.5435 13.9848 10.4986C14.2071 10.4536 14.4375 10.4767 14.6468 10.5648C14.8562 10.6529 15.0352 10.8021 15.1611 10.9935C15.287 11.1849 15.3542 11.41 15.3542 11.6402C15.3537 11.9488 15.2328 12.2446 15.018 12.4628C14.8032 12.6809 14.5121 12.8037 14.2083 12.8042Z" fill="#6A737D"/>
</svg>
