<svg width="19" height="17" viewBox="0 0 19 17" fill="none" xmlns="http://www.w3.org/2000/svg">
<path d="M4.82456 16.5C4.56865 16.5 4.32322 16.3977 4.14227 16.2157C3.96131 16.0337 3.85965 15.7868 3.85965 15.5294V12.6176H1.92982C1.418 12.6176 0.927145 12.4131 0.565232 12.0491C0.20332 11.685 0 11.1913 0 10.6765V1.94118C0 1.42634 0.20332 0.932598 0.565232 0.568557C0.927145 0.204516 1.418 0 1.92982 0H16.4035C16.9153 0 17.4062 0.204516 17.7681 0.568557C18.13 0.932598 18.3333 1.42634 18.3333 1.94118V10.6765C18.3333 11.1913 18.13 11.685 17.7681 12.0491C17.4062 12.4131 16.9153 12.6176 16.4035 12.6176H9.98781L5.42763 16.2874C5.25644 16.4251 5.04375 16.5001 4.82456 16.5ZM1.92982 1.94118V10.6765H4.82456C5.08047 10.6765 5.3259 10.7787 5.50686 10.9607C5.68781 11.1428 5.78947 11.3896 5.78947 11.6471V13.5096L9.04605 10.889C9.21724 10.7513 9.42993 10.6764 9.64912 10.6765H16.4035V1.94118H1.92982Z" fill="#6A737D"/>
<path d="M5.30702 7.27941C5.83992 7.27941 6.27193 6.84486 6.27193 6.30882C6.27193 5.77278 5.83992 5.33823 5.30702 5.33823C4.77411 5.33823 4.34211 5.77278 4.34211 6.30882C4.34211 6.84486 4.77411 7.27941 5.30702 7.27941Z" fill="#6A737D"/>
<path d="M9.16667 7.27941C9.69957 7.27941 10.1316 6.84486 10.1316 6.30882C10.1316 5.77278 9.69957 5.33823 9.16667 5.33823C8.63376 5.33823 8.20175 5.77278 8.20175 6.30882C8.20175 6.84486 8.63376 7.27941 9.16667 7.27941Z" fill="#6A737D"/>
<path d="M13.0263 7.27941C13.5592 7.27941 13.9912 6.84486 13.9912 6.30882C13.9912 5.77278 13.5592 5.33823 13.0263 5.33823C12.4934 5.33823 12.0614 5.77278 12.0614 6.30882C12.0614 6.84486 12.4934 7.27941 13.0263 7.27941Z" fill="#6A737D"/>
</svg>
