<svg width="18" height="18" viewBox="0 0 18 18" fill="none" xmlns="http://www.w3.org/2000/svg">
<path d="M9 18C7.21997 18 5.47991 17.4722 3.99987 16.4832C2.51983 15.4943 1.36628 14.0887 0.685088 12.4442C0.00389956 10.7996 -0.17433 8.99002 0.172936 7.24419C0.520203 5.49836 1.37737 3.89471 2.63604 2.63604C3.89471 1.37737 5.49836 0.520203 7.24419 0.172936C8.99002 -0.17433 10.7996 0.00389956 12.4442 0.685088C14.0887 1.36628 15.4943 2.51983 16.4832 3.99987C17.4722 5.47991 18 7.21997 18 9C17.9974 11.3861 17.0483 13.6738 15.3611 15.3611C13.6738 17.0483 11.3861 17.9974 9 18ZM9 1.8C7.57598 1.8 6.18393 2.22228 4.9999 3.01342C3.81586 3.80457 2.89302 4.92905 2.34807 6.24468C1.80312 7.56031 1.66054 9.00799 1.93835 10.4047C2.21616 11.8013 2.9019 13.0842 3.90883 14.0912C4.91577 15.0981 6.19869 15.7838 7.59535 16.0617C8.99202 16.3395 10.4397 16.1969 11.7553 15.6519C13.071 15.107 14.1954 14.1841 14.9866 13.0001C15.7777 11.8161 16.2 10.424 16.2 9C16.1979 7.0911 15.4386 5.261 14.0888 3.9112C12.739 2.5614 10.9089 1.80215 9 1.8Z" fill="#D0371F"/>
<path d="M9 10.8C8.76131 10.8 8.53239 10.7052 8.36361 10.5364C8.19482 10.3676 8.1 10.1387 8.1 9.9V5.4C8.1 5.16131 8.19482 4.93239 8.36361 4.76361C8.53239 4.59482 8.76131 4.5 9 4.5C9.2387 4.5 9.46762 4.59482 9.6364 4.76361C9.80518 4.93239 9.9 5.16131 9.9 5.4V9.9C9.9 10.1387 9.80518 10.3676 9.6364 10.5364C9.46762 10.7052 9.2387 10.8 9 10.8Z" fill="#D0371F"/>
<path d="M9 13.5C9.49706 13.5 9.9 13.0971 9.9 12.6C9.9 12.1029 9.49706 11.7 9 11.7C8.50295 11.7 8.1 12.1029 8.1 12.6C8.1 13.0971 8.50295 13.5 9 13.5Z" fill="#D0371F"/>
</svg>
