<svg width="14" height="15" viewBox="0 0 14 15" fill="none" xmlns="http://www.w3.org/2000/svg">
<path d="M6.66667 10.8333C6.44565 10.8333 6.23369 10.7455 6.07741 10.5893C5.92113 10.433 5.83333 10.221 5.83333 10V0.833333C5.83333 0.61232 5.92113 0.400358 6.07741 0.244078C6.23369 0.0877973 6.44565 0 6.66667 0C6.88768 0 7.09964 0.0877973 7.25592 0.244078C7.4122 0.400358 7.5 0.61232 7.5 0.833333V10C7.5 10.221 7.4122 10.433 7.25592 10.5893C7.09964 10.7455 6.88768 10.8333 6.66667 10.8333Z" fill="#1C2024"/>
<path d="M6.66667 10.8333C6.44565 10.8333 6.23369 10.7455 6.07741 10.5893L2.74417 7.25583C2.66458 7.17896 2.60109 7.08701 2.55742 6.98534C2.51374 6.88367 2.49075 6.77432 2.48979 6.66367C2.48883 6.55302 2.50991 6.44328 2.55182 6.34087C2.59372 6.23846 2.65559 6.14541 2.73384 6.06717C2.81208 5.98893 2.90512 5.92705 3.00754 5.88515C3.10995 5.84325 3.21969 5.82216 3.33033 5.82312C3.44098 5.82409 3.55033 5.84707 3.652 5.89075C3.75367 5.93442 3.84563 5.99791 3.9225 6.0775L6.66667 8.82167L9.41083 6.0775C9.568 5.9257 9.7785 5.84171 9.997 5.8436C10.2155 5.8455 10.4245 5.93314 10.579 6.08765C10.7335 6.24216 10.8212 6.45117 10.8231 6.66967C10.825 6.88816 10.741 7.09866 10.5892 7.25583L7.25592 10.5893C7.09964 10.7455 6.88768 10.8333 6.66667 10.8333Z" fill="#1C2024"/>
<path d="M10.8333 15H2.5C1.83696 15 1.20107 14.7366 0.732233 14.2678C0.263392 13.7989 0 13.163 0 12.5V10C0 9.77899 0.0877975 9.56702 0.244078 9.41074C0.400358 9.25446 0.61232 9.16667 0.833333 9.16667C1.05435 9.16667 1.26631 9.25446 1.42259 9.41074C1.57887 9.56702 1.66667 9.77899 1.66667 10V12.5C1.66667 12.721 1.75446 12.933 1.91074 13.0893C2.06702 13.2455 2.27899 13.3333 2.5 13.3333H10.8333C11.0543 13.3333 11.2663 13.2455 11.4226 13.0893C11.5789 12.933 11.6667 12.721 11.6667 12.5V10C11.6667 9.77899 11.7545 9.56702 11.9107 9.41074C12.067 9.25446 12.279 9.16667 12.5 9.16667C12.721 9.16667 12.933 9.25446 13.0893 9.41074C13.2455 9.56702 13.3333 9.77899 13.3333 10V12.5C13.3333 13.163 13.0699 13.7989 12.6011 14.2678C12.1323 14.7366 11.4964 15 10.8333 15Z" fill="#1C2024"/>
</svg>
