<svg width="18" height="18" viewBox="0 0 18 18" fill="none" xmlns="http://www.w3.org/2000/svg">
<path d="M12.7618 15.9188C12.7618 15.9614 12.7458 16.0022 12.7173 16.0322C12.6887 16.0623 12.65 16.0792 12.6096 16.0792H1.97535C1.93498 16.0792 1.89626 16.0623 1.86771 16.0322C1.83916 16.0022 1.82312 15.9614 1.82312 15.9188V4.71491C1.82312 4.67237 1.83916 4.63157 1.86771 4.6015C1.89626 4.57142 1.93498 4.55452 1.97535 4.55452H8.51671L10.3398 2.63374H1.97535C1.4516 2.63425 0.949446 2.85368 0.5791 3.24386C0.208754 3.63404 0.000482717 4.1631 0 4.71491V15.9188C0.000482717 16.4706 0.208754 16.9997 0.5791 17.3899C0.949446 17.7801 1.4516 17.9995 1.97535 18H12.6096C13.1334 17.9995 13.6355 17.7801 14.0059 17.3899C14.3762 16.9997 14.5845 16.4706 14.585 15.9188V9.02706L12.7618 10.9478V15.9188Z" fill="#1C2024"/>
<path d="M17.1957 0.843569C16.6828 0.303432 15.9874 0 15.2623 0C14.5371 0 13.8417 0.303432 13.3288 0.843569L6.23781 8.31349C6.11071 8.44762 6.02412 8.61838 5.98895 8.80425L5.34448 12.2002C5.31744 12.3397 5.3202 12.4839 5.35256 12.6222C5.38493 12.7605 5.44608 12.8894 5.53159 12.9998C5.6171 13.1101 5.72483 13.199 5.84697 13.26C5.96912 13.321 6.10262 13.3527 6.23781 13.3527C6.29898 13.3525 6.36 13.3463 6.42012 13.3344L9.64248 12.6554C9.81901 12.6181 9.9811 12.5265 10.1083 12.3923L17.1984 4.92235C17.4528 4.65454 17.6545 4.33651 17.792 3.98646C17.9296 3.63641 18.0003 3.26122 18 2.88236C17.9997 2.5035 17.9286 2.12842 17.7906 1.77857C17.6525 1.42873 17.4504 1.111 17.1957 0.843569ZM15.9067 2.20156C15.9915 2.29076 16.0587 2.39668 16.1046 2.51327C16.1505 2.62986 16.1741 2.75483 16.1741 2.88104C16.1741 3.00725 16.1505 3.13222 16.1046 3.24881C16.0587 3.3654 15.9915 3.47132 15.9067 3.56052L15.4181 4.07433L14.1292 2.71633L14.6178 2.20156C14.7887 2.02152 15.0205 1.92037 15.2623 1.92037C15.504 1.92037 15.7358 2.02152 15.9067 2.20156ZM9.01168 10.8249L7.40005 11.1649L7.72274 9.46596L12.8402 4.07433L14.1292 5.43232L9.01168 10.8249Z" fill="#1C2024"/>
</svg>
