<svg width="16" height="20" viewBox="0 0 16 20" fill="none" xmlns="http://www.w3.org/2000/svg">
<path d="M14.066 0H5.828C5.027 0 4.273 0.312 3.707 0.879L0.879 3.707C0.312 4.273 0 5.027 0 5.829V18C0 19.103 0.867 20 1.934 20H14.067C15.133 20 16 19.103 16 18V2C16 0.897 15.133 0 14.066 0ZM5 2.414V5H2.414L5 2.414ZM14 18H2V7H5C6.103 7 7 6.103 7 5V2H14V18Z" fill="#6A737D"/>
<path d="M5.598 10.039L2.961 15.57C2.813 15.88 2.834 16.244 3.018 16.534C3.201 16.824 3.521 17 3.863 17H11.863C12.215 17 12.54 16.816 12.72 16.515C12.9 16.214 12.91 15.84 12.745 15.53L10.913 12.092C10.739 11.767 10.402 11.564 10.034 11.562C9.617 11.56 9.327 11.761 9.151 12.084L8.61 13.081L7.428 10.1C7.282 9.73 6.93 9.482 6.532 9.469C6.11 9.458 5.769 9.68 5.598 10.039Z" fill="#6A737D"/>
<path d="M10.5 9C11.3284 9 12 8.32843 12 7.5C12 6.67157 11.3284 6 10.5 6C9.67157 6 9 6.67157 9 7.5C9 8.32843 9.67157 9 10.5 9Z" fill="#6A737D"/>
</svg>
