<svg width="16" height="20" viewBox="0 0 16 20" fill="none" xmlns="http://www.w3.org/2000/svg">
<path d="M15.034 17C14.481 17 14.067 17.448 14.067 18L2.005 18.026C2.005 18.026 2 18.018 2 18C2 17.448 1.552 17 1 17C0.448 17 0 17.448 0 18C0 19.103 0.867 20 1.933 20H14.067C15.133 20 16 19.103 16 18C16 17.448 15.586 17 15.034 17Z" fill="#6A737D"/>
<path d="M14.067 0H5.829C5.027 0 4.273 0.312 3.707 0.879L0.879 3.707C0.312 4.273 0 5.027 0 5.829V7C0 7.552 0.448 8 1 8C1.552 8 2 7.552 2 7H5C6.103 7 7 6.103 7 5V2H14V7C14 7.552 14.448 8 15 8C15.552 8 16 7.552 16 7V2C16 0.897 15.133 0 14.067 0ZM5 5H2.414L5 2.414V5Z" fill="#6A737D"/>
<path d="M1 16C1.552 16 2 15.552 2 15V14H2.5C3.878 14 5 12.878 5 11.5C5 10.122 3.878 9 2.5 9H1C0.448 9 0 9.448 0 10V15C0 15.552 0.448 16 1 16ZM2 11H2.5C2.776 11 3 11.224 3 11.5C3 11.776 2.776 12 2.5 12H2V11Z" fill="#6A737D"/>
<path d="M8.375 16C9.822 16 11 14.822 11 13.375V11.625C11 10.178 9.822 9 8.375 9H7C6.448 9 6 9.448 6 10V15C6 15.552 6.448 16 7 16H8.375ZM8 11H8.375C8.72 11 9 11.28 9 11.625V13.375C9 13.72 8.72 14 8.375 14H8V11Z" fill="#6A737D"/>
<path d="M15 11C15.552 11 16 10.552 16 10C16 9.448 15.552 9 15 9H13C12.448 9 12 9.448 12 10V15C12 15.552 12.448 16 13 16C13.552 16 14 15.552 14 15V14H15C15.552 14 16 13.552 16 13C16 12.448 15.552 12 15 12H14V11H15Z" fill="#6A737D"/>
</svg>
