<svg width="20" height="18" viewBox="0 0 20 18" fill="none" xmlns="http://www.w3.org/2000/svg">
<path d="M1.40596 17.9141L19.406 9.91413C19.5828 9.83562 19.7331 9.70747 19.8386 9.54524C19.9441 9.383 20.0002 9.19365 20.0002 9.00013C20.0002 8.80662 19.9441 8.61726 19.8386 8.45502C19.7331 8.29279 19.5828 8.16464 19.406 8.08613L1.40596 0.0861294C1.23468 0.0100334 1.04545 -0.0163948 0.859877 0.00985878C0.674299 0.0361124 0.499836 0.113991 0.356382 0.234613C0.212929 0.355234 0.106262 0.513743 0.0485458 0.692061C-0.00917057 0.870379 -0.0156098 1.06133 0.0299587 1.24313L1.96896 9.00013L0.029958 16.7581C-0.0153702 16.9399 -0.00874976 17.1307 0.0490696 17.3088C0.106889 17.487 0.213578 17.6453 0.356988 17.7658C0.500398 17.8863 0.67476 17.9641 0.860215 17.9903C1.04567 18.0165 1.23477 17.9901 1.40596 17.9141ZM3.78096 10.0001L11 10.0001C11.2652 10.0001 11.5195 9.89477 11.7071 9.70724C11.8946 9.5197 12 9.26535 12 9.00013C12 8.73491 11.8946 8.48056 11.7071 8.29302C11.5195 8.10549 11.2652 8.00013 11 8.00013L3.78096 8.00013L2.46796 2.74713L16.538 9.00013L2.46796 15.2541L3.78096 10.0001Z" fill="#6A737D"/>
</svg>
