<svg width="20" height="20" viewBox="0 0 20 20" fill="none" xmlns="http://www.w3.org/2000/svg">
<path d="M10 17.5C8.51664 17.5 7.06659 17.0601 5.83323 16.236C4.59986 15.4119 3.63856 14.2406 3.07091 12.8701C2.50325 11.4997 2.35472 9.99168 2.64411 8.53683C2.9335 7.08197 3.64781 5.7456 4.6967 4.6967C5.7456 3.64781 7.08197 2.9335 8.53683 2.64411C9.99168 2.35472 11.4997 2.50325 12.8701 3.07091C14.2406 3.63856 15.4119 4.59986 16.236 5.83323C17.0601 7.06659 17.5 8.51664 17.5 10C17.4978 11.9885 16.7069 13.8948 15.3009 15.3009C13.8948 16.7069 11.9885 17.4978 10 17.5ZM10 4C8.81331 4 7.65328 4.3519 6.66658 5.01119C5.67989 5.67047 4.91085 6.60755 4.45673 7.7039C4.0026 8.80026 3.88378 10.0067 4.11529 11.1705C4.3468 12.3344 4.91825 13.4035 5.75736 14.2426C6.59648 15.0818 7.66558 15.6532 8.82946 15.8847C9.99335 16.1162 11.1997 15.9974 12.2961 15.5433C13.3925 15.0892 14.3295 14.3201 14.9888 13.3334C15.6481 12.3467 16 11.1867 16 10C15.9982 8.40925 15.3655 6.88417 14.2407 5.75934C13.1158 4.6345 11.5908 4.00179 10 4Z" fill="#0065FF"/>
<path d="M10 12.25C9.80109 12.25 9.61032 12.171 9.46967 12.0303C9.32902 11.8897 9.25 11.6989 9.25 11.5V10.4365C9.25 10.3355 9.27039 10.2356 9.30995 10.1426C9.34952 10.0497 9.40744 9.96574 9.48025 9.89575C9.55251 9.82533 9.63844 9.77049 9.73275 9.73463C9.82705 9.69877 9.92771 9.68264 10.0285 9.68725C10.1735 9.69251 10.3181 9.66841 10.4535 9.61641C10.589 9.56441 10.7125 9.48557 10.8167 9.38463C10.921 9.2837 11.0037 9.16274 11.0601 9.02903C11.1164 8.89531 11.1451 8.75159 11.1445 8.6065C11.156 8.30813 11.0486 8.0174 10.8458 7.79827C10.6429 7.57913 10.3614 7.44954 10.063 7.438C9.76463 7.42647 9.4739 7.53393 9.25477 7.73675C9.03563 7.93957 8.90604 8.22113 8.8945 8.5195C8.89213 8.61833 8.86997 8.71568 8.82932 8.8058C8.78868 8.89591 8.73038 8.97696 8.65787 9.04416C8.58536 9.11135 8.50011 9.16333 8.40717 9.19701C8.31423 9.23069 8.21548 9.24539 8.11675 9.24025C7.91819 9.23245 7.73084 9.14616 7.59585 9.00033C7.46085 8.85451 7.38925 8.66108 7.39675 8.4625C7.41805 7.98021 7.57193 7.51313 7.84147 7.11263C8.11102 6.71213 8.48579 6.39371 8.92458 6.1924C9.36336 5.99109 9.84916 5.91468 10.3286 5.97158C10.808 6.02847 11.2624 6.21646 11.6419 6.51489C12.0213 6.81331 12.3112 7.2106 12.4795 7.66306C12.6478 8.11553 12.6881 8.60565 12.5959 9.07953C12.5037 9.55341 12.2826 9.99269 11.957 10.3491C11.6313 10.7054 11.2137 10.9651 10.75 11.0995V11.5C10.75 11.6989 10.671 11.8897 10.5303 12.0303C10.3897 12.171 10.1989 12.25 10 12.25Z" fill="#0065FF"/>
<path d="M10 14.5C10.4142 14.5 10.75 14.1642 10.75 13.75C10.75 13.3358 10.4142 13 10 13C9.58579 13 9.25 13.3358 9.25 13.75C9.25 14.1642 9.58579 14.5 10 14.5Z" fill="#0065FF"/>
</svg>
