<svg width="14" height="17" viewBox="0 0 14 17" fill="none" xmlns="http://www.w3.org/2000/svg">
<path d="M11.7219 1.00662e-05H4.85686C4.52843 -0.000925334 4.20309 0.0633393 3.89968 0.189079C3.59628 0.314818 3.32085 0.499531 3.08936 0.73251L0.732695 3.08918C0.499616 3.32076 0.314845 3.59633 0.189103 3.89988C0.0633599 4.20344 -0.000851043 4.52894 0.000194759 4.85751V15C-0.00649532 15.4346 0.159406 15.854 0.461524 16.1665C0.763643 16.4789 1.17732 16.6588 1.61186 16.6667H11.7219C12.1564 16.6588 12.5701 16.4789 12.8722 16.1665C13.1743 15.854 13.3402 15.4346 13.3335 15V1.66668C13.3402 1.23212 13.1743 0.812637 12.8722 0.500208C12.5701 0.18778 12.1564 0.00790071 11.7219 1.00662e-05ZM4.16686 2.01168V4.16668H2.01186L4.16686 2.01168ZM1.66686 15V5.83334H4.16686C4.60889 5.83334 5.03281 5.65775 5.34537 5.34519C5.65793 5.03263 5.83353 4.6087 5.83353 4.16668V1.66668L11.6619 1.64834C11.6653 1.65384 11.667 1.66021 11.6669 1.66668L11.7219 15H1.66686Z" fill="#0065FF"/>
<path d="M9.22186 7.50001H4.02353C3.80251 7.50001 3.59055 7.58781 3.43427 7.74409C3.27799 7.90037 3.19019 8.11233 3.19019 8.33334C3.19019 8.55436 3.27799 8.76632 3.43427 8.9226C3.59055 9.07888 3.80251 9.16668 4.02353 9.16668H9.22186C9.44287 9.16668 9.65484 9.07888 9.81112 8.9226C9.9674 8.76632 10.0552 8.55436 10.0552 8.33334C10.0552 8.11233 9.9674 7.90037 9.81112 7.74409C9.65484 7.58781 9.44287 7.50001 9.22186 7.50001Z" fill="#0065FF"/>
<path d="M9.22186 10.8333H4.02353C3.80251 10.8333 3.59055 10.9211 3.43427 11.0774C3.27799 11.2337 3.19019 11.4457 3.19019 11.6667C3.19019 11.8877 3.27799 12.0997 3.43427 12.2559C3.59055 12.4122 3.80251 12.5 4.02353 12.5H9.22186C9.44287 12.5 9.65484 12.4122 9.81112 12.2559C9.9674 12.0997 10.0552 11.8877 10.0552 11.6667C10.0552 11.4457 9.9674 11.2337 9.81112 11.0774C9.65484 10.9211 9.44287 10.8333 9.22186 10.8333Z" fill="#0065FF"/>
</svg>
