<svg width="15" height="15" viewBox="0 0 15 15" fill="none" xmlns="http://www.w3.org/2000/svg">
<path d="M9.9381 15C9.49713 14.9982 9.05767 14.9485 8.62747 14.8517C6.61119 14.2831 4.79656 13.157 3.39248 11.6031C1.83703 10.1999 0.709902 8.38618 0.140928 6.37078C-0.0853866 5.36502 -0.0384505 4.31709 0.276872 3.33556C0.592195 2.35404 1.16443 1.47464 1.93428 0.788486C2.16927 0.53087 2.45725 0.327115 2.77847 0.191208C3.09968 0.0553006 3.44652 -0.00954116 3.79517 0.00113321C4.42611 0.0468788 5.01681 0.327906 5.45012 0.788486L6.61735 1.95493C7.08274 2.4213 7.34408 3.05306 7.34408 3.71169C7.34408 4.37032 7.08274 5.00208 6.61735 5.46845L6.03374 6.05167C5.88054 6.20533 5.79452 6.4134 5.79452 6.63031C5.79452 6.84722 5.88054 7.05529 6.03374 7.20895L7.78457 8.95863C7.93858 9.11157 8.14689 9.19741 8.36401 9.19741C8.58114 9.19741 8.78944 9.11157 8.94346 8.95863L9.52707 8.3754C9.99378 7.91007 10.6261 7.64874 11.2854 7.64874C11.9447 7.64874 12.577 7.91007 13.0437 8.3754L14.211 9.54185C14.6718 9.97458 14.953 10.5646 14.9988 11.1949C15.0096 11.5434 14.9448 11.8902 14.8088 12.2114C14.6728 12.5325 14.4689 12.8204 14.211 13.0554C13.6677 13.6519 13.0089 14.1319 12.2744 14.4662C11.5398 14.8005 10.745 14.9821 9.9381 15ZM3.68512 1.66916C3.46125 1.68978 3.25468 1.79823 3.11068 1.97077C2.54354 2.46138 2.11968 3.0961 1.88398 3.80774C1.64827 4.51938 1.60948 5.28147 1.7717 6.01334C2.27636 7.7172 3.24681 9.24651 4.57387 10.4292C5.7573 11.7554 7.28764 12.7252 8.99265 13.2295C9.72562 13.3909 10.4886 13.3515 11.201 13.1156C11.9135 12.8796 12.549 12.4558 13.0404 11.8889C13.1294 11.8157 13.2021 11.7248 13.2539 11.6219C13.3057 11.5191 13.3355 11.4065 13.3414 11.2915C13.3116 11.0748 13.2048 10.8761 13.0404 10.7316L11.8732 9.56518C11.7192 9.41224 11.5109 9.3264 11.2937 9.3264C11.0766 9.3264 10.8683 9.41224 10.7143 9.56518L10.1307 10.1484C9.66376 10.6133 9.03149 10.8744 8.37235 10.8744C7.71321 10.8744 7.08094 10.6133 6.61401 10.1484L4.86318 8.39873C4.39794 7.93212 4.13672 7.30026 4.13672 6.64156C4.13672 5.98286 4.39794 5.351 4.86318 4.88439L5.44679 4.30116C5.59993 4.14764 5.68593 3.93971 5.68593 3.72294C5.68593 3.50617 5.59993 3.29823 5.44679 3.14471L4.27957 1.97826C4.13482 1.81412 3.93609 1.70714 3.7193 1.67665L3.68512 1.66916Z" fill="#0065FF"/>
</svg>
