<svg width="17" height="14" viewBox="0 0 17 14" fill="none" xmlns="http://www.w3.org/2000/svg">
<path d="M15 0H1.66667C1.22464 0 0.800716 0.187301 0.488155 0.520699C0.175595 0.854097 0 1.30628 0 1.77778V11.5556C0 12.0271 0.175595 12.4792 0.488155 12.8126C0.800716 13.146 1.22464 13.3333 1.66667 13.3333H15C15.442 13.3333 15.8659 13.146 16.1785 12.8126C16.4911 12.4792 16.6667 12.0271 16.6667 11.5556V1.77778C16.6667 1.30628 16.4911 0.854097 16.1785 0.520699C15.8659 0.187301 15.442 0 15 0ZM14.5442 1.77778L8.36917 7.36356L2.13 1.77778H14.5442ZM1.66667 11.5556V3.68444L7.33333 8.75111C7.61845 8.97985 7.96574 9.10312 8.3225 9.10222C8.70122 9.10063 9.06906 8.96703 9.37 8.72178L15 3.68444V11.5556H1.66667Z" fill="#0065FF"/>
</svg>
