<svg width="14" height="17" viewBox="0 0 14 17" fill="none" xmlns="http://www.w3.org/2000/svg">
<path d="M6.66666 0C4.89913 0.00181551 3.20454 0.679834 1.95471 1.88528C0.704876 3.09073 0.00189414 4.72515 1.17829e-05 6.42992C-0.00268236 7.80523 0.456699 9.14436 1.30934 10.2467C1.32546 10.2737 1.34327 10.2998 1.36267 10.3247L5.95555 16.3191C6.03821 16.4269 6.14592 16.5145 6.27003 16.5749C6.39415 16.6352 6.53122 16.6667 6.67022 16.6667C6.80922 16.6667 6.94628 16.6352 7.0704 16.5749C7.19452 16.5145 7.30223 16.4269 7.38488 16.3191L11.9742 10.3247C11.9936 10.3001 12.0114 10.2743 12.0275 10.2476C12.8789 9.14447 13.337 7.8051 13.3333 6.42992C13.3314 4.72515 12.6284 3.09073 11.3786 1.88528C10.1288 0.679834 8.43419 0.00181551 6.66666 0ZM10.5431 9.29338C10.5186 9.32448 10.4964 9.35713 10.4764 9.39111L6.66666 14.3636L2.85778 9.39111C2.83724 9.35703 2.81469 9.32411 2.79023 9.29252C2.13265 8.47316 1.77646 7.46606 1.77779 6.42992C1.77779 5.17935 2.29286 3.98 3.2097 3.09572C4.12655 2.21143 5.37005 1.71464 6.66666 1.71464C7.96327 1.71464 9.20678 2.21143 10.1236 3.09572C11.0405 3.98 11.5555 5.17935 11.5555 6.42992C11.5571 7.46635 11.2009 8.47379 10.5431 9.29338Z" fill="#0065FF"/>
<path d="M6.66666 3.10522C5.96344 3.10522 5.27601 3.30635 4.69131 3.68316C4.1066 4.05998 3.65088 4.59556 3.38176 5.22218C3.11265 5.8488 3.04224 6.53832 3.17943 7.20353C3.31663 7.86875 3.65526 8.47979 4.15251 8.95939C4.64976 9.43898 5.2833 9.76559 5.97301 9.89791C6.66272 10.0302 7.37762 9.96232 8.02731 9.70276C8.677 9.44321 9.2323 9.00367 9.62299 8.43972C10.0137 7.87578 10.2222 7.21276 10.2222 6.53451C10.221 5.62536 9.84605 4.75376 9.17951 4.11089C8.51297 3.46802 7.60929 3.10636 6.66666 3.10522ZM6.66666 8.24916C6.31505 8.24916 5.97134 8.14859 5.67898 7.96019C5.38663 7.77178 5.15877 7.50399 5.02421 7.19068C4.88966 6.87737 4.85445 6.53261 4.92305 6.2C4.99164 5.86739 5.16096 5.56187 5.40959 5.32207C5.65821 5.08228 5.97498 4.91897 6.31984 4.85281C6.66469 4.78665 7.02214 4.82061 7.34699 4.95039C7.67183 5.08016 7.94948 5.29993 8.14483 5.58191C8.34017 5.86388 8.44444 6.19539 8.44444 6.53451C8.44444 6.98926 8.25713 7.42539 7.92374 7.74695C7.59034 8.06851 7.13816 8.24916 6.66666 8.24916Z" fill="#0065FF"/>
</svg>
