<svg width="15" height="15" viewBox="0 0 15 15" fill="none" xmlns="http://www.w3.org/2000/svg">
<path d="M14.9424 5.64178C14.8769 5.42832 14.7551 5.23845 14.5908 5.09397C14.4266 4.94948 14.2266 4.85625 14.0139 4.82497L10.2257 4.25069L8.53146 0.669673C8.43651 0.468682 8.28953 0.29943 8.10715 0.181078C7.92476 0.0627262 7.71426 0 7.49947 0C7.28468 0 7.07418 0.0627262 6.89179 0.181078C6.70941 0.29943 6.56242 0.468682 6.46748 0.669673L4.77325 4.25069L0.985046 4.82497C0.772638 4.85729 0.573124 4.95093 0.409033 5.09529C0.244942 5.23966 0.122811 5.42901 0.0564298 5.64197C-0.009951 5.85492 -0.0179371 6.083 0.0333733 6.30044C0.0846837 6.51787 0.193247 6.71602 0.346804 6.87249L3.08877 9.66016L2.44153 13.5956C2.40463 13.8165 2.42786 14.0437 2.50858 14.2515C2.58931 14.4593 2.72428 14.6394 2.89818 14.7711C3.07207 14.9029 3.27791 14.9812 3.4923 14.997C3.7067 15.0128 3.92105 14.9656 4.11101 14.8607L7.49947 13.0025L10.8879 14.8607C11.078 14.9647 11.2921 15.0111 11.5061 14.9949C11.7201 14.9786 11.9255 14.9003 12.0991 14.7687C12.2727 14.6372 12.4076 14.4576 12.4886 14.2503C12.5696 14.043 12.5934 13.8163 12.5574 13.5956L11.9102 9.66016L14.6521 6.87171C14.8065 6.7159 14.9155 6.51786 14.9669 6.30031C15.0182 6.08276 15.0097 5.85452 14.9424 5.64178Z" fill="#E7A112"/>
</svg>
