<svg width="15" height="15" viewBox="0 0 15 15" fill="none" xmlns="http://www.w3.org/2000/svg">
<path d="M3.57497 15C3.40755 14.9995 3.24223 14.961 3.09053 14.8871C2.93883 14.8132 2.80437 14.7057 2.69651 14.5721C2.58866 14.4386 2.50999 14.2821 2.46598 14.1136C2.42197 13.9451 2.41367 13.7686 2.44167 13.5964L3.08895 9.66016L0.346824 6.87406C0.193258 6.71758 0.0846887 6.51944 0.0333753 6.302C-0.0179381 6.08456 -0.00995158 5.85649 0.0564331 5.64353C0.122818 5.43058 0.244956 5.24123 0.409057 5.09686C0.573157 4.95249 0.772683 4.85886 0.985103 4.82653L4.77353 4.25225L6.46786 0.669674C6.56281 0.468682 6.7098 0.299431 6.89219 0.181078C7.07459 0.0627262 7.2851 0 7.4999 0C7.71471 0 7.92522 0.0627262 8.10762 0.181078C8.29001 0.299431 8.437 0.468682 8.53195 0.669674L10.2263 4.25069L14.0147 4.82497C14.2271 4.85713 14.4267 4.95064 14.5908 5.09492C14.755 5.2392 14.8772 5.42851 14.9436 5.64144C15.01 5.85436 15.0179 6.08242 14.9666 6.29983C14.9152 6.51724 14.8066 6.71533 14.653 6.87171L11.9109 9.66016L12.5581 13.5956C12.5944 13.8163 12.5708 14.0433 12.4899 14.2507C12.409 14.4582 12.2741 14.6379 12.1003 14.7695C11.9266 14.9012 11.7211 14.9795 11.5069 14.9956C11.2928 15.0117 11.0786 14.965 10.8886 14.8607L7.4999 13.0025L4.11125 14.8607C3.946 14.9519 3.76193 14.9997 3.57497 15ZM1.90165 6.26692L4.26725 8.67356C4.401 8.8093 4.50101 8.97699 4.55864 9.16212C4.61628 9.34725 4.62979 9.54425 4.59802 9.73605L4.03999 13.1332L6.96513 11.5285C7.13024 11.4387 7.31369 11.3918 7.4999 11.3918C7.68611 11.3918 7.86957 11.4387 8.03468 11.5285L10.9598 13.1324L10.401 9.73605C10.3695 9.54412 10.3833 9.34707 10.4412 9.16194C10.4991 8.97681 10.5994 8.80919 10.7333 8.67356L13.0982 6.2677L9.82876 5.77245C9.64429 5.74443 9.46909 5.67013 9.3182 5.55593C9.16731 5.44173 9.04524 5.29104 8.96247 5.1168L7.4999 2.02322L6.03809 5.11367C5.95545 5.28817 5.83345 5.43913 5.68256 5.55361C5.53167 5.66808 5.3564 5.74264 5.1718 5.77088L1.90165 6.26692Z" fill="#6A737D"/>
</svg>
