<svg width="15" height="15" viewBox="0 0 15 15" fill="none" xmlns="http://www.w3.org/2000/svg">
<path d="M14.25 6.83007V5.09429C14.25 4.69011 14.092 4.30249 13.8107 4.01669C13.5294 3.73089 13.1478 3.57033 12.75 3.57033H12.0863L9.516 0.287732C9.39208 0.129496 9.21136 0.0277558 9.0136 0.00489205C8.81585 -0.0179717 8.61725 0.0399143 8.4615 0.165816C8.30575 0.291717 8.20561 0.475321 8.18311 0.676236C8.1606 0.877152 8.21758 1.07892 8.3415 1.23716L10.1685 3.57033H9.08625L6.516 0.287732C6.45297 0.207877 6.37485 0.141655 6.28622 0.0929713C6.1976 0.044288 6.10028 0.01413 6 0.00427637C5.79865 -0.0141624 5.59831 0.0491196 5.44275 0.180293L1.488 3.57033C1.09226 3.57355 0.713803 3.73553 0.435089 4.02098C0.156374 4.30643 -1.26636e-05 4.69221 7.69113e-10 5.09429V13.476C7.69113e-10 13.8802 0.158035 14.2678 0.43934 14.5536C0.720644 14.8394 1.10218 15 1.5 15H12.75C13.1478 15 13.5294 14.8394 13.8107 14.5536C14.092 14.2678 14.25 13.8802 14.25 13.476V11.7403C14.4773 11.6076 14.6662 11.4165 14.7979 11.1862C14.9295 10.9559 14.9992 10.6945 15 10.4281V8.1422C14.9992 7.87588 14.9295 7.61446 14.7979 7.38415C14.6662 7.15385 14.4773 6.96277 14.25 6.83007ZM13.5 8.1422V10.4281H9.75C9.55109 10.4281 9.36032 10.3479 9.21967 10.205C9.07902 10.0621 9 9.86825 9 9.66616V8.90418C9 8.70209 9.07902 8.50828 9.21967 8.36538C9.36032 8.22248 9.55109 8.1422 9.75 8.1422H13.5ZM5.82225 1.85055L7.16925 3.57033H3.816L5.82225 1.85055ZM1.5 13.476V5.09429H12.75V6.61824H9.75C9.15326 6.61824 8.58097 6.85908 8.15901 7.28778C7.73705 7.71647 7.5 8.29791 7.5 8.90418V9.66616C7.5 10.2724 7.73705 10.8539 8.15901 11.2826C8.58097 11.7113 9.15326 11.9521 9.75 11.9521H12.75V13.476H1.5Z" fill="#0065FF"/>
<path d="M10.875 10.0471C11.2892 10.0471 11.625 9.70599 11.625 9.28517C11.625 8.86434 11.2892 8.52319 10.875 8.52319C10.4608 8.52319 10.125 8.86434 10.125 9.28517C10.125 9.70599 10.4608 10.0471 10.875 10.0471Z" fill="#0065FF"/>
</svg>
